<?xml version="1.0" encoding="UTF-8" standalone="no"?>
<!DOCTYPE svg PUBLIC "-//W3C//DTD SVG 1.1//EN"
 "http://www.w3.org/Graphics/SVG/1.1/DTD/svg11.dtd">
<!-- Generated by graphviz version 2.43.0 (0)
 -->
<!-- Title: solution_x8_nodes Pages: 1 -->
<svg width="336pt" height="551pt"
 viewBox="0.00 0.00 335.50 551.00" xmlns="http://www.w3.org/2000/svg" xmlns:xlink="http://www.w3.org/1999/xlink">
<g id="graph0" class="graph" transform="scale(1 1) rotate(0) translate(4 547)">
<title>solution_x8_nodes</title>
<polygon fill="white" stroke="transparent" points="-4,4 -4,-547 331.5,-547 331.5,4 -4,4"/>
<g id="clust1" class="cluster">
<title>cluster_after pruning</title>
<polygon fill="none" stroke="black" points="8,-142 8,-535 254,-535 254,-142 8,-142"/>
<text text-anchor="start" x="83" y="-519.8" font-family="italic" font-size="14.00">after pruning</text>
</g>
<!-- a -->
<g id="node1" class="node">
<title>a</title>
<g id="a_node1"><a xlink:title="(input)&#10;(to evict)&#10;(evicted)">
<polygon fill="none" stroke="#006666" stroke-width="3" stroke-dasharray="5,2" points="178,-480.44 205,-468 232,-480.44 231.97,-500.56 178.03,-500.56 178,-480.44"/>
<text text-anchor="start" x="194" y="-482.3" font-family="Times,serif" font-size="14.00" fill="#006666">a</text>
<g id="a_node1_0"><a xlink:href="https://graphtik.readthedocs.io/en/latest/arch.html#term-steps" xlink:title="computation order" target="_top">
<path fill="#00bbbb" stroke="transparent" d="M209.33,-475C209.33,-475 213.67,-475 213.67,-475 215.83,-475 218,-477.17 218,-479.33 218,-479.33 218,-492.67 218,-492.67 218,-494.83 215.83,-497 213.67,-497 213.67,-497 209.33,-497 209.33,-497 207.17,-497 205,-494.83 205,-492.67 205,-492.67 205,-479.33 205,-479.33 205,-477.17 207.17,-475 209.33,-475"/>
<text text-anchor="start" x="207" y="-481.8" font-family="monospace" font-weight="bold" font-size="14.00" fill="white">3</text>
</a>
</g>
</a>
</g>
</g>
<!-- mul -->
<g id="node3" class="node">
<title>mul</title>
<g id="a_node3"><a xlink:title="mul">
<path fill="wheat" stroke="transparent" d="M28.5,-381C28.5,-381 213.5,-381 213.5,-381 219.5,-381 225.5,-387 225.5,-393 225.5,-393 225.5,-420 225.5,-420 225.5,-426 219.5,-432 213.5,-432 213.5,-432 28.5,-432 28.5,-432 22.5,-432 16.5,-426 16.5,-420 16.5,-420 16.5,-393 16.5,-393 16.5,-387 22.5,-381 28.5,-381"/>
<g id="a_node3_1"><a xlink:title="FnOp(name=&#39;mul&#39;, needs=[&#39;a&#39;, &#39;b&#39;], provides=[&#39;ab&#39;], fn=&#39;mul&#39;)" target="_top">
<polyline fill="none" stroke="black" points="18,-400.5 145,-400.5 "/>
<text text-anchor="start" x="21" y="-412.8" font-family="Times,serif" font-weight="bold" font-size="14.00">OP:</text>
<text text-anchor="start" x="49" y="-412.8" font-family="Times,serif" font-size="14.00"> </text>
<text text-anchor="start" x="54" y="-412.8" font-family="Times,serif" font-style="italic" font-size="14.00">mul</text>
</a>
</g>
<polyline fill="none" stroke="black" points="145,-400.5 225,-400.5 "/>
<g id="a_node3_2"><a xlink:href="https://graphtik.readthedocs.io/en/latest/arch.html#term-steps" xlink:title="computation order" target="_top">
<path fill="#00bbbb" stroke="transparent" d="M183,-404.5C183,-404.5 187,-404.5 187,-404.5 189,-404.5 191,-406.5 191,-408.5 191,-408.5 191,-422.5 191,-422.5 191,-424.5 189,-426.5 187,-426.5 187,-426.5 183,-426.5 183,-426.5 181,-426.5 179,-424.5 179,-422.5 179,-422.5 179,-408.5 179,-408.5 179,-406.5 181,-404.5 183,-404.5"/>
<text text-anchor="start" x="180.5" y="-411.3" font-family="monospace" font-weight="bold" font-size="14.00" fill="white">0</text>
</a>
</g>
<g id="a_node3_3"><a xlink:title="Same as a * b." target="_top">
<text text-anchor="start" x="20" y="-388.3" font-family="Times,serif" font-weight="bold" font-size="14.00">FN:</text>
<text text-anchor="start" x="48" y="-388.3" font-family="Times,serif" font-size="14.00"> &lt;built&#45;in function mul&gt;</text>
</a>
</g>
<path fill="none" stroke="black" d="M28.5,-381C28.5,-381 213.5,-381 213.5,-381 219.5,-381 225.5,-387 225.5,-393 225.5,-393 225.5,-420 225.5,-420 225.5,-426 219.5,-432 213.5,-432 213.5,-432 28.5,-432 28.5,-432 22.5,-432 16.5,-426 16.5,-420 16.5,-420 16.5,-393 16.5,-393 16.5,-387 22.5,-381 28.5,-381"/>
</a>
</g>
</g>
<!-- a&#45;&gt;mul -->
<g id="edge1" class="edge">
<title>a:s&#45;&gt;mul:n</title>
<path fill="none" stroke="black" d="M202.58,-459.03C188.8,-436.38 121,-468.65 121,-432"/>
<polygon fill="black" stroke="black" points="201.6,-469.83 202.64,-459.28 208.4,-468.17 201.6,-469.83"/>
</g>
<!-- sub -->
<g id="node5" class="node">
<title>sub</title>
<g id="a_node5"><a xlink:title="sub">
<path fill="wheat" stroke="transparent" d="M44.5,-222C44.5,-222 227.5,-222 227.5,-222 233.5,-222 239.5,-228 239.5,-234 239.5,-234 239.5,-261 239.5,-261 239.5,-267 233.5,-273 227.5,-273 227.5,-273 44.5,-273 44.5,-273 38.5,-273 32.5,-267 32.5,-261 32.5,-261 32.5,-234 32.5,-234 32.5,-228 38.5,-222 44.5,-222"/>
<g id="a_node5_4"><a xlink:title="FnOp(name=&#39;sub&#39;, needs=[&#39;a&#39;, &#39;ab&#39;], provides=[&#39;a_minus_ab&#39;], fn=&#39;sub&#39;)" target="_top">
<polyline fill="none" stroke="black" points="34,-241.5 159,-241.5 "/>
<text text-anchor="start" x="37" y="-253.8" font-family="Times,serif" font-weight="bold" font-size="14.00">OP:</text>
<text text-anchor="start" x="65" y="-253.8" font-family="Times,serif" font-size="14.00"> </text>
<text text-anchor="start" x="70" y="-253.8" font-family="Times,serif" font-style="italic" font-size="14.00">sub</text>
</a>
</g>
<polyline fill="none" stroke="black" points="159,-241.5 239,-241.5 "/>
<g id="a_node5_5"><a xlink:href="https://graphtik.readthedocs.io/en/latest/arch.html#term-steps" xlink:title="computation order" target="_top">
<path fill="#00bbbb" stroke="transparent" d="M197,-245.5C197,-245.5 201,-245.5 201,-245.5 203,-245.5 205,-247.5 205,-249.5 205,-249.5 205,-263.5 205,-263.5 205,-265.5 203,-267.5 201,-267.5 201,-267.5 197,-267.5 197,-267.5 195,-267.5 193,-265.5 193,-263.5 193,-263.5 193,-249.5 193,-249.5 193,-247.5 195,-245.5 197,-245.5"/>
<text text-anchor="start" x="194.5" y="-252.3" font-family="monospace" font-weight="bold" font-size="14.00" fill="white">2</text>
</a>
</g>
<g id="a_node5_6"><a xlink:title="Same as a &#45; b." target="_top">
<text text-anchor="start" x="36" y="-229.3" font-family="Times,serif" font-weight="bold" font-size="14.00">FN:</text>
<text text-anchor="start" x="64" y="-229.3" font-family="Times,serif" font-size="14.00"> &lt;built&#45;in function sub&gt;</text>
</a>
</g>
<path fill="none" stroke="black" d="M44.5,-222C44.5,-222 227.5,-222 227.5,-222 233.5,-222 239.5,-228 239.5,-234 239.5,-234 239.5,-261 239.5,-261 239.5,-267 233.5,-273 227.5,-273 227.5,-273 44.5,-273 44.5,-273 38.5,-273 32.5,-267 32.5,-261 32.5,-261 32.5,-234 32.5,-234 32.5,-228 38.5,-222 44.5,-222"/>
</a>
</g>
</g>
<!-- a&#45;&gt;sub -->
<g id="edge2" class="edge">
<title>a:s&#45;&gt;sub:n</title>
<path fill="none" stroke="black" d="M207.33,-459.12C213.35,-448.52 229.31,-448.06 235,-432 242.57,-410.64 243.22,-402.12 235,-381 229.1,-365.83 136,-289.28 136,-273"/>
<polygon fill="black" stroke="black" points="201.59,-468.19 207.3,-459.27 208.41,-469.81 201.59,-468.19"/>
</g>
<!-- b -->
<g id="node2" class="node">
<title>b</title>
<g id="a_node2"><a xlink:title="(input)&#10;(to evict)&#10;(evicted)">
<polygon fill="none" stroke="#006666" stroke-width="3" stroke-dasharray="5,2" points="94,-480.44 121,-468 148,-480.44 147.97,-500.56 94.03,-500.56 94,-480.44"/>
<text text-anchor="start" x="110" y="-482.3" font-family="Times,serif" font-size="14.00" fill="#006666">b</text>
<g id="a_node2_7"><a xlink:href="https://graphtik.readthedocs.io/en/latest/arch.html#term-steps" xlink:title="computation order" target="_top">
<path fill="#00bbbb" stroke="transparent" d="M126.33,-475C126.33,-475 130.67,-475 130.67,-475 132.83,-475 135,-477.17 135,-479.33 135,-479.33 135,-492.67 135,-492.67 135,-494.83 132.83,-497 130.67,-497 130.67,-497 126.33,-497 126.33,-497 124.17,-497 122,-494.83 122,-492.67 122,-492.67 122,-479.33 122,-479.33 122,-477.17 124.17,-475 126.33,-475"/>
<text text-anchor="start" x="124" y="-481.8" font-family="monospace" font-weight="bold" font-size="14.00" fill="white">1</text>
</a>
</g>
</a>
</g>
</g>
<!-- b&#45;&gt;mul -->
<g id="edge3" class="edge">
<title>b:s&#45;&gt;mul:n</title>
<path fill="none" stroke="black" d="M121,-458.87C121,-449.84 121,-444.46 121,-432"/>
<polygon fill="black" stroke="black" points="117.5,-469 121,-459 124.5,-469 117.5,-469"/>
</g>
<!-- ab -->
<g id="node4" class="node">
<title>ab</title>
<g id="a_node4"><a xlink:title="(to evict)&#10;(evicted)">
<polygon fill="none" stroke="#006666" stroke-width="3" stroke-dasharray="5,2" points="153,-345 99,-345 99,-309 153,-309 153,-345"/>
<text text-anchor="start" x="111" y="-323.3" font-family="Times,serif" font-size="14.00" fill="#006666">ab</text>
<g id="a_node4_8"><a xlink:href="https://graphtik.readthedocs.io/en/latest/arch.html#term-steps" xlink:title="computation order" target="_top">
<path fill="#00bbbb" stroke="transparent" d="M135.33,-316C135.33,-316 139.67,-316 139.67,-316 141.83,-316 144,-318.17 144,-320.33 144,-320.33 144,-333.67 144,-333.67 144,-335.83 141.83,-338 139.67,-338 139.67,-338 135.33,-338 135.33,-338 133.17,-338 131,-335.83 131,-333.67 131,-333.67 131,-320.33 131,-320.33 131,-318.17 133.17,-316 135.33,-316"/>
<text text-anchor="start" x="133" y="-322.8" font-family="monospace" font-weight="bold" font-size="14.00" fill="white">4</text>
</a>
</g>
</a>
</g>
</g>
<!-- mul&#45;&gt;ab -->
<g id="edge4" class="edge">
<title>mul:s&#45;&gt;ab:n</title>
<path fill="none" stroke="black" d="M121,-381C121,-368.88 123.81,-363.78 125.22,-355.17"/>
<polygon fill="black" stroke="black" points="128.72,-355.24 126,-345 121.74,-354.7 128.72,-355.24"/>
</g>
<!-- ab&#45;&gt;sub -->
<g id="edge5" class="edge">
<title>ab:s&#45;&gt;sub:n</title>
<path fill="none" stroke="black" d="M127.48,-298.97C130.26,-290.23 136,-285.58 136,-273"/>
<polygon fill="black" stroke="black" points="122.54,-308.49 127.46,-299.11 129.46,-309.51 122.54,-308.49"/>
</g>
<!-- a_minus_ab -->
<g id="node6" class="node">
<title>a_minus_ab</title>
<g id="a_node6"><a xlink:title="(output)&#10;(int) &#45;8">
<polygon fill="wheat" stroke="black" points="163,-173.56 136,-186 109,-173.56 109.03,-153.44 162.97,-153.44 163,-173.56"/>
<text text-anchor="start" x="95" y="-163.8" font-family="Times,serif" font-size="14.00">a_minus_ab</text>
</a>
</g>
</g>
<!-- sub&#45;&gt;a_minus_ab -->
<g id="edge6" class="edge">
<title>sub:s&#45;&gt;a_minus_ab:n</title>
<path fill="none" stroke="black" d="M136,-222C136,-210 136,-204.75 136,-196.12"/>
<polygon fill="black" stroke="black" points="139.5,-196 136,-186 132.5,-196 139.5,-196"/>
</g>
<!-- abs qubed -->
<g id="node7" class="node">
<title>abs qubed</title>
<g id="a_node7"><a xlink:title="abs qubed">
<g id="a_node7_9"><a xlink:title="FnOp(name=&#39;abs qubed&#39;, needs=[&#39;a_minus_ab&#39;], provides=[&#39;abs_a_minus_ab_cubed&#39;], fn=&#39;abs_qubed&#39;)" target="_top">
<polyline fill="none" stroke="#d3d3d3" points="46,-92 189,-92 "/>
<text text-anchor="start" x="49" y="-99.8" font-family="Times,serif" font-weight="bold" font-size="14.00" fill="#d3d3d3">OP:</text>
<text text-anchor="start" x="77" y="-99.8" font-family="Times,serif" font-size="14.00" fill="#d3d3d3"> </text>
<text text-anchor="start" x="82" y="-99.8" font-family="Times,serif" font-style="italic" font-size="14.00" fill="#d3d3d3">abs qubed</text>
</a>
</g>
<polyline fill="none" stroke="#d3d3d3" points="189,-92 226,-92 "/>
<g id="a_node7_10"><a xlink:title="@operation(name=&quot;abs qubed&quot;,&#10; &#160;&#160;&#160;&#160;&#160;&#160;&#160;&#160;&#160;&#160;needs=[&quot;a_minus_ab&quot;],&#10; &#160;&#160;&#160;&#160;&#160;&#160;&#160;&#160;&#160;&#160;provides=[&quot;abs_a_minus_ab_cubed&quot;])&#10;def abs_qubed(a):&#10; &#160;&#160;&#160;return abs(a) ** 3" target="_top">
<text text-anchor="start" x="48" y="-79.8" font-family="Times,serif" font-weight="bold" font-size="14.00" fill="#d3d3d3">FN:</text>
<text text-anchor="start" x="76" y="-79.8" font-family="Times,serif" font-size="14.00" fill="#d3d3d3"> __main__.abs_qubed</text>
</a>
</g>
<path fill="none" stroke="#d3d3d3" d="M57,-72C57,-72 215,-72 215,-72 221,-72 227,-78 227,-84 227,-84 227,-102 227,-102 227,-108 221,-114 215,-114 215,-114 57,-114 57,-114 51,-114 45,-108 45,-102 45,-102 45,-84 45,-84 45,-78 51,-72 57,-72"/>
</a>
</g>
</g>
<!-- a_minus_ab&#45;&gt;abs qubed -->
<g id="edge7" class="edge">
<title>a_minus_ab:s&#45;&gt;abs qubed:n</title>
<path fill="none" stroke="black" d="M136,-141.89C136,-132.44 136,-126.93 136,-114"/>
<polygon fill="black" stroke="black" points="132.5,-152 136,-142 139.5,-152 132.5,-152"/>
</g>
<!-- abs_a_minus_ab_cubed -->
<g id="node8" class="node">
<title>abs_a_minus_ab_cubed</title>
<g id="a_node8"><a xlink:title="(pruned)">
<polygon fill="none" stroke="#d3d3d3" points="163,-36 109,-36 109,0 163,0 163,-36"/>
<text text-anchor="start" x="54" y="-13.8" font-family="Times,serif" font-size="14.00" fill="#d3d3d3">abs_a_minus_ab_cubed</text>
</a>
</g>
</g>
<!-- abs qubed&#45;&gt;abs_a_minus_ab_cubed -->
<g id="edge8" class="edge">
<title>abs qubed:s&#45;&gt;abs_a_minus_ab_cubed:n</title>
<path fill="none" stroke="#d3d3d3" d="M136,-72C136,-60 136,-54.75 136,-46.12"/>
<polygon fill="#d3d3d3" stroke="#d3d3d3" points="139.5,-46 136,-36 132.5,-46 139.5,-46"/>
</g>
<!-- legend -->
<g id="node9" class="node">
<title>legend</title>
<g id="a_node9"><a xlink:href="https://graphtik.readthedocs.io/en/latest/_images/GraphtikLegend.svg" xlink:title="legend" target="_blank">
<polygon fill="yellow" stroke="black" points="327.5,-504 262.5,-504 262.5,-500 258.5,-500 258.5,-496 262.5,-496 262.5,-476 258.5,-476 258.5,-472 262.5,-472 262.5,-468 327.5,-468 327.5,-504"/>
<polyline fill="none" stroke="black" points="262.5,-500 266.5,-500 266.5,-496 262.5,-496 "/>
<polyline fill="none" stroke="black" points="262.5,-476 266.5,-476 266.5,-472 262.5,-472 "/>
<text text-anchor="middle" x="295" y="-482.3" font-family="Times,serif" font-size="14.00">legend</text>
</a>
</g>
</g>
</g>
</svg>
