<?xml version="1.0" encoding="UTF-8" standalone="no"?>
<!DOCTYPE svg PUBLIC "-//W3C//DTD SVG 1.1//EN"
 "http://www.w3.org/Graphics/SVG/1.1/DTD/svg11.dtd">
<!-- Generated by graphviz version 2.43.0 (0)
 -->
<!-- Title: %3 Pages: 1 -->
<svg width="497pt" height="502pt"
 viewBox="0.00 0.00 497.17 502.00" xmlns="http://www.w3.org/2000/svg" xmlns:xlink="http://www.w3.org/1999/xlink">
<g id="graph0" class="graph" transform="scale(1 1) rotate(0) translate(4 498)">
<title>%3</title>
<polygon fill="white" stroke="transparent" points="-4,4 -4,-498 493.17,-498 493.17,4 -4,4"/>
<text text-anchor="middle" x="244.59" y="-478.8" font-family="Times,serif" font-size="14.00">graphtik&#45;v4.1.0 flowchart</text>
<g id="clust1" class="cluster">
<title>cluster_compute</title>
<g id="a_clust1"><a xlink:href="#term-compute" xlink:title="process, NetOp&#39;s method">
<polygon fill="none" stroke="black" stroke-dasharray="5,2" points="147.67,-44 147.67,-263 395.67,-263 395.67,-44 147.67,-44"/>
<text text-anchor="middle" x="271.67" y="-51.8" font-family="bold" font-size="14.00">compute</text>
</a>
</g>
</g>
<!-- operations -->
<g id="node1" class="node">
<title>operations</title>
<g id="a_node1"><a xlink:href="#term-operation" xlink:title="class">
<polygon fill="none" stroke="black" points="175.51,-471 35.78,-471 -0.17,-435 139.56,-435 175.51,-471"/>
<text text-anchor="middle" x="87.67" y="-449.3" font-family="italic" font-size="14.00">operations</text>
</a>
</g>
</g>
<!-- compose -->
<g id="node2" class="node">
<title>compose</title>
<g id="a_node2"><a xlink:href="#term-composition" xlink:title="phase">
<ellipse fill="none" stroke="black" cx="87.67" cy="-381" rx="51.99" ry="18"/>
<text text-anchor="middle" x="87.67" y="-377.3" font-family="italic" font-size="14.00">compose</text>
</a>
</g>
</g>
<!-- operations&#45;&gt;compose -->
<g id="edge1" class="edge">
<title>operations&#45;&gt;compose</title>
<path fill="none" stroke="black" d="M87.67,-434.7C87.67,-426.98 87.67,-417.71 87.67,-409.11"/>
<polygon fill="black" stroke="black" points="87.67,-399.1 92.17,-409.1 87.67,-404.1 87.67,-409.1 87.67,-409.1 87.67,-409.1 87.67,-404.1 83.17,-409.1 87.67,-399.1 87.67,-399.1"/>
</g>
<!-- network -->
<g id="node3" class="node">
<title>network</title>
<g id="a_node3"><a xlink:href="#term-network" xlink:title="class">
<polygon fill="none" stroke="black" points="160.02,-327 44.93,-327 15.32,-291 130.41,-291 160.02,-327"/>
<text text-anchor="middle" x="87.67" y="-305.3" font-family="italic" font-size="14.00">network</text>
</a>
</g>
</g>
<!-- compose&#45;&gt;network -->
<g id="edge2" class="edge">
<title>compose&#45;&gt;network</title>
<path fill="none" stroke="black" d="M87.67,-362.7C87.67,-354.98 87.67,-345.71 87.67,-337.11"/>
<polygon fill="black" stroke="black" points="87.67,-327.1 92.17,-337.1 87.67,-332.1 87.67,-337.1 87.67,-337.1 87.67,-337.1 87.67,-332.1 83.17,-337.1 87.67,-327.1 87.67,-327.1"/>
</g>
<!-- compile -->
<g id="node7" class="node">
<title>compile</title>
<g id="a_node7"><a xlink:href="#term-compilation" xlink:title="phase, Network&#39;s method">
<ellipse fill="none" stroke="black" cx="271.67" cy="-237" rx="47.39" ry="18"/>
<text text-anchor="middle" x="271.67" y="-233.3" font-family="italic" font-size="14.00">compile</text>
</a>
</g>
</g>
<!-- network&#45;&gt;compile -->
<g id="edge3" class="edge">
<title>network&#45;&gt;compile</title>
<path fill="none" stroke="black" d="M131.28,-291.41C161.07,-280.08 200.32,-265.14 229.74,-253.95"/>
<polygon fill="black" stroke="black" points="239.32,-250.31 231.57,-258.07 234.64,-252.09 229.97,-253.86 229.97,-253.86 229.97,-253.86 234.64,-252.09 228.37,-249.66 239.32,-250.31 239.32,-250.31"/>
</g>
<!-- inputs -->
<g id="node4" class="node">
<title>inputs</title>
<g id="a_node4"><a xlink:href="#term-inputs" xlink:title="mappings">
<polygon fill="none" stroke="black" points="261.17,-327 178.17,-327 178.17,-291 261.17,-291 261.17,-327"/>
<text text-anchor="middle" x="219.67" y="-305.3" font-family="Times,serif" font-size="14.00">input names</text>
</a>
</g>
</g>
<!-- inputs&#45;&gt;compile -->
<g id="edge4" class="edge">
<title>inputs&#45;&gt;compile</title>
<path fill="none" stroke="black" d="M232.52,-290.7C238.79,-282.27 246.43,-271.97 253.3,-262.73"/>
<polygon fill="black" stroke="black" points="259.32,-254.62 256.97,-265.33 256.34,-258.64 253.36,-262.65 253.36,-262.65 253.36,-262.65 256.34,-258.64 249.75,-259.97 259.32,-254.62 259.32,-254.62"/>
</g>
<!-- outputs -->
<g id="node5" class="node">
<title>outputs</title>
<g id="a_node5"><a xlink:href="#term-outputs" xlink:title="mappings">
<polygon fill="none" stroke="black" points="369.67,-327 279.67,-327 279.67,-291 369.67,-291 369.67,-327"/>
<text text-anchor="middle" x="324.67" y="-305.3" font-family="Times,serif" font-size="14.00">output names</text>
</a>
</g>
</g>
<!-- outputs&#45;&gt;compile -->
<g id="edge5" class="edge">
<title>outputs&#45;&gt;compile</title>
<path fill="none" stroke="black" d="M311.57,-290.7C305.19,-282.27 297.39,-271.97 290.4,-262.73"/>
<polygon fill="black" stroke="black" points="284.26,-254.62 293.88,-259.88 287.27,-258.61 290.29,-262.59 290.29,-262.59 290.29,-262.59 287.27,-258.61 286.7,-265.31 284.26,-254.62 284.26,-254.62"/>
</g>
<!-- predicate -->
<g id="node6" class="node">
<title>predicate</title>
<g id="a_node6"><a xlink:href="#term-node-predicate" xlink:title="function">
<polygon fill="none" stroke="black" points="483.67,-327 387.67,-327 387.67,-291 483.67,-291 483.67,-327"/>
<text text-anchor="middle" x="435.67" y="-305.3" font-family="Times,serif" font-size="14.00">node predicate</text>
</a>
</g>
</g>
<!-- predicate&#45;&gt;compile -->
<g id="edge6" class="edge">
<title>predicate&#45;&gt;compile</title>
<path fill="none" stroke="black" d="M395.55,-290.88C369.91,-279.93 336.79,-265.79 311.25,-254.89"/>
<polygon fill="black" stroke="black" points="301.86,-250.89 312.83,-250.67 306.46,-252.85 311.06,-254.81 311.06,-254.81 311.06,-254.81 306.46,-252.85 309.29,-258.95 301.86,-250.89 301.86,-250.89"/>
</g>
<!-- plan -->
<g id="node8" class="node">
<title>plan</title>
<g id="a_node8"><a xlink:href="#term-execution-plan" xlink:title="class">
<polygon fill="none" stroke="black" points="387.69,-183 203.13,-183 155.65,-147 340.21,-147 387.69,-183"/>
<text text-anchor="middle" x="271.67" y="-161.3" font-family="italic" font-size="14.00">execution plan</text>
</a>
</g>
</g>
<!-- compile&#45;&gt;plan -->
<g id="edge7" class="edge">
<title>compile&#45;&gt;plan</title>
<path fill="none" stroke="black" d="M271.67,-218.7C271.67,-210.98 271.67,-201.71 271.67,-193.11"/>
<polygon fill="black" stroke="black" points="271.67,-183.1 276.17,-193.1 271.67,-188.1 271.67,-193.1 271.67,-193.1 271.67,-193.1 271.67,-188.1 267.17,-193.1 271.67,-183.1 271.67,-183.1"/>
</g>
<!-- execute -->
<g id="node9" class="node">
<title>execute</title>
<g id="a_node9"><a xlink:href="#term-execution" xlink:title="phase, Plan&#39;s method">
<ellipse fill="none" stroke="black" cx="305.67" cy="-93" rx="47.39" ry="18"/>
<text text-anchor="middle" x="305.67" y="-89.3" font-family="italic" font-size="14.00">execute</text>
</a>
</g>
</g>
<!-- plan&#45;&gt;execute -->
<g id="edge8" class="edge">
<title>plan&#45;&gt;execute</title>
<path fill="none" stroke="black" d="M280.07,-146.7C283.95,-138.73 288.62,-129.1 292.91,-120.26"/>
<polygon fill="black" stroke="black" points="297.36,-111.1 297.04,-122.07 295.18,-115.6 292.99,-120.1 292.99,-120.1 292.99,-120.1 295.18,-115.6 288.95,-118.13 297.36,-111.1 297.36,-111.1"/>
</g>
<!-- solution -->
<g id="node11" class="node">
<title>solution</title>
<g id="a_node11"><a xlink:href="#term-solution" xlink:title="class">
<polygon fill="none" stroke="black" points="363.02,-36 271.79,-36 248.32,0 339.55,0 363.02,-36"/>
<text text-anchor="middle" x="305.67" y="-14.3" font-family="Times,serif" font-size="14.00">solution</text>
</a>
</g>
</g>
<!-- execute&#45;&gt;solution -->
<g id="edge10" class="edge">
<title>execute&#45;&gt;solution</title>
<path fill="none" stroke="black" d="M305.67,-74.7C305.67,-66.25 305.67,-55.87 305.67,-46.37"/>
<polygon fill="black" stroke="black" points="305.67,-36.18 310.17,-46.18 305.67,-41.18 305.67,-46.18 305.67,-46.18 305.67,-46.18 305.67,-41.18 301.17,-46.18 305.67,-36.18 305.67,-36.18"/>
</g>
<!-- values -->
<g id="node10" class="node">
<title>values</title>
<g id="a_node10"><a xlink:href="#term-inputs" xlink:title="mappings">
<polygon fill="none" stroke="black" points="489.17,-183 406.17,-183 406.17,-147 489.17,-147 489.17,-183"/>
<text text-anchor="middle" x="447.67" y="-161.3" font-family="Times,serif" font-size="14.00">input values</text>
</a>
</g>
</g>
<!-- values&#45;&gt;execute -->
<g id="edge9" class="edge">
<title>values&#45;&gt;execute</title>
<path fill="none" stroke="black" d="M412.93,-146.88C391.62,-136.37 364.35,-122.92 342.63,-112.22"/>
<polygon fill="black" stroke="black" points="333.4,-107.67 344.36,-108.05 337.88,-109.88 342.37,-112.09 342.37,-112.09 342.37,-112.09 337.88,-109.88 340.38,-116.13 333.4,-107.67 333.4,-107.67"/>
</g>
</g>
</svg>
