<?xml version="1.0" encoding="UTF-8" standalone="no"?>
<!DOCTYPE svg PUBLIC "-//W3C//DTD SVG 1.1//EN"
 "http://www.w3.org/Graphics/SVG/1.1/DTD/svg11.dtd">
<!-- Generated by graphviz version 2.43.0 (0)
 -->
<!-- Title: G Pages: 1 -->
<svg width="395pt" height="835pt"
 viewBox="0.00 0.00 395.00 835.48" xmlns="http://www.w3.org/2000/svg" xmlns:xlink="http://www.w3.org/1999/xlink">
<g id="graph0" class="graph" transform="scale(1 1) rotate(0) translate(4 831.48)">
<title>G</title>
<polygon fill="white" stroke="transparent" points="-4,4 -4,-831.48 391,-831.48 391,4 -4,4"/>
<g id="clust1" class="cluster">
<title>cluster_legend</title>
<polygon fill="none" stroke="black" points="8,-8 8,-819.48 379,-819.48 379,-8 8,-8"/>
<text text-anchor="middle" x="193.5" y="-804.28" font-family="Times,serif" font-size="14.00">Graphtik Legend 10.4.0</text>
</g>
<!-- Dependencies -->
<g id="node1" class="node">
<title>Dependencies</title>
<text text-anchor="middle" x="299" y="-766.68" font-family="bold italic" font-size="16.00">Dependencies</text>
</g>
<!-- needs -->
<g id="node2" class="node">
<title>needs</title>
<ellipse fill="none" stroke="transparent" cx="300" cy="-694.48" rx="38.19" ry="18"/>
<text text-anchor="middle" x="300" y="-690.78" font-family="Times,serif" font-size="14.00">needs</text>
</g>
<!-- Dependencies&#45;&gt;needs -->
<g id="edge1" class="edge">
<title>Dependencies&#45;&gt;needs</title>
<g id="a_edge1"><a xlink:href="https://graphtik.readthedocs.io/en/latest/arch.html#term-needs" xlink:title="Compulsory dependency from src `needs` data &#45;&#45;&gt; dst Operation." target="_top">
<path fill="none" stroke="black" d="M299.37,-742.11C299.5,-732.21 299.65,-721.31 299.77,-712.55"/>
<polygon fill="black" stroke="black" points="295.73,-752.27 299.37,-742.32 302.73,-752.36 295.73,-752.27"/>
</a>
</g>
</g>
<!-- provides -->
<g id="node3" class="node">
<title>provides</title>
<ellipse fill="none" stroke="transparent" cx="301" cy="-618.48" rx="50.89" ry="18"/>
<text text-anchor="middle" x="301" y="-614.78" font-family="Times,serif" font-size="14.00">provides</text>
</g>
<!-- needs&#45;&gt;provides -->
<g id="edge2" class="edge">
<title>needs&#45;&gt;provides</title>
<g id="a_edge2"><a xlink:title="Compulsory dependency from src Operation &#45;&#45;&gt; dst `provides` data" target="_top">
<path fill="none" stroke="black" d="M300.23,-676.32C300.35,-667.54 300.5,-656.64 300.63,-646.75"/>
<polygon fill="black" stroke="black" points="304.13,-646.6 300.77,-636.55 297.13,-646.5 304.13,-646.6"/>
</a>
</g>
</g>
<!-- optional -->
<g id="node4" class="node">
<title>optional</title>
<g id="a_node4"><a xlink:href="https://graphtik.readthedocs.io/en/latest/arch.html#term-needs" xlink:title="Target operation may run without source `need` OR source operation may not `provide` target data." target="_top">
<ellipse fill="none" stroke="transparent" cx="301" cy="-522.61" rx="65.11" ry="26.74"/>
<text text-anchor="middle" x="301" y="-526.41" font-family="Times,serif" font-size="14.00">optional</text>
<text text-anchor="middle" x="301" y="-511.41" font-family="Times,serif" font-size="14.00">partial out</text>
</a>
</g>
</g>
<!-- provides&#45;&gt;optional -->
<g id="edge3" class="edge">
<title>provides&#45;&gt;optional</title>
<g id="a_edge3"><a xlink:title="A `need` passed in as **kw argument underlying fn." target="_top">
<path fill="none" stroke="black" stroke-dasharray="5,2" d="M301,-600.26C301,-588.96 301,-573.75 301,-559.86"/>
<polygon fill="black" stroke="black" points="304.5,-559.58 301,-549.58 297.5,-559.58 304.5,-559.58"/>
</a>
</g>
<text text-anchor="middle" x="318" y="-571.28" font-family="Times,serif" font-size="14.00">**kw</text>
</g>
<!-- implicit -->
<g id="node5" class="node">
<title>implicit</title>
<g id="a_node5"><a xlink:href="https://graphtik.readthedocs.io/en/latest/arch.html#term-implicit" xlink:title="A `need` not fed into/out of the function but expected to exist in the `solution`." target="_top">
<ellipse fill="none" stroke="transparent" cx="301" cy="-440.74" rx="46.29" ry="18"/>
<text text-anchor="middle" x="301" y="-437.04" font-family="Times,serif" font-size="14.00">implicit</text>
</a>
</g>
</g>
<!-- optional&#45;&gt;implicit -->
<g id="edge4" class="edge">
<title>optional&#45;&gt;implicit</title>
<path fill="none" stroke="black" d="M301,-485.29C301,-479.82 301,-474.27 301,-469.04"/>
<polygon fill="black" stroke="black" points="297.5,-495.46 301,-485.46 304.5,-495.46 297.5,-495.46"/>
<polygon fill="none" stroke="black" points="297,-458.89 305,-458.89 305,-466.89 297,-466.89 297,-458.89"/>
<polyline fill="none" stroke="black" points="301,-466.89 301,-468.89 "/>
</g>
<!-- sideffect -->
<g id="node6" class="node">
<title>sideffect</title>
<g id="a_node6"><a xlink:href="https://graphtik.readthedocs.io/en/latest/arch.html#term-sideffects" xlink:title="Fictive data not consumed/produced by operation functions." target="_top">
<ellipse fill="none" stroke="transparent" cx="301" cy="-362.74" rx="50.89" ry="18"/>
<text text-anchor="middle" x="301" y="-359.04" font-family="Times,serif" font-size="14.00">sideffect</text>
</a>
</g>
</g>
<!-- implicit&#45;&gt;sideffect -->
<g id="edge5" class="edge">
<title>implicit&#45;&gt;sideffect</title>
<path fill="none" stroke="blue" d="M301,-422.49C301,-413.26 301,-401.67 301,-391.23"/>
<polygon fill="blue" stroke="blue" points="304.5,-390.92 301,-380.92 297.5,-390.92 304.5,-390.92"/>
</g>
<!-- null -->
<g id="node7" class="node">
<title>null</title>
<g id="a_node7"><a xlink:href="#" xlink:title="Result for this output was null (probably error)" target="_top">
<ellipse fill="none" stroke="transparent" cx="301" cy="-284.74" rx="28.7" ry="18"/>
<text text-anchor="middle" x="301" y="-281.04" font-family="Times,serif" font-size="14.00">null</text>
</a>
</g>
</g>
<!-- sideffect&#45;&gt;null -->
<g id="edge6" class="edge">
<title>sideffect&#45;&gt;null</title>
<path fill="none" stroke="#ffa9cd" d="M301,-344.49C301,-335.26 301,-323.67 301,-313.23"/>
<polygon fill="#ffa9cd" stroke="#ffa9cd" points="304.5,-312.92 301,-302.92 297.5,-312.92 304.5,-312.92"/>
</g>
<!-- broken -->
<g id="node8" class="node">
<title>broken</title>
<g id="a_node8"><a xlink:href="https://graphtik.readthedocs.io/en/latest/arch.html#term-partial outputs" xlink:title="Target data was not `provided` by source operation due to failure / partial&#45;outs." target="_top">
<ellipse fill="none" stroke="transparent" cx="301" cy="-211.74" rx="42.79" ry="18"/>
<text text-anchor="middle" x="301" y="-208.04" font-family="Times,serif" font-size="14.00">broken</text>
</a>
</g>
</g>
<!-- null&#45;&gt;broken -->
<g id="edge7" class="edge">
<title>null&#45;&gt;broken</title>
<path fill="none" stroke="red" stroke-dasharray="5,2" d="M301,-266.55C301,-258.53 301,-248.79 301,-239.81"/>
<polygon fill="red" stroke="red" points="304.5,-239.77 301,-229.77 297.5,-239.77 304.5,-239.77"/>
</g>
<!-- subdoc -->
<g id="node9" class="node">
<title>subdoc</title>
<g id="a_node9"><a xlink:href="https://graphtik.readthedocs.io/en/latest/arch.html#term-jsonp" xlink:title="Parent &#45;&#45;&gt; child document, accessed with `json pointer` dependencies." target="_top">
<ellipse fill="none" stroke="transparent" cx="301" cy="-138.74" rx="43.59" ry="18"/>
<text text-anchor="middle" x="301" y="-135.04" font-family="Times,serif" font-size="14.00">subdoc</text>
</a>
</g>
</g>
<!-- broken&#45;&gt;subdoc -->
<g id="edge8" class="edge">
<title>broken&#45;&gt;subdoc</title>
<path fill="none" stroke="#8b4513" d="M301,-185.53C301,-176 301,-165.38 301,-156.77"/>
<ellipse fill="none" stroke="#8b4513" cx="301" cy="-189.55" rx="4" ry="4"/>
</g>
<!-- sequence -->
<g id="node10" class="node">
<title>sequence</title>
<g id="a_node10"><a xlink:href="https://graphtik.readthedocs.io/en/latest/arch.html#term-execution-steps" xlink:title="Sequence of execution steps." target="_top">
<ellipse fill="none" stroke="transparent" stroke-width="4" cx="301" cy="-42.87" rx="60.62" ry="26.74"/>
<text text-anchor="middle" x="301" y="-46.67" font-family="Times,serif" font-size="14.00">execution</text>
<text text-anchor="middle" x="301" y="-31.67" font-family="Times,serif" font-size="14.00">sequence</text>
</a>
</g>
</g>
<!-- subdoc&#45;&gt;sequence -->
<g id="edge9" class="edge">
<title>subdoc&#45;&gt;sequence</title>
<path fill="none" stroke="#00bbbb" stroke-width="4" stroke-dasharray="1,5" d="M301,-120.52C301,-109.22 301,-94.01 301,-80.12"/>
<polygon fill="#00bbbb" stroke="#00bbbb" stroke-width="4" points="301,-69.84 305.5,-79.84 302.5,-74.84 302.5,-79.84 301,-79.84 299.5,-79.84 299.5,-74.84 296.5,-79.84 301,-69.84 301,-69.84"/>
<text text-anchor="middle" x="306" y="-91.54" font-family="Times,serif" font-size="14.00" fill="#00bbbb">1</text>
</g>
<!-- DataLabel -->
<g id="node11" class="node">
<title>DataLabel</title>
<text text-anchor="middle" x="180" y="-766.68" font-family="bold italic" font-size="16.00">Data</text>
</g>
<!-- data -->
<g id="node12" class="node">
<title>data</title>
<g id="a_node12"><a xlink:href="https://graphtik.readthedocs.io/en/latest/arch.html#term-graph" xlink:title="Any data not given or asked." target="_top">
<polygon fill="none" stroke="black" points="207,-712.48 153,-712.48 153,-676.48 207,-676.48 207,-712.48"/>
<text text-anchor="middle" x="180" y="-690.78" font-family="Times,serif" font-size="14.00">data</text>
</a>
</g>
</g>
<!-- DataLabel&#45;&gt;data -->
<!-- input -->
<g id="node13" class="node">
<title>input</title>
<g id="a_node13"><a xlink:href="https://graphtik.readthedocs.io/en/latest/arch.html#term-inputs" xlink:title="Solution value given into the computation." target="_top">
<polygon fill="none" stroke="black" points="153,-612.92 180,-600.48 207,-612.92 206.97,-633.04 153.03,-633.04 153,-612.92"/>
<text text-anchor="middle" x="180" y="-614.78" font-family="Times,serif" font-size="14.00">input</text>
</a>
</g>
</g>
<!-- data&#45;&gt;input -->
<!-- output -->
<g id="node14" class="node">
<title>output</title>
<g id="a_node14"><a xlink:href="https://graphtik.readthedocs.io/en/latest/arch.html#term-outputs" xlink:title="Solution value asked from the computation." target="_top">
<polygon fill="none" stroke="black" points="207,-528.17 180,-540.61 153,-528.17 153.03,-508.05 206.97,-508.05 207,-528.17"/>
<text text-anchor="middle" x="180" y="-518.91" font-family="Times,serif" font-size="14.00">output</text>
</a>
</g>
</g>
<!-- input&#45;&gt;output -->
<!-- inp_out -->
<g id="node15" class="node">
<title>inp_out</title>
<g id="a_node15"><a xlink:href="https://graphtik.readthedocs.io/en/latest/arch.html#term-dependency" xlink:title="Data both given and asked." target="_top">
<polygon fill="none" stroke="black" points="207,-440.74 193.5,-458.74 166.5,-458.74 153,-440.74 166.5,-422.74 193.5,-422.74 207,-440.74"/>
<text text-anchor="middle" x="180" y="-437.04" font-family="Times,serif" font-size="14.00">inp+out</text>
</a>
</g>
</g>
<!-- output&#45;&gt;inp_out -->
<!-- sfx -->
<g id="node17" class="node">
<title>sfx</title>
<g id="a_node17"><a xlink:href="https://graphtik.readthedocs.io/en/latest/arch.html#term-sideffects" xlink:title="Fictive data not consumed/produced by operation functions." target="_top">
<polygon fill="none" stroke="blue" points="219,-380.74 141,-380.74 141,-344.74 219,-344.74 219,-380.74"/>
<text text-anchor="middle" x="180" y="-359.04" font-family="Times,serif" font-size="14.00" fill="blue">sideffect</text>
</a>
</g>
</g>
<!-- inp_out&#45;&gt;sfx -->
<!-- evicted -->
<g id="node16" class="node">
<title>evicted</title>
<g id="a_node16"><a xlink:href="https://graphtik.readthedocs.io/en/latest/arch.html#term-evictions" xlink:title="Instruction step to erase data from solution, to save memory." target="_top">
<polygon fill="#006666" stroke="#006666" stroke-width="3" stroke-dasharray="5,2" points="214,-302.74 146,-302.74 146,-266.74 214,-266.74 214,-302.74"/>
<text text-anchor="middle" x="180" y="-281.04" font-family="Times,serif" font-size="14.00">evicted</text>
</a>
</g>
</g>
<!-- sol -->
<g id="node18" class="node">
<title>sol</title>
<g id="a_node18"><a xlink:href="https://graphtik.readthedocs.io/en/latest/arch.html#term-solution" xlink:title="Data contained in the solution." target="_top">
<polygon fill="wheat" stroke="black" points="207,-229.74 153,-229.74 153,-193.74 207,-193.74 207,-229.74"/>
<text text-anchor="middle" x="180" y="-208.04" font-family="Times,serif" font-size="14.00">with value</text>
</a>
</g>
</g>
<!-- evicted&#45;&gt;sol -->
<!-- sfx&#45;&gt;evicted -->
<!-- nullval -->
<g id="node19" class="node">
<title>nullval</title>
<g id="a_node19"><a xlink:href="https://graphtik.readthedocs.io/en/latest/arch.html#term-solution" xlink:title="Data in solution but is None (probable error)." target="_top">
<polygon fill="#ffa9cd" stroke="black" points="206,-156.74 152,-156.74 152,-120.74 206,-120.74 206,-156.74"/>
<text text-anchor="middle" x="179" y="-135.04" font-family="Times,serif" font-size="14.00">null</text>
</a>
</g>
</g>
<!-- sol&#45;&gt;nullval -->
<!-- overwrite -->
<g id="node20" class="node">
<title>overwrite</title>
<g id="a_node20"><a xlink:href="https://graphtik.readthedocs.io/en/latest/arch.html#term-overwrite" xlink:title="More than 1 values exist in solution with this name." target="_top">
<polygon fill="SkyBlue" stroke="black" points="206,-60.87 152,-60.87 152,-24.87 206,-24.87 206,-60.87"/>
<text text-anchor="middle" x="179" y="-39.17" font-family="Times,serif" font-size="14.00">overwrite</text>
</a>
</g>
</g>
<!-- nullval&#45;&gt;overwrite -->
<!-- Operations -->
<g id="node21" class="node">
<title>Operations</title>
<text text-anchor="middle" x="74" y="-766.68" font-family="bold italic" font-size="16.00">Operations</text>
</g>
<!-- operation -->
<g id="node22" class="node">
<title>operation</title>
<g id="a_node22"><a xlink:href="https://graphtik.readthedocs.io/en/latest/arch.html#term-operation" xlink:title="A function with needs &amp; provides." target="_top">
<polyline fill="none" stroke="black" points="36,-693.48 111,-693.48 "/>
<text text-anchor="start" x="39" y="-700.28" font-family="Times,serif" font-size="14.00">operation</text>
<text text-anchor="start" x="44" y="-681.28" font-family="Times,serif" font-style="italic" font-size="14.00">function</text>
<path fill="none" stroke="black" d="M46.5,-673.48C46.5,-673.48 99.5,-673.48 99.5,-673.48 105.5,-673.48 111.5,-679.48 111.5,-685.48 111.5,-685.48 111.5,-703.48 111.5,-703.48 111.5,-709.48 105.5,-715.48 99.5,-715.48 99.5,-715.48 46.5,-715.48 46.5,-715.48 40.5,-715.48 34.5,-709.48 34.5,-703.48 34.5,-703.48 34.5,-685.48 34.5,-685.48 34.5,-679.48 40.5,-673.48 46.5,-673.48"/>
</a>
</g>
</g>
<!-- Operations&#45;&gt;operation -->
<!-- pruned -->
<g id="node23" class="node">
<title>pruned</title>
<g id="a_node23"><a xlink:href="https://graphtik.readthedocs.io/en/latest/arch.html#term-prune" xlink:title="Operation excluded from plan." target="_top">
<text text-anchor="start" x="46" y="-614.28" font-family="Times,serif" font-size="14.00" fill="#d3d3d3">pruned</text>
<path fill="none" stroke="#d3d3d3" d="M49.33,-605.98C49.33,-605.98 94.67,-605.98 94.67,-605.98 98.83,-605.98 103,-610.15 103,-614.31 103,-614.31 103,-622.65 103,-622.65 103,-626.81 98.83,-630.98 94.67,-630.98 94.67,-630.98 49.33,-630.98 49.33,-630.98 45.17,-630.98 41,-626.81 41,-622.65 41,-622.65 41,-614.31 41,-614.31 41,-610.15 45.17,-605.98 49.33,-605.98"/>
</a>
</g>
</g>
<!-- operation&#45;&gt;pruned -->
<!-- executed -->
<g id="node24" class="node">
<title>executed</title>
<g id="a_node24"><a xlink:href="https://graphtik.readthedocs.io/en/latest/arch.html#term-solution" xlink:title="Operation executed successfully." target="_top">
<path fill="wheat" stroke="transparent" d="M41.83,-510.11C41.83,-510.11 100.17,-510.11 100.17,-510.11 104.33,-510.11 108.5,-514.28 108.5,-518.44 108.5,-518.44 108.5,-526.78 108.5,-526.78 108.5,-530.94 104.33,-535.11 100.17,-535.11 100.17,-535.11 41.83,-535.11 41.83,-535.11 37.67,-535.11 33.5,-530.94 33.5,-526.78 33.5,-526.78 33.5,-518.44 33.5,-518.44 33.5,-514.28 37.67,-510.11 41.83,-510.11"/>
<text text-anchor="start" x="39" y="-518.41" font-family="Times,serif" font-size="14.00">executed</text>
<path fill="none" stroke="black" d="M41.83,-510.11C41.83,-510.11 100.17,-510.11 100.17,-510.11 104.33,-510.11 108.5,-514.28 108.5,-518.44 108.5,-518.44 108.5,-526.78 108.5,-526.78 108.5,-530.94 104.33,-535.11 100.17,-535.11 100.17,-535.11 41.83,-535.11 41.83,-535.11 37.67,-535.11 33.5,-530.94 33.5,-526.78 33.5,-526.78 33.5,-518.44 33.5,-518.44 33.5,-514.28 37.67,-510.11 41.83,-510.11"/>
</a>
</g>
</g>
<!-- pruned&#45;&gt;executed -->
<!-- failed -->
<g id="node25" class="node">
<title>failed</title>
<g id="a_node25"><a xlink:href="https://graphtik.readthedocs.io/en/latest/arch.html#term-endurance" xlink:title="Failed operation &#45; downstream ops will cancel." target="_top">
<path fill="LightCoral" stroke="transparent" d="M54.33,-428.24C54.33,-428.24 87.67,-428.24 87.67,-428.24 91.83,-428.24 96,-432.41 96,-436.57 96,-436.57 96,-444.91 96,-444.91 96,-449.07 91.83,-453.24 87.67,-453.24 87.67,-453.24 54.33,-453.24 54.33,-453.24 50.17,-453.24 46,-449.07 46,-444.91 46,-444.91 46,-436.57 46,-436.57 46,-432.41 50.17,-428.24 54.33,-428.24"/>
<text text-anchor="start" x="51" y="-436.54" font-family="Times,serif" font-size="14.00">failed</text>
<path fill="none" stroke="black" d="M54.33,-428.24C54.33,-428.24 87.67,-428.24 87.67,-428.24 91.83,-428.24 96,-432.41 96,-436.57 96,-436.57 96,-444.91 96,-444.91 96,-449.07 91.83,-453.24 87.67,-453.24 87.67,-453.24 54.33,-453.24 54.33,-453.24 50.17,-453.24 46,-449.07 46,-444.91 46,-444.91 46,-436.57 46,-436.57 46,-432.41 50.17,-428.24 54.33,-428.24"/>
</a>
</g>
</g>
<!-- executed&#45;&gt;failed -->
<!-- rescheduled -->
<g id="node26" class="node">
<title>rescheduled</title>
<g id="a_node26"><a xlink:href="https://graphtik.readthedocs.io/en/latest/arch.html#term-reschedulling" xlink:title="Operation may fail or provide partial outputs so `net` must reschedule." target="_top">
<text text-anchor="start" x="41" y="-366.54" font-family="Times,serif" font-size="14.00">endured</text>
<text text-anchor="start" x="27" y="-351.54" font-family="Times,serif" font-size="14.00">rescheduled</text>
<path fill="none" stroke="black" stroke-width="4" d="M33,-341.74C33,-341.74 109,-341.74 109,-341.74 115,-341.74 121,-347.74 121,-353.74 121,-353.74 121,-371.74 121,-371.74 121,-377.74 115,-383.74 109,-383.74 109,-383.74 33,-383.74 33,-383.74 27,-383.74 21,-377.74 21,-371.74 21,-371.74 21,-353.74 21,-353.74 21,-347.74 27,-341.74 33,-341.74"/>
</a>
</g>
</g>
<!-- failed&#45;&gt;rescheduled -->
<!-- canceled -->
<g id="node27" class="node">
<title>canceled</title>
<g id="a_node27"><a xlink:href="https://graphtik.readthedocs.io/en/latest/arch.html#term-reschedule" xlink:title="Canceled operation due to failures or partial outputs upstream." target="_top">
<path fill="Grey" stroke="transparent" d="M42.83,-272.24C42.83,-272.24 99.17,-272.24 99.17,-272.24 103.33,-272.24 107.5,-276.41 107.5,-280.57 107.5,-280.57 107.5,-288.91 107.5,-288.91 107.5,-293.07 103.33,-297.24 99.17,-297.24 99.17,-297.24 42.83,-297.24 42.83,-297.24 38.67,-297.24 34.5,-293.07 34.5,-288.91 34.5,-288.91 34.5,-280.57 34.5,-280.57 34.5,-276.41 38.67,-272.24 42.83,-272.24"/>
<text text-anchor="start" x="40" y="-280.54" font-family="Times,serif" font-size="14.00">canceled</text>
<path fill="none" stroke="black" d="M42.83,-272.24C42.83,-272.24 99.17,-272.24 99.17,-272.24 103.33,-272.24 107.5,-276.41 107.5,-280.57 107.5,-280.57 107.5,-288.91 107.5,-288.91 107.5,-293.07 103.33,-297.24 99.17,-297.24 99.17,-297.24 42.83,-297.24 42.83,-297.24 38.67,-297.24 34.5,-293.07 34.5,-288.91 34.5,-288.91 34.5,-280.57 34.5,-280.57 34.5,-276.41 38.67,-272.24 42.83,-272.24"/>
</a>
</g>
</g>
<!-- rescheduled&#45;&gt;canceled -->
</g>
</svg>
