<?xml version="1.0" encoding="UTF-8" standalone="no"?>
<!DOCTYPE svg PUBLIC "-//W3C//DTD SVG 1.1//EN"
 "http://www.w3.org/Graphics/SVG/1.1/DTD/svg11.dtd">
<!-- Generated by graphviz version 2.43.0 (0)
 -->
<!-- Title: G Pages: 1 -->
<svg width="928pt" height="207pt"
 viewBox="0.00 0.00 927.81 207.00" xmlns="http://www.w3.org/2000/svg" xmlns:xlink="http://www.w3.org/1999/xlink">
<g id="graph0" class="graph" transform="scale(1 1) rotate(0) translate(4 203)">
<title>G</title>
<polygon fill="white" stroke="transparent" points="-4,4 -4,-203 923.81,-203 923.81,4 -4,4"/>
<g id="clust1" class="cluster">
<title>cluster_legend</title>
<polygon fill="none" stroke="black" points="8,-8 8,-191 911.81,-191 911.81,-8 8,-8"/>
<text text-anchor="middle" x="459.91" y="-175.8" font-family="Times,serif" font-size="14.00">Graphtik Legend</text>
</g>
<!-- operation -->
<g id="node1" class="node">
<title>operation</title>
<g id="a_node1"><a xlink:href="arch.html#term-operation" xlink:title="A function with needs &amp; provides.">
<ellipse fill="none" stroke="black" cx="71.25" cy="-142" rx="55.49" ry="18"/>
<text text-anchor="middle" x="71.25" y="-138.3" font-family="italic" font-size="14.00">operation</text>
</a>
</g>
</g>
<!-- insteps -->
<g id="node2" class="node">
<title>insteps</title>
<g id="a_node2"><a xlink:href="arch.html#term-execution-steps" xlink:title="Execution plan included this operation/eviction.">
<ellipse fill="none" stroke="black" stroke-width="3" cx="242.78" cy="-142" rx="79.09" ry="18"/>
<text text-anchor="middle" x="242.78" y="-138.3" font-family="italic" font-size="14.00">execution step</text>
</a>
</g>
</g>
<!-- operation&#45;&gt;insteps -->
<!-- executed -->
<g id="node3" class="node">
<title>executed</title>
<g id="a_node3"><a xlink:href="arch.html#term-solution" xlink:title="Step executed.">
<ellipse fill="wheat" stroke="black" cx="412.37" cy="-142" rx="53.09" ry="18"/>
<text text-anchor="middle" x="412.37" y="-138.3" font-family="italic" font-size="14.00">executed</text>
</a>
</g>
</g>
<!-- insteps&#45;&gt;executed -->
<!-- data -->
<g id="node4" class="node">
<title>data</title>
<g id="a_node4"><a xlink:href="arch.html#term-graph" xlink:title="Any data not given or asked.">
<polygon fill="none" stroke="black" points="98.25,-106 44.25,-106 44.25,-70 98.25,-70 98.25,-106"/>
<text text-anchor="middle" x="71.25" y="-84.3" font-family="Times,serif" font-size="14.00">data</text>
</a>
</g>
</g>
<!-- input -->
<g id="node5" class="node">
<title>input</title>
<g id="a_node5"><a xlink:href="arch.html#term-inputs" xlink:title="Solution value given into the computation.">
<polygon fill="none" stroke="black" points="207.59,-82.44 242.78,-70 277.98,-82.44 277.95,-102.56 207.62,-102.56 207.59,-82.44"/>
<text text-anchor="middle" x="242.78" y="-84.3" font-family="Times,serif" font-size="14.00">input</text>
</a>
</g>
</g>
<!-- data&#45;&gt;input -->
<!-- output -->
<g id="node6" class="node">
<title>output</title>
<g id="a_node6"><a xlink:href="arch.html#term-outputs" xlink:title="Solution value asked from the computation.">
<polygon fill="none" stroke="black" points="453.32,-93.56 412.37,-106 371.43,-93.56 371.47,-73.44 453.28,-73.44 453.32,-93.56"/>
<text text-anchor="middle" x="412.37" y="-84.3" font-family="Times,serif" font-size="14.00">output</text>
</a>
</g>
</g>
<!-- input&#45;&gt;output -->
<!-- inp_out -->
<g id="node7" class="node">
<title>inp_out</title>
<g id="a_node7"><a xlink:href="arch.html#term-overwrites" xlink:title="Data both given and asked (overwrites).">
<polygon fill="none" stroke="black" points="591,-88 568.97,-106 524.92,-106 502.89,-88 524.92,-70 568.97,-70 591,-88"/>
<text text-anchor="middle" x="546.95" y="-84.3" font-family="Times,serif" font-size="14.00">inp+out</text>
</a>
</g>
</g>
<!-- output&#45;&gt;inp_out -->
<!-- evicted -->
<g id="node8" class="node">
<title>evicted</title>
<g id="a_node8"><a xlink:href="arch.html#term-evictions" xlink:title="Data erased from solution to save memory.">
<polygon fill="none" stroke="#990000" stroke-width="3" points="741.52,-106 685.52,-106 685.52,-70 741.52,-70 741.52,-106"/>
<text text-anchor="middle" x="713.52" y="-84.3" font-family="Times,serif" font-size="14.00">evicted</text>
</a>
</g>
</g>
<!-- inp_out&#45;&gt;evicted -->
<!-- sol -->
<g id="node9" class="node">
<title>sol</title>
<g id="a_node9"><a xlink:href="arch.html#term-solution" xlink:title="Solution contains a value for this data.">
<polygon fill="wheat" stroke="black" points="903.81,-106 829.81,-106 829.81,-70 903.81,-70 903.81,-106"/>
<text text-anchor="middle" x="866.81" y="-84.3" font-family="Times,serif" font-size="14.00">in solution</text>
</a>
</g>
</g>
<!-- evicted&#45;&gt;sol -->
<!-- e1 -->
<!-- e2 -->
<g id="node11" class="node">
<title>e2</title>
<g id="a_node11"><a xlink:href="arch.html#term-needs" xlink:title="Regular `needs` or a `provides`.">
<ellipse fill="none" stroke="transparent" cx="242.78" cy="-34" rx="52.79" ry="18"/>
<text text-anchor="middle" x="242.78" y="-30.3" font-family="Times,serif" font-size="14.00">dependency</text>
</a>
</g>
</g>
<!-- e1&#45;&gt;e2 -->
<g id="edge8" class="edge">
<title>e1&#45;&gt;e2</title>
<path fill="none" stroke="black" d="M98.36,-34C120.04,-34 151.75,-34 179.84,-34"/>
<polygon fill="black" stroke="black" points="180,-37.5 190,-34 180,-30.5 180,-37.5"/>
</g>
<!-- e3 -->
<g id="node12" class="node">
<title>e3</title>
<g id="a_node12"><a xlink:href="arch.html#term-needs" xlink:title="Optional/**kw/*vararg `needs`.">
<ellipse fill="none" stroke="transparent" cx="412.37" cy="-34" rx="39.79" ry="18"/>
<text text-anchor="middle" x="412.37" y="-30.3" font-family="Times,serif" font-size="14.00">optional</text>
</a>
</g>
</g>
<!-- e2&#45;&gt;e3 -->
<g id="edge9" class="edge">
<title>e2&#45;&gt;e3</title>
<path fill="none" stroke="black" stroke-dasharray="5,2" d="M295.43,-34C316.84,-34 341.54,-34 362.63,-34"/>
<polygon fill="black" stroke="black" points="362.67,-37.5 372.67,-34 362.67,-30.5 362.67,-37.5"/>
</g>
<!-- e4 -->
<g id="node13" class="node">
<title>e4</title>
<g id="a_node13"><a xlink:href="arch.html#term-sideffects" xlink:title="Fictive data not consumed/produced by underlying function.">
<ellipse fill="none" stroke="transparent" cx="546.95" cy="-34" rx="40.89" ry="18"/>
<text text-anchor="middle" x="546.95" y="-30.3" font-family="Times,serif" font-size="14.00">sideffect</text>
</a>
</g>
</g>
<!-- e3&#45;&gt;e4 -->
<g id="edge10" class="edge">
<title>e3&#45;&gt;e4</title>
<path fill="none" stroke="blue" d="M452.07,-34C465.6,-34 481,-34 495.35,-34"/>
<polygon fill="blue" stroke="blue" points="495.58,-37.5 505.58,-34 495.58,-30.5 495.58,-37.5"/>
</g>
<!-- e5 -->
<g id="node14" class="node">
<title>e5</title>
<g id="a_node14"><a xlink:href="arch.html#term-execution-steps" xlink:title="Sequence of execution steps.">
<ellipse fill="none" stroke="transparent" stroke-width="4" cx="713.52" cy="-34" rx="79.09" ry="18"/>
<text text-anchor="middle" x="713.52" y="-30.3" font-family="Times,serif" font-size="14.00">execution sequence</text>
</a>
</g>
</g>
<!-- e4&#45;&gt;e5 -->
<g id="edge11" class="edge">
<title>e4&#45;&gt;e5</title>
<path fill="none" stroke="#009999" stroke-width="4" stroke-dasharray="1,5" d="M588.2,-34C599.17,-34 611.49,-34 624.01,-34"/>
<polygon fill="#009999" stroke="#009999" stroke-width="4" points="634.06,-34 624.06,-38.5 629.06,-35.5 624.06,-35.5 624.06,-34 624.06,-32.5 629.06,-32.5 624.06,-29.5 634.06,-34 634.06,-34"/>
<text text-anchor="middle" x="612.72" y="-37.8" font-family="Times,serif" font-size="14.00" fill="#009999">1</text>
</g>
</g>
</svg>
