<?xml version="1.0" encoding="UTF-8" standalone="no"?>
<!DOCTYPE svg PUBLIC "-//W3C//DTD SVG 1.1//EN"
 "http://www.w3.org/Graphics/SVG/1.1/DTD/svg11.dtd">
<!-- Generated by graphviz version 2.43.0 (0)
 -->
<!-- Title: %3 Pages: 1 -->
<svg width="523pt" height="466pt"
 viewBox="0.00 0.00 523.00 466.00" xmlns="http://www.w3.org/2000/svg" xmlns:xlink="http://www.w3.org/1999/xlink">
<g id="graph0" class="graph" transform="scale(1 1) rotate(0) translate(4 462)">
<title>%3</title>
<polygon fill="white" stroke="transparent" points="-4,4 -4,-462 519,-462 519,4 -4,4"/>
<text text-anchor="middle" x="257.5" y="-442.8" font-family="Times,serif" font-size="14.00">graphtik&#45;v8+ module dependencies</text>
<g id="clust1" class="cluster">
<title>cluster_core</title>
<polygon fill="none" stroke="black" points="8,-352 8,-427 320,-427 320,-352 8,-352"/>
<text text-anchor="middle" x="164" y="-411.8" font-family="Times,serif" font-size="14.00">core modules</text>
</g>
<!-- base.py -->
<g id="node1" class="node">
<title>base.py</title>
<g id="a_node1"><a xlink:href="reference.html#module-graphtik.base" xlink:title="(implicit) everything imports this module">
<polygon fill="AliceBlue" stroke="black" points="311.5,-396 240.5,-396 240.5,-392 236.5,-392 236.5,-388 240.5,-388 240.5,-368 236.5,-368 236.5,-364 240.5,-364 240.5,-360 311.5,-360 311.5,-396"/>
<polyline fill="none" stroke="black" points="240.5,-392 244.5,-392 244.5,-388 240.5,-388 "/>
<polyline fill="none" stroke="black" points="240.5,-368 244.5,-368 244.5,-364 240.5,-364 "/>
<text text-anchor="middle" x="276" y="-374.3" font-family="Times,serif" font-size="14.00">base.py</text>
</a>
</g>
</g>
<!-- plot.py -->
<g id="node8" class="node">
<title>plot.py</title>
<g id="a_node8"><a xlink:href="reference.html#module-graphtik.plot" xlink:title="(extra)">
<polygon fill="Aquamarine" stroke="black" points="320,-324 254,-324 254,-320 250,-320 250,-316 254,-316 254,-296 250,-296 250,-292 254,-292 254,-288 320,-288 320,-324"/>
<polyline fill="none" stroke="black" points="254,-320 258,-320 258,-316 254,-316 "/>
<polyline fill="none" stroke="black" points="254,-296 258,-296 258,-292 254,-292 "/>
<text text-anchor="middle" x="287" y="-302.3" font-family="Times,serif" font-size="14.00">plot.py</text>
</a>
</g>
</g>
<!-- base.py&#45;&gt;plot.py -->
<g id="edge6" class="edge">
<title>base.py&#45;&gt;plot.py</title>
<g id="a_edge6"><a xlink:title="(run&#45;time)">
<path fill="none" stroke="black" stroke-dasharray="5,2" d="M278.72,-359.7C279.93,-351.98 281.39,-342.71 282.74,-334.11"/>
<polygon fill="black" stroke="black" points="286.22,-334.53 284.31,-324.1 279.3,-333.44 286.22,-334.53"/>
</a>
</g>
</g>
<!-- config.py -->
<g id="node2" class="node">
<title>config.py</title>
<g id="a_node2"><a xlink:href="reference.html#module-graphtik.config" xlink:title="(public)">
<polygon fill="wheat" stroke="black" points="222,-396 140,-396 140,-392 136,-392 136,-388 140,-388 140,-368 136,-368 136,-364 140,-364 140,-360 222,-360 222,-396"/>
<polyline fill="none" stroke="black" points="140,-392 144,-392 144,-388 140,-388 "/>
<polyline fill="none" stroke="black" points="140,-368 144,-368 144,-364 140,-364 "/>
<text text-anchor="middle" x="181" y="-374.3" font-family="Times,serif" font-size="14.00">config.py</text>
</a>
</g>
</g>
<!-- modifiers.py -->
<g id="node3" class="node">
<title>modifiers.py</title>
<g id="a_node3"><a xlink:href="reference.html#module-graphtik.modifiers" xlink:title="(public) almost everything imports this module">
<polygon fill="wheat" stroke="black" points="122,-396 16,-396 16,-392 12,-392 12,-388 16,-388 16,-368 12,-368 12,-364 16,-364 16,-360 122,-360 122,-396"/>
<polyline fill="none" stroke="black" points="16,-392 20,-392 20,-388 16,-388 "/>
<polyline fill="none" stroke="black" points="16,-368 20,-368 20,-364 16,-364 "/>
<text text-anchor="middle" x="69" y="-374.3" font-family="Times,serif" font-size="14.00">modifiers.py</text>
</a>
</g>
</g>
<!-- op.py -->
<g id="node4" class="node">
<title>op.py</title>
<g id="a_node4"><a xlink:href="reference.html#module-graphtik.op" xlink:title="(public)">
<polygon fill="wheat" stroke="black" points="397,-252 341,-252 341,-248 337,-248 337,-244 341,-244 341,-224 337,-224 337,-220 341,-220 341,-216 397,-216 397,-252"/>
<polyline fill="none" stroke="black" points="341,-248 345,-248 345,-244 341,-244 "/>
<polyline fill="none" stroke="black" points="341,-224 345,-224 345,-220 341,-220 "/>
<text text-anchor="middle" x="369" y="-230.3" font-family="Times,serif" font-size="14.00">op.py</text>
</a>
</g>
</g>
<!-- pipeline.py -->
<g id="node7" class="node">
<title>pipeline.py</title>
<g id="a_node7"><a xlink:href="reference.html#module-graphtik.pipeline" xlink:title="(public)">
<polygon fill="wheat" stroke="black" points="410.5,-180 315.5,-180 315.5,-176 311.5,-176 311.5,-172 315.5,-172 315.5,-152 311.5,-152 311.5,-148 315.5,-148 315.5,-144 410.5,-144 410.5,-180"/>
<polyline fill="none" stroke="black" points="315.5,-176 319.5,-176 319.5,-172 315.5,-172 "/>
<polyline fill="none" stroke="black" points="315.5,-152 319.5,-152 319.5,-148 315.5,-148 "/>
<text text-anchor="middle" x="363" y="-158.3" font-family="Times,serif" font-size="14.00">pipeline.py</text>
</a>
</g>
</g>
<!-- op.py&#45;&gt;pipeline.py -->
<g id="edge10" class="edge">
<title>op.py&#45;&gt;pipeline.py</title>
<g id="a_edge10"><a xlink:title="(run&#45;time)">
<path fill="none" stroke="black" stroke-dasharray="5,2" d="M361.6,-215.7C360.14,-207.98 359.12,-198.71 358.73,-190.11"/>
<polygon fill="black" stroke="black" points="362.23,-190.05 358.57,-180.1 355.23,-190.16 362.23,-190.05"/>
</a>
</g>
</g>
<!-- network.py -->
<g id="node5" class="node">
<title>network.py</title>
<g id="a_node5"><a xlink:href="reference.html#module-graphtik.network" xlink:title="(private)">
<polygon fill="AliceBlue" stroke="black" points="429.5,-108 332.5,-108 332.5,-104 328.5,-104 328.5,-100 332.5,-100 332.5,-80 328.5,-80 328.5,-76 332.5,-76 332.5,-72 429.5,-72 429.5,-108"/>
<polyline fill="none" stroke="black" points="332.5,-104 336.5,-104 336.5,-100 332.5,-100 "/>
<polyline fill="none" stroke="black" points="332.5,-80 336.5,-80 336.5,-76 332.5,-76 "/>
<text text-anchor="middle" x="381" y="-86.3" font-family="Times,serif" font-size="14.00">network.py</text>
</a>
</g>
</g>
<!-- network.py&#45;&gt;op.py -->
<g id="edge1" class="edge">
<title>network.py&#45;&gt;op.py</title>
<g id="a_edge1"><a xlink:title="(import&#45;time)">
<path fill="none" stroke="black" d="M397.89,-108.01C406.29,-117.69 415.58,-130.54 420,-144 424.99,-159.2 425.98,-165.16 420,-180 415.65,-190.79 407.94,-200.61 399.81,-208.79"/>
<polygon fill="black" stroke="black" points="397.21,-206.43 392.3,-215.82 402,-211.54 397.21,-206.43"/>
</a>
</g>
</g>
<!-- execution.py -->
<g id="node6" class="node">
<title>execution.py</title>
<g id="a_node6"><a xlink:href="reference.html#module-graphtik.execution" xlink:title="(private)">
<polygon fill="AliceBlue" stroke="black" points="434.5,-36 327.5,-36 327.5,-32 323.5,-32 323.5,-28 327.5,-28 327.5,-8 323.5,-8 323.5,-4 327.5,-4 327.5,0 434.5,0 434.5,-36"/>
<polyline fill="none" stroke="black" points="327.5,-32 331.5,-32 331.5,-28 327.5,-28 "/>
<polyline fill="none" stroke="black" points="327.5,-8 331.5,-8 331.5,-4 327.5,-4 "/>
<text text-anchor="middle" x="381" y="-14.3" font-family="Times,serif" font-size="14.00">execution.py</text>
</a>
</g>
</g>
<!-- network.py&#45;&gt;execution.py -->
<g id="edge8" class="edge">
<title>network.py&#45;&gt;execution.py</title>
<g id="a_edge8"><a xlink:title="(run&#45;time)">
<path fill="none" stroke="black" stroke-dasharray="5,2" d="M375.08,-71.7C374.29,-63.98 374.06,-54.71 374.4,-46.11"/>
<polygon fill="black" stroke="black" points="377.9,-46.32 375.1,-36.1 370.92,-45.84 377.9,-46.32"/>
</a>
</g>
</g>
<!-- execution.py&#45;&gt;op.py -->
<g id="edge2" class="edge">
<title>execution.py&#45;&gt;op.py</title>
<g id="a_edge2"><a xlink:title="(import&#45;time)">
<path fill="none" stroke="black" d="M408.34,-36.23C420.11,-45.28 432.62,-57.52 439,-72 458.37,-115.94 457.82,-137.22 436,-180 429.22,-193.29 417.43,-204.32 405.6,-212.81"/>
<polygon fill="black" stroke="black" points="403.42,-210.06 397.06,-218.54 407.32,-215.88 403.42,-210.06"/>
</a>
</g>
</g>
<!-- execution.py&#45;&gt;network.py -->
<g id="edge7" class="edge">
<title>execution.py&#45;&gt;network.py</title>
<g id="a_edge7"><a xlink:title="(import&#45;time)">
<path fill="none" stroke="black" d="M386.9,-36.1C387.7,-43.79 387.94,-53.05 387.6,-61.67"/>
<polygon fill="black" stroke="black" points="384.11,-61.48 386.92,-71.7 391.09,-61.96 384.11,-61.48"/>
</a>
</g>
</g>
<!-- pipeline.py&#45;&gt;op.py -->
<g id="edge3" class="edge">
<title>pipeline.py&#45;&gt;op.py</title>
<g id="a_edge3"><a xlink:title="(import&#45;time)">
<path fill="none" stroke="black" d="M370.36,-180.1C371.83,-187.79 372.86,-197.05 373.26,-205.67"/>
<polygon fill="black" stroke="black" points="369.76,-205.76 373.43,-215.7 376.76,-205.64 369.76,-205.76"/>
</a>
</g>
</g>
<!-- pipeline.py&#45;&gt;network.py -->
<g id="edge9" class="edge">
<title>pipeline.py&#45;&gt;network.py</title>
<g id="a_edge9"><a xlink:title="(run&#45;time)">
<path fill="none" stroke="black" stroke-dasharray="5,2" d="M367.45,-143.7C369.45,-135.9 371.87,-126.51 374.1,-117.83"/>
<polygon fill="black" stroke="black" points="377.5,-118.66 376.6,-108.1 370.72,-116.92 377.5,-118.66"/>
</a>
</g>
</g>
<!-- plot.py&#45;&gt;op.py -->
<g id="edge4" class="edge">
<title>plot.py&#45;&gt;op.py</title>
<g id="a_edge4"><a xlink:title="(import&#45;time)">
<path fill="none" stroke="black" d="M307.27,-287.7C317.5,-278.97 330.06,-268.24 341.18,-258.75"/>
<polygon fill="black" stroke="black" points="343.63,-261.26 348.96,-252.1 339.09,-255.94 343.63,-261.26"/>
</a>
</g>
</g>
<!-- plot.py&#45;&gt;network.py -->
<g id="edge11" class="edge">
<title>plot.py&#45;&gt;network.py</title>
<g id="a_edge11"><a xlink:title="(run&#45;time)">
<path fill="none" stroke="black" stroke-dasharray="5,2" d="M284.69,-287.58C281.44,-256.38 278.66,-189.96 306,-144 313.28,-131.76 324.61,-121.61 336.28,-113.58"/>
<polygon fill="black" stroke="black" points="338.26,-116.46 344.78,-108.11 334.48,-110.58 338.26,-116.46"/>
</a>
</g>
</g>
<!-- plot.py&#45;&gt;execution.py -->
<g id="edge12" class="edge">
<title>plot.py&#45;&gt;execution.py</title>
<g id="a_edge12"><a xlink:title="(run&#45;time)">
<path fill="none" stroke="black" stroke-dasharray="5,2" d="M283.75,-287.89C281.95,-277.54 279.91,-264.06 279,-252 275.4,-203.97 274.04,-190.1 288,-144 298.37,-109.76 302.56,-100.64 324,-72 331.85,-61.52 341.92,-51.38 351.4,-42.83"/>
<polygon fill="black" stroke="black" points="353.94,-45.26 359.17,-36.04 349.34,-39.98 353.94,-45.26"/>
</a>
</g>
</g>
<!-- sphinxext/ -->
<g id="node9" class="node">
<title>sphinxext/</title>
<g id="a_node9"><a xlink:href="reference.html#module-graphtik.sphinxext" xlink:title="(extra)">
<polygon fill="Aquamarine" stroke="black" points="420.5,-396 329.5,-396 329.5,-392 325.5,-392 325.5,-388 329.5,-388 329.5,-368 325.5,-368 325.5,-364 329.5,-364 329.5,-360 420.5,-360 420.5,-396"/>
<polyline fill="none" stroke="black" points="329.5,-392 333.5,-392 333.5,-388 329.5,-388 "/>
<polyline fill="none" stroke="black" points="329.5,-368 333.5,-368 333.5,-364 329.5,-364 "/>
<text text-anchor="middle" x="375" y="-374.3" font-family="Times,serif" font-size="14.00">sphinxext/</text>
</a>
</g>
</g>
<!-- sphinxext/&#45;&gt;op.py -->
<g id="edge5" class="edge">
<title>sphinxext/&#45;&gt;op.py</title>
<g id="a_edge5"><a xlink:title="(import&#45;time)">
<path fill="none" stroke="black" d="M374.28,-359.87C373.25,-335.67 371.38,-291.21 370.16,-262.39"/>
<polygon fill="black" stroke="black" points="373.65,-262.03 369.73,-252.19 366.65,-262.33 373.65,-262.03"/>
</a>
</g>
</g>
<!-- sphinxext/&#45;&gt;execution.py -->
<g id="edge13" class="edge">
<title>sphinxext/&#45;&gt;execution.py</title>
<g id="a_edge13"><a xlink:title="(import&#45;time)">
<path fill="none" stroke="black" d="M411.42,-359.81C452.9,-337.42 515,-294.03 515,-235 515,-235 515,-235 515,-161 515,-106.8 462.72,-64.9 423.47,-41.09"/>
<polygon fill="black" stroke="black" points="425.21,-38.05 414.81,-36 421.66,-44.09 425.21,-38.05"/>
</a>
</g>
</g>
<!-- sphinxext/&#45;&gt;plot.py -->
<g id="edge14" class="edge">
<title>sphinxext/&#45;&gt;plot.py</title>
<g id="a_edge14"><a xlink:title="(import&#45;time)">
<path fill="none" stroke="black" d="M353.25,-359.7C342.16,-350.88 328.53,-340.03 316.51,-330.47"/>
<polygon fill="black" stroke="black" points="318.51,-327.59 308.5,-324.1 314.15,-333.07 318.51,-327.59"/>
</a>
</g>
</g>
</g>
</svg>
