<?xml version="1.0" encoding="UTF-8" standalone="no"?>
<!DOCTYPE svg PUBLIC "-//W3C//DTD SVG 1.1//EN"
 "http://www.w3.org/Graphics/SVG/1.1/DTD/svg11.dtd">
<!-- Generated by graphviz version 2.43.0 (0)
 -->
<!-- Title: %3 Pages: 1 -->
<svg width="511pt" height="466pt"
 viewBox="0.00 0.00 511.00 466.00" xmlns="http://www.w3.org/2000/svg" xmlns:xlink="http://www.w3.org/1999/xlink">
<g id="graph0" class="graph" transform="scale(1 1) rotate(0) translate(4 462)">
<title>%3</title>
<polygon fill="white" stroke="transparent" points="-4,4 -4,-462 507,-462 507,4 -4,4"/>
<text text-anchor="middle" x="251.5" y="-442.8" font-family="Times,serif" font-size="14.00">graphtik&#45;v8+ module dependencies</text>
<g id="clust1" class="cluster">
<title>cluster_core</title>
<polygon fill="none" stroke="black" points="8,-352 8,-427 320,-427 320,-352 8,-352"/>
<text text-anchor="middle" x="164" y="-411.8" font-family="Times,serif" font-size="14.00">core modules</text>
</g>
<!-- base.py -->
<g id="node1" class="node">
<title>base.py</title>
<g id="a_node1"><a xlink:href="reference.html#module-graphtik.base" xlink:title="(implicit) everything imports this module">
<polygon fill="AliceBlue" stroke="black" points="311.5,-396 240.5,-396 240.5,-392 236.5,-392 236.5,-388 240.5,-388 240.5,-368 236.5,-368 236.5,-364 240.5,-364 240.5,-360 311.5,-360 311.5,-396"/>
<polyline fill="none" stroke="black" points="240.5,-392 244.5,-392 244.5,-388 240.5,-388 "/>
<polyline fill="none" stroke="black" points="240.5,-368 244.5,-368 244.5,-364 240.5,-364 "/>
<text text-anchor="middle" x="276" y="-374.3" font-family="Times,serif" font-size="14.00">base.py</text>
</a>
</g>
</g>
<!-- plot.py -->
<g id="node8" class="node">
<title>plot.py</title>
<g id="a_node8"><a xlink:href="reference.html#module-graphtik.plot" xlink:title="(extra)">
<polygon fill="Aquamarine" stroke="black" points="324,-324 258,-324 258,-320 254,-320 254,-316 258,-316 258,-296 254,-296 254,-292 258,-292 258,-288 324,-288 324,-324"/>
<polyline fill="none" stroke="black" points="258,-320 262,-320 262,-316 258,-316 "/>
<polyline fill="none" stroke="black" points="258,-296 262,-296 262,-292 258,-292 "/>
<text text-anchor="middle" x="291" y="-302.3" font-family="Times,serif" font-size="14.00">plot.py</text>
</a>
</g>
</g>
<!-- base.py&#45;&gt;plot.py -->
<g id="edge6" class="edge">
<title>base.py&#45;&gt;plot.py</title>
<g id="a_edge6"><a xlink:title="(run&#45;time)">
<path fill="none" stroke="black" stroke-dasharray="5,2" d="M279.71,-359.7C281.36,-351.98 283.35,-342.71 285.19,-334.11"/>
<polygon fill="black" stroke="black" points="288.66,-334.62 287.33,-324.1 281.82,-333.15 288.66,-334.62"/>
</a>
</g>
</g>
<!-- config.py -->
<g id="node2" class="node">
<title>config.py</title>
<g id="a_node2"><a xlink:href="reference.html#module-graphtik.config" xlink:title="(public)">
<polygon fill="wheat" stroke="black" points="222,-396 140,-396 140,-392 136,-392 136,-388 140,-388 140,-368 136,-368 136,-364 140,-364 140,-360 222,-360 222,-396"/>
<polyline fill="none" stroke="black" points="140,-392 144,-392 144,-388 140,-388 "/>
<polyline fill="none" stroke="black" points="140,-368 144,-368 144,-364 140,-364 "/>
<text text-anchor="middle" x="181" y="-374.3" font-family="Times,serif" font-size="14.00">config.py</text>
</a>
</g>
</g>
<!-- modifiers.py -->
<g id="node3" class="node">
<title>modifiers.py</title>
<g id="a_node3"><a xlink:href="reference.html#module-graphtik.modifiers" xlink:title="(public) almost everything imports this module">
<polygon fill="wheat" stroke="black" points="122,-396 16,-396 16,-392 12,-392 12,-388 16,-388 16,-368 12,-368 12,-364 16,-364 16,-360 122,-360 122,-396"/>
<polyline fill="none" stroke="black" points="16,-392 20,-392 20,-388 16,-388 "/>
<polyline fill="none" stroke="black" points="16,-368 20,-368 20,-364 16,-364 "/>
<text text-anchor="middle" x="69" y="-374.3" font-family="Times,serif" font-size="14.00">modifiers.py</text>
</a>
</g>
</g>
<!-- op.py -->
<g id="node4" class="node">
<title>op.py</title>
<g id="a_node4"><a xlink:href="reference.html#module-graphtik.op" xlink:title="(public)">
<polygon fill="wheat" stroke="black" points="395,-252 339,-252 339,-248 335,-248 335,-244 339,-244 339,-224 335,-224 335,-220 339,-220 339,-216 395,-216 395,-252"/>
<polyline fill="none" stroke="black" points="339,-248 343,-248 343,-244 339,-244 "/>
<polyline fill="none" stroke="black" points="339,-224 343,-224 343,-220 339,-220 "/>
<text text-anchor="middle" x="367" y="-230.3" font-family="Times,serif" font-size="14.00">op.py</text>
</a>
</g>
</g>
<!-- netop.py -->
<g id="node7" class="node">
<title>netop.py</title>
<g id="a_node7"><a xlink:href="reference.html#module-graphtik.netop" xlink:title="(public)">
<polygon fill="wheat" stroke="black" points="398.5,-180 319.5,-180 319.5,-176 315.5,-176 315.5,-172 319.5,-172 319.5,-152 315.5,-152 315.5,-148 319.5,-148 319.5,-144 398.5,-144 398.5,-180"/>
<polyline fill="none" stroke="black" points="319.5,-176 323.5,-176 323.5,-172 319.5,-172 "/>
<polyline fill="none" stroke="black" points="319.5,-152 323.5,-152 323.5,-148 319.5,-148 "/>
<text text-anchor="middle" x="359" y="-158.3" font-family="Times,serif" font-size="14.00">netop.py</text>
</a>
</g>
</g>
<!-- op.py&#45;&gt;netop.py -->
<g id="edge10" class="edge">
<title>op.py&#45;&gt;netop.py</title>
<g id="a_edge10"><a xlink:title="(run&#45;time)">
<path fill="none" stroke="black" stroke-dasharray="5,2" d="M359.11,-215.7C357.43,-207.98 356.14,-198.71 355.5,-190.11"/>
<polygon fill="black" stroke="black" points="359,-189.94 355.06,-180.1 352.01,-190.25 359,-189.94"/>
</a>
</g>
</g>
<!-- network.py -->
<g id="node5" class="node">
<title>network.py</title>
<g id="a_node5"><a xlink:href="reference.html#module-graphtik.network" xlink:title="(private)">
<polygon fill="AliceBlue" stroke="black" points="421.5,-108 324.5,-108 324.5,-104 320.5,-104 320.5,-100 324.5,-100 324.5,-80 320.5,-80 320.5,-76 324.5,-76 324.5,-72 421.5,-72 421.5,-108"/>
<polyline fill="none" stroke="black" points="324.5,-104 328.5,-104 328.5,-100 324.5,-100 "/>
<polyline fill="none" stroke="black" points="324.5,-80 328.5,-80 328.5,-76 324.5,-76 "/>
<text text-anchor="middle" x="373" y="-86.3" font-family="Times,serif" font-size="14.00">network.py</text>
</a>
</g>
</g>
<!-- network.py&#45;&gt;op.py -->
<g id="edge1" class="edge">
<title>network.py&#45;&gt;op.py</title>
<g id="a_edge1"><a xlink:title="(import&#45;time)">
<path fill="none" stroke="black" d="M388.18,-108.3C395.73,-118.06 404.07,-130.9 408,-144 412.6,-159.32 413.17,-164.86 408,-180 404.56,-190.07 398.34,-199.72 391.77,-207.95"/>
<polygon fill="black" stroke="black" points="389,-205.8 385.17,-215.68 394.32,-210.35 389,-205.8"/>
</a>
</g>
</g>
<!-- execution.py -->
<g id="node6" class="node">
<title>execution.py</title>
<g id="a_node6"><a xlink:href="reference.html#module-graphtik.execution" xlink:title="(private)">
<polygon fill="AliceBlue" stroke="black" points="426.5,-36 319.5,-36 319.5,-32 315.5,-32 315.5,-28 319.5,-28 319.5,-8 315.5,-8 315.5,-4 319.5,-4 319.5,0 426.5,0 426.5,-36"/>
<polyline fill="none" stroke="black" points="319.5,-32 323.5,-32 323.5,-28 319.5,-28 "/>
<polyline fill="none" stroke="black" points="319.5,-8 323.5,-8 323.5,-4 319.5,-4 "/>
<text text-anchor="middle" x="373" y="-14.3" font-family="Times,serif" font-size="14.00">execution.py</text>
</a>
</g>
</g>
<!-- network.py&#45;&gt;execution.py -->
<g id="edge8" class="edge">
<title>network.py&#45;&gt;execution.py</title>
<g id="a_edge8"><a xlink:title="(run&#45;time)">
<path fill="none" stroke="black" stroke-dasharray="5,2" d="M367.08,-71.7C366.29,-63.98 366.06,-54.71 366.4,-46.11"/>
<polygon fill="black" stroke="black" points="369.9,-46.32 367.1,-36.1 362.92,-45.84 369.9,-46.32"/>
</a>
</g>
</g>
<!-- execution.py&#45;&gt;op.py -->
<g id="edge2" class="edge">
<title>execution.py&#45;&gt;op.py</title>
<g id="a_edge2"><a xlink:title="(import&#45;time)">
<path fill="none" stroke="black" d="M400.34,-36.23C412.11,-45.28 424.62,-57.52 431,-72 437.45,-86.64 431.88,-92.02 431,-108 429.22,-140.15 437.35,-151.18 423,-180 417.46,-191.14 408.55,-201.18 399.46,-209.45"/>
<polygon fill="black" stroke="black" points="397.17,-206.8 391.85,-215.96 401.72,-212.12 397.17,-206.8"/>
</a>
</g>
</g>
<!-- execution.py&#45;&gt;network.py -->
<g id="edge7" class="edge">
<title>execution.py&#45;&gt;network.py</title>
<g id="a_edge7"><a xlink:title="(import&#45;time)">
<path fill="none" stroke="black" d="M378.9,-36.1C379.7,-43.79 379.94,-53.05 379.6,-61.67"/>
<polygon fill="black" stroke="black" points="376.11,-61.48 378.92,-71.7 383.09,-61.96 376.11,-61.48"/>
</a>
</g>
</g>
<!-- netop.py&#45;&gt;op.py -->
<g id="edge3" class="edge">
<title>netop.py&#45;&gt;op.py</title>
<g id="a_edge3"><a xlink:title="(import&#45;time)">
<path fill="none" stroke="black" d="M366.85,-180.1C368.53,-187.79 369.83,-197.05 370.48,-205.67"/>
<polygon fill="black" stroke="black" points="366.99,-205.87 370.94,-215.7 373.98,-205.55 366.99,-205.87"/>
</a>
</g>
</g>
<!-- netop.py&#45;&gt;network.py -->
<g id="edge9" class="edge">
<title>netop.py&#45;&gt;network.py</title>
<g id="a_edge9"><a xlink:title="(run&#45;time)">
<path fill="none" stroke="black" stroke-dasharray="5,2" d="M362.46,-143.7C364,-135.98 365.86,-126.71 367.58,-118.11"/>
<polygon fill="black" stroke="black" points="371.05,-118.6 369.58,-108.1 364.19,-117.22 371.05,-118.6"/>
</a>
</g>
</g>
<!-- plot.py&#45;&gt;op.py -->
<g id="edge4" class="edge">
<title>plot.py&#45;&gt;op.py</title>
<g id="a_edge4"><a xlink:title="(import&#45;time)">
<path fill="none" stroke="black" d="M309.79,-287.7C319.17,-279.05 330.68,-268.45 340.91,-259.03"/>
<polygon fill="black" stroke="black" points="343.45,-261.45 348.43,-252.1 338.7,-256.3 343.45,-261.45"/>
</a>
</g>
</g>
<!-- plot.py&#45;&gt;network.py -->
<g id="edge11" class="edge">
<title>plot.py&#45;&gt;network.py</title>
<g id="a_edge11"><a xlink:title="(run&#45;time)">
<path fill="none" stroke="black" stroke-dasharray="5,2" d="M289.25,-287.81C286.91,-256.99 285.65,-191.13 311,-144 317.19,-132.49 326.98,-122.38 336.97,-114.17"/>
<polygon fill="black" stroke="black" points="339.18,-116.89 344.96,-108 334.9,-111.35 339.18,-116.89"/>
</a>
</g>
</g>
<!-- plot.py&#45;&gt;execution.py -->
<g id="edge12" class="edge">
<title>plot.py&#45;&gt;execution.py</title>
<g id="a_edge12"><a xlink:title="(run&#45;time)">
<path fill="none" stroke="black" stroke-dasharray="5,2" d="M288.09,-287.88C282.09,-246.98 272.3,-141.84 316,-72 322.78,-61.17 332.32,-51.11 341.66,-42.73"/>
<polygon fill="black" stroke="black" points="344.08,-45.27 349.4,-36.11 339.53,-39.95 344.08,-45.27"/>
</a>
</g>
</g>
<!-- sphinxext/ -->
<g id="node9" class="node">
<title>sphinxext/</title>
<g id="a_node9"><a xlink:href="reference.html#module-graphtik.sphinxext" xlink:title="(extra)">
<polygon fill="Aquamarine" stroke="black" points="420.5,-396 329.5,-396 329.5,-392 325.5,-392 325.5,-388 329.5,-388 329.5,-368 325.5,-368 325.5,-364 329.5,-364 329.5,-360 420.5,-360 420.5,-396"/>
<polyline fill="none" stroke="black" points="329.5,-392 333.5,-392 333.5,-388 329.5,-388 "/>
<polyline fill="none" stroke="black" points="329.5,-368 333.5,-368 333.5,-364 329.5,-364 "/>
<text text-anchor="middle" x="375" y="-374.3" font-family="Times,serif" font-size="14.00">sphinxext/</text>
</a>
</g>
</g>
<!-- sphinxext/&#45;&gt;op.py -->
<g id="edge5" class="edge">
<title>sphinxext/&#45;&gt;op.py</title>
<g id="a_edge5"><a xlink:title="(import&#45;time)">
<path fill="none" stroke="black" d="M374.04,-359.87C372.67,-335.67 370.17,-291.21 368.54,-262.39"/>
<polygon fill="black" stroke="black" points="372.03,-261.98 367.97,-252.19 365.04,-262.37 372.03,-261.98"/>
</a>
</g>
</g>
<!-- sphinxext/&#45;&gt;execution.py -->
<g id="edge13" class="edge">
<title>sphinxext/&#45;&gt;execution.py</title>
<g id="a_edge13"><a xlink:title="(import&#45;time)">
<path fill="none" stroke="black" d="M406.97,-359.81C444.88,-336.82 503,-292.25 503,-235 503,-235 503,-235 503,-161 503,-107.62 452.41,-65.58 414.35,-41.51"/>
<polygon fill="black" stroke="black" points="415.82,-38.3 405.47,-36.06 412.17,-44.27 415.82,-38.3"/>
</a>
</g>
</g>
<!-- sphinxext/&#45;&gt;plot.py -->
<g id="edge14" class="edge">
<title>sphinxext/&#45;&gt;plot.py</title>
<g id="a_edge14"><a xlink:title="(import&#45;time)">
<path fill="none" stroke="black" d="M354.24,-359.7C343.76,-350.97 330.89,-340.24 319.5,-330.75"/>
<polygon fill="black" stroke="black" points="321.45,-327.82 311.53,-324.1 316.97,-333.19 321.45,-327.82"/>
</a>
</g>
</g>
</g>
</svg>
