<?xml version="1.0" encoding="UTF-8" standalone="no"?>
<!DOCTYPE svg PUBLIC "-//W3C//DTD SVG 1.1//EN"
 "http://www.w3.org/Graphics/SVG/1.1/DTD/svg11.dtd">
<!-- Generated by graphviz version 2.43.0 (0)
 -->
<!-- Title: %3 Pages: 1 -->
<svg width="328pt" height="394pt"
 viewBox="0.00 0.00 328.00 394.00" xmlns="http://www.w3.org/2000/svg" xmlns:xlink="http://www.w3.org/1999/xlink">
<g id="graph0" class="graph" transform="scale(1 1) rotate(0) translate(4 390)">
<title>%3</title>
<polygon fill="white" stroke="transparent" points="-4,4 -4,-390 324,-390 324,4 -4,4"/>
<text text-anchor="middle" x="160" y="-370.8" font-family="Times,serif" font-size="14.00">graphtik&#45;v8.1+ module dependencies</text>
<g id="clust1" class="cluster">
<title>cluster_core</title>
<g id="a_clust1"><a xlink:title="most modules depend on them">
<polygon fill="none" stroke="black" points="8,-280 8,-355 196,-355 196,-280 8,-280"/>
<text text-anchor="middle" x="102" y="-339.8" font-family="Times,serif" font-size="14.00">core modules</text>
</a>
</g>
</g>
<!-- base.py -->
<g id="node1" class="node">
<title>base.py</title>
<g id="a_node1"><a xlink:href="reference.html#module-graphtik.base" xlink:title="(implicit) everything imports this module, not shown">
<polygon fill="AliceBlue" stroke="black" points="187.5,-324 116.5,-324 116.5,-320 112.5,-320 112.5,-316 116.5,-316 116.5,-296 112.5,-296 112.5,-292 116.5,-292 116.5,-288 187.5,-288 187.5,-324"/>
<polyline fill="none" stroke="black" points="116.5,-320 120.5,-320 120.5,-316 116.5,-316 "/>
<polyline fill="none" stroke="black" points="116.5,-296 120.5,-296 120.5,-292 116.5,-292 "/>
<text text-anchor="middle" x="152" y="-302.3" font-family="Times,serif" font-size="14.00">base.py</text>
</a>
</g>
</g>
<!-- config.py -->
<g id="node2" class="node">
<title>config.py</title>
<g id="a_node2"><a xlink:href="reference.html#module-graphtik.config" xlink:title="(public)">
<polygon fill="wheat" stroke="black" points="98,-324 16,-324 16,-320 12,-320 12,-316 16,-316 16,-296 12,-296 12,-292 16,-292 16,-288 98,-288 98,-324"/>
<polyline fill="none" stroke="black" points="16,-320 20,-320 20,-316 16,-316 "/>
<polyline fill="none" stroke="black" points="16,-296 20,-296 20,-292 16,-292 "/>
<text text-anchor="middle" x="57" y="-302.3" font-family="Times,serif" font-size="14.00">config.py</text>
</a>
</g>
</g>
<!-- modifiers.py -->
<g id="node3" class="node">
<title>modifiers.py</title>
<g id="a_node3"><a xlink:href="reference.html#module-graphtik.modifiers" xlink:title="(public) almost everything imports this module">
<polygon fill="wheat" stroke="black" points="217,-36 111,-36 111,-32 107,-32 107,-28 111,-28 111,-8 107,-8 107,-4 111,-4 111,0 217,0 217,-36"/>
<polyline fill="none" stroke="black" points="111,-32 115,-32 115,-28 111,-28 "/>
<polyline fill="none" stroke="black" points="111,-8 115,-8 115,-4 111,-4 "/>
<text text-anchor="middle" x="164" y="-14.3" font-family="Times,serif" font-size="14.00">modifiers.py</text>
</a>
</g>
</g>
<!-- composition.py -->
<g id="node4" class="node">
<title>composition.py</title>
<g id="a_node4"><a xlink:href="reference.html#module-graphtik.composition" xlink:title="(public)">
<polygon fill="wheat" stroke="black" points="268.5,-252 143.5,-252 143.5,-248 139.5,-248 139.5,-244 143.5,-244 143.5,-224 139.5,-224 139.5,-220 143.5,-220 143.5,-216 268.5,-216 268.5,-252"/>
<polyline fill="none" stroke="black" points="143.5,-248 147.5,-248 147.5,-244 143.5,-244 "/>
<polyline fill="none" stroke="black" points="143.5,-224 147.5,-224 147.5,-220 143.5,-220 "/>
<text text-anchor="middle" x="206" y="-230.3" font-family="Times,serif" font-size="14.00">composition.py</text>
</a>
</g>
</g>
<!-- composition.py&#45;&gt;modifiers.py -->
<g id="edge1" class="edge">
<title>composition.py&#45;&gt;modifiers.py</title>
<g id="a_edge1"><a xlink:title="(import&#45;time)">
<path fill="none" stroke="black" d="M143.31,-223.82C117.01,-216.53 88.9,-203.45 73,-180 41.29,-133.23 96.18,-74.68 133.59,-42.65"/>
<polygon fill="black" stroke="black" points="135.84,-45.33 141.27,-36.23 131.36,-39.96 135.84,-45.33"/>
</a>
</g>
</g>
<!-- network.py -->
<g id="node5" class="node">
<title>network.py</title>
<g id="a_node5"><a xlink:href="reference.html#module-graphtik.network" xlink:title="(private)">
<polygon fill="AliceBlue" stroke="black" points="179.5,-180 82.5,-180 82.5,-176 78.5,-176 78.5,-172 82.5,-172 82.5,-152 78.5,-152 78.5,-148 82.5,-148 82.5,-144 179.5,-144 179.5,-180"/>
<polyline fill="none" stroke="black" points="82.5,-176 86.5,-176 86.5,-172 82.5,-172 "/>
<polyline fill="none" stroke="black" points="82.5,-152 86.5,-152 86.5,-148 82.5,-148 "/>
<text text-anchor="middle" x="131" y="-158.3" font-family="Times,serif" font-size="14.00">network.py</text>
</a>
</g>
</g>
<!-- composition.py&#45;&gt;network.py -->
<g id="edge11" class="edge">
<title>composition.py&#45;&gt;network.py</title>
<g id="a_edge11"><a xlink:title="(run&#45;time)">
<path fill="none" stroke="black" stroke-dasharray="5,2" d="M181.54,-215.7C171.49,-207.14 160.08,-196.66 150.58,-187.3"/>
<polygon fill="black" stroke="black" points="152.96,-184.74 143.43,-180.1 147.99,-189.67 152.96,-184.74"/>
</a>
</g>
</g>
<!-- execution.py -->
<g id="node6" class="node">
<title>execution.py</title>
<g id="a_node6"><a xlink:href="reference.html#module-graphtik.execution" xlink:title="(private)">
<polygon fill="AliceBlue" stroke="black" points="258.5,-108 151.5,-108 151.5,-104 147.5,-104 147.5,-100 151.5,-100 151.5,-80 147.5,-80 147.5,-76 151.5,-76 151.5,-72 258.5,-72 258.5,-108"/>
<polyline fill="none" stroke="black" points="151.5,-104 155.5,-104 155.5,-100 151.5,-100 "/>
<polyline fill="none" stroke="black" points="151.5,-80 155.5,-80 155.5,-76 151.5,-76 "/>
<text text-anchor="middle" x="205" y="-86.3" font-family="Times,serif" font-size="14.00">execution.py</text>
</a>
</g>
</g>
<!-- composition.py&#45;&gt;execution.py -->
<g id="edge12" class="edge">
<title>composition.py&#45;&gt;execution.py</title>
<g id="a_edge12"><a xlink:title="(run&#45;time)">
<path fill="none" stroke="black" stroke-dasharray="5,2" d="M201.29,-215.87C198.57,-191.67 197.96,-147.21 199.73,-118.39"/>
<polygon fill="black" stroke="black" points="203.24,-118.43 200.53,-108.19 196.26,-117.89 203.24,-118.43"/>
</a>
</g>
</g>
<!-- plot.py -->
<g id="node7" class="node">
<title>plot.py</title>
<g id="a_node7"><a xlink:href="reference.html#module-graphtik.plot" xlink:title="(extra)">
<polygon fill="Aquamarine" stroke="black" points="320,-180 254,-180 254,-176 250,-176 250,-172 254,-172 254,-152 250,-152 250,-148 254,-148 254,-144 320,-144 320,-180"/>
<polyline fill="none" stroke="black" points="254,-176 258,-176 258,-172 254,-172 "/>
<polyline fill="none" stroke="black" points="254,-152 258,-152 258,-148 254,-148 "/>
<text text-anchor="middle" x="287" y="-158.3" font-family="Times,serif" font-size="14.00">plot.py</text>
</a>
</g>
</g>
<!-- composition.py&#45;&gt;plot.py -->
<g id="edge13" class="edge">
<title>composition.py&#45;&gt;plot.py</title>
<g id="a_edge13"><a xlink:title="(run&#45;time)">
<path fill="none" stroke="black" stroke-dasharray="5,2" d="M220.11,-215.7C229.4,-206.88 241.79,-196.03 253.42,-186.47"/>
<polygon fill="black" stroke="black" points="255.73,-189.11 261.31,-180.1 251.33,-183.66 255.73,-189.11"/>
</a>
</g>
</g>
<!-- network.py&#45;&gt;modifiers.py -->
<g id="edge2" class="edge">
<title>network.py&#45;&gt;modifiers.py</title>
<g id="a_edge2"><a xlink:title="(import&#45;time)">
<path fill="none" stroke="black" d="M131.76,-143.68C132.87,-125.55 135.56,-96.39 142,-72 144.34,-63.14 147.84,-53.8 151.36,-45.47"/>
<polygon fill="black" stroke="black" points="154.6,-46.81 155.44,-36.25 148.2,-43.98 154.6,-46.81"/>
</a>
</g>
</g>
<!-- network.py&#45;&gt;composition.py -->
<g id="edge5" class="edge">
<title>network.py&#45;&gt;composition.py</title>
<g id="a_edge5"><a xlink:title="(import&#45;time)">
<path fill="none" stroke="black" d="M155.22,-180.1C165.26,-188.64 176.67,-199.11 186.2,-208.48"/>
<polygon fill="black" stroke="black" points="183.84,-211.07 193.38,-215.7 188.81,-206.14 183.84,-211.07"/>
</a>
</g>
</g>
<!-- network.py&#45;&gt;execution.py -->
<g id="edge10" class="edge">
<title>network.py&#45;&gt;execution.py</title>
<g id="a_edge10"><a xlink:title="(run&#45;time)">
<path fill="none" stroke="black" stroke-dasharray="5,2" d="M143.38,-143.7C151.71,-134.97 162.87,-124.24 173.46,-114.75"/>
<polygon fill="black" stroke="black" points="175.82,-117.34 181.02,-108.1 171.2,-112.08 175.82,-117.34"/>
</a>
</g>
</g>
<!-- execution.py&#45;&gt;modifiers.py -->
<g id="edge3" class="edge">
<title>execution.py&#45;&gt;modifiers.py</title>
<g id="a_edge3"><a xlink:title="(import&#45;time)">
<path fill="none" stroke="black" d="M194.87,-71.7C190.15,-63.64 184.44,-53.89 179.22,-44.98"/>
<polygon fill="black" stroke="black" points="182.09,-42.96 174.02,-36.1 176.05,-46.5 182.09,-42.96"/>
</a>
</g>
</g>
<!-- execution.py&#45;&gt;composition.py -->
<g id="edge6" class="edge">
<title>execution.py&#45;&gt;composition.py</title>
<g id="a_edge6"><a xlink:title="(import&#45;time)">
<path fill="none" stroke="black" d="M209.71,-108.19C212.44,-132.42 213.04,-176.89 211.26,-205.68"/>
<polygon fill="black" stroke="black" points="207.75,-205.63 210.46,-215.87 214.73,-206.18 207.75,-205.63"/>
</a>
</g>
</g>
<!-- execution.py&#45;&gt;network.py -->
<g id="edge9" class="edge">
<title>execution.py&#45;&gt;network.py</title>
<g id="a_edge9"><a xlink:title="(import&#45;time)">
<path fill="none" stroke="black" d="M192.81,-108.1C184.53,-116.8 173.38,-127.52 162.78,-137.03"/>
<polygon fill="black" stroke="black" points="160.4,-134.46 155.21,-143.7 165.03,-139.72 160.4,-134.46"/>
</a>
</g>
</g>
<!-- plot.py&#45;&gt;modifiers.py -->
<g id="edge4" class="edge">
<title>plot.py&#45;&gt;modifiers.py</title>
<g id="a_edge4"><a xlink:title="(import&#45;time)">
<path fill="none" stroke="black" d="M287.3,-143.79C286.76,-124.42 283.18,-92.92 267,-72 256.46,-58.37 241.43,-47.93 226.11,-40.06"/>
<polygon fill="black" stroke="black" points="227.61,-36.9 217.08,-35.73 224.58,-43.21 227.61,-36.9"/>
</a>
</g>
</g>
<!-- plot.py&#45;&gt;composition.py -->
<g id="edge7" class="edge">
<title>plot.py&#45;&gt;composition.py</title>
<g id="a_edge7"><a xlink:title="(import&#45;time)">
<path fill="none" stroke="black" d="M273.1,-180.1C263.86,-188.89 251.49,-199.73 239.84,-209.31"/>
<polygon fill="black" stroke="black" points="237.51,-206.69 231.94,-215.7 241.92,-212.13 237.51,-206.69"/>
</a>
</g>
</g>
<!-- sphinxext/ -->
<g id="node8" class="node">
<title>sphinxext/</title>
<g id="a_node8"><a xlink:href="reference.html#module-graphtik.sphinxext" xlink:title="(extra)">
<polygon fill="Aquamarine" stroke="black" points="296.5,-324 205.5,-324 205.5,-320 201.5,-320 201.5,-316 205.5,-316 205.5,-296 201.5,-296 201.5,-292 205.5,-292 205.5,-288 296.5,-288 296.5,-324"/>
<polyline fill="none" stroke="black" points="205.5,-320 209.5,-320 209.5,-316 205.5,-316 "/>
<polyline fill="none" stroke="black" points="205.5,-296 209.5,-296 209.5,-292 205.5,-292 "/>
<text text-anchor="middle" x="251" y="-302.3" font-family="Times,serif" font-size="14.00">sphinxext/</text>
</a>
</g>
</g>
<!-- sphinxext/&#45;&gt;composition.py -->
<g id="edge8" class="edge">
<title>sphinxext/&#45;&gt;composition.py</title>
<g id="a_edge8"><a xlink:title="(import&#45;time)">
<path fill="none" stroke="black" d="M239.88,-287.7C234.64,-279.56 228.3,-269.69 222.52,-260.7"/>
<polygon fill="black" stroke="black" points="225.35,-258.62 217,-252.1 219.46,-262.41 225.35,-258.62"/>
</a>
</g>
</g>
<!-- sphinxext/&#45;&gt;plot.py -->
<g id="edge14" class="edge">
<title>sphinxext/&#45;&gt;plot.py</title>
<g id="a_edge14"><a xlink:title="(import&#45;time)">
<path fill="none" stroke="black" d="M261.24,-287.94C266.82,-277.84 273.32,-264.59 277,-252 282.91,-231.76 285.36,-207.98 286.37,-190.1"/>
<polygon fill="black" stroke="black" points="289.86,-190.22 286.81,-180.07 282.87,-189.91 289.86,-190.22"/>
</a>
</g>
</g>
</g>
</svg>
