<?xml version="1.0" encoding="UTF-8" standalone="no"?>
<!DOCTYPE svg PUBLIC "-//W3C//DTD SVG 1.1//EN"
 "http://www.w3.org/Graphics/SVG/1.1/DTD/svg11.dtd">
<!-- Generated by graphviz version 2.43.0 (0)
 -->
<!-- Title: G Pages: 1 -->
<svg width="395pt" height="738pt"
 viewBox="0.00 0.00 395.00 738.48" xmlns="http://www.w3.org/2000/svg" xmlns:xlink="http://www.w3.org/1999/xlink">
<g id="graph0" class="graph" transform="scale(1 1) rotate(0) translate(4 734.48)">
<title>G</title>
<polygon fill="white" stroke="transparent" points="-4,4 -4,-734.48 391,-734.48 391,4 -4,4"/>
<g id="clust1" class="cluster">
<title>cluster_legend</title>
<polygon fill="none" stroke="black" points="8,-8 8,-722.48 379,-722.48 379,-8 8,-8"/>
<text text-anchor="middle" x="193.5" y="-707.28" font-family="Times,serif" font-size="14.00">Graphtik Legend 8.1.0</text>
</g>
<!-- Dependencies -->
<g id="node1" class="node">
<title>Dependencies</title>
<text text-anchor="middle" x="299" y="-669.68" font-family="bold italic" font-size="16.00">Dependencies</text>
</g>
<!-- dependency -->
<g id="node2" class="node">
<title>dependency</title>
<ellipse fill="none" stroke="transparent" cx="303" cy="-597.48" rx="66.09" ry="18"/>
<text text-anchor="middle" x="303" y="-593.78" font-family="Times,serif" font-size="14.00">dependency</text>
</g>
<!-- Dependencies&#45;&gt;dependency -->
<g id="edge1" class="edge">
<title>Dependencies&#45;&gt;dependency</title>
<g id="a_edge1"><a xlink:href="https://graphtik.readthedocs.io/en/latest/arch.html#term-dependency" xlink:title="Compulsory: from src Operation &#45;&#45;&gt; dst `provides` OR src `needs` &#45;&#45;&gt; dst Operation.">
<path fill="none" stroke="black" d="M299.93,-655.32C300.4,-646.54 300.99,-635.64 301.53,-625.75"/>
<polygon fill="black" stroke="black" points="305.03,-625.72 302.08,-615.55 298.04,-625.35 305.03,-625.72"/>
</a>
</g>
</g>
<!-- optional -->
<g id="node3" class="node">
<title>optional</title>
<g id="a_node3"><a xlink:href="https://graphtik.readthedocs.io/en/latest/arch.html#term-needs" xlink:title="Target operation may run without source `need` OR source operation may not `provide` target data.">
<ellipse fill="none" stroke="transparent" cx="306" cy="-512.61" rx="65.11" ry="26.74"/>
<text text-anchor="middle" x="306" y="-516.41" font-family="Times,serif" font-size="14.00">optional</text>
<text text-anchor="middle" x="306" y="-501.41" font-family="Times,serif" font-size="14.00">partial out</text>
</a>
</g>
</g>
<!-- dependency&#45;&gt;optional -->
<g id="edge2" class="edge">
<title>dependency&#45;&gt;optional</title>
<path fill="none" stroke="black" stroke-dasharray="5,2" d="M303.62,-579.31C303.93,-570.7 304.32,-559.94 304.7,-549.64"/>
<polygon fill="black" stroke="black" points="308.2,-549.7 305.06,-539.58 301.2,-549.45 308.2,-549.7"/>
</g>
<!-- sideffect -->
<g id="node4" class="node">
<title>sideffect</title>
<g id="a_node4"><a xlink:href="https://graphtik.readthedocs.io/en/latest/arch.html#term-sideffects" xlink:title="Fictive data not consumed/produced by operation functions.">
<ellipse fill="none" stroke="transparent" cx="306" cy="-430.74" rx="50.89" ry="18"/>
<text text-anchor="middle" x="306" y="-427.04" font-family="Times,serif" font-size="14.00">sideffect</text>
</a>
</g>
</g>
<!-- optional&#45;&gt;sideffect -->
<g id="edge3" class="edge">
<title>optional&#45;&gt;sideffect</title>
<path fill="none" stroke="blue" d="M306,-485.46C306,-477.01 306,-467.63 306,-459.1"/>
<polygon fill="blue" stroke="blue" points="309.5,-458.89 306,-448.89 302.5,-458.89 309.5,-458.89"/>
</g>
<!-- broken -->
<g id="node5" class="node">
<title>broken</title>
<g id="a_node5"><a xlink:href="https://graphtik.readthedocs.io/en/latest/arch.html#term-partial outputs" xlink:title="Target data was not `provided` by source operation due to failure / partial&#45;outs.">
<ellipse fill="none" stroke="transparent" cx="306" cy="-357.74" rx="42.79" ry="18"/>
<text text-anchor="middle" x="306" y="-354.04" font-family="Times,serif" font-size="14.00">broken</text>
</a>
</g>
</g>
<!-- sideffect&#45;&gt;broken -->
<g id="edge4" class="edge">
<title>sideffect&#45;&gt;broken</title>
<path fill="none" stroke="red" stroke-dasharray="5,2" d="M306,-412.55C306,-404.53 306,-394.79 306,-385.81"/>
<polygon fill="red" stroke="red" points="309.5,-385.77 306,-375.77 302.5,-385.77 309.5,-385.77"/>
</g>
<!-- sequence -->
<g id="node6" class="node">
<title>sequence</title>
<g id="a_node6"><a xlink:href="https://graphtik.readthedocs.io/en/latest/arch.html#term-execution-steps" xlink:title="Sequence of execution steps.">
<ellipse fill="none" stroke="transparent" stroke-width="4" cx="306" cy="-261.87" rx="60.62" ry="26.74"/>
<text text-anchor="middle" x="306" y="-265.67" font-family="Times,serif" font-size="14.00">execution</text>
<text text-anchor="middle" x="306" y="-250.67" font-family="Times,serif" font-size="14.00">sequence</text>
</a>
</g>
</g>
<!-- broken&#45;&gt;sequence -->
<g id="edge5" class="edge">
<title>broken&#45;&gt;sequence</title>
<path fill="none" stroke="#00bbbb" stroke-width="4" stroke-dasharray="1,5" d="M306,-339.52C306,-328.22 306,-313.01 306,-299.12"/>
<polygon fill="#00bbbb" stroke="#00bbbb" stroke-width="4" points="306,-288.84 310.5,-298.84 307.5,-293.84 307.5,-298.84 306,-298.84 304.5,-298.84 304.5,-293.84 301.5,-298.84 306,-288.84 306,-288.84"/>
<text text-anchor="middle" x="311" y="-310.54" font-family="Times,serif" font-size="14.00" fill="#00bbbb">1</text>
</g>
<!-- DataLabel -->
<g id="node7" class="node">
<title>DataLabel</title>
<text text-anchor="middle" x="180" y="-669.68" font-family="bold italic" font-size="16.00">Data</text>
</g>
<!-- data -->
<g id="node8" class="node">
<title>data</title>
<g id="a_node8"><a xlink:href="https://graphtik.readthedocs.io/en/latest/arch.html#term-graph" xlink:title="Any data not given or asked.">
<polygon fill="none" stroke="black" points="207,-615.48 153,-615.48 153,-579.48 207,-579.48 207,-615.48"/>
<text text-anchor="middle" x="180" y="-593.78" font-family="Times,serif" font-size="14.00">data</text>
</a>
</g>
</g>
<!-- DataLabel&#45;&gt;data -->
<!-- input -->
<g id="node9" class="node">
<title>input</title>
<g id="a_node9"><a xlink:href="https://graphtik.readthedocs.io/en/latest/arch.html#term-inputs" xlink:title="Solution value given into the computation.">
<polygon fill="none" stroke="black" points="136.74,-507.05 180,-494.61 223.26,-507.05 223.22,-527.17 136.78,-527.17 136.74,-507.05"/>
<text text-anchor="middle" x="180" y="-508.91" font-family="Times,serif" font-size="14.00">input</text>
</a>
</g>
</g>
<!-- data&#45;&gt;input -->
<!-- output -->
<g id="node10" class="node">
<title>output</title>
<g id="a_node10"><a xlink:href="https://graphtik.readthedocs.io/en/latest/arch.html#term-outputs" xlink:title="Solution value asked from the computation.">
<polygon fill="none" stroke="black" points="232.33,-436.3 181,-448.74 129.67,-436.3 129.72,-416.18 232.28,-416.18 232.33,-436.3"/>
<text text-anchor="middle" x="181" y="-427.04" font-family="Times,serif" font-size="14.00">output</text>
</a>
</g>
</g>
<!-- input&#45;&gt;output -->
<!-- inp_out -->
<g id="node11" class="node">
<title>inp_out</title>
<g id="a_node11"><a xlink:href="https://graphtik.readthedocs.io/en/latest/arch.html#term-dependency" xlink:title="Data both given and asked.">
<polygon fill="none" stroke="black" points="236.57,-357.74 208.79,-375.74 153.21,-375.74 125.43,-357.74 153.21,-339.74 208.79,-339.74 236.57,-357.74"/>
<text text-anchor="middle" x="181" y="-354.04" font-family="Times,serif" font-size="14.00">inp+out</text>
</a>
</g>
</g>
<!-- output&#45;&gt;inp_out -->
<!-- sfx -->
<g id="node13" class="node">
<title>sfx</title>
<g id="a_node13"><a xlink:href="https://graphtik.readthedocs.io/en/latest/arch.html#term-sideffects" xlink:title="Fictive data not consumed/produced by operation functions.">
<polygon fill="none" stroke="blue" points="220,-279.87 142,-279.87 142,-243.87 220,-243.87 220,-279.87"/>
<text text-anchor="middle" x="181" y="-258.17" font-family="Times,serif" font-size="14.00" fill="blue">sideffect</text>
</a>
</g>
</g>
<!-- inp_out&#45;&gt;sfx -->
<!-- evicted -->
<g id="node12" class="node">
<title>evicted</title>
<g id="a_node12"><a xlink:href="https://graphtik.readthedocs.io/en/latest/arch.html#term-evictions" xlink:title="Instruction step to erase data from solution, to save memory.">
<polygon fill="none" stroke="#006666" stroke-width="3" stroke-dasharray="5,2" points="215,-198 147,-198 147,-162 215,-162 215,-198"/>
<text text-anchor="middle" x="181" y="-176.3" font-family="Times,serif" font-size="14.00" fill="#006666">evicted</text>
</a>
</g>
</g>
<!-- sol -->
<g id="node14" class="node">
<title>sol</title>
<g id="a_node14"><a xlink:href="https://graphtik.readthedocs.io/en/latest/arch.html#term-solution" xlink:title="Data contained in the solution.">
<polygon fill="wheat" stroke="black" points="226.5,-125 135.5,-125 135.5,-89 226.5,-89 226.5,-125"/>
<text text-anchor="middle" x="181" y="-103.3" font-family="Times,serif" font-size="14.00">with value</text>
</a>
</g>
</g>
<!-- evicted&#45;&gt;sol -->
<!-- sfx&#45;&gt;evicted -->
<!-- overwrite -->
<g id="node15" class="node">
<title>overwrite</title>
<g id="a_node15"><a xlink:href="https://graphtik.readthedocs.io/en/latest/arch.html#term-overwrite" xlink:title="More than 1 values exist in solution with this name.">
<polygon fill="SkyBlue" stroke="black" points="224,-52 138,-52 138,-16 224,-16 224,-52"/>
<text text-anchor="middle" x="181" y="-30.3" font-family="Times,serif" font-size="14.00">overwrite</text>
</a>
</g>
</g>
<!-- sol&#45;&gt;overwrite -->
<!-- Operations -->
<g id="node16" class="node">
<title>Operations</title>
<text text-anchor="middle" x="74" y="-669.68" font-family="bold italic" font-size="16.00">Operations</text>
</g>
<!-- operation -->
<g id="node17" class="node">
<title>operation</title>
<g id="a_node17"><a xlink:href="https://graphtik.readthedocs.io/en/latest/arch.html#term-operation" xlink:title="A function with needs &amp; provides.">
<polyline fill="none" stroke="black" points="36,-596.48 111,-596.48 "/>
<text text-anchor="start" x="39" y="-603.28" font-family="Times,serif" font-size="14.00">operation</text>
<text text-anchor="start" x="44" y="-584.28" font-family="Times,serif" font-style="italic" font-size="14.00">function</text>
<path fill="none" stroke="black" d="M46.5,-576.48C46.5,-576.48 99.5,-576.48 99.5,-576.48 105.5,-576.48 111.5,-582.48 111.5,-588.48 111.5,-588.48 111.5,-606.48 111.5,-606.48 111.5,-612.48 105.5,-618.48 99.5,-618.48 99.5,-618.48 46.5,-618.48 46.5,-618.48 40.5,-618.48 34.5,-612.48 34.5,-606.48 34.5,-606.48 34.5,-588.48 34.5,-588.48 34.5,-582.48 40.5,-576.48 46.5,-576.48"/>
</a>
</g>
</g>
<!-- Operations&#45;&gt;operation -->
<!-- pruned -->
<g id="node18" class="node">
<title>pruned</title>
<g id="a_node18"><a xlink:href="https://graphtik.readthedocs.io/en/latest/arch.html#term-prune" xlink:title="Operation excluded from plan.">
<text text-anchor="start" x="47" y="-508.41" font-family="Times,serif" font-size="14.00" fill="#d3d3d3">pruned</text>
<path fill="none" stroke="#d3d3d3" d="M50.33,-500.11C50.33,-500.11 95.67,-500.11 95.67,-500.11 99.83,-500.11 104,-504.28 104,-508.44 104,-508.44 104,-516.78 104,-516.78 104,-520.94 99.83,-525.11 95.67,-525.11 95.67,-525.11 50.33,-525.11 50.33,-525.11 46.17,-525.11 42,-520.94 42,-516.78 42,-516.78 42,-508.44 42,-508.44 42,-504.28 46.17,-500.11 50.33,-500.11"/>
</a>
</g>
</g>
<!-- operation&#45;&gt;pruned -->
<!-- executed -->
<g id="node19" class="node">
<title>executed</title>
<g id="a_node19"><a xlink:href="https://graphtik.readthedocs.io/en/latest/arch.html#term-solution" xlink:title="Operation executed successfully.">
<path fill="wheat" stroke="transparent" d="M42.83,-418.24C42.83,-418.24 101.17,-418.24 101.17,-418.24 105.33,-418.24 109.5,-422.41 109.5,-426.57 109.5,-426.57 109.5,-434.91 109.5,-434.91 109.5,-439.07 105.33,-443.24 101.17,-443.24 101.17,-443.24 42.83,-443.24 42.83,-443.24 38.67,-443.24 34.5,-439.07 34.5,-434.91 34.5,-434.91 34.5,-426.57 34.5,-426.57 34.5,-422.41 38.67,-418.24 42.83,-418.24"/>
<text text-anchor="start" x="40" y="-426.54" font-family="Times,serif" font-size="14.00">executed</text>
<path fill="none" stroke="black" d="M42.83,-418.24C42.83,-418.24 101.17,-418.24 101.17,-418.24 105.33,-418.24 109.5,-422.41 109.5,-426.57 109.5,-426.57 109.5,-434.91 109.5,-434.91 109.5,-439.07 105.33,-443.24 101.17,-443.24 101.17,-443.24 42.83,-443.24 42.83,-443.24 38.67,-443.24 34.5,-439.07 34.5,-434.91 34.5,-434.91 34.5,-426.57 34.5,-426.57 34.5,-422.41 38.67,-418.24 42.83,-418.24"/>
</a>
</g>
</g>
<!-- pruned&#45;&gt;executed -->
<!-- failed -->
<g id="node20" class="node">
<title>failed</title>
<g id="a_node20"><a xlink:href="https://graphtik.readthedocs.io/en/latest/arch.html#term-endurance" xlink:title="Failed operation &#45; downstream ops will cancel.">
<path fill="LightCoral" stroke="transparent" d="M55.33,-345.24C55.33,-345.24 88.67,-345.24 88.67,-345.24 92.83,-345.24 97,-349.41 97,-353.57 97,-353.57 97,-361.91 97,-361.91 97,-366.07 92.83,-370.24 88.67,-370.24 88.67,-370.24 55.33,-370.24 55.33,-370.24 51.17,-370.24 47,-366.07 47,-361.91 47,-361.91 47,-353.57 47,-353.57 47,-349.41 51.17,-345.24 55.33,-345.24"/>
<text text-anchor="start" x="52" y="-353.54" font-family="Times,serif" font-size="14.00">failed</text>
<path fill="none" stroke="black" d="M55.33,-345.24C55.33,-345.24 88.67,-345.24 88.67,-345.24 92.83,-345.24 97,-349.41 97,-353.57 97,-353.57 97,-361.91 97,-361.91 97,-366.07 92.83,-370.24 88.67,-370.24 88.67,-370.24 55.33,-370.24 55.33,-370.24 51.17,-370.24 47,-366.07 47,-361.91 47,-361.91 47,-353.57 47,-353.57 47,-349.41 51.17,-345.24 55.33,-345.24"/>
</a>
</g>
</g>
<!-- executed&#45;&gt;failed -->
<!-- rescheduled -->
<g id="node21" class="node">
<title>rescheduled</title>
<g id="a_node21"><a xlink:href="https://graphtik.readthedocs.io/en/latest/arch.html#term-reschedulling" xlink:title="Operation may fail or provide partial outputs so `net` must reschedule.">
<text text-anchor="start" x="42" y="-265.67" font-family="Times,serif" font-size="14.00">endured</text>
<text text-anchor="start" x="28" y="-250.67" font-family="Times,serif" font-size="14.00">rescheduled</text>
<path fill="none" stroke="black" stroke-width="4" d="M34,-240.87C34,-240.87 110,-240.87 110,-240.87 116,-240.87 122,-246.87 122,-252.87 122,-252.87 122,-270.87 122,-270.87 122,-276.87 116,-282.87 110,-282.87 110,-282.87 34,-282.87 34,-282.87 28,-282.87 22,-276.87 22,-270.87 22,-270.87 22,-252.87 22,-252.87 22,-246.87 28,-240.87 34,-240.87"/>
</a>
</g>
</g>
<!-- failed&#45;&gt;rescheduled -->
<!-- canceled -->
<g id="node22" class="node">
<title>canceled</title>
<g id="a_node22"><a xlink:href="https://graphtik.readthedocs.io/en/latest/arch.html#term-reschedule" xlink:title="Canceled operation due to failures or partial outputs upstream.">
<path fill="Grey" stroke="transparent" d="M43.83,-167.5C43.83,-167.5 100.17,-167.5 100.17,-167.5 104.33,-167.5 108.5,-171.67 108.5,-175.83 108.5,-175.83 108.5,-184.17 108.5,-184.17 108.5,-188.33 104.33,-192.5 100.17,-192.5 100.17,-192.5 43.83,-192.5 43.83,-192.5 39.67,-192.5 35.5,-188.33 35.5,-184.17 35.5,-184.17 35.5,-175.83 35.5,-175.83 35.5,-171.67 39.67,-167.5 43.83,-167.5"/>
<text text-anchor="start" x="41" y="-175.8" font-family="Times,serif" font-size="14.00">canceled</text>
<path fill="none" stroke="black" d="M43.83,-167.5C43.83,-167.5 100.17,-167.5 100.17,-167.5 104.33,-167.5 108.5,-171.67 108.5,-175.83 108.5,-175.83 108.5,-184.17 108.5,-184.17 108.5,-188.33 104.33,-192.5 100.17,-192.5 100.17,-192.5 43.83,-192.5 43.83,-192.5 39.67,-192.5 35.5,-188.33 35.5,-184.17 35.5,-184.17 35.5,-175.83 35.5,-175.83 35.5,-171.67 39.67,-167.5 43.83,-167.5"/>
</a>
</g>
</g>
<!-- rescheduled&#45;&gt;canceled -->
</g>
</svg>
