<?xml version="1.0" encoding="UTF-8" standalone="no"?>
<svg
   xmlns:dc="http://purl.org/dc/elements/1.1/"
   xmlns:cc="http://creativecommons.org/ns#"
   xmlns:rdf="http://www.w3.org/1999/02/22-rdf-syntax-ns#"
   xmlns:svg="http://www.w3.org/2000/svg"
   xmlns="http://www.w3.org/2000/svg"
   xmlns:sodipodi="http://sodipodi.sourceforge.net/DTD/sodipodi-0.dtd"
   xmlns:inkscape="http://www.inkscape.org/namespaces/inkscape"
   version="1.1"
   viewBox="0 0 448.27893 180.15663"
   fill="none"
   stroke="none"
   stroke-linecap="square"
   stroke-miterlimit="10"
   id="svg241"
   sodipodi:docname="CO2MPAS architecture.svg"
   width="448.27893"
   height="180.15663"
   inkscape:version="1.0.2 (e86c870879, 2021-01-15)">
  <metadata
     id="metadata247">
    <rdf:RDF>
      <cc:Work
         rdf:about="">
        <dc:format>image/svg+xml</dc:format>
        <dc:type
           rdf:resource="http://purl.org/dc/dcmitype/StillImage" />
      </cc:Work>
    </rdf:RDF>
  </metadata>
  <defs
     id="defs245" />
  <sodipodi:namedview
     pagecolor="#ffffff"
     bordercolor="#666666"
     borderopacity="1"
     objecttolerance="10"
     gridtolerance="10"
     guidetolerance="10"
     inkscape:pageopacity="0"
     inkscape:pageshadow="2"
     inkscape:window-width="2560"
     inkscape:window-height="1343"
     id="namedview243"
     showgrid="false"
     inkscape:zoom="1.3233333"
     inkscape:cx="327.75066"
     inkscape:cy="239.04987"
     inkscape:window-x="0"
     inkscape:window-y="0"
     inkscape:window-maximized="1"
     inkscape:current-layer="svg241" />
  <clipPath
     id="p.0">
    <path
       d="M 0,0 H 800 V 600 H 0 Z"
       clip-rule="nonzero"
       id="path2" />
  </clipPath>
  <g
     clip-path="url(#p.0)"
     id="g239"
     transform="translate(-72.249344,-60.95013)">
    <path
       fill="#000000"
       fill-opacity="0"
       d="M 0,0 H 800 V 600 H 0 Z"
       fill-rule="evenodd"
       id="path5" />
    <path
       fill="#efefef"
       d="m 242.6557,135.85846 v 0 c 0,-5.23885 4.24692,-9.48576 9.48575,-9.48576 h 37.94186 v 0 c 2.51578,0 4.92853,0.99939 6.70746,2.77832 1.77893,1.77893 2.77832,4.19166 2.77832,6.70744 v 70.85525 c 0,5.23885 -4.24692,9.48577 -9.48578,9.48577 h -37.94186 c -5.23883,0 -9.48575,-4.24692 -9.48575,-9.48577 z"
       fill-rule="evenodd"
       id="path7" />
    <path
       stroke="#b7b7b7"
       stroke-width="1"
       stroke-linejoin="round"
       stroke-linecap="butt"
       d="m 242.6557,135.85846 v 0 c 0,-5.23885 4.24692,-9.48576 9.48575,-9.48576 h 37.94186 v 0 c 2.51578,0 4.92853,0.99939 6.70746,2.77832 1.77893,1.77893 2.77832,4.19166 2.77832,6.70744 v 70.85525 c 0,5.23885 -4.24692,9.48577 -9.48578,9.48577 h -37.94186 c -5.23883,0 -9.48575,-4.24692 -9.48575,-9.48577 z"
       fill-rule="evenodd"
       id="path9" />
    <path
       fill="#efefef"
       d="m 237.0394,141.94972 v 0 c 0,-5.23885 4.24692,-9.48576 9.48575,-9.48576 h 37.94186 v 0 c 2.51578,0 4.92853,0.99939 6.70746,2.77832 1.77893,1.77891 2.77832,4.19166 2.77832,6.70744 v 70.85525 c 0,5.23885 -4.24692,9.48577 -9.48578,9.48577 h -37.94186 c -5.23883,0 -9.48575,-4.24692 -9.48575,-9.48577 z"
       fill-rule="evenodd"
       id="path11" />
    <path
       stroke="#b7b7b7"
       stroke-width="1"
       stroke-linejoin="round"
       stroke-linecap="butt"
       d="m 237.0394,141.94972 v 0 c 0,-5.23885 4.24692,-9.48576 9.48575,-9.48576 h 37.94186 v 0 c 2.51578,0 4.92853,0.99939 6.70746,2.77832 1.77893,1.77891 2.77832,4.19166 2.77832,6.70744 v 70.85525 c 0,5.23885 -4.24692,9.48577 -9.48578,9.48577 h -37.94186 c -5.23883,0 -9.48575,-4.24692 -9.48575,-9.48577 z"
       fill-rule="evenodd"
       id="path13" />
    <path
       fill="#f3f3f3"
       d="m 230.7268,148.23627 v 0 c 0,-5.23883 4.24692,-9.48575 9.48575,-9.48575 h 37.94186 v 0 c 2.51578,0 4.92853,0.99939 6.70746,2.77831 1.77893,1.77893 2.77832,4.19166 2.77832,6.70744 v 70.85527 c 0,5.23883 -4.24692,9.48575 -9.48578,9.48575 h -37.94186 c -5.23883,0 -9.48575,-4.24692 -9.48575,-9.48575 z"
       fill-rule="evenodd"
       id="path15" />
    <path
       stroke="#b7b7b7"
       stroke-width="1"
       stroke-linejoin="round"
       stroke-linecap="butt"
       d="m 230.7268,148.23627 v 0 c 0,-5.23883 4.24692,-9.48575 9.48575,-9.48575 h 37.94186 v 0 c 2.51578,0 4.92853,0.99939 6.70746,2.77831 1.77893,1.77893 2.77832,4.19166 2.77832,6.70744 v 70.85527 c 0,5.23883 -4.24692,9.48575 -9.48578,9.48575 h -37.94186 c -5.23883,0 -9.48575,-4.24692 -9.48575,-9.48575 z"
       fill-rule="evenodd"
       id="path17" />
    <path
       fill="#000000"
       fill-opacity="0"
       d="M 68.249344,58.95013 H 209.3202 v 54.51969 H 68.249344 Z"
       fill-rule="evenodd"
       id="path19" />
    <path
       fill="#000000"
       d="m 116.56602,83.310135 -0.25,-0.5625 q -0.10937,0.125 -0.71875,0.421875 -0.60937,0.296875 -1.26562,0.296875 h -0.25 q -0.5625,0 -1.03125,-0.21875 -0.45313,-0.21875 -0.75,-0.59375 -0.28125,-0.390625 -0.40625,-0.890625 -0.10938,-0.5 0.0156,-1.046875 l 0.76563,-3.609375 q 0.125,-0.546875 0.42187,-1.015625 0.29688,-0.484375 0.71875,-0.828125 0.4375,-0.359375 0.95313,-0.5625 0.53125,-0.203125 1.07812,-0.203125 h 0.25 q 0.60938,0 1.09375,0.265625 0.5,0.25 0.42188,0.390625 l 0.64062,-3.703125 h 1.64063 l -2.51563,11.859375 z m 0.5,-6.25 q 0.0625,-0.234375 0.0156,-0.40625 -0.0312,-0.1875 -0.14063,-0.3125 -0.0937,-0.125 -0.26562,-0.203125 -0.15625,-0.07813 -0.375,-0.07813 h -0.64063 q -0.21875,0 -0.45312,0.09375 -0.21875,0.07813 -0.40625,0.234375 -0.1875,0.15625 -0.32813,0.359375 -0.125,0.203125 -0.17187,0.4375 l -0.79688,3.71875 q -0.0625,0.21875 -0.0156,0.40625 0.0469,0.1875 0.14062,0.3125 0.0937,0.125 0.26563,0.203125 0.17187,0.07813 0.375,0.07813 h 0.64062 q 0.23438,0 0.45313,-0.07813 0.21875,-0.09375 0.40625,-0.25 0.1875,-0.15625 0.3125,-0.359375 0.14062,-0.21875 0.1875,-0.4375 z m 6.76563,6.25 -0.25,-0.5625 q -0.125,0.125 -0.73438,0.421875 -0.59375,0.296875 -1.25,0.296875 h -0.25 q -0.5625,0 -1.03125,-0.21875 -0.45312,-0.21875 -0.75,-0.59375 -0.28125,-0.390625 -0.40625,-0.890625 -0.10937,-0.5 0.0156,-1.046875 l 0.0156,-0.07813 q 0.125,-0.546875 0.42188,-1.015625 0.29687,-0.484375 0.71875,-0.828125 0.4375,-0.359375 0.95312,-0.5625 0.53125,-0.203125 1.07813,-0.203125 h 1.76562 l 0.20313,-0.96875 q 0.0625,-0.234375 0.0156,-0.40625 -0.0312,-0.1875 -0.14062,-0.3125 -0.0937,-0.125 -0.26563,-0.203125 -0.15625,-0.07813 -0.375,-0.07813 h -0.5625 q -0.21875,0 -0.45312,0.09375 -0.21875,0.07813 -0.40625,0.234375 -0.1875,0.15625 -0.32813,0.359375 -0.125,0.203125 -0.17187,0.4375 l -0.14063,0.59375 -1.5625,-0.265625 0.0781,-0.40625 q 0.125,-0.546875 0.42187,-1.015625 0.29688,-0.484375 0.71875,-0.828125 0.4375,-0.359375 0.95313,-0.5625 0.53125,-0.203125 1.07812,-0.203125 h 0.5625 q 0.5625,0 1.01563,0.21875 0.45312,0.203125 0.75,0.59375 0.29687,0.375 0.42187,0.875 0.125,0.5 0,1.046875 l -1.29687,6.078125 z m 0,-3.875 h -1.625 q -0.21875,0 -0.45313,0.09375 -0.21875,0.07813 -0.40625,0.234375 -0.1875,0.15625 -0.32812,0.375 -0.125,0.203125 -0.1875,0.4375 l -0.0781,0.34375 q -0.0469,0.203125 0,0.390625 0.0469,0.1875 0.14063,0.3125 0.0937,0.125 0.26562,0.203125 0.17188,0.07813 0.375,0.07813 h 0.64063 q 0.23437,0 0.45312,-0.07813 0.21875,-0.09375 0.40625,-0.25 0.1875,-0.15625 0.3125,-0.359375 0.14063,-0.21875 0.1875,-0.4375 z m 5.375,3.875 q -0.51563,0 -0.9375,-0.1875 -0.40625,-0.203125 -0.6875,-0.546875 -0.28125,-0.359375 -0.375,-0.8125 -0.0781,-0.453125 0.0156,-0.953125 l 0.96875,-4.59375 h -1.4375 l 0.34375,-1.5625 h 1.4375 l 0.39063,-1.875 1.6875,-0.28125 -0.45313,2.15625 h 2.03125 l -0.34375,1.5625 H 129.816 l -1,4.765625 q -0.0469,0.171875 -0.0156,0.3125 0.0312,0.140625 0.10937,0.234375 0.0781,0.09375 0.20313,0.15625 0.125,0.04687 0.29687,0.04687 h 1.28125 l -0.34375,1.578125 z m 7.44531,0 -0.25,-0.5625 q -0.125,0.125 -0.73437,0.421875 -0.59375,0.296875 -1.25,0.296875 h -0.25 q -0.5625,0 -1.03125,-0.21875 -0.45313,-0.21875 -0.75,-0.59375 -0.28125,-0.390625 -0.40625,-0.890625 -0.10938,-0.5 0.0156,-1.046875 l 0.0156,-0.07813 q 0.125,-0.546875 0.42187,-1.015625 0.29688,-0.484375 0.71875,-0.828125 0.4375,-0.359375 0.95313,-0.5625 0.53125,-0.203125 1.07812,-0.203125 h 1.76563 l 0.20312,-0.96875 q 0.0625,-0.234375 0.0156,-0.40625 -0.0312,-0.1875 -0.14063,-0.3125 -0.0937,-0.125 -0.26562,-0.203125 -0.15625,-0.07813 -0.375,-0.07813 h -0.5625 q -0.21875,0 -0.45313,0.09375 -0.21875,0.07813 -0.40625,0.234375 -0.1875,0.15625 -0.32812,0.359375 -0.125,0.203125 -0.17188,0.4375 l -0.14062,0.59375 -1.5625,-0.265625 0.0781,-0.40625 q 0.125,-0.546875 0.42188,-1.015625 0.29687,-0.484375 0.71875,-0.828125 0.4375,-0.359375 0.95312,-0.5625 0.53125,-0.203125 1.07813,-0.203125 h 0.5625 q 0.5625,0 1.01562,0.21875 0.45313,0.203125 0.75,0.59375 0.29688,0.375 0.42188,0.875 0.125,0.5 0,1.046875 l -1.29688,6.078125 z m 0,-3.875 h -1.625 q -0.21875,0 -0.45312,0.09375 -0.21875,0.07813 -0.40625,0.234375 -0.1875,0.15625 -0.32813,0.375 -0.125,0.203125 -0.1875,0.4375 l -0.0781,0.34375 q -0.0469,0.203125 0,0.390625 0.0469,0.1875 0.14062,0.3125 0.0937,0.125 0.26563,0.203125 0.17187,0.07813 0.375,0.07813 h 0.64062 q 0.23438,0 0.45313,-0.07813 0.21875,-0.09375 0.40625,-0.25 0.1875,-0.15625 0.3125,-0.359375 0.14062,-0.21875 0.1875,-0.4375 z m 2.9375,-1.03125 0.32813,-1.5625 h 3.67187 l -0.32812,1.5625 z m 7.03125,4.90625 q -0.51562,0 -0.9375,-0.1875 -0.40625,-0.203125 -0.6875,-0.546875 -0.28125,-0.359375 -0.375,-0.8125 -0.0781,-0.453125 0.0156,-0.953125 l 0.96875,-4.59375 h -1.4375 l 0.34375,-1.5625 h 1.4375 l 0.39062,-1.875 1.6875,-0.28125 -0.45312,2.15625 h 2.03125 l -0.34375,1.5625 h -2.03125 l -1,4.765625 q -0.0469,0.171875 -0.0156,0.3125 0.0312,0.140625 0.10938,0.234375 0.0781,0.09375 0.20312,0.15625 0.125,0.04687 0.29688,0.04687 h 1.28125 l -0.34375,1.578125 z m 6.49219,-7.09375 q -0.21875,0 -0.4375,0.09375 -0.21875,0.07813 -0.42188,0.234375 -0.1875,0.15625 -0.32812,0.375 -0.125,0.203125 -0.15625,0.421875 l -1.28125,5.96875 h -1.625 l 1.84375,-8.65625 h 0.79687 l 0.23438,0.546875 q 0.125,-0.125 0.73437,-0.40625 0.60938,-0.296875 1.28125,-0.296875 h 0.96875 l -0.375,1.71875 z m 6.89062,4.625 q -0.125,0.546875 -0.4375,1.03125 -0.29687,0.46875 -0.73437,0.828125 -0.42188,0.34375 -0.95313,0.5625 -0.51562,0.203125 -1.0625,0.203125 h -0.64062 q -0.5625,0 -1.03125,-0.21875 -0.45313,-0.21875 -0.75,-0.59375 -0.28125,-0.390625 -0.40625,-0.890625 -0.10938,-0.5 0.0156,-1.046875 l 0.76563,-3.609375 q 0.125,-0.546875 0.42187,-1.015625 0.29688,-0.484375 0.71875,-0.828125 0.4375,-0.359375 0.95313,-0.5625 0.53125,-0.203125 1.07812,-0.203125 h 0.64063 q 0.5625,0 1.01562,0.21875 0.45313,0.203125 0.75,0.59375 0.29688,0.375 0.42188,0.875 0.125,0.5 0,1.0625 l -0.46875,2.140625 h -4.39063 l -0.3125,1.515625 q -0.0625,0.21875 -0.0156,0.40625 0.0469,0.1875 0.14062,0.3125 0.0937,0.125 0.26563,0.203125 0.17187,0.07813 0.375,0.07813 h 0.64062 q 0.23438,0 0.45313,-0.07813 0.21875,-0.09375 0.40625,-0.25 0.1875,-0.15625 0.3125,-0.359375 0.14062,-0.21875 0.1875,-0.4375 l 0.1875,-0.84375 1.57812,0.265625 z m -0.84375,-3.78125 q 0.0625,-0.234375 0.0156,-0.40625 -0.0312,-0.1875 -0.14063,-0.3125 -0.0937,-0.125 -0.26562,-0.203125 -0.15625,-0.07813 -0.375,-0.07813 h -0.64063 q -0.21875,0 -0.45312,0.09375 -0.21875,0.07813 -0.40625,0.234375 -0.1875,0.15625 -0.32813,0.359375 -0.125,0.203125 -0.17187,0.4375 l -0.17188,0.796875 h 2.75 z m 8.10938,3.78125 q -0.125,0.546875 -0.4375,1.03125 -0.29688,0.46875 -0.73438,0.828125 -0.42187,0.34375 -0.95312,0.5625 -0.51563,0.203125 -1.0625,0.203125 h -0.64063 q -0.5625,0 -1.03125,-0.21875 -0.45312,-0.21875 -0.75,-0.59375 -0.28125,-0.390625 -0.40625,-0.890625 -0.10937,-0.5 0.0156,-1.046875 l 0.76562,-3.609375 q 0.125,-0.546875 0.42188,-1.015625 0.29687,-0.484375 0.71875,-0.828125 0.4375,-0.359375 0.95312,-0.5625 0.53125,-0.203125 1.07813,-0.203125 h 0.64062 q 0.5625,0 1.01563,0.21875 0.45312,0.203125 0.75,0.59375 0.29687,0.375 0.42187,0.875 0.125,0.5 0,1.0625 l -0.46875,2.140625 h -4.39062 l -0.3125,1.515625 q -0.0625,0.21875 -0.0156,0.40625 0.0469,0.1875 0.14063,0.3125 0.0937,0.125 0.26562,0.203125 0.17188,0.07813 0.375,0.07813 h 0.64063 q 0.23437,0 0.45312,-0.07813 0.21875,-0.09375 0.40625,-0.25 0.1875,-0.15625 0.3125,-0.359375 0.14063,-0.21875 0.1875,-0.4375 l 0.1875,-0.84375 1.57813,0.265625 z m -0.84375,-3.78125 q 0.0625,-0.234375 0.0156,-0.40625 -0.0312,-0.1875 -0.14062,-0.3125 -0.0937,-0.125 -0.26563,-0.203125 -0.15625,-0.07813 -0.375,-0.07813 h -0.64062 q -0.21875,0 -0.45313,0.09375 -0.21875,0.07813 -0.40625,0.234375 -0.1875,0.15625 -0.32812,0.359375 -0.125,0.203125 -0.17188,0.4375 l -0.17187,0.796875 h 2.75 z"
       fill-rule="nonzero"
       id="path21" />
    <path
       fill="#000000"
       d="m 83.89415,97.247635 q 0.28125,-1.34375 0.78125,-2.5 0.515625,-1.15625 1.171875,-2.140625 0.671875,-1 1.46875,-1.859375 0.8125,-0.859375 1.984375,-1.78125 l 0.828125,1.078125 q -1,0.84375 -1.703125,1.640625 -0.703125,0.78125 -1.28125,1.6875 -0.5625,0.90625 -1,1.90625 -0.421875,1 -0.640625,2.09375 -0.25,1.09375 -0.25,2.09375 0,1.000005 0.1875,1.890625 0.1875,0.89063 0.546875,1.65625 0.359375,0.78125 1.03125,1.65625 l -1.1875,0.98438 q -0.8125,-0.98438 -1.265625,-1.85938 -0.4375,-0.875 -0.6875,-1.875 -0.25,-1.01562 -0.265625,-2.171875 0,-1.171875 0.28125,-2.5 z m 6.609375,-4.859375 0.40625,-1.9375 h 1.796875 l -0.40625,1.9375 z m -2.03125,9.92188 1.84375,-8.656255 h 1.640625 l -1.84375,8.656255 z m 7.585937,0 1.328125,-6.250005 q 0.0625,-0.234375 0.01563,-0.40625 -0.03125,-0.1875 -0.140625,-0.3125 -0.09375,-0.125 -0.265625,-0.203125 -0.15625,-0.07813 -0.375,-0.07813 h -0.640625 q -0.21875,0 -0.453125,0.09375 -0.21875,0.07813 -0.40625,0.234375 -0.1875,0.15625 -0.328125,0.359375 -0.125,0.203125 -0.171875,0.4375 l -1.3125,6.12501 h -1.625 l 1.84375,-8.65626 h 0.796875 l 0.234375,0.546875 q 0.125,-0.125 0.734375,-0.40625 0.609375,-0.296875 1.28125,-0.296875 h 0.234375 q 0.5625,0 1.015625,0.21875 0.453125,0.203125 0.75,0.59375 0.296875,0.375 0.421875,0.875 0.125,0.5 0,1.046875 l -1.296875,6.078135 z m 9.437498,-2.468755 q -0.125,0.546875 -0.4375,1.031255 -0.29687,0.46875 -0.73437,0.82812 -0.42188,0.34375 -0.95313,0.5625 -0.51562,0.20313 -1.0625,0.20313 h -0.23437 q -0.625,0 -1.125,-0.25 -0.48438,-0.26563 -0.40625,-0.40625 l -0.656253,3.70312 h -1.625 l 2.531253,-11.859375 h 0.79687 l 0.23438,0.546875 q 0.125,-0.125 0.73437,-0.40625 0.60938,-0.296875 1.28125,-0.296875 h 0.23438 q 0.5625,0 1.01562,0.21875 0.45313,0.203125 0.75,0.59375 0.29688,0.375 0.42188,0.875 0.125,0.5 0,1.046875 z m -0.84375,-3.78125 q 0.0625,-0.234375 0.0156,-0.40625 -0.0312,-0.1875 -0.14063,-0.3125 -0.0937,-0.125 -0.26562,-0.203125 -0.15625,-0.07813 -0.375,-0.07813 h -0.64063 q -0.21875,0 -0.45312,0.09375 -0.21875,0.07813 -0.40625,0.234375 -0.1875,0.15625 -0.32813,0.359375 -0.125,0.203125 -0.17187,0.4375 l -0.79688,3.71875 q -0.0625,0.21876 -0.0156,0.40626 0.0469,0.1875 0.14062,0.3125 0.0937,0.125 0.26563,0.20312 0.17187,0.0781 0.375,0.0781 h 0.64062 q 0.23438,0 0.45313,-0.0781 0.21875,-0.0937 0.40625,-0.25 0.1875,-0.15625 0.3125,-0.35937 0.14062,-0.21876 0.1875,-0.43751 z m 6.76563,6.250005 -0.25,-0.5625 q -0.10938,0.125 -0.71875,0.42187 -0.60938,0.29688 -1.26563,0.29688 h -0.25 q -0.5625,0 -1.03125,-0.21875 -0.45312,-0.21875 -0.75,-0.59375 -0.28125,-0.39063 -0.40625,-0.89063 -0.10937,-0.5 0.0156,-1.046875 l 1.29687,-6.0625 h 1.625 l -1.32812,6.25 q -0.0625,0.218755 -0.0156,0.406255 0.0469,0.1875 0.14063,0.3125 0.0937,0.125 0.26562,0.20312 0.17188,0.0781 0.375,0.0781 h 0.64063 q 0.23437,0 0.45312,-0.0781 0.21875,-0.0937 0.40625,-0.25 0.1875,-0.15625 0.3125,-0.35937 0.14063,-0.218755 0.1875,-0.437505 l 1.3125,-6.125 h 1.64063 l -1.84375,8.656255 z m 5.375,0 q -0.51563,0 -0.9375,-0.1875 -0.40625,-0.20313 -0.6875,-0.54688 -0.28125,-0.35937 -0.375,-0.8125 -0.0781,-0.45312 0.0156,-0.953125 l 0.96875,-4.59375 h -1.4375 l 0.34375,-1.5625 h 1.4375 l 0.39063,-1.875 1.6875,-0.28125 -0.45313,2.15625 h 2.03125 l -0.34375,1.5625 h -2.03125 l -1,4.765625 q -0.0469,0.17188 -0.0156,0.3125 0.0312,0.14063 0.10937,0.23438 0.0781,0.0937 0.20313,0.15625 0.125,0.0469 0.29687,0.0469 h 1.28125 l -0.34375,1.57813 z m 8.91406,-2.29688 q -0.125,0.5625 -0.45313,1.01563 -0.3125,0.4375 -0.75,0.76562 -0.4375,0.3125 -0.96875,0.5 -0.51562,0.17188 -1.0625,0.17188 h -0.64062 q -0.5625,0 -1.03125,-0.21875 -0.45313,-0.21875 -0.76563,-0.59375 -0.3125,-0.375 -0.45312,-0.875 -0.125,-0.51563 0,-1.062505 l 0.10937,-0.53125 1.6875,-0.265625 -0.20312,0.984375 q -0.0469,0.203125 0,0.390625 0.0469,0.1875 0.15625,0.32813 0.125,0.125 0.29687,0.20312 0.1875,0.0781 0.39063,0.0781 h 0.64062 q 0.25,0 0.48438,-0.0625 0.25,-0.0781 0.4375,-0.20313 0.1875,-0.14062 0.3125,-0.3125 0.14062,-0.1875 0.1875,-0.390625 0.0781,-0.328125 -0.0156,-0.515625 -0.0781,-0.1875 -0.29687,-0.328125 -0.21875,-0.140625 -0.5625,-0.25 -0.32813,-0.125 -0.73438,-0.234375 -0.39062,-0.125 -0.79687,-0.296875 -0.40625,-0.171875 -0.71875,-0.484375 -0.29688,-0.3125 -0.42188,-0.765625 -0.125,-0.46875 0,-1.109375 0.125,-0.546875 0.4375,-1 0.3125,-0.46875 0.73438,-0.78125 0.42187,-0.328125 0.92187,-0.5 0.5,-0.171875 1.04688,-0.171875 h 0.5625 q 0.5625,0 1.01562,0.21875 0.45313,0.203125 0.75,0.59375 0.29688,0.375 0.42188,0.875 0.125,0.5 -0.0469,1.015625 l 0.0469,0.28125 -1.73438,0.265625 0.125,-0.6875 q 0.0625,-0.234375 0.0156,-0.40625 -0.0312,-0.1875 -0.14063,-0.3125 -0.0937,-0.125 -0.26562,-0.203125 -0.15625,-0.07813 -0.375,-0.07813 h -0.5625 q -0.23438,0 -0.46875,0.07813 -0.23438,0.0625 -0.40625,0.1875 -0.17188,0.125 -0.29688,0.296875 -0.10937,0.171875 -0.15625,0.421875 -0.0781,0.28125 0,0.46875 0.0937,0.171875 0.3125,0.3125 0.21875,0.140625 0.5625,0.25 0.35938,0.109375 0.75,0.25 0.39063,0.125 0.78125,0.3125 0.39063,0.171875 0.70313,0.484375 0.3125,0.3125 0.4375,0.78125 0.125,0.453125 0,1.109375 z m 12.28906,2.45313 q -0.76562,0 -1.29687,-0.34375 -0.53125,-0.34375 -0.57813,-0.46875 -0.1875,0.1875 -0.875,0.5 -0.6875,0.3125 -1.42187,0.3125 h -0.48438 q -0.64062,0 -1.17187,-0.25 -0.51563,-0.25 -0.875,-0.6875 -0.34375,-0.4375 -0.45313,-1 -0.10937,-0.57813 0,-1.20313 l 0.14063,-0.609375 q 0.0937,-0.453125 0.28125,-0.84375 0.20312,-0.40625 0.48437,-0.734375 0.28125,-0.34375 0.625,-0.625 0.35938,-0.28125 0.51563,-0.1875 -0.125,0.09375 -0.375,-0.1875 -0.23438,-0.296875 -0.39063,-0.65625 -0.15625,-0.359375 -0.1875,-0.78125 -0.0156,-0.421875 0.0781,-0.859375 l 0.10937,-0.53125 q 0.14063,-0.640625 0.48438,-1.1875 0.35937,-0.546875 0.84375,-0.953125 0.5,-0.40625 1.10937,-0.640625 0.60938,-0.234375 1.23438,-0.234375 h 0.48437 q 0.64063,0 1.15625,0.25 0.51563,0.234375 0.85938,0.671875 0.34375,0.4375 0.46875,1.015625 0.125,0.5625 0,1.203125 l -0.0625,0.3125 -1.73438,0.25 0.125,-0.6875 q 0.0781,-0.3125 0.0156,-0.5625 -0.0625,-0.265625 -0.20313,-0.4375 -0.14062,-0.1875 -0.35937,-0.296875 -0.21875,-0.109375 -0.51563,-0.109375 h -0.39062 q -0.3125,0 -0.60938,0.125 -0.29687,0.109375 -0.5625,0.328125 -0.26562,0.203125 -0.45312,0.484375 -0.17188,0.28125 -0.23438,0.59375 l -0.15625,0.71875 q -0.0625,0.296875 -0.0156,0.546875 0.0625,0.25 0.21875,0.4375 0.15625,0.1875 0.375,0.296875 0.21875,0.109375 0.51562,0.109375 h 1.90625 l 0.20313,-1 1.75,-0.25 -0.26563,1.234375 h 1.54688 l -0.34375,1.609375 h -1.54688 l -0.5,2.421875 q -0.0625,0.3125 -0.0469,0.562505 0.0312,0.25 0.10937,0.40625 0.0937,0.14062 0.26563,0.23437 0.17187,0.0937 0.45312,0.0937 h 0.70313 l -0.57813,1.60938 z m -4.01562,-1.60938 q 0.29687,0 0.57812,-0.10937 0.29688,-0.10938 0.54688,-0.3125 0.25,-0.20313 0.4375,-0.468755 0.1875,-0.28125 0.26562,-0.578125 l 0.46875,-2.234375 h -1.76562 q -0.3125,0 -0.60938,0.125 -0.29687,0.109375 -0.5625,0.328125 -0.25,0.203125 -0.4375,0.484375 -0.17187,0.28125 -0.23437,0.59375 l -0.17188,0.765625 q -0.0781,0.3125 -0.0312,0.5625 0.0625,0.25 0.21875,0.4375 0.15625,0.1875 0.375,0.29688 0.23438,0.10937 0.53125,0.10937 h 0.39063 z m 16.24219,-1.015625 q -0.125,0.546875 -0.4375,1.031255 -0.29688,0.46875 -0.73438,0.82812 -0.42187,0.34375 -0.95312,0.5625 -0.51563,0.20313 -1.0625,0.20313 h -0.64063 q -0.5625,0 -1.03125,-0.21875 -0.45312,-0.21875 -0.75,-0.59375 -0.28125,-0.39063 -0.40625,-0.89063 -0.10937,-0.5 0.0156,-1.046875 l 0.76562,-3.609375 q 0.125,-0.546875 0.42188,-1.015625 0.29687,-0.484375 0.71875,-0.828125 0.4375,-0.359375 0.95312,-0.5625 0.53125,-0.203125 1.07813,-0.203125 h 0.64062 q 0.5625,0 1.01563,0.21875 0.45312,0.203125 0.75,0.59375 0.29687,0.375 0.42187,0.875 0.125,0.5 0,1.046875 l -0.76562,3.609375 z m -0.84375,-3.78125 q 0.0625,-0.234375 0.0156,-0.40625 -0.0312,-0.1875 -0.14062,-0.3125 -0.0937,-0.125 -0.26563,-0.203125 -0.15625,-0.07813 -0.375,-0.07813 h -0.64062 q -0.21875,0 -0.45313,0.09375 -0.21875,0.07813 -0.40625,0.234375 -0.1875,0.15625 -0.32812,0.359375 -0.125,0.203125 -0.17188,0.4375 l -0.79687,3.71875 q -0.0625,0.21876 -0.0156,0.40626 0.0469,0.1875 0.14063,0.3125 0.0937,0.125 0.26562,0.20312 0.17188,0.0781 0.375,0.0781 h 0.64063 q 0.23437,0 0.45312,-0.0781 0.21875,-0.0937 0.40625,-0.25 0.1875,-0.15625 0.3125,-0.35937 0.14063,-0.21876 0.1875,-0.43751 z m 6.76562,6.250005 -0.25,-0.5625 q -0.10937,0.125 -0.71875,0.42187 -0.60937,0.29688 -1.26562,0.29688 h -0.25 q -0.5625,0 -1.03125,-0.21875 -0.45313,-0.21875 -0.75,-0.59375 -0.28125,-0.39063 -0.40625,-0.89063 -0.10938,-0.5 0.0156,-1.046875 l 1.29688,-6.0625 h 1.625 l -1.32813,6.25 q -0.0625,0.218755 -0.0156,0.406255 0.0469,0.1875 0.14062,0.3125 0.0937,0.125 0.26563,0.20312 0.17187,0.0781 0.375,0.0781 h 0.64062 q 0.23438,0 0.45313,-0.0781 0.21875,-0.0937 0.40625,-0.25 0.1875,-0.15625 0.3125,-0.35937 0.14062,-0.218755 0.1875,-0.437505 l 1.3125,-6.125 h 1.64062 l -1.84375,8.656255 z m 5.375,0 q -0.51562,0 -0.9375,-0.1875 -0.40625,-0.20313 -0.6875,-0.54688 -0.28125,-0.35937 -0.375,-0.8125 -0.0781,-0.45312 0.0156,-0.953125 l 0.96875,-4.59375 h -1.4375 l 0.34375,-1.5625 h 1.4375 l 0.39062,-1.875 1.6875,-0.28125 -0.45312,2.15625 h 2.03125 l -0.34375,1.5625 h -2.03125 l -1,4.765625 q -0.0469,0.17188 -0.0156,0.3125 0.0312,0.14063 0.10938,0.23438 0.0781,0.0937 0.20312,0.15625 0.125,0.0469 0.29688,0.0469 h 1.28125 l -0.34375,1.57813 z m 8.78906,-2.468755 q -0.125,0.546875 -0.4375,1.031255 -0.29687,0.46875 -0.73437,0.82812 -0.42188,0.34375 -0.95313,0.5625 -0.51562,0.20313 -1.0625,0.20313 h -0.23437 q -0.625,0 -1.125,-0.25 -0.48438,-0.26563 -0.40625,-0.40625 l -0.65625,3.70312 h -1.625 l 2.53125,-11.859375 h 0.79687 l 0.23438,0.546875 q 0.125,-0.125 0.73437,-0.40625 0.60938,-0.296875 1.28125,-0.296875 h 0.23438 q 0.5625,0 1.01562,0.21875 0.45313,0.203125 0.75,0.59375 0.29688,0.375 0.42188,0.875 0.125,0.5 0,1.046875 z m -0.84375,-3.78125 q 0.0625,-0.234375 0.0156,-0.40625 -0.0312,-0.1875 -0.14063,-0.3125 -0.0937,-0.125 -0.26562,-0.203125 -0.15625,-0.07813 -0.375,-0.07813 h -0.64063 q -0.21875,0 -0.45312,0.09375 -0.21875,0.07813 -0.40625,0.234375 -0.1875,0.15625 -0.32813,0.359375 -0.125,0.203125 -0.17187,0.4375 l -0.79688,3.71875 q -0.0625,0.21876 -0.0156,0.40626 0.0469,0.1875 0.14062,0.3125 0.0937,0.125 0.26563,0.20312 0.17187,0.0781 0.375,0.0781 h 0.64062 q 0.23438,0 0.45313,-0.0781 0.21875,-0.0937 0.40625,-0.25 0.1875,-0.15625 0.3125,-0.35937 0.14062,-0.21876 0.1875,-0.43751 z m 6.76563,6.250005 -0.25,-0.5625 q -0.10938,0.125 -0.71875,0.42187 -0.60938,0.29688 -1.26563,0.29688 h -0.25 q -0.5625,0 -1.03125,-0.21875 -0.45312,-0.21875 -0.75,-0.59375 -0.28125,-0.39063 -0.40625,-0.89063 -0.10937,-0.5 0.0156,-1.046875 l 1.29687,-6.0625 h 1.625 l -1.32812,6.25 q -0.0625,0.218755 -0.0156,0.406255 0.0469,0.1875 0.14063,0.3125 0.0937,0.125 0.26562,0.20312 0.17188,0.0781 0.375,0.0781 h 0.64063 q 0.23437,0 0.45312,-0.0781 0.21875,-0.0937 0.40625,-0.25 0.1875,-0.15625 0.3125,-0.35937 0.14063,-0.218755 0.1875,-0.437505 l 1.3125,-6.125 h 1.64063 l -1.84375,8.656255 z m 5.375,0 q -0.51563,0 -0.9375,-0.1875 -0.40625,-0.20313 -0.6875,-0.54688 -0.28125,-0.35937 -0.375,-0.8125 -0.0781,-0.45312 0.0156,-0.953125 l 0.96875,-4.59375 h -1.4375 l 0.34375,-1.5625 h 1.4375 l 0.39063,-1.875 1.6875,-0.28125 -0.45313,2.15625 h 2.03125 l -0.34375,1.5625 h -2.03125 l -1,4.765625 q -0.0469,0.17188 -0.0156,0.3125 0.0312,0.14063 0.10937,0.23438 0.0781,0.0937 0.20313,0.15625 0.125,0.0469 0.29687,0.0469 h 1.28125 l -0.34375,1.57813 z m 8.91406,-2.29688 q -0.125,0.5625 -0.45312,1.01563 -0.3125,0.4375 -0.75,0.76562 -0.4375,0.3125 -0.96875,0.5 -0.51563,0.17188 -1.0625,0.17188 h -0.64063 q -0.5625,0 -1.03125,-0.21875 -0.45312,-0.21875 -0.76562,-0.59375 -0.3125,-0.375 -0.45313,-0.875 -0.125,-0.51563 0,-1.062505 l 0.10938,-0.53125 1.6875,-0.265625 -0.20313,0.984375 q -0.0469,0.203125 0,0.390625 0.0469,0.1875 0.15625,0.32813 0.125,0.125 0.29688,0.20312 0.1875,0.0781 0.39062,0.0781 h 0.64063 q 0.25,0 0.48437,-0.0625 0.25,-0.0781 0.4375,-0.20313 0.1875,-0.14062 0.3125,-0.3125 0.14063,-0.1875 0.1875,-0.390625 0.0781,-0.328125 -0.0156,-0.515625 -0.0781,-0.1875 -0.29688,-0.328125 -0.21875,-0.140625 -0.5625,-0.25 -0.32812,-0.125 -0.73437,-0.234375 -0.39063,-0.125 -0.79688,-0.296875 -0.40625,-0.171875 -0.71875,-0.484375 -0.29687,-0.3125 -0.42187,-0.765625 -0.125,-0.46875 0,-1.109375 0.125,-0.546875 0.4375,-1 0.3125,-0.46875 0.73437,-0.78125 0.42188,-0.328125 0.92188,-0.5 0.5,-0.171875 1.04687,-0.171875 h 0.5625 q 0.5625,0 1.01563,0.21875 0.45312,0.203125 0.75,0.59375 0.29687,0.375 0.42187,0.875 0.125,0.5 -0.0469,1.015625 l 0.0469,0.28125 -1.73437,0.265625 0.125,-0.6875 q 0.0625,-0.234375 0.0156,-0.40625 -0.0312,-0.1875 -0.14062,-0.3125 -0.0937,-0.125 -0.26563,-0.203125 -0.15625,-0.07813 -0.375,-0.07813 h -0.5625 q -0.23437,0 -0.46875,0.07813 -0.23437,0.0625 -0.40625,0.1875 -0.17187,0.125 -0.29687,0.296875 -0.10938,0.171875 -0.15625,0.421875 -0.0781,0.28125 0,0.46875 0.0937,0.171875 0.3125,0.3125 0.21875,0.140625 0.5625,0.25 0.35937,0.109375 0.75,0.25 0.39062,0.125 0.78125,0.3125 0.39062,0.171875 0.70312,0.484375 0.3125,0.3125 0.4375,0.78125 0.125,0.453125 0,1.109375 z m 5.82813,-2.640625 q -0.29688,1.328125 -0.79688,2.484375 -0.5,1.15625 -1.17187,2.15625 -0.67188,1 -1.48438,1.84375 -0.8125,0.85938 -1.95312,1.79688 l -0.84375,-1.07813 q 1,-0.84375 1.6875,-1.64062 0.70312,-0.78125 1.26562,-1.6875 0.57813,-0.90625 1,-1.906255 0.4375,-1 0.67188,-2.09375 0.23437,-1.09375 0.23437,-2.09375 0,-1 -0.1875,-1.890625 -0.1875,-0.890625 -0.54687,-1.65625 -0.34375,-0.78125 -1.01563,-1.65625 l 1.1875,-0.984375 q 0.79688,0.984375 1.25,1.859375 0.45313,0.859375 0.70313,1.875 0.25,1 0.25,2.171875 0.0156,1.15625 -0.25,2.5 z"
       fill-rule="nonzero"
       id="path23" />
    <path
       fill="#000000"
       fill-opacity="0"
       d="m 254.3289,181.96661 v 0 c 0,-0.97993 0.79439,-1.77432 1.77431,-1.77432 h 7.09704 v 0 c 0.47058,0 0.92188,0.18693 1.25464,0.51968 0.33274,0.33275 0.51969,0.78406 0.51969,1.25464 v 7.12854 c 0,0.97992 -0.79441,1.77431 -1.77433,1.77431 h -7.09704 v 0 c -0.97992,0 -1.77431,-0.79439 -1.77431,-1.77431 z"
       fill-rule="evenodd"
       id="path25" />
    <path
       stroke="#000000"
       stroke-width="1"
       stroke-linejoin="round"
       stroke-linecap="butt"
       d="m 254.3289,181.96661 v 0 c 0,-0.97993 0.79439,-1.77432 1.77431,-1.77432 h 7.09704 v 0 c 0.47058,0 0.92188,0.18693 1.25464,0.51968 0.33274,0.33275 0.51969,0.78406 0.51969,1.25464 v 7.12854 c 0,0.97992 -0.79441,1.77431 -1.77433,1.77431 h -7.09704 v 0 c -0.97992,0 -1.77431,-0.79439 -1.77431,-1.77431 z"
       fill-rule="evenodd"
       id="path27" />
    <path
       fill="#000000"
       fill-opacity="0"
       d="m 250.00565,165.64935 9.63779,14.55119"
       fill-rule="evenodd"
       id="path29" />
    <path
       stroke="#000000"
       stroke-width="1"
       stroke-linejoin="round"
       stroke-linecap="butt"
       d="m 250.00565,165.64935 7.74536,11.69398"
       fill-rule="evenodd"
       id="path31" />
    <path
       fill="#000000"
       stroke="#000000"
       stroke-width="1"
       stroke-linecap="butt"
       d="m 257.751,177.34334 -1.55859,-0.31659 2.64376,1.95499 -0.76858,-3.19698 z"
       fill-rule="evenodd"
       id="path33" />
    <path
       fill="#000000"
       fill-opacity="0"
       d="m 269.32715,165.64935 -9.66928,14.55119"
       fill-rule="evenodd"
       id="path35" />
    <path
       stroke="#000000"
       stroke-width="1"
       stroke-linejoin="round"
       stroke-linecap="butt"
       d="m 269.32715,165.64935 -7.77255,11.69684"
       fill-rule="evenodd"
       id="path37" />
    <path
       fill="#000000"
       stroke="#000000"
       stroke-width="1"
       stroke-linecap="butt"
       d="m 261.5546,177.34619 -0.31424,-1.55905 -0.77341,3.19581 2.6467,-1.95101 z"
       fill-rule="evenodd"
       id="path39" />
    <path
       fill="#000000"
       fill-opacity="0"
       d="m 259.65173,190.86946 v 14.55118"
       fill-rule="evenodd"
       id="path41" />
    <path
       stroke="#000000"
       stroke-width="1"
       stroke-linejoin="round"
       stroke-linecap="butt"
       d="m 259.65173,190.86946 v 11.1241"
       fill-rule="evenodd"
       id="path43" />
    <path
       fill="#000000"
       stroke="#000000"
       stroke-width="1"
       stroke-linecap="butt"
       d="m 259.65173,201.99356 -1.12457,-1.12459 1.12457,3.08977 1.1246,-3.08977 z"
       fill-rule="evenodd"
       id="path45" />
    <path
       fill="#000000"
       fill-opacity="0"
       d="m 245.45445,161.09818 v 0 c 0,-2.51355 2.03764,-4.55118 4.55119,-4.55118 v 0 c 1.20705,0 2.36466,0.47949 3.21817,1.33301 0.8535,0.85352 1.33301,2.01112 1.33301,3.21817 v 0 c 0,2.51355 -2.03764,4.55118 -4.55118,4.55118 v 0 c -2.51355,0 -4.55119,-2.03763 -4.55119,-4.55118 z"
       fill-rule="evenodd"
       id="path47" />
    <path
       stroke="#000000"
       stroke-width="1"
       stroke-linejoin="round"
       stroke-linecap="butt"
       d="m 245.45445,161.09818 v 0 c 0,-2.51355 2.03764,-4.55118 4.55119,-4.55118 v 0 c 1.20705,0 2.36466,0.47949 3.21817,1.33301 0.8535,0.85352 1.33301,2.01112 1.33301,3.21817 v 0 c 0,2.51355 -2.03764,4.55118 -4.55118,4.55118 v 0 c -2.51355,0 -4.55119,-2.03763 -4.55119,-4.55118 z"
       fill-rule="evenodd"
       id="path49" />
    <path
       fill="#000000"
       fill-opacity="0"
       d="m 264.77597,161.09818 v 0 c 0,-2.51355 2.03763,-4.55118 4.55118,-4.55118 v 0 c 1.20706,0 2.36468,0.47949 3.21817,1.33301 0.85351,0.85352 1.33304,2.01112 1.33304,3.21817 v 0 c 0,2.51355 -2.03766,4.55118 -4.55121,4.55118 v 0 c -2.51355,0 -4.55118,-2.03763 -4.55118,-4.55118 z"
       fill-rule="evenodd"
       id="path51" />
    <path
       stroke="#000000"
       stroke-width="1"
       stroke-linejoin="round"
       stroke-linecap="butt"
       d="m 264.77597,161.09818 v 0 c 0,-2.51355 2.03763,-4.55118 4.55118,-4.55118 v 0 c 1.20706,0 2.36468,0.47949 3.21817,1.33301 0.85351,0.85352 1.33304,2.01112 1.33304,3.21817 v 0 c 0,2.51355 -2.03766,4.55118 -4.55121,4.55118 v 0 c -2.51355,0 -4.55118,-2.03763 -4.55118,-4.55118 z"
       fill-rule="evenodd"
       id="path53" />
    <path
       fill="#000000"
       fill-opacity="0"
       d="m 255.10078,209.96211 v 0 c 0,-2.51355 2.03764,-4.55119 4.55119,-4.55119 v 0 c 1.20703,0 2.36466,0.4795 3.21817,1.33302 0.85349,0.8535 1.33301,2.01111 1.33301,3.21817 v 0 c 0,2.51353 -2.03763,4.55118 -4.55118,4.55118 v 0 c -2.51355,0 -4.55119,-2.03765 -4.55119,-4.55118 z"
       fill-rule="evenodd"
       id="path55" />
    <path
       stroke="#000000"
       stroke-width="1"
       stroke-linejoin="round"
       stroke-linecap="butt"
       d="m 255.10078,209.96211 v 0 c 0,-2.51355 2.03764,-4.55119 4.55119,-4.55119 v 0 c 1.20703,0 2.36466,0.4795 3.21817,1.33302 0.85349,0.8535 1.33301,2.01111 1.33301,3.21817 v 0 c 0,2.51353 -2.03763,4.55118 -4.55118,4.55118 v 0 c -2.51355,0 -4.55119,-2.03765 -4.55119,-4.55118 z"
       fill-rule="evenodd"
       id="path57" />
    <path
       fill="#000000"
       fill-opacity="0"
       d="m 230.14098,130.55511 h 57.60631 v 33.98425 h -57.60631 z"
       fill-rule="evenodd"
       id="path59" />
    <path
       fill="#000000"
       d="m 248.2339,152.35512 1.03125,-4.875 q 0.0625,-0.25 0,-0.45313 -0.0469,-0.21875 -0.17188,-0.375 -0.10937,-0.15625 -0.3125,-0.25 -0.1875,-0.0937 -0.42187,-0.0937 h -0.53125 q -0.25,0 -0.48438,0.0937 -0.21875,0.0937 -0.42187,0.25 -0.1875,0.15625 -0.32813,0.375 -0.125,0.20313 -0.1875,0.45313 l -1.03125,4.875 h -0.79687 l 1.42187,-6.67188 h 0.26563 l 0.28125,0.6875 q 0.375,-0.375 0.82812,-0.59375 0.45313,-0.21875 0.9375,-0.21875 h 0.20313 q 0.40625,0 0.71875,0.15625 0.32812,0.15625 0.54687,0.42188 0.21875,0.26562 0.28125,0.625 0.0781,0.35937 0,0.76562 l -1.03125,4.82813 z m 7.23982,-1.82813 q -0.0937,0.40625 -0.3125,0.76563 -0.21875,0.35937 -0.5625,0.625 -0.32812,0.26562 -0.71875,0.42187 -0.375,0.14063 -0.78125,0.14063 h -0.53125 q -0.40625,0 -0.73437,-0.14063 -0.32813,-0.15625 -0.53125,-0.42187 -0.20313,-0.26563 -0.29688,-0.625 -0.0781,-0.35938 0.0156,-0.76563 l 0.64062,-3 q 0.0781,-0.40625 0.3125,-0.76562 0.23438,-0.35938 0.54688,-0.625 0.32812,-0.26563 0.71875,-0.42188 0.39062,-0.15625 0.79687,-0.15625 h 0.53125 q 0.40625,0 0.71875,0.15625 0.32813,0.15625 0.54688,0.42188 0.21875,0.26562 0.28125,0.625 0.0781,0.35937 0,0.76562 l -0.34375,1.5625 h -3.65625 l -0.3125,1.48438 q -0.0469,0.23437 0,0.45312 0.0469,0.20313 0.17187,0.35938 0.125,0.15625 0.3125,0.25 0.20313,0.0937 0.45313,0.0937 h 0.53125 q 0.23437,0 0.45312,-0.0937 0.23438,-0.0937 0.42188,-0.25 0.1875,-0.15625 0.32812,-0.35938 0.14063,-0.21875 0.1875,-0.45312 l 0.0937,-0.4375 0.76563,0.125 -0.0469,0.26562 z m -0.15625,-3.04687 q 0.0625,-0.25 0,-0.45313 -0.0469,-0.21875 -0.17187,-0.375 -0.10938,-0.15625 -0.3125,-0.25 -0.1875,-0.0937 -0.42188,-0.0937 h -0.53125 q -0.25,0 -0.48437,0.0937 -0.21875,0.0937 -0.42188,0.25 -0.1875,0.15625 -0.32812,0.375 -0.125,0.20313 -0.1875,0.45313 l -0.20313,0.98437 h 2.85938 z m 6.20859,3.04687 q -0.0937,0.40625 -0.3125,0.76563 -0.21875,0.35937 -0.5625,0.625 -0.32812,0.26562 -0.71875,0.42187 -0.375,0.14063 -0.78125,0.14063 h -0.53125 q -0.40625,0 -0.73437,-0.14063 -0.32813,-0.15625 -0.53125,-0.42187 -0.20313,-0.26563 -0.29688,-0.625 -0.0781,-0.35938 0.0156,-0.76563 l 0.64062,-3 q 0.0781,-0.40625 0.3125,-0.76562 0.23438,-0.35938 0.54688,-0.625 0.32812,-0.26563 0.71875,-0.42188 0.39062,-0.15625 0.79687,-0.15625 h 0.53125 q 0.40625,0 0.71875,0.15625 0.32813,0.15625 0.54688,0.42188 0.21875,0.26562 0.28125,0.625 0.0781,0.35937 0,0.76562 l -0.34375,1.5625 h -3.65625 l -0.3125,1.48438 q -0.0469,0.23437 0,0.45312 0.0469,0.20313 0.17187,0.35938 0.125,0.15625 0.3125,0.25 0.20313,0.0937 0.45313,0.0937 h 0.53125 q 0.23437,0 0.45312,-0.0937 0.23438,-0.0937 0.42188,-0.25 0.1875,-0.15625 0.32812,-0.35938 0.14063,-0.21875 0.1875,-0.45312 l 0.0937,-0.4375 0.76563,0.125 -0.0469,0.26562 z m -0.15625,-3.04687 q 0.0625,-0.25 0,-0.45313 -0.0469,-0.21875 -0.17187,-0.375 -0.10938,-0.15625 -0.3125,-0.25 -0.1875,-0.0937 -0.42188,-0.0937 h -0.53125 q -0.25,0 -0.48437,0.0937 -0.21875,0.0937 -0.42188,0.25 -0.1875,0.15625 -0.32812,0.375 -0.125,0.20313 -0.1875,0.45313 l -0.20313,0.98437 h 2.85938 z m 5.55231,4.875 -0.29688,-0.67188 q -0.35937,0.35938 -0.8125,0.57813 -0.45312,0.21875 -0.9375,0.21875 h -0.20312 q -0.40625,0 -0.73438,-0.14063 -0.32812,-0.15625 -0.53125,-0.42187 -0.20312,-0.26563 -0.29687,-0.625 -0.0781,-0.35938 0.0156,-0.76563 l 0.64063,-3 q 0.0781,-0.40625 0.3125,-0.76562 0.23437,-0.35938 0.54687,-0.625 0.32813,-0.26563 0.71875,-0.42188 0.39063,-0.15625 0.79688,-0.15625 h 0.20312 q 0.4375,0 0.78125,0.1875 0.35938,0.17188 0.5625,0.5 l 0.6875,-3.21875 h 0.79688 l -1.98438,9.32813 z m 0.5,-4.875 q 0.0625,-0.25 0,-0.45313 -0.0469,-0.21875 -0.17188,-0.375 -0.10937,-0.15625 -0.3125,-0.25 -0.1875,-0.0937 -0.42187,-0.0937 h -0.53125 q -0.25,0 -0.48438,0.0937 -0.21875,0.0937 -0.42187,0.25 -0.1875,0.15625 -0.32813,0.375 -0.125,0.20313 -0.1875,0.45313 l -0.65625,3.09375 q -0.0469,0.23437 0,0.45312 0.0469,0.20313 0.17188,0.35938 0.125,0.15625 0.3125,0.25 0.20312,0.0937 0.45312,0.0937 h 0.53125 q 0.23438,0 0.45313,-0.0937 0.23437,-0.0937 0.42187,-0.25 0.1875,-0.15625 0.32813,-0.35938 0.14062,-0.21875 0.1875,-0.45312 z m 6.30233,3.1875 q -0.0937,0.40625 -0.3125,0.73437 -0.21875,0.32813 -0.5625,0.57813 -0.32812,0.23437 -0.73437,0.375 -0.39063,0.125 -0.79688,0.125 h -0.53125 q -0.40625,0 -0.75,-0.14063 -0.32812,-0.15625 -0.54687,-0.42187 -0.21875,-0.26563 -0.3125,-0.625 -0.0937,-0.35938 0,-0.76563 l 0.0469,-0.26562 0.82813,-0.125 -0.0937,0.4375 q -0.0469,0.23437 0,0.45312 0.0625,0.20313 0.20312,0.35938 0.14063,0.15625 0.34375,0.25 0.20313,0.0937 0.45313,0.0937 h 0.53125 q 0.23437,0 0.46875,-0.0625 0.23437,-0.0781 0.4375,-0.20313 0.20312,-0.14062 0.34375,-0.32812 0.14062,-0.1875 0.20312,-0.4375 0.0625,-0.35938 -0.0469,-0.57813 -0.0937,-0.23437 -0.32813,-0.375 -0.21875,-0.15625 -0.53125,-0.25 -0.3125,-0.10937 -0.64062,-0.20312 -0.3125,-0.10938 -0.625,-0.23438 -0.29688,-0.14062 -0.5,-0.34375 -0.20313,-0.21875 -0.29688,-0.53125 -0.0937,-0.32812 0.0156,-0.79687 0.0781,-0.40625 0.29687,-0.73438 0.23438,-0.34375 0.54688,-0.57812 0.32812,-0.25 0.70312,-0.375 0.375,-0.14063 0.78125,-0.14063 h 0.46875 q 0.40625,0 0.73438,0.15625 0.32812,0.15625 0.53125,0.42188 0.21875,0.26562 0.28125,0.625 0.0781,0.35937 0,0.76562 l -0.0156,0.0156 -0.8125,0.14062 0.0312,-0.20312 q 0.0625,-0.25 0,-0.45313 -0.0469,-0.21875 -0.17187,-0.375 -0.10938,-0.15625 -0.3125,-0.25 -0.1875,-0.0937 -0.42188,-0.0937 h -0.46875 q -0.23437,0 -0.46875,0.0781 -0.23437,0.0781 -0.42187,0.21875 -0.17188,0.125 -0.3125,0.3125 -0.125,0.1875 -0.17188,0.42187 -0.0625,0.34375 0.0469,0.5625 0.10937,0.21875 0.32812,0.375 0.23438,0.14063 0.53125,0.25 0.3125,0.0937 0.625,0.20313 0.3125,0.10937 0.60938,0.25 0.3125,0.14062 0.51562,0.35937 0.20313,0.20313 0.29688,0.53125 0.0937,0.3125 -0.0156,0.79688 z"
       fill-rule="nonzero"
       id="path61" />
    <path
       fill="#000000"
       fill-opacity="0"
       d="m 226.44377,201.85301 h 68.85039 v 33.98425 h -68.85039 z"
       fill-rule="evenodd"
       id="path63" />
    <path
       fill="#000000"
       d="m 245.27438,221.82489 q -0.0937,0.40625 -0.3125,0.76562 -0.21875,0.35938 -0.5625,0.625 -0.32813,0.26563 -0.71875,0.42188 -0.375,0.14062 -0.78125,0.14062 h -0.20313 q -0.45312,0 -0.79687,-0.17187 -0.34375,-0.1875 -0.54688,-0.51563 l -0.6875,3.23438 h -0.79687 l 1.98437,-9.34375 h 0.26563 l 0.28125,0.6875 q 0.375,-0.375 0.82812,-0.59375 0.45313,-0.21875 0.9375,-0.21875 h 0.20313 q 0.40625,0 0.71875,0.15625 0.32812,0.15625 0.54687,0.42187 0.21875,0.26563 0.28125,0.625 0.0781,0.35938 0,0.76563 z m -0.15625,-3.04688 q 0.0625,-0.25 0,-0.45312 -0.0469,-0.21875 -0.17188,-0.375 -0.10937,-0.15625 -0.3125,-0.25 -0.1875,-0.0937 -0.42187,-0.0937 h -0.53125 q -0.25,0 -0.48438,0.0937 -0.21875,0.0937 -0.42187,0.25 -0.1875,0.15625 -0.32813,0.375 -0.125,0.20312 -0.1875,0.45312 l -0.65625,3.09375 q -0.0469,0.23438 0,0.45313 0.0469,0.20312 0.17188,0.35937 0.125,0.15625 0.3125,0.25 0.20312,0.0937 0.45312,0.0937 h 0.53125 q 0.23438,0 0.45313,-0.0937 0.23437,-0.0937 0.42187,-0.25 0.1875,-0.15625 0.32813,-0.35937 0.14062,-0.21875 0.1875,-0.45313 z m 4.58357,-1.03125 q -0.25,0 -0.48437,0.0937 -0.21875,0.0937 -0.40625,0.25 -0.1875,0.15625 -0.32813,0.375 -0.14062,0.20313 -0.1875,0.4375 l -1.01562,4.75 h -0.79688 l 1.42188,-6.67187 h 0.26562 l 0.28125,0.6875 q 0.375,-0.375 0.82813,-0.59375 0.45312,-0.21875 0.9375,-0.21875 h 0.46875 l -0.1875,0.89062 z m 5.45163,4.07813 q -0.0937,0.40625 -0.3125,0.76562 -0.21875,0.35938 -0.5625,0.625 -0.32812,0.26563 -0.71875,0.42188 -0.375,0.14062 -0.78125,0.14062 h -0.53125 q -0.40625,0 -0.73437,-0.14062 -0.32813,-0.15625 -0.53125,-0.42188 -0.20313,-0.26562 -0.29688,-0.625 -0.0781,-0.35937 0.0156,-0.76562 l 0.64062,-3 q 0.0781,-0.40625 0.3125,-0.76563 0.23438,-0.35937 0.54688,-0.625 0.32812,-0.26562 0.71875,-0.42187 0.39062,-0.15625 0.79687,-0.15625 h 0.53125 q 0.40625,0 0.71875,0.15625 0.32813,0.15625 0.54688,0.42187 0.21875,0.26563 0.28125,0.625 0.0781,0.35938 0,0.76563 l -0.64063,3 z m -0.15625,-3.04688 q 0.0625,-0.25 0,-0.45312 -0.0469,-0.21875 -0.17187,-0.375 -0.10938,-0.15625 -0.3125,-0.25 -0.1875,-0.0937 -0.42188,-0.0937 h -0.53125 q -0.25,0 -0.48437,0.0937 -0.21875,0.0937 -0.42188,0.25 -0.1875,0.15625 -0.32812,0.375 -0.125,0.20312 -0.1875,0.45312 l -0.65625,3.09375 q -0.0469,0.23438 0,0.45313 0.0469,0.20312 0.17187,0.35937 0.125,0.15625 0.3125,0.25 0.20313,0.0937 0.45313,0.0937 h 0.53125 q 0.23437,0 0.45312,-0.0937 0.23438,-0.0937 0.42188,-0.25 0.1875,-0.15625 0.32812,-0.35937 0.14063,-0.21875 0.1875,-0.45313 z m 3.45857,4.875 h -0.39062 l -0.95313,-6.67187 h 0.8125 l 0.65625,5.0625 -0.0625,0.34375 0.10938,-0.34375 2.8125,-5.0625 h 0.79687 z m 5.2414,-8.26562 0.23437,-1.0625 h 0.9375 l -0.23437,1.0625 z m -1.6875,8.26562 1.42187,-6.67187 h 0.8125 l -1.42187,6.67187 z m 6.85693,0 -0.29687,-0.67187 q -0.35938,0.35937 -0.8125,0.57812 -0.45313,0.21875 -0.9375,0.21875 h -0.20313 q -0.40625,0 -0.73437,-0.14062 -0.32813,-0.15625 -0.53125,-0.42188 -0.20313,-0.26562 -0.29688,-0.625 -0.0781,-0.35937 0.0156,-0.76562 l 0.64062,-3 q 0.0781,-0.40625 0.3125,-0.76563 0.23438,-0.35937 0.54688,-0.625 0.32812,-0.26562 0.71875,-0.42187 0.39062,-0.15625 0.79687,-0.15625 h 0.20313 q 0.4375,0 0.78125,0.1875 0.35937,0.17187 0.5625,0.5 l 0.6875,-3.21875 h 0.79687 l -1.98437,9.32812 z m 0.5,-4.875 q 0.0625,-0.25 0,-0.45312 -0.0469,-0.21875 -0.17187,-0.375 -0.10938,-0.15625 -0.3125,-0.25 -0.1875,-0.0937 -0.42188,-0.0937 h -0.53125 q -0.25,0 -0.48437,0.0937 -0.21875,0.0937 -0.42188,0.25 -0.1875,0.15625 -0.32812,0.375 -0.125,0.20312 -0.1875,0.45312 l -0.65625,3.09375 q -0.0469,0.23438 0,0.45313 0.0469,0.20312 0.17187,0.35937 0.125,0.15625 0.3125,0.25 0.20313,0.0937 0.45313,0.0937 h 0.53125 q 0.23437,0 0.45312,-0.0937 0.23438,-0.0937 0.42188,-0.25 0.1875,-0.15625 0.32812,-0.35937 0.14063,-0.21875 0.1875,-0.45313 z m 6.20859,3.04688 q -0.0937,0.40625 -0.3125,0.76562 -0.21875,0.35938 -0.5625,0.625 -0.32813,0.26563 -0.71875,0.42188 -0.375,0.14062 -0.78125,0.14062 h -0.53125 q -0.40625,0 -0.73438,-0.14062 -0.32812,-0.15625 -0.53125,-0.42188 -0.20312,-0.26562 -0.29687,-0.625 -0.0781,-0.35937 0.0156,-0.76562 l 0.64063,-3 q 0.0781,-0.40625 0.3125,-0.76563 0.23437,-0.35937 0.54687,-0.625 0.32813,-0.26562 0.71875,-0.42187 0.39063,-0.15625 0.79688,-0.15625 h 0.53125 q 0.40625,0 0.71875,0.15625 0.32812,0.15625 0.54687,0.42187 0.21875,0.26563 0.28125,0.625 0.0781,0.35938 0,0.76563 l -0.34375,1.5625 h -3.65625 l -0.3125,1.48437 q -0.0469,0.23438 0,0.45313 0.0469,0.20312 0.17188,0.35937 0.125,0.15625 0.3125,0.25 0.20312,0.0937 0.45312,0.0937 h 0.53125 q 0.23438,0 0.45313,-0.0937 0.23437,-0.0937 0.42187,-0.25 0.1875,-0.15625 0.32813,-0.35937 0.14062,-0.21875 0.1875,-0.45313 l 0.0937,-0.4375 0.76562,0.125 -0.0469,0.26563 z m -0.15625,-3.04688 q 0.0625,-0.25 0,-0.45312 -0.0469,-0.21875 -0.17188,-0.375 -0.10937,-0.15625 -0.3125,-0.25 -0.1875,-0.0937 -0.42187,-0.0937 h -0.53125 q -0.25,0 -0.48438,0.0937 -0.21875,0.0937 -0.42187,0.25 -0.1875,0.15625 -0.32813,0.375 -0.125,0.20312 -0.1875,0.45312 l -0.20312,0.98438 h 2.85937 z m 6.30231,3.1875 q -0.0937,0.40625 -0.3125,0.73438 -0.21875,0.32812 -0.5625,0.57812 -0.32813,0.23438 -0.73438,0.375 -0.39062,0.125 -0.79687,0.125 h -0.53125 q -0.40625,0 -0.75,-0.14062 -0.32813,-0.15625 -0.54688,-0.42188 -0.21875,-0.26562 -0.3125,-0.625 -0.0937,-0.35937 0,-0.76562 l 0.0469,-0.26563 0.82812,-0.125 -0.0937,0.4375 q -0.0469,0.23438 0,0.45313 0.0625,0.20312 0.20313,0.35937 0.14062,0.15625 0.34375,0.25 0.20312,0.0937 0.45312,0.0937 h 0.53125 q 0.23438,0 0.46875,-0.0625 0.23438,-0.0781 0.4375,-0.20312 0.20313,-0.14063 0.34375,-0.32813 0.14063,-0.1875 0.20313,-0.4375 0.0625,-0.35937 -0.0469,-0.57812 -0.0937,-0.23438 -0.32812,-0.375 -0.21875,-0.15625 -0.53125,-0.25 -0.3125,-0.10938 -0.64063,-0.20313 -0.3125,-0.10937 -0.625,-0.23437 -0.29687,-0.14063 -0.5,-0.34375 -0.20312,-0.21875 -0.29687,-0.53125 -0.0937,-0.32813 0.0156,-0.79688 0.0781,-0.40625 0.29688,-0.73437 0.23437,-0.34375 0.54687,-0.57813 0.32813,-0.25 0.70313,-0.375 0.375,-0.14062 0.78125,-0.14062 h 0.46875 q 0.40625,0 0.73437,0.15625 0.32813,0.15625 0.53125,0.42187 0.21875,0.26563 0.28125,0.625 0.0781,0.35938 0,0.76563 l -0.0156,0.0156 -0.8125,0.14063 0.0312,-0.20313 q 0.0625,-0.25 0,-0.45312 -0.0469,-0.21875 -0.17188,-0.375 -0.10937,-0.15625 -0.3125,-0.25 -0.1875,-0.0937 -0.42187,-0.0937 h -0.46875 q -0.23438,0 -0.46875,0.0781 -0.23438,0.0781 -0.42188,0.21875 -0.17187,0.125 -0.3125,0.3125 -0.125,0.1875 -0.17187,0.42188 -0.0625,0.34375 0.0469,0.5625 0.10938,0.21875 0.32813,0.375 0.23437,0.14062 0.53125,0.25 0.3125,0.0937 0.625,0.20312 0.3125,0.10938 0.60937,0.25 0.3125,0.14063 0.51563,0.35938 0.20312,0.20312 0.29687,0.53125 0.0937,0.3125 -0.0156,0.79687 z"
       fill-rule="nonzero"
       id="path65" />
    <path
       fill="#000000"
       fill-opacity="0"
       d="m 192.00261,166.60854 h 9.3802 v -9.3802 h 8.83019 v 9.3802 h 9.38019 v 8.83018 H 210.213 v 9.38019 h -8.83019 v -9.38019 h -9.3802 z"
       fill-rule="evenodd"
       id="path67" />
    <path
       stroke="#cccccc"
       stroke-width="2"
       stroke-linejoin="round"
       stroke-linecap="butt"
       d="m 192.00261,166.60854 h 9.3802 v -9.3802 h 8.83019 v 9.3802 h 9.38019 v 8.83018 H 210.213 v 9.38019 h -8.83019 v -9.38019 h -9.3802 z"
       fill-rule="evenodd"
       id="path69" />
    <path
       fill="#000000"
       fill-opacity="0"
       d="M 216.22572,58.95013 H 325.1391 V 92.93438 H 216.22572 Z"
       fill-rule="evenodd"
       id="path71" />
    <path
       fill="#000000"
       d="m 254.6707,80.841385 q -0.125,0.546875 -0.4375,1.03125 -0.29688,0.46875 -0.73438,0.828125 -0.42187,0.34375 -0.95312,0.5625 -0.51563,0.203125 -1.0625,0.203125 h -0.23438 q -0.625,0 -1.125,-0.25 -0.48437,-0.265625 -0.40625,-0.40625 l -0.65625,3.703125 h -1.625 l 2.53125,-11.859375 h 0.79688 l 0.23437,0.546875 q 0.125,-0.125 0.73438,-0.40625 0.60937,-0.296875 1.28125,-0.296875 h 0.23437 q 0.5625,0 1.01563,0.21875 0.45312,0.203125 0.75,0.59375 0.29687,0.375 0.42187,0.875 0.125,0.5 0,1.046875 z m -0.84375,-3.78125 q 0.0625,-0.234375 0.0156,-0.40625 -0.0312,-0.1875 -0.14062,-0.3125 -0.0937,-0.125 -0.26563,-0.203125 -0.15625,-0.07813 -0.375,-0.07813 h -0.64062 q -0.21875,0 -0.45313,0.09375 -0.21875,0.07813 -0.40625,0.234375 -0.1875,0.15625 -0.32812,0.359375 -0.125,0.203125 -0.17188,0.4375 l -0.79687,3.71875 q -0.0625,0.21875 -0.0156,0.40625 0.0469,0.1875 0.14063,0.3125 0.0937,0.125 0.26562,0.203125 0.17188,0.07813 0.375,0.07813 h 0.64063 q 0.23437,0 0.45312,-0.07813 0.21875,-0.09375 0.40625,-0.25 0.1875,-0.15625 0.3125,-0.359375 0.14063,-0.21875 0.1875,-0.4375 z m 3.90623,-3.671875 0.40625,-1.9375 h 1.79688 l -0.40625,1.9375 z m -2.03123,9.921875 1.84373,-8.65625 h 1.64063 l -1.84375,8.65625 z m 9.7578,-2.46875 q -0.125,0.546875 -0.4375,1.03125 -0.29688,0.46875 -0.73438,0.828125 -0.42187,0.34375 -0.95312,0.5625 -0.51563,0.203125 -1.0625,0.203125 h -0.23438 q -0.625,0 -1.125,-0.25 -0.48437,-0.265625 -0.40625,-0.40625 l -0.65625,3.703125 h -1.625 l 2.53125,-11.859375 h 0.79688 l 0.23437,0.546875 q 0.125,-0.125 0.73438,-0.40625 0.60937,-0.296875 1.28125,-0.296875 h 0.23437 q 0.5625,0 1.01563,0.21875 0.45312,0.203125 0.75,0.59375 0.29687,0.375 0.42187,0.875 0.125,0.5 0,1.046875 z m -0.84375,-3.78125 q 0.0625,-0.234375 0.0156,-0.40625 -0.0312,-0.1875 -0.14062,-0.3125 -0.0937,-0.125 -0.26563,-0.203125 -0.15625,-0.07813 -0.375,-0.07813 h -0.64062 q -0.21875,0 -0.45313,0.09375 -0.21875,0.07813 -0.40625,0.234375 -0.1875,0.15625 -0.32812,0.359375 -0.125,0.203125 -0.17188,0.4375 l -0.79687,3.71875 q -0.0625,0.21875 -0.0156,0.40625 0.0469,0.1875 0.14063,0.3125 0.0937,0.125 0.26562,0.203125 0.17188,0.07813 0.375,0.07813 h 0.64063 q 0.23437,0 0.45312,-0.07813 0.21875,-0.09375 0.40625,-0.25 0.1875,-0.15625 0.3125,-0.359375 0.14063,-0.21875 0.1875,-0.4375 z m 8.10937,3.78125 q -0.125,0.546875 -0.4375,1.03125 -0.29687,0.46875 -0.73437,0.828125 -0.42188,0.34375 -0.95313,0.5625 -0.51562,0.203125 -1.0625,0.203125 h -0.64062 q -0.5625,0 -1.03125,-0.21875 -0.45313,-0.21875 -0.75,-0.59375 -0.28125,-0.390625 -0.40625,-0.890625 -0.10938,-0.5 0.0156,-1.046875 L 267.491,77.10701 q 0.125,-0.546875 0.42187,-1.015625 0.29688,-0.484375 0.71875,-0.828125 0.4375,-0.359375 0.95313,-0.5625 0.53125,-0.203125 1.07812,-0.203125 h 0.64063 q 0.5625,0 1.01562,0.21875 0.45313,0.203125 0.75,0.59375 0.29688,0.375 0.42188,0.875 0.125,0.5 0,1.0625 l -0.46875,2.140625 h -4.39063 l -0.3125,1.515625 q -0.0625,0.21875 -0.0156,0.40625 0.0469,0.1875 0.14062,0.3125 0.0937,0.125 0.26563,0.203125 0.17187,0.07813 0.375,0.07813 h 0.64062 q 0.23438,0 0.45313,-0.07813 0.21875,-0.09375 0.40625,-0.25 0.1875,-0.15625 0.3125,-0.359375 0.14062,-0.21875 0.1875,-0.4375 l 0.1875,-0.84375 1.57812,0.265625 -0.125,0.640625 z m -0.84375,-3.78125 q 0.0625,-0.234375 0.0156,-0.40625 -0.0312,-0.1875 -0.14063,-0.3125 -0.0937,-0.125 -0.26562,-0.203125 -0.15625,-0.07813 -0.375,-0.07813 h -0.64063 q -0.21875,0 -0.45312,0.09375 -0.21875,0.07813 -0.40625,0.234375 -0.1875,0.15625 -0.32813,0.359375 -0.125,0.203125 -0.17187,0.4375 l -0.17188,0.796875 h 2.75 z m 1.875,6.25 2.51563,-11.859375 h 1.64062 l -2.51562,11.859375 z m 5.55469,-9.921875 0.40625,-1.9375 h 1.79687 l -0.40625,1.9375 z m -2.03125,9.921875 1.84375,-8.65625 h 1.64062 l -1.84375,8.65625 z m 7.58594,0 1.32812,-6.25 q 0.0625,-0.234375 0.0156,-0.40625 -0.0312,-0.1875 -0.14063,-0.3125 -0.0937,-0.125 -0.26562,-0.203125 -0.15625,-0.07813 -0.375,-0.07813 h -0.64063 q -0.21875,0 -0.45312,0.09375 -0.21875,0.07813 -0.40625,0.234375 -0.1875,0.15625 -0.32813,0.359375 -0.125,0.203125 -0.17187,0.4375 l -1.3125,6.125 h -1.625 l 1.84375,-8.65625 h 0.79687 l 0.23438,0.546875 q 0.125,-0.125 0.73437,-0.40625 0.60938,-0.296875 1.28125,-0.296875 h 0.23438 q 0.5625,0 1.01562,0.21875 0.45313,0.203125 0.75,0.59375 0.29688,0.375 0.42188,0.875 0.125,0.5 0,1.046875 l -1.29688,6.078125 z m 9.4375,-2.46875 q -0.125,0.546875 -0.4375,1.03125 -0.29688,0.46875 -0.73438,0.828125 -0.42187,0.34375 -0.95312,0.5625 -0.51563,0.203125 -1.0625,0.203125 h -0.64063 q -0.5625,0 -1.03125,-0.21875 -0.45312,-0.21875 -0.75,-0.59375 -0.28125,-0.390625 -0.40625,-0.890625 -0.10937,-0.5 0.0156,-1.046875 l 0.76562,-3.609375 q 0.125,-0.546875 0.42188,-1.015625 0.29687,-0.484375 0.71875,-0.828125 0.4375,-0.359375 0.95312,-0.5625 0.53125,-0.203125 1.07813,-0.203125 h 0.64062 q 0.5625,0 1.01563,0.21875 0.45312,0.203125 0.75,0.59375 0.29687,0.375 0.42187,0.875 0.125,0.5 0,1.0625 l -0.46875,2.140625 h -4.39062 l -0.3125,1.515625 q -0.0625,0.21875 -0.0156,0.40625 0.0469,0.1875 0.14063,0.3125 0.0937,0.125 0.26562,0.203125 0.17188,0.07813 0.375,0.07813 h 0.64063 q 0.23437,0 0.45312,-0.07813 0.21875,-0.09375 0.40625,-0.25 0.1875,-0.15625 0.3125,-0.359375 0.14063,-0.21875 0.1875,-0.4375 l 0.1875,-0.84375 1.57813,0.265625 z m -0.84375,-3.78125 q 0.0625,-0.234375 0.0156,-0.40625 -0.0312,-0.1875 -0.14062,-0.3125 -0.0937,-0.125 -0.26563,-0.203125 -0.15625,-0.07813 -0.375,-0.07813 h -0.64062 q -0.21875,0 -0.45313,0.09375 -0.21875,0.07813 -0.40625,0.234375 -0.1875,0.15625 -0.32812,0.359375 -0.125,0.203125 -0.17188,0.4375 l -0.17187,0.796875 h 2.75 z"
       fill-rule="nonzero"
       id="path73" />
    <path
       fill="#000000"
       d="m 235.00273,97.247635 q 0.28125,-1.34375 0.78125,-2.5 0.51563,-1.15625 1.17188,-2.140625 0.67187,-1 1.46875,-1.859375 0.8125,-0.859375 1.98437,-1.78125 l 0.82813,1.078125 q -1,0.84375 -1.70313,1.640625 -0.70312,0.78125 -1.28125,1.6875 -0.5625,0.90625 -1,1.90625 -0.42187,1 -0.64062,2.09375 -0.25,1.09375 -0.25,2.09375 0,1.000005 0.1875,1.890625 0.1875,0.89063 0.54687,1.65625 0.35938,0.78125 1.03125,1.65625 l -1.1875,0.98438 q -0.8125,-0.98438 -1.26562,-1.85938 -0.4375,-0.875 -0.6875,-1.875 -0.25,-1.01562 -0.26563,-2.171875 0,-1.171875 0.28125,-2.5 z m 10.8125,2.59375 q -0.125,0.546875 -0.4375,1.031255 -0.29687,0.46875 -0.73437,0.82812 -0.42188,0.34375 -0.95313,0.5625 -0.51562,0.20313 -1.0625,0.20313 h -0.64062 q -0.5625,0 -1.03125,-0.21875 -0.45313,-0.21875 -0.75,-0.59375 -0.28125,-0.39063 -0.40625,-0.89063 -0.10938,-0.5 0.0156,-1.046875 l 0.76563,-3.609375 q 0.125,-0.546875 0.42187,-1.015625 0.29688,-0.484375 0.71875,-0.828125 0.4375,-0.359375 0.95313,-0.5625 0.53125,-0.203125 1.07812,-0.203125 h 0.64063 q 0.5625,0 1.01562,0.21875 0.45313,0.203125 0.75,0.59375 0.29688,0.375 0.42188,0.875 0.125,0.5 0,1.046875 l -0.76563,3.609375 z m -0.84375,-3.78125 q 0.0625,-0.234375 0.0156,-0.40625 -0.0312,-0.1875 -0.14063,-0.3125 -0.0937,-0.125 -0.26562,-0.203125 -0.15625,-0.07813 -0.375,-0.07813 h -0.64063 q -0.21875,0 -0.45312,0.09375 -0.21875,0.07813 -0.40625,0.234375 -0.1875,0.15625 -0.32813,0.359375 -0.125,0.203125 -0.17187,0.4375 l -0.79688,3.71875 q -0.0625,0.21876 -0.0156,0.40626 0.0469,0.1875 0.14062,0.3125 0.0937,0.125 0.26563,0.20312 0.17187,0.0781 0.375,0.0781 h 0.64062 q 0.23438,0 0.45313,-0.0781 0.21875,-0.0937 0.40625,-0.25 0.1875,-0.15625 0.3125,-0.35937 0.14062,-0.21876 0.1875,-0.43751 z m 8.10938,3.78125 q -0.125,0.546875 -0.4375,1.031255 -0.29688,0.46875 -0.73438,0.82812 -0.42187,0.34375 -0.95312,0.5625 -0.51563,0.20313 -1.0625,0.20313 h -0.23438 q -0.625,0 -1.125,-0.25 -0.48437,-0.26563 -0.40625,-0.40625 l -0.65625,3.70312 h -1.625 l 2.53125,-11.859375 h 0.79688 l 0.23437,0.546875 q 0.125,-0.125 0.73438,-0.40625 0.60937,-0.296875 1.28125,-0.296875 h 0.23437 q 0.5625,0 1.01563,0.21875 0.45312,0.203125 0.75,0.59375 0.29687,0.375 0.42187,0.875 0.125,0.5 0,1.046875 z m -0.84375,-3.78125 q 0.0625,-0.234375 0.0156,-0.40625 -0.0312,-0.1875 -0.14062,-0.3125 -0.0937,-0.125 -0.26563,-0.203125 -0.15625,-0.07813 -0.375,-0.07813 h -0.64062 q -0.21875,0 -0.45313,0.09375 -0.21875,0.07813 -0.40625,0.234375 -0.1875,0.15625 -0.32812,0.359375 -0.125,0.203125 -0.17188,0.4375 l -0.79687,3.71875 q -0.0625,0.21876 -0.0156,0.40626 0.0469,0.1875 0.14063,0.3125 0.0937,0.125 0.26562,0.20312 0.17188,0.0781 0.375,0.0781 h 0.64063 q 0.23437,0 0.45312,-0.0781 0.21875,-0.0937 0.40625,-0.25 0.1875,-0.15625 0.3125,-0.35937 0.14063,-0.21876 0.1875,-0.43751 z m 8.10936,3.78125 q -0.125,0.546875 -0.4375,1.031255 -0.29688,0.46875 -0.73438,0.82812 -0.42187,0.34375 -0.95312,0.5625 -0.51563,0.20313 -1.0625,0.20313 h -0.64063 q -0.56248,0 -1.03123,-0.21875 -0.45313,-0.21875 -0.75,-0.59375 -0.28125,-0.39063 -0.40625,-0.89063 -0.10938,-0.5 0.0156,-1.046875 l 0.76563,-3.609375 q 0.125,-0.546875 0.42187,-1.015625 0.29688,-0.484375 0.71874,-0.828125 0.4375,-0.359375 0.95312,-0.5625 0.53125,-0.203125 1.07813,-0.203125 h 0.64062 q 0.5625,0 1.01563,0.21875 0.45312,0.203125 0.75,0.59375 0.29687,0.375 0.42187,0.875 0.125,0.5 0,1.0625 l -0.46875,2.140625 h -4.39062 l -0.31249,1.515625 q -0.0625,0.218755 -0.0156,0.406255 0.0469,0.1875 0.14061,0.3125 0.0937,0.125 0.26562,0.20312 0.17188,0.0781 0.375,0.0781 h 0.64063 q 0.23437,0 0.45312,-0.0781 0.21875,-0.0937 0.40625,-0.25 0.1875,-0.15625 0.3125,-0.35937 0.14063,-0.218755 0.1875,-0.437505 l 0.1875,-0.84375 1.57813,0.265625 z m -0.84375,-3.78125 q 0.0625,-0.234375 0.0156,-0.40625 -0.0312,-0.1875 -0.14062,-0.3125 -0.0937,-0.125 -0.26563,-0.203125 -0.15625,-0.07813 -0.375,-0.07813 h -0.64062 q -0.21875,0 -0.45313,0.09375 -0.21875,0.07813 -0.40625,0.234375 -0.1875,0.15625 -0.32812,0.359375 -0.125,0.203125 -0.17188,0.4375 l -0.17187,0.796875 h 2.75 z m 5.8125,-0.84375 q -0.21875,0 -0.4375,0.09375 -0.21875,0.07813 -0.42188,0.234375 -0.1875,0.15625 -0.32812,0.375 -0.125,0.203125 -0.15625,0.421875 l -1.28125,5.968755 h -1.625 l 1.84375,-8.656255 h 0.79687 l 0.23438,0.546875 q 0.125,-0.125 0.73437,-0.40625 0.60938,-0.296875 1.28125,-0.296875 h 0.96875 l -0.375,1.71875 z m 5.54687,7.093755 -0.25,-0.5625 q -0.125,0.125 -0.73437,0.42187 -0.59375,0.29688 -1.25,0.29688 h -0.25 q -0.5625,0 -1.03125,-0.21875 -0.45313,-0.21875 -0.75,-0.59375 -0.28125,-0.39063 -0.40625,-0.89063 -0.10938,-0.5 0.0156,-1.046875 l 0.0156,-0.07813 q 0.125,-0.546875 0.42187,-1.015625 0.29688,-0.484375 0.71875,-0.828125 0.4375,-0.359375 0.95313,-0.5625 0.53125,-0.203125 1.07812,-0.203125 h 1.76563 l 0.20312,-0.96875 q 0.0625,-0.234375 0.0156,-0.40625 -0.0312,-0.1875 -0.14063,-0.3125 -0.0937,-0.125 -0.26562,-0.203125 -0.15625,-0.07813 -0.375,-0.07813 h -0.5625 q -0.21875,0 -0.45313,0.09375 -0.21875,0.07813 -0.40625,0.234375 -0.1875,0.15625 -0.32812,0.359375 -0.125,0.203125 -0.17188,0.4375 l -0.14062,0.59375 -1.5625,-0.265625 0.0781,-0.40625 q 0.125,-0.546875 0.42188,-1.015625 0.29687,-0.484375 0.71875,-0.828125 0.4375,-0.359375 0.95312,-0.5625 0.53125,-0.203125 1.07813,-0.203125 h 0.5625 q 0.5625,0 1.01562,0.21875 0.45313,0.203125 0.75,0.59375 0.29688,0.375 0.42188,0.875 0.125,0.5 0,1.046875 l -1.29688,6.07813 z m 0,-3.875005 h -1.625 q -0.21875,0 -0.45312,0.09375 -0.21875,0.07813 -0.40625,0.234375 -0.1875,0.15625 -0.32813,0.375 -0.125,0.203125 -0.1875,0.4375 l -0.0781,0.34375 q -0.0469,0.20313 0,0.39063 0.0469,0.1875 0.14062,0.3125 0.0937,0.125 0.26563,0.20312 0.17187,0.0781 0.375,0.0781 h 0.64062 q 0.23438,0 0.45313,-0.0781 0.21875,-0.0937 0.40625,-0.25 0.1875,-0.15625 0.3125,-0.35937 0.14062,-0.218755 0.1875,-0.437505 z m 5.375,3.875005 q -0.51562,0 -0.9375,-0.1875 -0.40625,-0.20313 -0.6875,-0.54688 -0.28125,-0.35937 -0.375,-0.8125 -0.0781,-0.45312 0.0156,-0.953125 l 0.96875,-4.59375 h -1.4375 l 0.34375,-1.5625 h 1.4375 l 0.39062,-1.875 1.6875,-0.28125 -0.45312,2.15625 h 2.03125 l -0.34375,1.5625 h -2.03125 l -1,4.765625 q -0.0469,0.17188 -0.0156,0.3125 0.0312,0.14063 0.10938,0.23438 0.0781,0.0937 0.20312,0.15625 0.125,0.0469 0.29688,0.0469 h 1.28125 l -0.34375,1.57813 z m 4.58594,-9.92188 0.40625,-1.9375 h 1.79687 l -0.40625,1.9375 z m -2.03125,9.92188 1.84375,-8.656255 h 1.64062 l -1.84375,8.656255 z m 9.75781,-2.468755 q -0.125,0.546875 -0.4375,1.031255 -0.29687,0.46875 -0.73437,0.82812 -0.42188,0.34375 -0.95313,0.5625 -0.51562,0.20313 -1.0625,0.20313 h -0.64062 q -0.5625,0 -1.03125,-0.21875 -0.45313,-0.21875 -0.75,-0.59375 -0.28125,-0.39063 -0.40625,-0.89063 -0.10938,-0.5 0.0156,-1.046875 l 0.76563,-3.609375 q 0.125,-0.546875 0.42187,-1.015625 0.29688,-0.484375 0.71875,-0.828125 0.4375,-0.359375 0.95313,-0.5625 0.53125,-0.203125 1.07812,-0.203125 h 0.64063 q 0.5625,0 1.01562,0.21875 0.45313,0.203125 0.75,0.59375 0.29688,0.375 0.42188,0.875 0.125,0.5 0,1.046875 l -0.76563,3.609375 z m -0.84375,-3.78125 q 0.0625,-0.234375 0.0156,-0.40625 -0.0312,-0.1875 -0.14063,-0.3125 -0.0937,-0.125 -0.26562,-0.203125 -0.15625,-0.07813 -0.375,-0.07813 h -0.64063 q -0.21875,0 -0.45312,0.09375 -0.21875,0.07813 -0.40625,0.234375 -0.1875,0.15625 -0.32813,0.359375 -0.125,0.203125 -0.17187,0.4375 l -0.79688,3.71875 q -0.0625,0.21876 -0.0156,0.40626 0.0469,0.1875 0.14062,0.3125 0.0937,0.125 0.26563,0.20312 0.17187,0.0781 0.375,0.0781 h 0.64062 q 0.23438,0 0.45313,-0.0781 0.21875,-0.0937 0.40625,-0.25 0.1875,-0.15625 0.3125,-0.35937 0.14062,-0.21876 0.1875,-0.43751 z m 5.9375,6.250005 1.32813,-6.250005 q 0.0625,-0.234375 0.0156,-0.40625 -0.0312,-0.1875 -0.14062,-0.3125 -0.0937,-0.125 -0.26563,-0.203125 -0.15625,-0.07813 -0.375,-0.07813 h -0.64062 q -0.21875,0 -0.45313,0.09375 -0.21875,0.07813 -0.40625,0.234375 -0.1875,0.15625 -0.32812,0.359375 -0.125,0.203125 -0.17188,0.4375 l -1.3125,6.12501 h -1.625 l 1.84375,-8.65626 h 0.79688 l 0.23437,0.546875 q 0.125,-0.125 0.73438,-0.40625 0.60937,-0.296875 1.28125,-0.296875 h 0.23437 q 0.5625,0 1.01563,0.21875 0.45312,0.203125 0.75,0.59375 0.29687,0.375 0.42187,0.875 0.125,0.5 0,1.046875 l -1.29687,6.078135 z m 9.5625,-2.29688 q -0.125,0.5625 -0.45312,1.01563 -0.3125,0.4375 -0.75,0.76562 -0.4375,0.3125 -0.96875,0.5 -0.51563,0.17188 -1.0625,0.17188 h -0.64063 q -0.5625,0 -1.03125,-0.21875 -0.45312,-0.21875 -0.76562,-0.59375 -0.3125,-0.375 -0.45313,-0.875 -0.125,-0.51563 0,-1.062505 l 0.10938,-0.53125 1.6875,-0.265625 -0.20313,0.984375 q -0.0469,0.203125 0,0.390625 0.0469,0.1875 0.15625,0.32813 0.125,0.125 0.29688,0.20312 0.1875,0.0781 0.39062,0.0781 h 0.64063 q 0.25,0 0.48437,-0.0625 0.25,-0.0781 0.4375,-0.20313 0.1875,-0.14062 0.3125,-0.3125 0.14063,-0.1875 0.1875,-0.390625 0.0781,-0.328125 -0.0156,-0.515625 -0.0781,-0.1875 -0.29688,-0.328125 -0.21875,-0.140625 -0.5625,-0.25 -0.32812,-0.125 -0.73437,-0.234375 -0.39063,-0.125 -0.79688,-0.296875 -0.40625,-0.171875 -0.71875,-0.484375 -0.29687,-0.3125 -0.42187,-0.765625 -0.125,-0.46875 0,-1.109375 0.125,-0.546875 0.4375,-1 0.3125,-0.46875 0.73437,-0.78125 0.42188,-0.328125 0.92188,-0.5 0.5,-0.171875 1.04687,-0.171875 h 0.5625 q 0.5625,0 1.01563,0.21875 0.45312,0.203125 0.75,0.59375 0.29687,0.375 0.42187,0.875 0.125,0.5 -0.0469,1.015625 l 0.0469,0.28125 -1.73437,0.265625 0.125,-0.6875 q 0.0625,-0.234375 0.0156,-0.40625 -0.0312,-0.1875 -0.14062,-0.3125 -0.0937,-0.125 -0.26563,-0.203125 -0.15625,-0.07813 -0.375,-0.07813 h -0.5625 q -0.23437,0 -0.46875,0.07813 -0.23437,0.0625 -0.40625,0.1875 -0.17187,0.125 -0.29687,0.296875 -0.10938,0.171875 -0.15625,0.421875 -0.0781,0.28125 0,0.46875 0.0937,0.171875 0.3125,0.3125 0.21875,0.140625 0.5625,0.25 0.35937,0.109375 0.75,0.25 0.39062,0.125 0.78125,0.3125 0.39062,0.171875 0.70312,0.484375 0.3125,0.3125 0.4375,0.78125 0.125,0.453125 0,1.109375 z m 5.82813,-2.640625 q -0.29688,1.328125 -0.79688,2.484375 -0.5,1.15625 -1.17187,2.15625 -0.67188,1 -1.48438,1.84375 -0.8125,0.85938 -1.95312,1.79688 l -0.84375,-1.07813 q 1,-0.84375 1.6875,-1.64062 0.70312,-0.78125 1.26562,-1.6875 0.57813,-0.90625 1,-1.906255 0.4375,-1 0.67188,-2.09375 0.23437,-1.09375 0.23437,-2.09375 0,-1 -0.1875,-1.890625 -0.1875,-0.890625 -0.54687,-1.65625 -0.34375,-0.78125 -1.01563,-1.65625 l 1.1875,-0.984375 q 0.79688,0.984375 1.25,1.859375 0.45313,0.859375 0.70313,1.875 0.25,1 0.25,2.171875 0.0156,1.15625 -0.25,2.5 z"
       fill-rule="nonzero"
       id="path75" />
    <path
       fill="#000000"
       fill-opacity="0"
       d="M 314.95142,159.98589 H 342.542 v 8.83018 h -27.59058 z m 0,13.24528 H 342.542 v 8.83019 h -27.59058 z"
       fill-rule="evenodd"
       id="path77" />
    <path
       stroke="#cccccc"
       stroke-width="2"
       stroke-linejoin="round"
       stroke-linecap="butt"
       d="M 314.95142,159.98589 H 342.542 v 8.83018 h -27.59058 z m 0,13.24528 H 342.542 v 8.83019 h -27.59058 z"
       fill-rule="evenodd"
       id="path79" />
    <path
       fill="#000000"
       fill-opacity="0"
       d="m 439.90515,148.18088 h 16.44931 v 45.474"
       fill-rule="evenodd"
       id="path81" />
    <path
       stroke="#000000"
       stroke-width="2"
       stroke-linejoin="round"
       stroke-linecap="butt"
       d="m 439.90515,148.18088 h 16.44931 v 45.474"
       fill-rule="evenodd"
       id="path83" />
    <path
       fill="#000000"
       fill-opacity="0"
       d="m 455.88782,148.3122 h 12.78134"
       fill-rule="evenodd"
       id="path85" />
    <path
       stroke="#000000"
       stroke-width="1"
       stroke-linejoin="round"
       stroke-linecap="butt"
       d="m 455.88782,148.3122 h 12.78134"
       fill-rule="evenodd"
       id="path87" />
    <path
       fill="#999999"
       d="m 468.5905,148.31201 v 0 c 0,-2.51415 2.03418,-4.55226 4.54349,-4.55226 v 0 c 1.20501,0 2.36065,0.47961 3.21274,1.33333 0.85208,0.85371 1.33075,2.01159 1.33075,3.21893 v 0 c 0,2.51413 -2.03418,4.55225 -4.54349,4.55225 v 0 c -2.50931,0 -4.54349,-2.03812 -4.54349,-4.55225 z"
       fill-rule="evenodd"
       id="path89" />
    <path
       stroke="#000000"
       stroke-width="1"
       stroke-linejoin="round"
       stroke-linecap="butt"
       d="m 468.5905,148.31201 v 0 c 0,-2.51415 2.03418,-4.55226 4.54349,-4.55226 v 0 c 1.20501,0 2.36065,0.47961 3.21274,1.33333 0.85208,0.85371 1.33075,2.01159 1.33075,3.21893 v 0 c 0,2.51413 -2.03418,4.55225 -4.54349,4.55225 v 0 c -2.50931,0 -4.54349,-2.03812 -4.54349,-4.55225 z"
       fill-rule="evenodd"
       id="path91" />
    <path
       fill="#000000"
       fill-opacity="0"
       d="m 455.90826,176.64412 h 12.78131"
       fill-rule="evenodd"
       id="path93" />
    <path
       stroke="#000000"
       stroke-width="1"
       stroke-linejoin="round"
       stroke-linecap="butt"
       d="m 455.90826,176.64412 h 12.78131"
       fill-rule="evenodd"
       id="path95" />
    <path
       fill="#999999"
       d="m 468.6197,176.64394 v 0 c 0,-2.51415 2.03418,-4.55225 4.54349,-4.55225 v 0 c 1.20501,0 2.36065,0.47962 3.21274,1.33332 0.85208,0.85371 1.33075,2.01159 1.33075,3.21893 v 0 c 0,2.51414 -2.03418,4.55226 -4.54349,4.55226 v 0 c -2.50931,0 -4.54349,-2.03812 -4.54349,-4.55226 z"
       fill-rule="evenodd"
       id="path97" />
    <path
       stroke="#000000"
       stroke-width="1"
       stroke-linejoin="round"
       stroke-linecap="butt"
       d="m 468.6197,176.64394 v 0 c 0,-2.51415 2.03418,-4.55225 4.54349,-4.55225 v 0 c 1.20501,0 2.36065,0.47962 3.21274,1.33332 0.85208,0.85371 1.33075,2.01159 1.33075,3.21893 v 0 c 0,2.51414 -2.03418,4.55226 -4.54349,4.55226 v 0 c -2.50931,0 -4.54349,-2.03812 -4.54349,-4.55226 z"
       fill-rule="evenodd"
       id="path99" />
    <path
       fill="#000000"
       fill-opacity="0"
       d="m 456.35434,164.30186 h 26.68497 v 33.98355"
       fill-rule="evenodd"
       id="path101" />
    <path
       stroke="#000000"
       stroke-width="2"
       stroke-linejoin="round"
       stroke-linecap="butt"
       d="m 456.35434,164.30186 h 26.68497 v 33.98355"
       fill-rule="evenodd"
       id="path103" />
    <path
       fill="#000000"
       fill-opacity="0"
       d="m 482.57104,164.43329 h 12.78131"
       fill-rule="evenodd"
       id="path105" />
    <path
       stroke="#000000"
       stroke-width="1"
       stroke-linejoin="round"
       stroke-linecap="butt"
       d="m 482.57104,164.43329 h 12.78131"
       fill-rule="evenodd"
       id="path107" />
    <path
       fill="#999999"
       d="m 495.2737,164.4331 v 0 c 0,-2.51415 2.03418,-4.55225 4.54349,-4.55225 v 0 c 1.20501,0 2.36065,0.4796 3.21274,1.33332 0.85208,0.85371 1.33075,2.01159 1.33075,3.21893 v 0 c 0,2.51414 -2.03418,4.55225 -4.54349,4.55225 v 0 c -2.50931,0 -4.54349,-2.03811 -4.54349,-4.55225 z"
       fill-rule="evenodd"
       id="path109" />
    <path
       stroke="#000000"
       stroke-width="1"
       stroke-linejoin="round"
       stroke-linecap="butt"
       d="m 495.2737,164.4331 v 0 c 0,-2.51415 2.03418,-4.55225 4.54349,-4.55225 v 0 c 1.20501,0 2.36065,0.4796 3.21274,1.33332 0.85208,0.85371 1.33075,2.01159 1.33075,3.21893 v 0 c 0,2.51414 -2.03418,4.55225 -4.54349,4.55225 v 0 c -2.50931,0 -4.54349,-2.03811 -4.54349,-4.55225 z"
       fill-rule="evenodd"
       id="path111" />
    <path
       fill="#000000"
       fill-opacity="0"
       d="m 482.59146,192.76521 h 12.78131"
       fill-rule="evenodd"
       id="path113" />
    <path
       stroke="#000000"
       stroke-width="1"
       stroke-linejoin="round"
       stroke-linecap="butt"
       d="m 482.59146,192.76521 h 12.78131"
       fill-rule="evenodd"
       id="path115" />
    <path
       fill="#999999"
       d="m 495.3029,192.76505 v 0 c 0,-2.51415 2.03418,-4.55226 4.54349,-4.55226 v 0 c 1.20501,0 2.36068,0.47961 3.21274,1.33333 0.85208,0.85371 1.33078,2.01159 1.33078,3.21893 v 0 c 0,2.51413 -2.03421,4.55225 -4.54352,4.55225 v 0 c -2.50931,0 -4.54349,-2.03812 -4.54349,-4.55225 z"
       fill-rule="evenodd"
       id="path117" />
    <path
       stroke="#000000"
       stroke-width="1"
       stroke-linejoin="round"
       stroke-linecap="butt"
       d="m 495.3029,192.76505 v 0 c 0,-2.51415 2.03418,-4.55226 4.54349,-4.55226 v 0 c 1.20501,0 2.36068,0.47961 3.21274,1.33333 0.85208,0.85371 1.33078,2.01159 1.33078,3.21893 v 0 c 0,2.51413 -2.03421,4.55225 -4.54352,4.55225 v 0 c -2.50931,0 -4.54349,-2.03812 -4.54349,-4.55225 z"
       fill-rule="evenodd"
       id="path119" />
    <path
       fill="#000000"
       fill-opacity="0"
       d="m 482.59146,179.42361 h 12.78131"
       fill-rule="evenodd"
       id="path121" />
    <path
       stroke="#000000"
       stroke-width="1"
       stroke-linejoin="round"
       stroke-linecap="butt"
       d="m 482.59146,179.42361 h 12.78131"
       fill-rule="evenodd"
       id="path123" />
    <path
       fill="#999999"
       d="m 495.3029,179.42343 v 0 c 0,-2.51413 2.03418,-4.55225 4.54349,-4.55225 v 0 c 1.20501,0 2.36068,0.47962 3.21274,1.33333 0.85208,0.85372 1.33078,2.0116 1.33078,3.21892 v 0 c 0,2.51414 -2.03421,4.55226 -4.54352,4.55226 v 0 c -2.50931,0 -4.54349,-2.03812 -4.54349,-4.55226 z"
       fill-rule="evenodd"
       id="path125" />
    <path
       stroke="#000000"
       stroke-width="1"
       stroke-linejoin="round"
       stroke-linecap="butt"
       d="m 495.3029,179.42343 v 0 c 0,-2.51413 2.03418,-4.55225 4.54349,-4.55225 v 0 c 1.20501,0 2.36068,0.47962 3.21274,1.33333 0.85208,0.85372 1.33078,2.0116 1.33078,3.21892 v 0 c 0,2.51414 -2.03421,4.55226 -4.54352,4.55226 v 0 c -2.50931,0 -4.54349,-2.03812 -4.54349,-4.55226 z"
       fill-rule="evenodd"
       id="path127" />
    <path
       fill="#000000"
       fill-opacity="0"
       d="m 426.14777,58.95013 h 76 v 33.98425 h -76 z"
       fill-rule="evenodd"
       id="path129" />
    <path
       fill="#000000"
       d="m 447.20636,81.01326 q -0.125,0.5625 -0.45312,1.015625 -0.3125,0.4375 -0.75,0.765625 -0.4375,0.3125 -0.96875,0.5 -0.51563,0.171875 -1.0625,0.171875 h -0.64063 q -0.5625,0 -1.03125,-0.21875 -0.45312,-0.21875 -0.76562,-0.59375 -0.3125,-0.375 -0.45313,-0.875 -0.125,-0.515625 0,-1.0625 l 0.10938,-0.53125 1.6875,-0.265625 -0.20313,0.984375 q -0.0469,0.203125 0,0.390625 0.0469,0.1875 0.15625,0.328125 0.125,0.125 0.29688,0.203125 0.1875,0.07813 0.39062,0.07813 h 0.64063 q 0.25,0 0.48437,-0.0625 0.25,-0.07813 0.4375,-0.203125 0.1875,-0.140625 0.3125,-0.3125 0.14063,-0.1875 0.1875,-0.390625 0.0781,-0.328125 -0.0156,-0.515625 -0.0781,-0.1875 -0.29688,-0.328125 -0.21875,-0.140625 -0.5625,-0.25 -0.32812,-0.125 -0.73437,-0.234375 -0.39063,-0.125 -0.79688,-0.296875 -0.40625,-0.171875 -0.71875,-0.484375 -0.29687,-0.3125 -0.42187,-0.765625 -0.125,-0.46875 0,-1.109375 0.125,-0.546875 0.4375,-1 0.3125,-0.46875 0.73437,-0.78125 0.42188,-0.328125 0.92188,-0.5 0.5,-0.171875 1.04687,-0.171875 h 0.5625 q 0.5625,0 1.01563,0.21875 0.45312,0.203125 0.75,0.59375 0.29687,0.375 0.42187,0.875 0.125,0.5 -0.0469,1.015625 l 0.0469,0.28125 -1.73437,0.265625 0.125,-0.6875 q 0.0625,-0.234375 0.0156,-0.40625 -0.0312,-0.1875 -0.14062,-0.3125 -0.0937,-0.125 -0.26563,-0.203125 -0.15625,-0.07813 -0.375,-0.07813 h -0.5625 q -0.23437,0 -0.46875,0.07813 -0.23437,0.0625 -0.40625,0.1875 -0.17187,0.125 -0.29687,0.296875 -0.10938,0.171875 -0.15625,0.421875 -0.0781,0.28125 0,0.46875 0.0937,0.171875 0.3125,0.3125 0.21875,0.140625 0.5625,0.25 0.35937,0.109375 0.75,0.25 0.39062,0.125 0.78125,0.3125 0.39062,0.171875 0.70312,0.484375 0.3125,0.3125 0.4375,0.78125 0.125,0.453125 0,1.109375 z m 7.21875,-0.171875 q -0.125,0.546875 -0.4375,1.03125 -0.29687,0.46875 -0.73437,0.828125 -0.42188,0.34375 -0.95313,0.5625 -0.51562,0.203125 -1.0625,0.203125 h -0.64062 q -0.5625,0 -1.03125,-0.21875 -0.45313,-0.21875 -0.75,-0.59375 -0.28125,-0.390625 -0.40625,-0.890625 -0.10938,-0.5 0.0156,-1.046875 l 0.76563,-3.609375 q 0.125,-0.546875 0.42187,-1.015625 0.29688,-0.484375 0.71875,-0.828125 0.4375,-0.359375 0.95313,-0.5625 0.53125,-0.203125 1.07812,-0.203125 h 0.64063 q 0.5625,0 1.01562,0.21875 0.45313,0.203125 0.75,0.59375 0.29688,0.375 0.42188,0.875 0.125,0.5 0,1.046875 l -0.76563,3.609375 z m -0.84375,-3.78125 q 0.0625,-0.234375 0.0156,-0.40625 -0.0312,-0.1875 -0.14063,-0.3125 -0.0937,-0.125 -0.26562,-0.203125 -0.15625,-0.07813 -0.375,-0.07813 h -0.64063 q -0.21875,0 -0.45312,0.09375 -0.21875,0.07813 -0.40625,0.234375 -0.1875,0.15625 -0.32813,0.359375 -0.125,0.203125 -0.17187,0.4375 l -0.79688,3.71875 q -0.0625,0.21875 -0.0156,0.40625 0.0469,0.1875 0.14062,0.3125 0.0937,0.125 0.26563,0.203125 0.17187,0.07813 0.375,0.07813 h 0.64062 q 0.23438,0 0.45313,-0.07813 0.21875,-0.09375 0.40625,-0.25 0.1875,-0.15625 0.3125,-0.359375 0.14062,-0.21875 0.1875,-0.4375 z m 1.875,6.25 2.51563,-11.859375 h 1.64062 l -2.51562,11.859375 z m 8.41406,0 -0.25,-0.5625 q -0.10937,0.125 -0.71875,0.421875 -0.60937,0.296875 -1.26562,0.296875 h -0.25 q -0.5625,0 -1.03125,-0.21875 -0.45313,-0.21875 -0.75,-0.59375 -0.28125,-0.390625 -0.40625,-0.890625 -0.10938,-0.5 0.0156,-1.046875 l 1.29688,-6.0625 h 1.625 l -1.32813,6.25 q -0.0625,0.21875 -0.0156,0.40625 0.0469,0.1875 0.14062,0.3125 0.0937,0.125 0.26563,0.203125 0.17187,0.07813 0.375,0.07813 h 0.64062 q 0.23438,0 0.45313,-0.07813 0.21875,-0.09375 0.40625,-0.25 0.1875,-0.15625 0.3125,-0.359375 0.14062,-0.21875 0.1875,-0.4375 l 1.3125,-6.125 h 1.64062 l -1.84375,8.65625 z m 5.375,0 q -0.51562,0 -0.9375,-0.1875 -0.40625,-0.203125 -0.6875,-0.546875 -0.28125,-0.359375 -0.375,-0.8125 -0.0781,-0.453125 0.0156,-0.953125 l 0.96875,-4.59375 h -1.4375 l 0.34375,-1.5625 h 1.4375 l 0.39062,-1.875 1.6875,-0.28125 -0.45312,2.15625 h 2.03125 l -0.34375,1.5625 h -2.03125 l -1,4.765625 q -0.0469,0.171875 -0.0156,0.3125 0.0312,0.140625 0.10938,0.234375 0.0781,0.09375 0.20312,0.15625 0.125,0.04687 0.29688,0.04687 h 1.28125 l -0.34375,1.578125 z m 4.58594,-9.921875 0.40625,-1.9375 h 1.79688 l -0.40625,1.9375 z m -2.03125,9.921875 1.84375,-8.65625 h 1.64063 l -1.84375,8.65625 z m 9.75781,-2.46875 q -0.125,0.546875 -0.4375,1.03125 -0.29687,0.46875 -0.73437,0.828125 -0.42188,0.34375 -0.95313,0.5625 -0.51562,0.203125 -1.0625,0.203125 h -0.64062 q -0.5625,0 -1.03125,-0.21875 -0.45313,-0.21875 -0.75,-0.59375 -0.28125,-0.390625 -0.40625,-0.890625 -0.10938,-0.5 0.0156,-1.046875 l 0.76563,-3.609375 q 0.125,-0.546875 0.42187,-1.015625 0.29688,-0.484375 0.71875,-0.828125 0.4375,-0.359375 0.95313,-0.5625 0.53125,-0.203125 1.07812,-0.203125 h 0.64063 q 0.5625,0 1.01562,0.21875 0.45313,0.203125 0.75,0.59375 0.29688,0.375 0.42188,0.875 0.125,0.5 0,1.046875 l -0.76563,3.609375 z m -0.84375,-3.78125 q 0.0625,-0.234375 0.0156,-0.40625 -0.0312,-0.1875 -0.14063,-0.3125 -0.0937,-0.125 -0.26562,-0.203125 -0.15625,-0.07813 -0.375,-0.07813 h -0.64063 q -0.21875,0 -0.45312,0.09375 -0.21875,0.07813 -0.40625,0.234375 -0.1875,0.15625 -0.32813,0.359375 -0.125,0.203125 -0.17187,0.4375 l -0.79688,3.71875 q -0.0625,0.21875 -0.0156,0.40625 0.0469,0.1875 0.14062,0.3125 0.0937,0.125 0.26563,0.203125 0.17187,0.07813 0.375,0.07813 h 0.64062 q 0.23438,0 0.45313,-0.07813 0.21875,-0.09375 0.40625,-0.25 0.1875,-0.15625 0.3125,-0.359375 0.14062,-0.21875 0.1875,-0.4375 z m 5.9375,6.25 1.32813,-6.25 q 0.0625,-0.234375 0.0156,-0.40625 -0.0312,-0.1875 -0.14062,-0.3125 -0.0937,-0.125 -0.26563,-0.203125 -0.15625,-0.07813 -0.375,-0.07813 h -0.64062 q -0.21875,0 -0.45313,0.09375 -0.21875,0.07813 -0.40625,0.234375 -0.1875,0.15625 -0.32812,0.359375 -0.125,0.203125 -0.17188,0.4375 l -1.3125,6.125 h -1.625 l 1.84375,-8.65625 h 0.79688 l 0.23437,0.546875 q 0.125,-0.125 0.73438,-0.40625 0.60937,-0.296875 1.28125,-0.296875 h 0.23437 q 0.5625,0 1.01563,0.21875 0.45312,0.203125 0.75,0.59375 0.29687,0.375 0.42187,0.875 0.125,0.5 0,1.046875 l -1.29687,6.078125 z"
       fill-rule="nonzero"
       id="path131" />
    <path
       fill="#000000"
       fill-opacity="0"
       d="m 113.20174,148.18088 h 16.44931 v 45.474"
       fill-rule="evenodd"
       id="path133" />
    <path
       stroke="#000000"
       stroke-width="2"
       stroke-linejoin="round"
       stroke-linecap="butt"
       d="m 113.20174,148.18088 h 16.44931 v 45.474"
       fill-rule="evenodd"
       id="path135" />
    <path
       fill="#000000"
       fill-opacity="0"
       d="m 129.18442,148.3122 h 12.78133"
       fill-rule="evenodd"
       id="path137" />
    <path
       stroke="#000000"
       stroke-width="1"
       stroke-linejoin="round"
       stroke-linecap="butt"
       d="m 129.18442,148.3122 h 12.78133"
       fill-rule="evenodd"
       id="path139" />
    <path
       fill="#999999"
       d="m 141.88708,148.31201 v 0 c 0,-2.51415 2.03419,-4.55226 4.5435,-4.55226 v 0 c 1.20502,0 2.36067,0.47961 3.21274,1.33333 0.85207,0.85371 1.33077,2.01159 1.33077,3.21893 v 0 c 0,2.51413 -2.0342,4.55225 -4.54351,4.55225 v 0 c -2.50931,0 -4.5435,-2.03812 -4.5435,-4.55225 z"
       fill-rule="evenodd"
       id="path141" />
    <path
       stroke="#000000"
       stroke-width="1"
       stroke-linejoin="round"
       stroke-linecap="butt"
       d="m 141.88708,148.31201 v 0 c 0,-2.51415 2.03419,-4.55226 4.5435,-4.55226 v 0 c 1.20502,0 2.36067,0.47961 3.21274,1.33333 0.85207,0.85371 1.33077,2.01159 1.33077,3.21893 v 0 c 0,2.51413 -2.0342,4.55225 -4.54351,4.55225 v 0 c -2.50931,0 -4.5435,-2.03812 -4.5435,-4.55225 z"
       fill-rule="evenodd"
       id="path143" />
    <path
       fill="#000000"
       fill-opacity="0"
       d="m 129.65092,164.30186 h 26.68497 v 33.98355"
       fill-rule="evenodd"
       id="path145" />
    <path
       stroke="#000000"
       stroke-width="2"
       stroke-linejoin="round"
       stroke-linecap="butt"
       d="m 129.65092,164.30186 h 26.68497 v 33.98355"
       fill-rule="evenodd"
       id="path147" />
    <path
       fill="#000000"
       fill-opacity="0"
       d="m 155.88805,179.42361 h 12.78133"
       fill-rule="evenodd"
       id="path149" />
    <path
       stroke="#000000"
       stroke-width="1"
       stroke-linejoin="round"
       stroke-linecap="butt"
       d="m 155.88805,179.42361 h 12.78133"
       fill-rule="evenodd"
       id="path151" />
    <path
       fill="#999999"
       d="m 168.59947,179.42343 v 0 c 0,-2.51413 2.03419,-4.55225 4.5435,-4.55225 v 0 c 1.205,0 2.36066,0.47962 3.21274,1.33333 0.85207,0.85372 1.33075,2.0116 1.33075,3.21892 v 0 c 0,2.51414 -2.03419,4.55226 -4.54349,4.55226 v 0 c -2.5093,0 -4.5435,-2.03812 -4.5435,-4.55226 z"
       fill-rule="evenodd"
       id="path153" />
    <path
       stroke="#000000"
       stroke-width="1"
       stroke-linejoin="round"
       stroke-linecap="butt"
       d="m 168.59947,179.42343 v 0 c 0,-2.51413 2.03419,-4.55225 4.5435,-4.55225 v 0 c 1.205,0 2.36066,0.47962 3.21274,1.33333 0.85207,0.85372 1.33075,2.0116 1.33075,3.21892 v 0 c 0,2.51414 -2.03419,4.55226 -4.54349,4.55226 v 0 c -2.5093,0 -4.5435,-2.03812 -4.5435,-4.55226 z"
       fill-rule="evenodd"
       id="path155" />
    <path
       fill="#000000"
       fill-opacity="0"
       d="m 338.01828,58.949898 h 60.28345 v 33.984253 h -60.28345 z"
       fill-rule="evenodd"
       id="path157" />
    <path
       fill="#000000"
       d="m 362.93735,80.84115 q -0.125,0.546875 -0.4375,1.03125 -0.29688,0.46875 -0.73438,0.828125 -0.42187,0.34375 -0.95312,0.5625 -0.51563,0.203125 -1.0625,0.203125 h -0.23438 q -0.625,0 -1.125,-0.25 -0.48437,-0.265625 -0.40625,-0.40625 l -0.65625,3.703125 h -1.625 l 2.53125,-11.859375 h 0.79688 l 0.23437,0.546875 q 0.125,-0.125 0.73438,-0.40625 0.60937,-0.296875 1.28125,-0.296875 h 0.23437 q 0.5625,0 1.01563,0.21875 0.45312,0.203125 0.75,0.59375 0.29687,0.375 0.42187,0.875 0.125,0.5 0,1.046875 z M 362.0936,77.0599 q 0.0625,-0.234375 0.0156,-0.40625 -0.0312,-0.1875 -0.14062,-0.3125 -0.0937,-0.125 -0.26563,-0.203125 -0.15625,-0.07813 -0.375,-0.07813 h -0.64062 q -0.21875,0 -0.45313,0.09375 -0.21875,0.07813 -0.40625,0.234375 -0.1875,0.15625 -0.32812,0.359375 -0.125,0.203125 -0.17188,0.4375 l -0.79687,3.71875 q -0.0625,0.21875 -0.0156,0.40625 0.0469,0.1875 0.14063,0.3125 0.0937,0.125 0.26562,0.203125 0.17188,0.07813 0.375,0.07813 h 0.64063 q 0.23437,0 0.45312,-0.07813 0.21875,-0.09375 0.40625,-0.25 0.1875,-0.15625 0.3125,-0.359375 0.14063,-0.21875 0.1875,-0.4375 z m 1.875,6.25 2.51562,-11.859375 h 1.64063 L 365.60922,83.3099 Z m 8.41406,0 -0.25,-0.5625 q -0.125,0.125 -0.73437,0.421875 -0.59375,0.296875 -1.25,0.296875 h -0.25 q -0.5625,0 -1.03125,-0.21875 -0.45313,-0.21875 -0.75,-0.59375 -0.28125,-0.390625 -0.40625,-0.890625 -0.10938,-0.5 0.0156,-1.046875 l 0.0156,-0.07813 q 0.125,-0.546875 0.42187,-1.015625 0.29688,-0.484375 0.71875,-0.828125 0.4375,-0.359375 0.95313,-0.5625 0.53125,-0.203125 1.07812,-0.203125 h 1.76563 l 0.20312,-0.96875 q 0.0625,-0.234375 0.0156,-0.40625 -0.0312,-0.1875 -0.14063,-0.3125 -0.0937,-0.125 -0.26562,-0.203125 -0.15625,-0.07813 -0.375,-0.07813 h -0.5625 q -0.21875,0 -0.45313,0.09375 -0.21875,0.07813 -0.40625,0.234375 -0.1875,0.15625 -0.32812,0.359375 -0.125,0.203125 -0.17188,0.4375 l -0.14062,0.59375 -1.5625,-0.265625 0.0781,-0.40625 q 0.125,-0.546875 0.42188,-1.015625 0.29687,-0.484375 0.71875,-0.828125 0.4375,-0.359375 0.95312,-0.5625 0.53125,-0.203125 1.07813,-0.203125 h 0.5625 q 0.5625,0 1.01562,0.21875 0.45313,0.203125 0.75,0.59375 0.29688,0.375 0.42188,0.875 0.125,0.5 0,1.046875 l -1.29688,6.078125 z m 0,-3.875 h -1.625 q -0.21875,0 -0.45312,0.09375 -0.21875,0.07813 -0.40625,0.234375 -0.1875,0.15625 -0.32813,0.375 -0.125,0.203125 -0.1875,0.4375 l -0.0781,0.34375 q -0.0469,0.203125 0,0.390625 0.0469,0.1875 0.14062,0.3125 0.0937,0.125 0.26563,0.203125 0.17187,0.07813 0.375,0.07813 h 0.64062 q 0.23438,0 0.45313,-0.07813 0.21875,-0.09375 0.40625,-0.25 0.1875,-0.15625 0.3125,-0.359375 0.14062,-0.21875 0.1875,-0.4375 z m 6.4375,3.875 1.32813,-6.25 q 0.0625,-0.234375 0.0156,-0.40625 -0.0312,-0.1875 -0.14062,-0.3125 -0.0937,-0.125 -0.26563,-0.203125 -0.15625,-0.07813 -0.375,-0.07813 h -0.64062 q -0.21875,0 -0.45313,0.09375 -0.21875,0.07813 -0.40625,0.234375 -0.1875,0.15625 -0.32812,0.359375 -0.125,0.203125 -0.17188,0.4375 l -1.3125,6.125 h -1.625 l 1.84375,-8.65625 h 0.79688 l 0.23437,0.546875 q 0.125,-0.125 0.73438,-0.40625 0.60937,-0.296875 1.28125,-0.296875 h 0.23437 q 0.5625,0 1.01563,0.21875 0.45312,0.203125 0.75,0.59375 0.29687,0.375 0.42187,0.875 0.125,0.5 0,1.046875 l -1.29687,6.078125 z"
       fill-rule="nonzero"
       id="path159" />
    <path
       fill="#000000"
       fill-opacity="0"
       d="m 362.80133,143.2341 v 0 c 0,-0.97993 0.7944,-1.77432 1.77432,-1.77432 h 7.09705 v 0 c 0.47058,0 0.92187,0.18693 1.25464,0.51968 0.33273,0.33275 0.51968,0.78406 0.51968,1.25464 v 7.12854 c 0,0.97992 -0.7944,1.77431 -1.77432,1.77431 h -7.09705 c -0.97992,0 -1.77432,-0.79439 -1.77432,-1.77431 z"
       fill-rule="evenodd"
       id="path161" />
    <path
       stroke="#000000"
       stroke-width="1"
       stroke-linejoin="round"
       stroke-linecap="butt"
       d="m 362.80133,143.2341 v 0 c 0,-0.97993 0.7944,-1.77432 1.77432,-1.77432 h 7.09705 v 0 c 0.47058,0 0.92187,0.18693 1.25464,0.51968 0.33273,0.33275 0.51968,0.78406 0.51968,1.25464 v 7.12854 c 0,0.97992 -0.7944,1.77431 -1.77432,1.77431 h -7.09705 c -0.97992,0 -1.77432,-0.79439 -1.77432,-1.77431 z"
       fill-rule="evenodd"
       id="path163" />
    <path
       fill="#000000"
       fill-opacity="0"
       d="m 358.4781,126.91684 9.63779,14.55118"
       fill-rule="evenodd"
       id="path165" />
    <path
       stroke="#000000"
       stroke-width="1"
       stroke-linejoin="round"
       stroke-linecap="butt"
       d="m 358.47806,126.91684 7.74536,11.69398"
       fill-rule="evenodd"
       id="path167" />
    <path
       fill="#000000"
       stroke="#000000"
       stroke-width="1"
       stroke-linecap="butt"
       d="m 366.22342,138.61082 -1.55856,-0.31659 2.64373,1.95499 -0.76858,-3.19698 z"
       fill-rule="evenodd"
       id="path169" />
    <path
       fill="#000000"
       fill-opacity="0"
       d="m 377.7996,126.91684 -9.66928,14.55118"
       fill-rule="evenodd"
       id="path171" />
    <path
       stroke="#000000"
       stroke-width="1"
       stroke-linejoin="round"
       stroke-linecap="butt"
       d="m 377.7996,126.91684 -7.77255,11.69682"
       fill-rule="evenodd"
       id="path173" />
    <path
       fill="#000000"
       stroke="#000000"
       stroke-width="1"
       stroke-linecap="butt"
       d="m 370.027,138.61366 -0.31424,-1.55905 -0.77338,3.19581 2.64667,-1.951 z"
       fill-rule="evenodd"
       id="path175" />
    <path
       fill="#000000"
       fill-opacity="0"
       d="m 368.12418,152.13695 v 14.55118"
       fill-rule="evenodd"
       id="path177" />
    <path
       stroke="#000000"
       stroke-width="1"
       stroke-linejoin="round"
       stroke-linecap="butt"
       d="m 368.12418,152.13695 v 11.1241"
       fill-rule="evenodd"
       id="path179" />
    <path
       fill="#000000"
       stroke="#000000"
       stroke-width="1"
       stroke-linecap="butt"
       d="m 368.12418,163.26103 -1.12457,-1.12457 1.12457,3.08976 1.12457,-3.08976 z"
       fill-rule="evenodd"
       id="path181" />
    <path
       fill="#000000"
       fill-opacity="0"
       d="m 353.9269,122.36566 v 0 c 0,-2.51355 2.03763,-4.55118 4.55118,-4.55118 v 0 c 1.20703,0 2.36465,0.47949 3.21817,1.33301 0.85351,0.85351 1.33301,2.01112 1.33301,3.21817 v 0 c 0,2.51355 -2.03763,4.55118 -4.55118,4.55118 v 0 c -2.51355,0 -4.55118,-2.03763 -4.55118,-4.55118 z"
       fill-rule="evenodd"
       id="path183" />
    <path
       stroke="#000000"
       stroke-width="1"
       stroke-linejoin="round"
       stroke-linecap="butt"
       d="m 353.9269,122.36566 v 0 c 0,-2.51355 2.03763,-4.55118 4.55118,-4.55118 v 0 c 1.20703,0 2.36465,0.47949 3.21817,1.33301 0.85351,0.85351 1.33301,2.01112 1.33301,3.21817 v 0 c 0,2.51355 -2.03763,4.55118 -4.55118,4.55118 v 0 c -2.51355,0 -4.55118,-2.03763 -4.55118,-4.55118 z"
       fill-rule="evenodd"
       id="path185" />
    <path
       fill="#000000"
       fill-opacity="0"
       d="m 373.2484,122.36566 v 0 c 0,-2.51355 2.03763,-4.55118 4.55118,-4.55118 v 0 c 1.20706,0 2.36468,0.47949 3.21817,1.33301 0.85351,0.85351 1.33301,2.01112 1.33301,3.21817 v 0 c 0,2.51355 -2.03763,4.55118 -4.55118,4.55118 v 0 c -2.51355,0 -4.55118,-2.03763 -4.55118,-4.55118 z"
       fill-rule="evenodd"
       id="path187" />
    <path
       stroke="#000000"
       stroke-width="1"
       stroke-linejoin="round"
       stroke-linecap="butt"
       d="m 373.2484,122.36566 v 0 c 0,-2.51355 2.03763,-4.55118 4.55118,-4.55118 v 0 c 1.20706,0 2.36468,0.47949 3.21817,1.33301 0.85351,0.85351 1.33301,2.01112 1.33301,3.21817 v 0 c 0,2.51355 -2.03763,4.55118 -4.55118,4.55118 v 0 c -2.51355,0 -4.55118,-2.03763 -4.55118,-4.55118 z"
       fill-rule="evenodd"
       id="path189" />
    <path
       fill="#000000"
       fill-opacity="0"
       d="m 363.5732,171.22958 v 0 c 0,-2.51355 2.03766,-4.55118 4.55121,-4.55118 v 0 c 1.20703,0 2.36465,0.47951 3.21817,1.33301 0.85348,0.85352 1.33301,2.01112 1.33301,3.21817 v 0 c 0,2.51355 -2.03766,4.55119 -4.55118,4.55119 v 0 c -2.51355,0 -4.55121,-2.03764 -4.55121,-4.55119 z"
       fill-rule="evenodd"
       id="path191" />
    <path
       stroke="#000000"
       stroke-width="1"
       stroke-linejoin="round"
       stroke-linecap="butt"
       d="m 363.5732,171.22958 v 0 c 0,-2.51355 2.03766,-4.55118 4.55121,-4.55118 v 0 c 1.20703,0 2.36465,0.47951 3.21817,1.33301 0.85348,0.85352 1.33301,2.01112 1.33301,3.21817 v 0 c 0,2.51355 -2.03766,4.55119 -4.55118,4.55119 v 0 c -2.51355,0 -4.55121,-2.03764 -4.55121,-4.55119 z"
       fill-rule="evenodd"
       id="path193" />
    <path
       fill="#000000"
       fill-opacity="0"
       d="m 372.57037,191.68553 v 0 c 0,-0.97992 0.79437,-1.77431 1.77432,-1.77431 h 7.09705 v 0 c 0.47055,0 0.92187,0.18694 1.25461,0.51969 0.33276,0.33274 0.51968,0.78405 0.51968,1.25462 v 7.12854 c 0,0.97993 -0.79437,1.77432 -1.77429,1.77432 h -7.09705 c -0.97995,0 -1.77432,-0.79439 -1.77432,-1.77432 z"
       fill-rule="evenodd"
       id="path195" />
    <path
       stroke="#000000"
       stroke-width="1"
       stroke-linejoin="round"
       stroke-linecap="butt"
       d="m 372.57037,191.68553 v 0 c 0,-0.97992 0.79437,-1.77431 1.77432,-1.77431 h 7.09705 v 0 c 0.47055,0 0.92187,0.18694 1.25461,0.51969 0.33276,0.33274 0.51968,0.78405 0.51968,1.25462 v 7.12854 c 0,0.97993 -0.79437,1.77432 -1.77429,1.77432 h -7.09705 c -0.97995,0 -1.77432,-0.79439 -1.77432,-1.77432 z"
       fill-rule="evenodd"
       id="path197" />
    <path
       fill="#000000"
       fill-opacity="0"
       d="m 368.12442,175.78078 9.76376,14.14172"
       fill-rule="evenodd"
       id="path199" />
    <path
       stroke="#000000"
       stroke-width="1"
       stroke-linejoin="round"
       stroke-linecap="butt"
       d="m 368.1244,175.78078 7.81665,11.32152"
       fill-rule="evenodd"
       id="path201" />
    <path
       fill="#000000"
       stroke="#000000"
       stroke-width="1"
       stroke-linecap="butt"
       d="m 375.94104,187.1023 -1.56439,-0.28648 2.68091,1.90367 -0.83005,-3.18157 z"
       fill-rule="evenodd"
       id="path203" />
    <path
       fill="#000000"
       fill-opacity="0"
       d="m 387.56863,175.36829 -9.66928,14.55118"
       fill-rule="evenodd"
       id="path205" />
    <path
       stroke="#000000"
       stroke-width="1"
       stroke-linejoin="round"
       stroke-linecap="butt"
       d="m 387.5686,175.3683 -7.77255,11.69682"
       fill-rule="evenodd"
       id="path207" />
    <path
       fill="#000000"
       stroke="#000000"
       stroke-width="1"
       stroke-linecap="butt"
       d="m 379.79605,187.06512 -0.31424,-1.55905 -0.77341,3.19581 2.6467,-1.95101 z"
       fill-rule="evenodd"
       id="path209" />
    <path
       fill="#000000"
       fill-opacity="0"
       d="m 377.89322,200.5884 -8,14.55118"
       fill-rule="evenodd"
       id="path211" />
    <path
       stroke="#000000"
       stroke-width="1"
       stroke-linejoin="round"
       stroke-linecap="butt"
       d="m 377.89322,200.5884 -6.34894,11.54805"
       fill-rule="evenodd"
       id="path213" />
    <path
       fill="#000000"
       stroke="#000000"
       stroke-width="1"
       stroke-linecap="butt"
       d="m 371.54428,212.13644 -0.44366,-1.52727 -0.50312,3.24935 2.47406,-2.16576 z"
       fill-rule="evenodd"
       id="path215" />
    <path
       fill="#000000"
       fill-opacity="0"
       d="m 383.01746,170.81711 v 0 c 0,-2.51355 2.03763,-4.55118 4.55118,-4.55118 v 0 c 1.20703,0 2.36465,0.47949 3.21817,1.33301 0.85351,0.85352 1.33301,2.01112 1.33301,3.21817 v 0 c 0,2.51355 -2.03763,4.55118 -4.55118,4.55118 v 0 c -2.51355,0 -4.55118,-2.03763 -4.55118,-4.55118 z"
       fill-rule="evenodd"
       id="path217" />
    <path
       stroke="#000000"
       stroke-width="1"
       stroke-linejoin="round"
       stroke-linecap="butt"
       d="m 383.01746,170.81711 v 0 c 0,-2.51355 2.03763,-4.55118 4.55118,-4.55118 v 0 c 1.20703,0 2.36465,0.47949 3.21817,1.33301 0.85351,0.85352 1.33301,2.01112 1.33301,3.21817 v 0 c 0,2.51355 -2.03763,4.55118 -4.55118,4.55118 v 0 c -2.51355,0 -4.55118,-2.03763 -4.55118,-4.55118 z"
       fill-rule="evenodd"
       id="path219" />
    <path
       fill="#000000"
       fill-opacity="0"
       d="m 365.34253,219.6809 v 0 c 0,-2.51355 2.03763,-4.55118 4.55118,-4.55118 v 0 c 1.20703,0 2.36465,0.47951 3.21817,1.33301 0.85351,0.85352 1.33301,2.01112 1.33301,3.21817 v 0 c 0,2.51355 -2.03763,4.55119 -4.55118,4.55119 v 0 c -2.51355,0 -4.55118,-2.03764 -4.55118,-4.55119 z"
       fill-rule="evenodd"
       id="path221" />
    <path
       stroke="#000000"
       stroke-width="1"
       stroke-linejoin="round"
       stroke-linecap="butt"
       d="m 365.34253,219.6809 v 0 c 0,-2.51355 2.03763,-4.55118 4.55118,-4.55118 v 0 c 1.20703,0 2.36465,0.47951 3.21817,1.33301 0.85351,0.85352 1.33301,2.01112 1.33301,3.21817 v 0 c 0,2.51355 -2.03763,4.55119 -4.55118,4.55119 v 0 c -2.51355,0 -4.55118,-2.03764 -4.55118,-4.55119 z"
       fill-rule="evenodd"
       id="path223" />
    <path
       fill="#000000"
       fill-opacity="0"
       d="m 377.89322,200.5884 8,14.55118"
       fill-rule="evenodd"
       id="path225" />
    <path
       stroke="#000000"
       stroke-width="1"
       stroke-linejoin="round"
       stroke-linecap="butt"
       d="m 377.89322,200.5884 6.34891,11.54805"
       fill-rule="evenodd"
       id="path227" />
    <path
       fill="#000000"
       stroke="#000000"
       stroke-width="1"
       stroke-linecap="butt"
       d="m 384.24213,212.13644 -1.52725,-0.44368 2.47403,2.16576 -0.50312,-3.24935 z"
       fill-rule="evenodd"
       id="path229" />
    <path
       fill="#000000"
       fill-opacity="0"
       d="m 381.34253,219.6809 v 0 c 0,-2.51355 2.03763,-4.55118 4.55118,-4.55118 v 0 c 1.20703,0 2.36465,0.47951 3.21817,1.33301 0.85351,0.85352 1.33301,2.01112 1.33301,3.21817 v 0 c 0,2.51355 -2.03763,4.55119 -4.55118,4.55119 v 0 c -2.51355,0 -4.55118,-2.03764 -4.55118,-4.55119 z"
       fill-rule="evenodd"
       id="path231" />
    <path
       stroke="#000000"
       stroke-width="1"
       stroke-linejoin="round"
       stroke-linecap="butt"
       d="m 381.34253,219.6809 v 0 c 0,-2.51355 2.03763,-4.55118 4.55118,-4.55118 v 0 c 1.20703,0 2.36465,0.47951 3.21817,1.33301 0.85351,0.85352 1.33301,2.01112 1.33301,3.21817 v 0 c 0,2.51355 -2.03763,4.55119 -4.55118,4.55119 v 0 c -2.51355,0 -4.55118,-2.03764 -4.55118,-4.55119 z"
       fill-rule="evenodd"
       id="path233" />
    <path
       fill="#000000"
       fill-opacity="0"
       d="m 405.8084,164.27428 h 14.91336 v -6.74803 l 13.49606,13.49606 -13.49606,13.49606 v -6.74803 H 405.8084 Z"
       fill-rule="evenodd"
       id="path235" />
    <path
       stroke="#cccccc"
       stroke-width="2"
       stroke-linejoin="round"
       stroke-linecap="butt"
       d="m 405.8084,164.27428 h 14.91336 v -6.74803 l 13.49606,13.49606 -13.49606,13.49606 v -6.74803 H 405.8084 Z"
       fill-rule="evenodd"
       id="path237" />
  </g>
  <rect
     style="opacity:0;fill:#0000ff;fill-rule:evenodd;stroke-width:0.94021"
     id="rect249"
     width="448.27893"
     height="180.15663"
     x="0"
     y="0" />
</svg>
