<?xml version="1.0" encoding="UTF-8" standalone="no"?>
<!DOCTYPE svg PUBLIC "-//W3C//DTD SVG 1.1//EN"
 "http://www.w3.org/Graphics/SVG/1.1/DTD/svg11.dtd">
<!-- Generated by graphviz version 2.43.0 (0)
 -->
<!-- Title: G Pages: 1 -->
<svg width="395pt" height="762pt"
 viewBox="0.00 0.00 395.00 762.48" xmlns="http://www.w3.org/2000/svg" xmlns:xlink="http://www.w3.org/1999/xlink">
<g id="graph0" class="graph" transform="scale(1 1) rotate(0) translate(4 758.48)">
<title>G</title>
<polygon fill="white" stroke="transparent" points="-4,4 -4,-758.48 391,-758.48 391,4 -4,4"/>
<g id="clust1" class="cluster">
<title>cluster_legend</title>
<polygon fill="none" stroke="black" points="8,-8 8,-746.48 379,-746.48 379,-8 8,-8"/>
<text text-anchor="middle" x="193.5" y="-731.28" font-family="Times,serif" font-size="14.00">Graphtik Legend 10.0.0</text>
</g>
<!-- Dependencies -->
<g id="node1" class="node">
<title>Dependencies</title>
<text text-anchor="middle" x="299" y="-693.68" font-family="bold italic" font-size="16.00">Dependencies</text>
</g>
<!-- needs -->
<g id="node2" class="node">
<title>needs</title>
<ellipse fill="none" stroke="transparent" cx="300" cy="-621.48" rx="38.19" ry="18"/>
<text text-anchor="middle" x="300" y="-617.78" font-family="Times,serif" font-size="14.00">needs</text>
</g>
<!-- Dependencies&#45;&gt;needs -->
<g id="edge1" class="edge">
<title>Dependencies&#45;&gt;needs</title>
<g id="a_edge1"><a xlink:href="https://graphtik.readthedocs.io/en/latest/arch.html#term-needs" xlink:title="Compulsory dependency from src `needs` data &#45;&#45;&gt; dst Operation." target="_top">
<path fill="none" stroke="black" d="M299.37,-669.11C299.5,-659.21 299.65,-648.31 299.77,-639.55"/>
<polygon fill="black" stroke="black" points="295.73,-679.27 299.37,-669.32 302.73,-679.36 295.73,-679.27"/>
</a>
</g>
</g>
<!-- provides -->
<g id="node3" class="node">
<title>provides</title>
<ellipse fill="none" stroke="transparent" cx="301" cy="-545.48" rx="50.89" ry="18"/>
<text text-anchor="middle" x="301" y="-541.78" font-family="Times,serif" font-size="14.00">provides</text>
</g>
<!-- needs&#45;&gt;provides -->
<g id="edge2" class="edge">
<title>needs&#45;&gt;provides</title>
<g id="a_edge2"><a xlink:title="Compulsory dependency from src Operation &#45;&#45;&gt; dst `provides` data" target="_top">
<path fill="none" stroke="black" d="M300.23,-603.32C300.35,-594.54 300.5,-583.64 300.63,-573.75"/>
<polygon fill="black" stroke="black" points="304.13,-573.6 300.77,-563.55 297.13,-573.5 304.13,-573.6"/>
</a>
</g>
</g>
<!-- optional -->
<g id="node4" class="node">
<title>optional</title>
<g id="a_node4"><a xlink:href="https://graphtik.readthedocs.io/en/latest/arch.html#term-needs" xlink:title="Target operation may run without source `need` OR source operation may not `provide` target data." target="_top">
<ellipse fill="none" stroke="transparent" cx="301" cy="-449.61" rx="65.11" ry="26.74"/>
<text text-anchor="middle" x="301" y="-453.41" font-family="Times,serif" font-size="14.00">optional</text>
<text text-anchor="middle" x="301" y="-438.41" font-family="Times,serif" font-size="14.00">partial out</text>
</a>
</g>
</g>
<!-- provides&#45;&gt;optional -->
<g id="edge3" class="edge">
<title>provides&#45;&gt;optional</title>
<path fill="none" stroke="black" stroke-dasharray="5,2" d="M301,-527.26C301,-515.96 301,-500.75 301,-486.86"/>
<polygon fill="black" stroke="black" points="304.5,-486.58 301,-476.58 297.5,-486.58 304.5,-486.58"/>
<text text-anchor="middle" x="318" y="-498.28" font-family="Times,serif" font-size="14.00">**kw</text>
</g>
<!-- implicit -->
<g id="node5" class="node">
<title>implicit</title>
<g id="a_node5"><a xlink:href="https://graphtik.readthedocs.io/en/latest/arch.html#term-implicit" xlink:title="A `need` passed in as **kw argument underlying fn." target="_top">
<ellipse fill="none" stroke="transparent" cx="301" cy="-367.74" rx="46.29" ry="18"/>
<text text-anchor="middle" x="301" y="-364.04" font-family="Times,serif" font-size="14.00">implicit</text>
</a>
</g>
</g>
<!-- optional&#45;&gt;implicit -->
<g id="edge4" class="edge">
<title>optional&#45;&gt;implicit</title>
<path fill="none" stroke="black" d="M301,-412.29C301,-406.82 301,-401.27 301,-396.04"/>
<polygon fill="black" stroke="black" points="297.5,-422.46 301,-412.46 304.5,-422.46 297.5,-422.46"/>
<polygon fill="none" stroke="black" points="297,-385.89 305,-385.89 305,-393.89 297,-393.89 297,-385.89"/>
<polyline fill="none" stroke="black" points="301,-393.89 301,-395.89 "/>
</g>
<!-- sideffect -->
<g id="node6" class="node">
<title>sideffect</title>
<g id="a_node6"><a xlink:href="https://graphtik.readthedocs.io/en/latest/arch.html#term-sideffects" xlink:title="Fictive data not consumed/produced by operation functions." target="_top">
<ellipse fill="none" stroke="transparent" cx="301" cy="-289.74" rx="50.89" ry="18"/>
<text text-anchor="middle" x="301" y="-286.04" font-family="Times,serif" font-size="14.00">sideffect</text>
</a>
</g>
</g>
<!-- implicit&#45;&gt;sideffect -->
<g id="edge5" class="edge">
<title>implicit&#45;&gt;sideffect</title>
<path fill="none" stroke="blue" d="M301,-349.49C301,-340.26 301,-328.67 301,-318.23"/>
<polygon fill="blue" stroke="blue" points="304.5,-317.92 301,-307.92 297.5,-317.92 304.5,-317.92"/>
</g>
<!-- broken -->
<g id="node7" class="node">
<title>broken</title>
<g id="a_node7"><a xlink:href="https://graphtik.readthedocs.io/en/latest/arch.html#term-partial outputs" xlink:title="Target data was not `provided` by source operation due to failure / partial&#45;outs." target="_top">
<ellipse fill="none" stroke="transparent" cx="301" cy="-211.74" rx="42.79" ry="18"/>
<text text-anchor="middle" x="301" y="-208.04" font-family="Times,serif" font-size="14.00">broken</text>
</a>
</g>
</g>
<!-- sideffect&#45;&gt;broken -->
<g id="edge6" class="edge">
<title>sideffect&#45;&gt;broken</title>
<path fill="none" stroke="red" stroke-dasharray="5,2" d="M301,-271.49C301,-262.26 301,-250.67 301,-240.23"/>
<polygon fill="red" stroke="red" points="304.5,-239.92 301,-229.92 297.5,-239.92 304.5,-239.92"/>
</g>
<!-- subdoc -->
<g id="node8" class="node">
<title>subdoc</title>
<g id="a_node8"><a xlink:href="https://graphtik.readthedocs.io/en/latest/arch.html#term-jsonp" xlink:title="Parent &#45;&#45;&gt; child document, accessed with `json pointer` dependencies." target="_top">
<ellipse fill="none" stroke="transparent" cx="301" cy="-138.74" rx="43.59" ry="18"/>
<text text-anchor="middle" x="301" y="-135.04" font-family="Times,serif" font-size="14.00">subdoc</text>
</a>
</g>
</g>
<!-- broken&#45;&gt;subdoc -->
<g id="edge7" class="edge">
<title>broken&#45;&gt;subdoc</title>
<path fill="none" stroke="#8b4513" d="M301,-185.53C301,-176 301,-165.38 301,-156.77"/>
<ellipse fill="none" stroke="#8b4513" cx="301" cy="-189.55" rx="4" ry="4"/>
</g>
<!-- sequence -->
<g id="node9" class="node">
<title>sequence</title>
<g id="a_node9"><a xlink:href="https://graphtik.readthedocs.io/en/latest/arch.html#term-execution-steps" xlink:title="Sequence of execution steps." target="_top">
<ellipse fill="none" stroke="transparent" stroke-width="4" cx="301" cy="-42.87" rx="60.62" ry="26.74"/>
<text text-anchor="middle" x="301" y="-46.67" font-family="Times,serif" font-size="14.00">execution</text>
<text text-anchor="middle" x="301" y="-31.67" font-family="Times,serif" font-size="14.00">sequence</text>
</a>
</g>
</g>
<!-- subdoc&#45;&gt;sequence -->
<g id="edge8" class="edge">
<title>subdoc&#45;&gt;sequence</title>
<path fill="none" stroke="#00bbbb" stroke-width="4" stroke-dasharray="1,5" d="M301,-120.52C301,-109.22 301,-94.01 301,-80.12"/>
<polygon fill="#00bbbb" stroke="#00bbbb" stroke-width="4" points="301,-69.84 305.5,-79.84 302.5,-74.84 302.5,-79.84 301,-79.84 299.5,-79.84 299.5,-74.84 296.5,-79.84 301,-69.84 301,-69.84"/>
<text text-anchor="middle" x="306" y="-91.54" font-family="Times,serif" font-size="14.00" fill="#00bbbb">1</text>
</g>
<!-- DataLabel -->
<g id="node10" class="node">
<title>DataLabel</title>
<text text-anchor="middle" x="180" y="-693.68" font-family="bold italic" font-size="16.00">Data</text>
</g>
<!-- data -->
<g id="node11" class="node">
<title>data</title>
<g id="a_node11"><a xlink:href="https://graphtik.readthedocs.io/en/latest/arch.html#term-graph" xlink:title="Any data not given or asked." target="_top">
<polygon fill="none" stroke="black" points="207,-639.48 153,-639.48 153,-603.48 207,-603.48 207,-639.48"/>
<text text-anchor="middle" x="180" y="-617.78" font-family="Times,serif" font-size="14.00">data</text>
</a>
</g>
</g>
<!-- DataLabel&#45;&gt;data -->
<!-- input -->
<g id="node12" class="node">
<title>input</title>
<g id="a_node12"><a xlink:href="https://graphtik.readthedocs.io/en/latest/arch.html#term-inputs" xlink:title="Solution value given into the computation." target="_top">
<polygon fill="none" stroke="black" points="153,-539.92 180,-527.48 207,-539.92 206.97,-560.04 153.03,-560.04 153,-539.92"/>
<text text-anchor="middle" x="180" y="-541.78" font-family="Times,serif" font-size="14.00">input</text>
</a>
</g>
</g>
<!-- data&#45;&gt;input -->
<!-- output -->
<g id="node13" class="node">
<title>output</title>
<g id="a_node13"><a xlink:href="https://graphtik.readthedocs.io/en/latest/arch.html#term-outputs" xlink:title="Solution value asked from the computation." target="_top">
<polygon fill="none" stroke="black" points="207,-455.17 180,-467.61 153,-455.17 153.03,-435.05 206.97,-435.05 207,-455.17"/>
<text text-anchor="middle" x="180" y="-445.91" font-family="Times,serif" font-size="14.00">output</text>
</a>
</g>
</g>
<!-- input&#45;&gt;output -->
<!-- inp_out -->
<g id="node14" class="node">
<title>inp_out</title>
<g id="a_node14"><a xlink:href="https://graphtik.readthedocs.io/en/latest/arch.html#term-dependency" xlink:title="Data both given and asked." target="_top">
<polygon fill="none" stroke="black" points="207,-367.74 193.5,-385.74 166.5,-385.74 153,-367.74 166.5,-349.74 193.5,-349.74 207,-367.74"/>
<text text-anchor="middle" x="180" y="-364.04" font-family="Times,serif" font-size="14.00">inp+out</text>
</a>
</g>
</g>
<!-- output&#45;&gt;inp_out -->
<!-- sfx -->
<g id="node16" class="node">
<title>sfx</title>
<g id="a_node16"><a xlink:href="https://graphtik.readthedocs.io/en/latest/arch.html#term-sideffects" xlink:title="Fictive data not consumed/produced by operation functions." target="_top">
<polygon fill="none" stroke="blue" points="219,-307.74 141,-307.74 141,-271.74 219,-271.74 219,-307.74"/>
<text text-anchor="middle" x="180" y="-286.04" font-family="Times,serif" font-size="14.00" fill="blue">sideffect</text>
</a>
</g>
</g>
<!-- inp_out&#45;&gt;sfx -->
<!-- evicted -->
<g id="node15" class="node">
<title>evicted</title>
<g id="a_node15"><a xlink:href="https://graphtik.readthedocs.io/en/latest/arch.html#term-evictions" xlink:title="Instruction step to erase data from solution, to save memory." target="_top">
<polygon fill="none" stroke="#006666" stroke-width="3" stroke-dasharray="5,2" points="214,-229.74 146,-229.74 146,-193.74 214,-193.74 214,-229.74"/>
<text text-anchor="middle" x="180" y="-208.04" font-family="Times,serif" font-size="14.00" fill="#006666">evicted</text>
</a>
</g>
</g>
<!-- sol -->
<g id="node17" class="node">
<title>sol</title>
<g id="a_node17"><a xlink:href="https://graphtik.readthedocs.io/en/latest/arch.html#term-solution" xlink:title="Data contained in the solution." target="_top">
<polygon fill="wheat" stroke="black" points="207,-156.74 153,-156.74 153,-120.74 207,-120.74 207,-156.74"/>
<text text-anchor="middle" x="180" y="-135.04" font-family="Times,serif" font-size="14.00">with value</text>
</a>
</g>
</g>
<!-- evicted&#45;&gt;sol -->
<!-- sfx&#45;&gt;evicted -->
<!-- overwrite -->
<g id="node18" class="node">
<title>overwrite</title>
<g id="a_node18"><a xlink:href="https://graphtik.readthedocs.io/en/latest/arch.html#term-overwrite" xlink:title="More than 1 values exist in solution with this name." target="_top">
<polygon fill="SkyBlue" stroke="black" points="206,-60.87 152,-60.87 152,-24.87 206,-24.87 206,-60.87"/>
<text text-anchor="middle" x="179" y="-39.17" font-family="Times,serif" font-size="14.00">overwrite</text>
</a>
</g>
</g>
<!-- sol&#45;&gt;overwrite -->
<!-- Operations -->
<g id="node19" class="node">
<title>Operations</title>
<text text-anchor="middle" x="74" y="-693.68" font-family="bold italic" font-size="16.00">Operations</text>
</g>
<!-- operation -->
<g id="node20" class="node">
<title>operation</title>
<g id="a_node20"><a xlink:href="https://graphtik.readthedocs.io/en/latest/arch.html#term-operation" xlink:title="A function with needs &amp; provides." target="_top">
<polyline fill="none" stroke="black" points="36,-620.48 111,-620.48 "/>
<text text-anchor="start" x="39" y="-627.28" font-family="Times,serif" font-size="14.00">operation</text>
<text text-anchor="start" x="44" y="-608.28" font-family="Times,serif" font-style="italic" font-size="14.00">function</text>
<path fill="none" stroke="black" d="M46.5,-600.48C46.5,-600.48 99.5,-600.48 99.5,-600.48 105.5,-600.48 111.5,-606.48 111.5,-612.48 111.5,-612.48 111.5,-630.48 111.5,-630.48 111.5,-636.48 105.5,-642.48 99.5,-642.48 99.5,-642.48 46.5,-642.48 46.5,-642.48 40.5,-642.48 34.5,-636.48 34.5,-630.48 34.5,-630.48 34.5,-612.48 34.5,-612.48 34.5,-606.48 40.5,-600.48 46.5,-600.48"/>
</a>
</g>
</g>
<!-- Operations&#45;&gt;operation -->
<!-- pruned -->
<g id="node21" class="node">
<title>pruned</title>
<g id="a_node21"><a xlink:href="https://graphtik.readthedocs.io/en/latest/arch.html#term-prune" xlink:title="Operation excluded from plan." target="_top">
<text text-anchor="start" x="46" y="-541.28" font-family="Times,serif" font-size="14.00" fill="#d3d3d3">pruned</text>
<path fill="none" stroke="#d3d3d3" d="M49.33,-532.98C49.33,-532.98 94.67,-532.98 94.67,-532.98 98.83,-532.98 103,-537.15 103,-541.31 103,-541.31 103,-549.65 103,-549.65 103,-553.81 98.83,-557.98 94.67,-557.98 94.67,-557.98 49.33,-557.98 49.33,-557.98 45.17,-557.98 41,-553.81 41,-549.65 41,-549.65 41,-541.31 41,-541.31 41,-537.15 45.17,-532.98 49.33,-532.98"/>
</a>
</g>
</g>
<!-- operation&#45;&gt;pruned -->
<!-- executed -->
<g id="node22" class="node">
<title>executed</title>
<g id="a_node22"><a xlink:href="https://graphtik.readthedocs.io/en/latest/arch.html#term-solution" xlink:title="Operation executed successfully." target="_top">
<path fill="wheat" stroke="transparent" d="M41.83,-437.11C41.83,-437.11 100.17,-437.11 100.17,-437.11 104.33,-437.11 108.5,-441.28 108.5,-445.44 108.5,-445.44 108.5,-453.78 108.5,-453.78 108.5,-457.94 104.33,-462.11 100.17,-462.11 100.17,-462.11 41.83,-462.11 41.83,-462.11 37.67,-462.11 33.5,-457.94 33.5,-453.78 33.5,-453.78 33.5,-445.44 33.5,-445.44 33.5,-441.28 37.67,-437.11 41.83,-437.11"/>
<text text-anchor="start" x="39" y="-445.41" font-family="Times,serif" font-size="14.00">executed</text>
<path fill="none" stroke="black" d="M41.83,-437.11C41.83,-437.11 100.17,-437.11 100.17,-437.11 104.33,-437.11 108.5,-441.28 108.5,-445.44 108.5,-445.44 108.5,-453.78 108.5,-453.78 108.5,-457.94 104.33,-462.11 100.17,-462.11 100.17,-462.11 41.83,-462.11 41.83,-462.11 37.67,-462.11 33.5,-457.94 33.5,-453.78 33.5,-453.78 33.5,-445.44 33.5,-445.44 33.5,-441.28 37.67,-437.11 41.83,-437.11"/>
</a>
</g>
</g>
<!-- pruned&#45;&gt;executed -->
<!-- failed -->
<g id="node23" class="node">
<title>failed</title>
<g id="a_node23"><a xlink:href="https://graphtik.readthedocs.io/en/latest/arch.html#term-endurance" xlink:title="Failed operation &#45; downstream ops will cancel." target="_top">
<path fill="LightCoral" stroke="transparent" d="M54.33,-355.24C54.33,-355.24 87.67,-355.24 87.67,-355.24 91.83,-355.24 96,-359.41 96,-363.57 96,-363.57 96,-371.91 96,-371.91 96,-376.07 91.83,-380.24 87.67,-380.24 87.67,-380.24 54.33,-380.24 54.33,-380.24 50.17,-380.24 46,-376.07 46,-371.91 46,-371.91 46,-363.57 46,-363.57 46,-359.41 50.17,-355.24 54.33,-355.24"/>
<text text-anchor="start" x="51" y="-363.54" font-family="Times,serif" font-size="14.00">failed</text>
<path fill="none" stroke="black" d="M54.33,-355.24C54.33,-355.24 87.67,-355.24 87.67,-355.24 91.83,-355.24 96,-359.41 96,-363.57 96,-363.57 96,-371.91 96,-371.91 96,-376.07 91.83,-380.24 87.67,-380.24 87.67,-380.24 54.33,-380.24 54.33,-380.24 50.17,-380.24 46,-376.07 46,-371.91 46,-371.91 46,-363.57 46,-363.57 46,-359.41 50.17,-355.24 54.33,-355.24"/>
</a>
</g>
</g>
<!-- executed&#45;&gt;failed -->
<!-- rescheduled -->
<g id="node24" class="node">
<title>rescheduled</title>
<g id="a_node24"><a xlink:href="https://graphtik.readthedocs.io/en/latest/arch.html#term-reschedulling" xlink:title="Operation may fail or provide partial outputs so `net` must reschedule." target="_top">
<text text-anchor="start" x="41" y="-293.54" font-family="Times,serif" font-size="14.00">endured</text>
<text text-anchor="start" x="27" y="-278.54" font-family="Times,serif" font-size="14.00">rescheduled</text>
<path fill="none" stroke="black" stroke-width="4" d="M33,-268.74C33,-268.74 109,-268.74 109,-268.74 115,-268.74 121,-274.74 121,-280.74 121,-280.74 121,-298.74 121,-298.74 121,-304.74 115,-310.74 109,-310.74 109,-310.74 33,-310.74 33,-310.74 27,-310.74 21,-304.74 21,-298.74 21,-298.74 21,-280.74 21,-280.74 21,-274.74 27,-268.74 33,-268.74"/>
</a>
</g>
</g>
<!-- failed&#45;&gt;rescheduled -->
<!-- canceled -->
<g id="node25" class="node">
<title>canceled</title>
<g id="a_node25"><a xlink:href="https://graphtik.readthedocs.io/en/latest/arch.html#term-reschedule" xlink:title="Canceled operation due to failures or partial outputs upstream." target="_top">
<path fill="Grey" stroke="transparent" d="M42.83,-199.24C42.83,-199.24 99.17,-199.24 99.17,-199.24 103.33,-199.24 107.5,-203.41 107.5,-207.57 107.5,-207.57 107.5,-215.91 107.5,-215.91 107.5,-220.07 103.33,-224.24 99.17,-224.24 99.17,-224.24 42.83,-224.24 42.83,-224.24 38.67,-224.24 34.5,-220.07 34.5,-215.91 34.5,-215.91 34.5,-207.57 34.5,-207.57 34.5,-203.41 38.67,-199.24 42.83,-199.24"/>
<text text-anchor="start" x="40" y="-207.54" font-family="Times,serif" font-size="14.00">canceled</text>
<path fill="none" stroke="black" d="M42.83,-199.24C42.83,-199.24 99.17,-199.24 99.17,-199.24 103.33,-199.24 107.5,-203.41 107.5,-207.57 107.5,-207.57 107.5,-215.91 107.5,-215.91 107.5,-220.07 103.33,-224.24 99.17,-224.24 99.17,-224.24 42.83,-224.24 42.83,-224.24 38.67,-224.24 34.5,-220.07 34.5,-215.91 34.5,-215.91 34.5,-207.57 34.5,-207.57 34.5,-203.41 38.67,-199.24 42.83,-199.24"/>
</a>
</g>
</g>
<!-- rescheduled&#45;&gt;canceled -->
</g>
</svg>
