<?xml version="1.0" encoding="UTF-8" standalone="no"?>
<!DOCTYPE svg PUBLIC "-//W3C//DTD SVG 1.1//EN"
 "http://www.w3.org/Graphics/SVG/1.1/DTD/svg11.dtd">
<!-- Generated by graphviz version 2.43.0 (0)
 -->
<!-- Title: %3 Pages: 1 -->
<svg width="454pt" height="361pt"
 viewBox="0.00 0.00 454.00 361.00" xmlns="http://www.w3.org/2000/svg" xmlns:xlink="http://www.w3.org/1999/xlink">
<g id="graph0" class="graph" transform="scale(1 1) rotate(0) translate(4 357)">
<title>%3</title>
<polygon fill="white" stroke="transparent" points="-4,4 -4,-357 450,-357 450,4 -4,4"/>
<text text-anchor="middle" x="223" y="-337.8" font-family="Times,serif" font-size="14.00">graphtik&#45;v8.1+ module dependencies</text>
<g id="clust1" class="cluster">
<title>cluster_base</title>
<g id="a_clust1"><a xlink:title="almost all other modules depend on these">
<polygon fill="none" stroke="black" points="21.5,-8 21.5,-83 377.5,-83 377.5,-8 21.5,-8"/>
<text text-anchor="middle" x="199.5" y="-15.8" font-family="Times,serif" font-size="14.00">base</text>
</a>
</g>
</g>
<g id="clust2" class="cluster">
<title>cluster_network</title>
<g id="a_clust2"><a xlink:href="arch.html#term-execution" xlink:title="related to graph solution">
<polygon fill="none" stroke="black" points="122.5,-175 122.5,-322 244.5,-322 244.5,-175 122.5,-175"/>
<text text-anchor="middle" x="183.5" y="-306.8" font-family="Times,serif" font-size="14.00">core modules</text>
</a>
</g>
</g>
<!-- plot.py -->
<g id="node1" class="node">
<title>plot.py</title>
<g id="a_node1"><a xlink:href="reference.html#module-graphtik.plot" xlink:title="(extra)">
<polygon fill="Aquamarine" stroke="black" points="427.5,-147 361.5,-147 361.5,-143 357.5,-143 357.5,-139 361.5,-139 361.5,-119 357.5,-119 357.5,-115 361.5,-115 361.5,-111 427.5,-111 427.5,-147"/>
<polyline fill="none" stroke="black" points="361.5,-143 365.5,-143 365.5,-139 361.5,-139 "/>
<polyline fill="none" stroke="black" points="361.5,-119 365.5,-119 365.5,-115 361.5,-115 "/>
<text text-anchor="middle" x="394.5" y="-125.3" font-family="Times,serif" font-size="14.00">plot.py</text>
</a>
</g>
</g>
<!-- base.py -->
<g id="node4" class="node">
<title>base.py</title>
<g id="a_node4"><a xlink:href="reference.html#module-graphtik.base" xlink:title="(implicit) everything imports this module, not shown">
<polygon fill="wheat" stroke="black" points="247,-75 176,-75 176,-71 172,-71 172,-67 176,-67 176,-47 172,-47 172,-43 176,-43 176,-39 247,-39 247,-75"/>
<polyline fill="none" stroke="black" points="176,-71 180,-71 180,-67 176,-67 "/>
<polyline fill="none" stroke="black" points="176,-47 180,-47 180,-43 176,-43 "/>
<text text-anchor="middle" x="211.5" y="-53.3" font-family="Times,serif" font-size="14.00">base.py</text>
</a>
</g>
</g>
<!-- plot.py&#45;&gt;base.py -->
<g id="edge1" class="edge">
<title>plot.py&#45;&gt;base.py</title>
<g id="a_edge1"><a xlink:title="(import&#45;time)">
<path fill="none" stroke="black" d="M361.71,-110.96C340.16,-102.9 312.26,-92.9 287.5,-83 277.74,-79.1 267.17,-74.49 256.73,-70.29"/>
<polygon fill="black" stroke="black" points="257.79,-66.95 247.2,-66.59 255.25,-73.47 257.79,-66.95"/>
</a>
</g>
</g>
<!-- sphinxext/ -->
<g id="node2" class="node">
<title>sphinxext/</title>
<g id="a_node2"><a xlink:href="reference.html#module-graphtik.sphinxext" xlink:title="(extra)">
<polygon fill="Aquamarine" stroke="black" points="446,-219 355,-219 355,-215 351,-215 351,-211 355,-211 355,-191 351,-191 351,-187 355,-187 355,-183 446,-183 446,-219"/>
<polyline fill="none" stroke="black" points="355,-215 359,-215 359,-211 355,-211 "/>
<polyline fill="none" stroke="black" points="355,-191 359,-191 359,-187 355,-187 "/>
<text text-anchor="middle" x="400.5" y="-197.3" font-family="Times,serif" font-size="14.00">sphinxext/</text>
</a>
</g>
</g>
<!-- sphinxext/&#45;&gt;plot.py -->
<g id="edge14" class="edge">
<title>sphinxext/&#45;&gt;plot.py</title>
<g id="a_edge14"><a xlink:title="(import&#45;time)">
<path fill="none" stroke="black" d="M399.02,-182.7C398.36,-174.98 397.56,-165.71 396.82,-157.11"/>
<polygon fill="black" stroke="black" points="400.31,-156.77 395.97,-147.1 393.33,-157.37 400.31,-156.77"/>
</a>
</g>
</g>
<!-- config.py -->
<g id="node3" class="node">
<title>config.py</title>
<g id="a_node3"><a xlink:href="reference.html#module-graphtik.config" xlink:title="(public) almost everything import this module">
<polygon fill="wheat" stroke="black" points="369.5,-75 287.5,-75 287.5,-71 283.5,-71 283.5,-67 287.5,-67 287.5,-47 283.5,-47 283.5,-43 287.5,-43 287.5,-39 369.5,-39 369.5,-75"/>
<polyline fill="none" stroke="black" points="287.5,-71 291.5,-71 291.5,-67 287.5,-67 "/>
<polyline fill="none" stroke="black" points="287.5,-47 291.5,-47 291.5,-43 287.5,-43 "/>
<text text-anchor="middle" x="328.5" y="-53.3" font-family="Times,serif" font-size="14.00">config.py</text>
</a>
</g>
</g>
<!-- base.py&#45;&gt;plot.py -->
<g id="edge6" class="edge">
<title>base.py&#45;&gt;plot.py</title>
<g id="a_edge6"><a xlink:title="(run&#45;time)">
<path fill="none" stroke="black" stroke-dasharray="5,2" d="M228.96,-75.09C234.92,-77.82 241.37,-80.55 247.5,-83 281.36,-96.53 321.07,-110.27 351.47,-118.94"/>
<polygon fill="black" stroke="black" points="350.83,-122.4 361.4,-121.68 352.69,-115.65 350.83,-122.4"/>
</a>
</g>
</g>
<!-- modifiers.py -->
<g id="node5" class="node">
<title>modifiers.py</title>
<g id="a_node5"><a xlink:href="reference.html#module-graphtik.modifiers" xlink:title="(public) almost everything imports this module">
<polygon fill="wheat" stroke="black" points="135.5,-75 29.5,-75 29.5,-71 25.5,-71 25.5,-67 29.5,-67 29.5,-47 25.5,-47 25.5,-43 29.5,-43 29.5,-39 135.5,-39 135.5,-75"/>
<polyline fill="none" stroke="black" points="29.5,-71 33.5,-71 33.5,-67 29.5,-67 "/>
<polyline fill="none" stroke="black" points="29.5,-47 33.5,-47 33.5,-43 29.5,-43 "/>
<text text-anchor="middle" x="82.5" y="-53.3" font-family="Times,serif" font-size="14.00">modifiers.py</text>
</a>
</g>
</g>
<!-- pipeline.py -->
<g id="node6" class="node">
<title>pipeline.py</title>
<g id="a_node6"><a xlink:href="reference.html#module-graphtik.pipeline" xlink:title="(public)">
<polygon fill="wheat" stroke="black" points="95,-219 0,-219 0,-215 -4,-215 -4,-211 0,-211 0,-191 -4,-191 -4,-187 0,-187 0,-183 95,-183 95,-219"/>
<polyline fill="none" stroke="black" points="0,-215 4,-215 4,-211 0,-211 "/>
<polyline fill="none" stroke="black" points="0,-191 4,-191 4,-187 0,-187 "/>
<text text-anchor="middle" x="47.5" y="-197.3" font-family="Times,serif" font-size="14.00">pipeline.py</text>
</a>
</g>
</g>
<!-- pipeline.py&#45;&gt;base.py -->
<g id="edge2" class="edge">
<title>pipeline.py&#45;&gt;base.py</title>
<g id="a_edge2"><a xlink:title="(import&#45;time)">
<path fill="none" stroke="black" d="M48.18,-182.96C49.87,-163.15 55.58,-130.66 74.5,-111 100.91,-83.56 120.08,-97 155.5,-83 159.13,-81.57 162.86,-80.03 166.6,-78.45"/>
<polygon fill="black" stroke="black" points="168.05,-81.64 175.85,-74.47 165.28,-75.21 168.05,-81.64"/>
</a>
</g>
</g>
<!-- op.py -->
<g id="node7" class="node">
<title>op.py</title>
<g id="a_node7"><a xlink:href="reference.html#module-graphtik.op" xlink:title="(public)">
<polygon fill="wheat" stroke="black" points="150.5,-147 94.5,-147 94.5,-143 90.5,-143 90.5,-139 94.5,-139 94.5,-119 90.5,-119 90.5,-115 94.5,-115 94.5,-111 150.5,-111 150.5,-147"/>
<polyline fill="none" stroke="black" points="94.5,-143 98.5,-143 98.5,-139 94.5,-139 "/>
<polyline fill="none" stroke="black" points="94.5,-119 98.5,-119 98.5,-115 94.5,-115 "/>
<text text-anchor="middle" x="122.5" y="-125.3" font-family="Times,serif" font-size="14.00">op.py</text>
</a>
</g>
</g>
<!-- pipeline.py&#45;&gt;op.py -->
<g id="edge12" class="edge">
<title>pipeline.py&#45;&gt;op.py</title>
<g id="a_edge12"><a xlink:title="(run&#45;time)">
<path fill="none" stroke="black" stroke-dasharray="5,2" d="M52.89,-182.7C60.95,-173.13 73.51,-161.17 86.04,-151.07"/>
<polygon fill="black" stroke="black" points="88.45,-153.63 94.21,-144.74 84.16,-148.09 88.45,-153.63"/>
</a>
</g>
</g>
<!-- network.py -->
<g id="node9" class="node">
<title>network.py</title>
<g id="a_node9"><a xlink:href="reference.html#module-graphtik.network" xlink:title="(private)">
<polygon fill="AliceBlue" stroke="black" points="232,-219 135,-219 135,-215 131,-215 131,-211 135,-211 135,-191 131,-191 131,-187 135,-187 135,-183 232,-183 232,-219"/>
<polyline fill="none" stroke="black" points="135,-215 139,-215 139,-211 135,-211 "/>
<polyline fill="none" stroke="black" points="135,-191 139,-191 139,-187 135,-187 "/>
<text text-anchor="middle" x="183.5" y="-197.3" font-family="Times,serif" font-size="14.00">network.py</text>
</a>
</g>
</g>
<!-- pipeline.py&#45;&gt;network.py -->
<g id="edge13" class="edge">
<title>pipeline.py&#45;&gt;network.py</title>
<g id="a_edge13"><a xlink:title="(run&#45;time)">
<path fill="none" stroke="black" stroke-dasharray="5,2" d="M95.05,-201C104.88,-201 114.71,-201 124.54,-201"/>
<polygon fill="black" stroke="black" points="124.78,-204.5 134.78,-201 124.78,-197.5 124.78,-204.5"/>
</a>
</g>
</g>
<!-- op.py&#45;&gt;base.py -->
<g id="edge3" class="edge">
<title>op.py&#45;&gt;base.py</title>
<g id="a_edge3"><a xlink:title="(import&#45;time)">
<path fill="none" stroke="black" d="M144.5,-110.7C155.71,-101.88 169.5,-91.03 181.65,-81.47"/>
<polygon fill="black" stroke="black" points="184.06,-84.04 189.75,-75.1 179.73,-78.54 184.06,-84.04"/>
</a>
</g>
</g>
<!-- op.py&#45;&gt;pipeline.py -->
<g id="edge11" class="edge">
<title>op.py&#45;&gt;pipeline.py</title>
<g id="a_edge11"><a xlink:title="(run&#45;time) for plotting">
<path fill="none" stroke="black" stroke-dasharray="5,2" d="M117.27,-147.1C109.91,-155.89 98.68,-166.73 87.16,-176.31"/>
<polygon fill="black" stroke="black" points="84.8,-173.71 79.19,-182.7 89.18,-179.18 84.8,-173.71"/>
</a>
</g>
</g>
<!-- execution.py -->
<g id="node8" class="node">
<title>execution.py</title>
<g id="a_node8"><a xlink:href="reference.html#module-graphtik.execution" xlink:title="(private)">
<polygon fill="AliceBlue" stroke="black" points="237,-291 130,-291 130,-287 126,-287 126,-283 130,-283 130,-263 126,-263 126,-259 130,-259 130,-255 237,-255 237,-291"/>
<polyline fill="none" stroke="black" points="130,-287 134,-287 134,-283 130,-283 "/>
<polyline fill="none" stroke="black" points="130,-263 134,-263 134,-259 130,-259 "/>
<text text-anchor="middle" x="183.5" y="-269.3" font-family="Times,serif" font-size="14.00">execution.py</text>
</a>
</g>
</g>
<!-- execution.py&#45;&gt;base.py -->
<g id="edge4" class="edge">
<title>execution.py&#45;&gt;base.py</title>
<g id="a_edge4"><a xlink:title="(import&#45;time)">
<path fill="none" stroke="black" d="M217.34,-254.96C230.88,-246.22 245.02,-234.17 252.5,-219 274.53,-174.3 248.15,-116.61 228.67,-83.82"/>
<polygon fill="black" stroke="black" points="231.63,-81.95 223.41,-75.26 225.67,-85.61 231.63,-81.95"/>
</a>
</g>
</g>
<!-- execution.py&#45;&gt;network.py -->
<g id="edge7" class="edge">
<title>execution.py&#45;&gt;network.py</title>
<g id="a_edge7"><a xlink:title="(import&#45;time)">
<path fill="none" stroke="black" d="M170.35,-254.7C168.59,-246.98 168.08,-237.71 168.84,-229.11"/>
<polygon fill="black" stroke="black" points="172.32,-229.52 170.4,-219.1 165.41,-228.45 172.32,-229.52"/>
</a>
</g>
</g>
<!-- network.py&#45;&gt;base.py -->
<g id="edge5" class="edge">
<title>network.py&#45;&gt;base.py</title>
<g id="a_edge5"><a xlink:title="(import&#45;time)">
<path fill="none" stroke="black" d="M186.88,-182.87C191.67,-158.56 200.49,-113.82 206.17,-85.01"/>
<polygon fill="black" stroke="black" points="209.61,-85.68 208.11,-75.19 202.74,-84.32 209.61,-85.68"/>
</a>
</g>
</g>
<!-- network.py&#45;&gt;pipeline.py -->
<g id="edge8" class="edge">
<title>network.py&#45;&gt;pipeline.py</title>
<g id="a_edge8"><a xlink:title="(run&#45;time)">
<path fill="none" stroke="black" stroke-dasharray="5,2" d="M134.78,-201C124.95,-201 115.12,-201 105.29,-201"/>
<polygon fill="black" stroke="black" points="105.05,-197.5 95.05,-201 105.05,-204.5 105.05,-197.5"/>
</a>
</g>
</g>
<!-- network.py&#45;&gt;op.py -->
<g id="edge9" class="edge">
<title>network.py&#45;&gt;op.py</title>
<g id="a_edge9"><a xlink:title="(run&#45;time)">
<path fill="none" stroke="black" stroke-dasharray="5,2" d="M168.42,-182.7C161.11,-174.3 152.19,-164.07 144.16,-154.86"/>
<polygon fill="black" stroke="black" points="146.61,-152.34 137.41,-147.1 141.34,-156.94 146.61,-152.34"/>
</a>
</g>
</g>
<!-- network.py&#45;&gt;execution.py -->
<g id="edge10" class="edge">
<title>network.py&#45;&gt;execution.py</title>
<g id="a_edge10"><a xlink:title="(run&#45;time)">
<path fill="none" stroke="black" stroke-dasharray="5,2" d="M196.6,-219.1C198.39,-226.79 198.92,-236.05 198.18,-244.67"/>
<polygon fill="black" stroke="black" points="194.69,-244.28 196.65,-254.7 201.61,-245.34 194.69,-244.28"/>
</a>
</g>
</g>
</g>
</svg>
