<?xml version="1.0" encoding="UTF-8" standalone="no"?>
<!DOCTYPE svg PUBLIC "-//W3C//DTD SVG 1.1//EN"
 "http://www.w3.org/Graphics/SVG/1.1/DTD/svg11.dtd">
<!-- Generated by graphviz version 2.43.0 (0)
 -->
<!-- Title: %3 Pages: 1 -->
<svg width="453pt" height="394pt"
 viewBox="0.00 0.00 453.49 394.00" xmlns="http://www.w3.org/2000/svg" xmlns:xlink="http://www.w3.org/1999/xlink">
<g id="graph0" class="graph" transform="scale(1 1) rotate(0) translate(4 390)">
<title>%3</title>
<polygon fill="white" stroke="transparent" points="-4,4 -4,-390 449.49,-390 449.49,4 -4,4"/>
<text text-anchor="middle" x="222.75" y="-370.8" font-family="Times,serif" font-size="14.00">graphtik&#45;v8+ module dependencies</text>
<g id="clust1" class="cluster">
<title>cluster_core</title>
<polygon fill="none" stroke="black" points="8,-280 8,-355 320,-355 320,-280 8,-280"/>
<text text-anchor="middle" x="164" y="-339.8" font-family="Times,serif" font-size="14.00">core modules</text>
</g>
<!-- base.py -->
<g id="node1" class="node">
<title>base.py</title>
<g id="a_node1"><a xlink:href="reference.html#module-graphtik.base" xlink:title="(implicit) everything imports this module">
<polygon fill="AliceBlue" stroke="black" points="311.5,-324 240.5,-324 240.5,-320 236.5,-320 236.5,-316 240.5,-316 240.5,-296 236.5,-296 236.5,-292 240.5,-292 240.5,-288 311.5,-288 311.5,-324"/>
<polyline fill="none" stroke="black" points="240.5,-320 244.5,-320 244.5,-316 240.5,-316 "/>
<polyline fill="none" stroke="black" points="240.5,-296 244.5,-296 244.5,-292 240.5,-292 "/>
<text text-anchor="middle" x="276" y="-302.3" font-family="Times,serif" font-size="14.00">base.py</text>
</a>
</g>
</g>
<!-- plot.py -->
<g id="node7" class="node">
<title>plot.py</title>
<g id="a_node7"><a xlink:href="reference.html#module-graphtik.plot" xlink:title="(extra)">
<polygon fill="Aquamarine" stroke="black" points="313,-252 247,-252 247,-248 243,-248 243,-244 247,-244 247,-224 243,-224 243,-220 247,-220 247,-216 313,-216 313,-252"/>
<polyline fill="none" stroke="black" points="247,-248 251,-248 251,-244 247,-244 "/>
<polyline fill="none" stroke="black" points="247,-224 251,-224 251,-220 247,-220 "/>
<text text-anchor="middle" x="280" y="-230.3" font-family="Times,serif" font-size="14.00">plot.py</text>
</a>
</g>
</g>
<!-- base.py&#45;&gt;plot.py -->
<g id="edge5" class="edge">
<title>base.py&#45;&gt;plot.py</title>
<g id="a_edge5"><a xlink:title="(run&#45;time)">
<path fill="none" stroke="black" stroke-dasharray="5,2" d="M276.99,-287.7C277.43,-279.98 277.96,-270.71 278.45,-262.11"/>
<polygon fill="black" stroke="black" points="281.95,-262.29 279.02,-252.1 274.96,-261.89 281.95,-262.29"/>
</a>
</g>
</g>
<!-- config.py -->
<g id="node2" class="node">
<title>config.py</title>
<g id="a_node2"><a xlink:href="reference.html#module-graphtik.config" xlink:title="(public)">
<polygon fill="wheat" stroke="black" points="222,-324 140,-324 140,-320 136,-320 136,-316 140,-316 140,-296 136,-296 136,-292 140,-292 140,-288 222,-288 222,-324"/>
<polyline fill="none" stroke="black" points="140,-320 144,-320 144,-316 140,-316 "/>
<polyline fill="none" stroke="black" points="140,-296 144,-296 144,-292 140,-292 "/>
<text text-anchor="middle" x="181" y="-302.3" font-family="Times,serif" font-size="14.00">config.py</text>
</a>
</g>
</g>
<!-- modifiers.py -->
<g id="node3" class="node">
<title>modifiers.py</title>
<g id="a_node3"><a xlink:href="reference.html#module-graphtik.modifiers" xlink:title="(public) almost everything imports this module">
<polygon fill="wheat" stroke="black" points="122,-324 16,-324 16,-320 12,-320 12,-316 16,-316 16,-296 12,-296 12,-292 16,-292 16,-288 122,-288 122,-324"/>
<polyline fill="none" stroke="black" points="16,-320 20,-320 20,-316 16,-316 "/>
<polyline fill="none" stroke="black" points="16,-296 20,-296 20,-292 16,-292 "/>
<text text-anchor="middle" x="69" y="-302.3" font-family="Times,serif" font-size="14.00">modifiers.py</text>
</a>
</g>
</g>
<!-- composition.py -->
<g id="node4" class="node">
<title>composition.py</title>
<g id="a_node4"><a xlink:href="reference.html#module-graphtik.op" xlink:title="(public)">
<polygon fill="wheat" stroke="black" points="433.5,-180 308.5,-180 308.5,-176 304.5,-176 304.5,-172 308.5,-172 308.5,-152 304.5,-152 304.5,-148 308.5,-148 308.5,-144 433.5,-144 433.5,-180"/>
<polyline fill="none" stroke="black" points="308.5,-176 312.5,-176 312.5,-172 308.5,-172 "/>
<polyline fill="none" stroke="black" points="308.5,-152 312.5,-152 312.5,-148 308.5,-148 "/>
<text text-anchor="middle" x="371" y="-158.3" font-family="Times,serif" font-size="14.00">composition.py</text>
</a>
</g>
</g>
<!-- network.py -->
<g id="node5" class="node">
<title>network.py</title>
<g id="a_node5"><a xlink:href="reference.html#module-graphtik.network" xlink:title="(private)">
<polygon fill="AliceBlue" stroke="black" points="381.5,-108 284.5,-108 284.5,-104 280.5,-104 280.5,-100 284.5,-100 284.5,-80 280.5,-80 280.5,-76 284.5,-76 284.5,-72 381.5,-72 381.5,-108"/>
<polyline fill="none" stroke="black" points="284.5,-104 288.5,-104 288.5,-100 284.5,-100 "/>
<polyline fill="none" stroke="black" points="284.5,-80 288.5,-80 288.5,-76 284.5,-76 "/>
<text text-anchor="middle" x="333" y="-86.3" font-family="Times,serif" font-size="14.00">network.py</text>
</a>
</g>
</g>
<!-- composition.py&#45;&gt;network.py -->
<g id="edge8" class="edge">
<title>composition.py&#45;&gt;network.py</title>
<g id="a_edge8"><a xlink:title="(run&#45;time)">
<path fill="none" stroke="black" stroke-dasharray="5,2" d="M355.69,-143.7C350.54,-135.73 345.1,-126.1 340.7,-117.26"/>
<polygon fill="black" stroke="black" points="343.81,-115.66 336.39,-108.1 337.48,-118.64 343.81,-115.66"/>
</a>
</g>
</g>
<!-- network.py&#45;&gt;composition.py -->
<g id="edge1" class="edge">
<title>network.py&#45;&gt;composition.py</title>
<g id="a_edge1"><a xlink:title="(import&#45;time)">
<path fill="none" stroke="black" d="M348.18,-108.1C353.32,-116.04 358.77,-125.67 363.19,-134.51"/>
<polygon fill="black" stroke="black" points="360.09,-136.15 367.52,-143.7 366.42,-133.16 360.09,-136.15"/>
</a>
</g>
</g>
<!-- execution.py -->
<g id="node6" class="node">
<title>execution.py</title>
<g id="a_node6"><a xlink:href="reference.html#module-graphtik.execution" xlink:title="(private)">
<polygon fill="AliceBlue" stroke="black" points="386.5,-36 279.5,-36 279.5,-32 275.5,-32 275.5,-28 279.5,-28 279.5,-8 275.5,-8 275.5,-4 279.5,-4 279.5,0 386.5,0 386.5,-36"/>
<polyline fill="none" stroke="black" points="279.5,-32 283.5,-32 283.5,-28 279.5,-28 "/>
<polyline fill="none" stroke="black" points="279.5,-8 283.5,-8 283.5,-4 279.5,-4 "/>
<text text-anchor="middle" x="333" y="-14.3" font-family="Times,serif" font-size="14.00">execution.py</text>
</a>
</g>
</g>
<!-- network.py&#45;&gt;execution.py -->
<g id="edge7" class="edge">
<title>network.py&#45;&gt;execution.py</title>
<g id="a_edge7"><a xlink:title="(run&#45;time)">
<path fill="none" stroke="black" stroke-dasharray="5,2" d="M327.08,-71.7C326.29,-63.98 326.06,-54.71 326.4,-46.11"/>
<polygon fill="black" stroke="black" points="329.9,-46.32 327.1,-36.1 322.92,-45.84 329.9,-46.32"/>
</a>
</g>
</g>
<!-- execution.py&#45;&gt;composition.py -->
<g id="edge2" class="edge">
<title>execution.py&#45;&gt;composition.py</title>
<g id="a_edge2"><a xlink:title="(import&#45;time)">
<path fill="none" stroke="black" d="M360.34,-36.23C372.11,-45.28 384.62,-57.52 391,-72 399.84,-92.05 393.28,-116.43 385.39,-134.6"/>
<polygon fill="black" stroke="black" points="382.06,-133.45 380.95,-143.99 388.39,-136.44 382.06,-133.45"/>
</a>
</g>
</g>
<!-- execution.py&#45;&gt;network.py -->
<g id="edge6" class="edge">
<title>execution.py&#45;&gt;network.py</title>
<g id="a_edge6"><a xlink:title="(import&#45;time)">
<path fill="none" stroke="black" d="M338.9,-36.1C339.7,-43.79 339.94,-53.05 339.6,-61.67"/>
<polygon fill="black" stroke="black" points="336.11,-61.48 338.92,-71.7 343.09,-61.96 336.11,-61.48"/>
</a>
</g>
</g>
<!-- plot.py&#45;&gt;composition.py -->
<g id="edge3" class="edge">
<title>plot.py&#45;&gt;composition.py</title>
<g id="a_edge3"><a xlink:title="(import&#45;time)">
<path fill="none" stroke="black" d="M302.49,-215.7C313.96,-206.88 328.06,-196.03 340.48,-186.47"/>
<polygon fill="black" stroke="black" points="342.97,-188.98 348.76,-180.1 338.7,-183.43 342.97,-188.98"/>
</a>
</g>
</g>
<!-- plot.py&#45;&gt;network.py -->
<g id="edge9" class="edge">
<title>plot.py&#45;&gt;network.py</title>
<g id="a_edge9"><a xlink:title="(run&#45;time)">
<path fill="none" stroke="black" stroke-dasharray="5,2" d="M282.12,-215.75C284.78,-197.44 290.21,-167.89 300,-144 303.8,-134.72 309.17,-125.22 314.47,-116.88"/>
<polygon fill="black" stroke="black" points="317.52,-118.62 320.12,-108.34 311.68,-114.75 317.52,-118.62"/>
</a>
</g>
</g>
<!-- plot.py&#45;&gt;execution.py -->
<g id="edge10" class="edge">
<title>plot.py&#45;&gt;execution.py</title>
<g id="a_edge10"><a xlink:title="(run&#45;time)">
<path fill="none" stroke="black" stroke-dasharray="5,2" d="M274.98,-215.64C267.13,-185.11 254.89,-120.45 276,-72 280.93,-60.68 289.61,-50.68 298.73,-42.51"/>
<polygon fill="black" stroke="black" points="300.99,-45.19 306.42,-36.09 296.5,-39.81 300.99,-45.19"/>
</a>
</g>
</g>
<!-- sphinxext/ -->
<g id="node8" class="node">
<title>sphinxext/</title>
<g id="a_node8"><a xlink:href="reference.html#module-graphtik.sphinxext" xlink:title="(extra)">
<polygon fill="Aquamarine" stroke="black" points="420.5,-324 329.5,-324 329.5,-320 325.5,-320 325.5,-316 329.5,-316 329.5,-296 325.5,-296 325.5,-292 329.5,-292 329.5,-288 420.5,-288 420.5,-324"/>
<polyline fill="none" stroke="black" points="329.5,-320 333.5,-320 333.5,-316 329.5,-316 "/>
<polyline fill="none" stroke="black" points="329.5,-296 333.5,-296 333.5,-292 329.5,-292 "/>
<text text-anchor="middle" x="375" y="-302.3" font-family="Times,serif" font-size="14.00">sphinxext/</text>
</a>
</g>
</g>
<!-- sphinxext/&#45;&gt;composition.py -->
<g id="edge4" class="edge">
<title>sphinxext/&#45;&gt;composition.py</title>
<g id="a_edge4"><a xlink:title="(import&#45;time)">
<path fill="none" stroke="black" d="M374.52,-287.87C373.84,-263.67 372.58,-219.21 371.77,-190.39"/>
<polygon fill="black" stroke="black" points="375.26,-190.09 371.48,-180.19 368.27,-190.28 375.26,-190.09"/>
</a>
</g>
</g>
<!-- sphinxext/&#45;&gt;execution.py -->
<g id="edge11" class="edge">
<title>sphinxext/&#45;&gt;execution.py</title>
<g id="a_edge11"><a xlink:title="(import&#45;time)">
<path fill="none" stroke="black" d="M390.38,-287.79C414.19,-259.03 455.97,-198.93 443,-144 434.78,-109.18 430.22,-99.21 407,-72 397.08,-60.38 384.1,-49.97 371.78,-41.53"/>
<polygon fill="black" stroke="black" points="373.68,-38.59 363.41,-36 369.83,-44.43 373.68,-38.59"/>
</a>
</g>
</g>
<!-- sphinxext/&#45;&gt;plot.py -->
<g id="edge12" class="edge">
<title>sphinxext/&#45;&gt;plot.py</title>
<g id="a_edge12"><a xlink:title="(import&#45;time)">
<path fill="none" stroke="black" d="M351.52,-287.7C339.44,-278.8 324.55,-267.82 311.48,-258.2"/>
<polygon fill="black" stroke="black" points="313.34,-255.22 303.21,-252.1 309.19,-260.85 313.34,-255.22"/>
</a>
</g>
</g>
</g>
</svg>
