<?xml version="1.0" encoding="UTF-8" standalone="no"?>
<!DOCTYPE svg PUBLIC "-//W3C//DTD SVG 1.1//EN"
 "http://www.w3.org/Graphics/SVG/1.1/DTD/svg11.dtd">
<!-- Generated by graphviz version 2.43.0 (0)
 -->
<!-- Title: %3 Pages: 1 -->
<svg width="631pt" height="582pt"
 viewBox="0.00 0.00 631.19 582.00" xmlns="http://www.w3.org/2000/svg" xmlns:xlink="http://www.w3.org/1999/xlink">
<g id="graph0" class="graph" transform="scale(1 1) rotate(0) translate(4 578)">
<title>%3</title>
<polygon fill="white" stroke="transparent" points="-4,4 -4,-578 627.19,-578 627.19,4 -4,4"/>
<text text-anchor="middle" x="311.59" y="-558.8" font-family="Times,serif" font-size="14.00">graphtik&#45;v4.4+ flowchart</text>
<g id="clust1" class="cluster">
<title>cluster_compute</title>
<g id="a_clust1"><a xlink:href="arch.html#term-compute" xlink:title="process, NetOp&#39;s method">
<polygon fill="none" stroke="black" stroke-dasharray="5,2" points="170.67,-77 170.67,-326 416.67,-326 416.67,-77 170.67,-77"/>
<text text-anchor="middle" x="293.67" y="-84.8" font-family="bold" font-size="14.00">compute</text>
</a>
</g>
</g>
<!-- operations -->
<g id="node1" class="node">
<title>operations</title>
<g id="a_node1"><a xlink:href="arch.html#term-operation" xlink:title="class">
<polygon fill="none" stroke="black" points="175.51,-551 35.78,-551 -0.17,-515 139.56,-515 175.51,-551"/>
<text text-anchor="middle" x="87.67" y="-529.3" font-family="italic" font-size="14.00">operations</text>
</a>
</g>
</g>
<!-- compose -->
<g id="node2" class="node">
<title>compose</title>
<g id="a_node2"><a xlink:href="arch.html#term-composition" xlink:title="phase">
<ellipse fill="none" stroke="black" cx="87.67" cy="-460" rx="51.19" ry="18"/>
<text text-anchor="middle" x="87.67" y="-456.3" font-family="italic" font-size="14.00">compose</text>
</a>
</g>
</g>
<!-- operations&#45;&gt;compose -->
<g id="edge1" class="edge">
<title>operations&#45;&gt;compose</title>
<path fill="none" stroke="black" d="M87.67,-514.81C87.67,-506.79 87.67,-497.05 87.67,-488.07"/>
<polygon fill="black" stroke="black" points="87.67,-478.03 92.17,-488.03 87.67,-483.03 87.67,-488.03 87.67,-488.03 87.67,-488.03 87.67,-483.03 83.17,-488.03 87.67,-478.03 87.67,-478.03"/>
</g>
<!-- network -->
<g id="node3" class="node">
<title>network</title>
<g id="a_node3"><a xlink:href="arch.html#term-network" xlink:title="class">
<polygon fill="none" stroke="black" points="159.11,-405 45.46,-405 16.23,-369 129.88,-369 159.11,-405"/>
<text text-anchor="middle" x="87.67" y="-383.3" font-family="italic" font-size="14.00">network</text>
</a>
</g>
</g>
<!-- compose&#45;&gt;network -->
<g id="edge2" class="edge">
<title>compose&#45;&gt;network</title>
<path fill="none" stroke="black" d="M87.67,-441.81C87.67,-433.79 87.67,-424.05 87.67,-415.07"/>
<polygon fill="black" stroke="black" points="87.67,-405.03 92.17,-415.03 87.67,-410.03 87.67,-415.03 87.67,-415.03 87.67,-415.03 87.67,-410.03 83.17,-415.03 87.67,-405.03 87.67,-405.03"/>
</g>
<!-- compile -->
<g id="node7" class="node">
<title>compile</title>
<g id="a_node7"><a xlink:href="arch.html#term-compilation" xlink:title="phase, Network&#39;s method">
<ellipse fill="none" stroke="black" cx="293.67" cy="-300" rx="46.59" ry="18"/>
<text text-anchor="middle" x="293.67" y="-296.3" font-family="italic" font-size="14.00">compile</text>
</a>
</g>
</g>
<!-- network&#45;&gt;compile -->
<g id="edge3" class="edge">
<title>network&#45;&gt;compile</title>
<g id="a_edge3"><a xlink:href="arch.html#term-graph" xlink:title="operations linked by the dependencies">
<path fill="none" stroke="black" d="M124.24,-368.97C146,-359.01 174.24,-346.4 199.67,-336 216.22,-329.23 234.62,-322.26 250.72,-316.34"/>
<polygon fill="black" stroke="black" points="260.41,-312.8 252.56,-320.46 255.71,-314.52 251.02,-316.23 251.02,-316.23 251.02,-316.23 255.71,-314.52 249.47,-312.01 260.41,-312.8 260.41,-312.8"/>
</a>
</g>
<g id="a_edge3&#45;label"><a xlink:href="arch.html#term-graph" xlink:title="&amp;#9679;graph">
<text text-anchor="start" x="199.67" y="-339.8" font-family="Times,serif" font-size="14.00">●graph</text>
</a>
</g>
</g>
<!-- inputs -->
<g id="node4" class="node">
<title>inputs</title>
<g id="a_node4"><a xlink:href="arch.html#term-inputs" xlink:title="mappings">
<polygon fill="none" stroke="black" points="282.17,-405 177.17,-405 177.17,-369 282.17,-369 282.17,-405"/>
<text text-anchor="middle" x="229.67" y="-383.3" font-family="Times,serif" font-size="14.00">input names</text>
</a>
</g>
</g>
<!-- inputs&#45;&gt;compile -->
<g id="edge4" class="edge">
<title>inputs&#45;&gt;compile</title>
<path fill="none" stroke="black" d="M242.62,-368.8C251.94,-356.43 264.64,-339.55 275.04,-325.74"/>
<polygon fill="black" stroke="black" points="281.17,-317.6 278.75,-328.29 278.17,-321.59 275.16,-325.59 275.16,-325.59 275.16,-325.59 278.17,-321.59 271.56,-322.88 281.17,-317.6 281.17,-317.6"/>
</g>
<!-- outputs -->
<g id="node5" class="node">
<title>outputs</title>
<g id="a_node5"><a xlink:href="arch.html#term-outputs" xlink:title="mappings">
<polygon fill="none" stroke="black" points="415.17,-405 300.17,-405 300.17,-369 415.17,-369 415.17,-405"/>
<text text-anchor="middle" x="357.67" y="-383.3" font-family="Times,serif" font-size="14.00">output names</text>
</a>
</g>
</g>
<!-- outputs&#45;&gt;compile -->
<g id="edge5" class="edge">
<title>outputs&#45;&gt;compile</title>
<path fill="none" stroke="black" d="M344.72,-368.8C335.4,-356.43 322.7,-339.55 312.3,-325.74"/>
<polygon fill="black" stroke="black" points="306.17,-317.6 315.78,-322.88 309.17,-321.59 312.18,-325.59 312.18,-325.59 312.18,-325.59 309.17,-321.59 308.59,-328.29 306.17,-317.6 306.17,-317.6"/>
</g>
<!-- predicate -->
<g id="node6" class="node">
<title>predicate</title>
<g id="a_node6"><a xlink:href="arch.html#term-node-predicate" xlink:title="function">
<polygon fill="none" stroke="black" points="556.17,-405 433.17,-405 433.17,-369 556.17,-369 556.17,-405"/>
<text text-anchor="middle" x="494.67" y="-383.3" font-family="Times,serif" font-size="14.00">node predicate</text>
</a>
</g>
</g>
<!-- predicate&#45;&gt;compile -->
<g id="edge6" class="edge">
<title>predicate&#45;&gt;compile</title>
<path fill="none" stroke="black" d="M454,-368.8C418.87,-353.94 368.41,-332.61 333.53,-317.85"/>
<polygon fill="black" stroke="black" points="324.13,-313.88 335.09,-313.63 328.73,-315.83 333.34,-317.77 333.34,-317.77 333.34,-317.77 328.73,-315.83 331.58,-321.92 324.13,-313.88 324.13,-313.88"/>
</g>
<!-- plan -->
<g id="node8" class="node">
<title>plan</title>
<g id="a_node8"><a xlink:href="arch.html#term-execution-plan" xlink:title="class">
<polygon fill="none" stroke="black" points="408.78,-231 225.67,-231 178.56,-195 361.68,-195 408.78,-231"/>
<text text-anchor="middle" x="293.67" y="-209.3" font-family="italic" font-size="14.00">execution plan</text>
</a>
</g>
</g>
<!-- compile&#45;&gt;plan -->
<g id="edge7" class="edge">
<title>compile&#45;&gt;plan</title>
<g id="a_edge7"><a xlink:href="arch.html#term-prune" xlink:title="graph pruned by inputs &amp; outputs">
<path fill="none" stroke="black" d="M293.67,-281.8C293.67,-270.16 293.67,-254.55 293.67,-241.24"/>
<polygon fill="black" stroke="black" points="293.67,-231.18 298.17,-241.18 293.67,-236.18 293.67,-241.18 293.67,-241.18 293.67,-241.18 293.67,-236.18 289.17,-241.18 293.67,-231.18 293.67,-231.18"/>
</a>
</g>
<g id="a_edge7&#45;label"><a xlink:href="arch.html#term-prune" xlink:title="&amp;#9679;pruned dag">
<text text-anchor="start" x="293.67" y="-252.8" font-family="Times,serif" font-size="14.00">●pruned dag</text>
</a>
</g>
</g>
<!-- execute -->
<g id="node9" class="node">
<title>execute</title>
<g id="a_node9"><a xlink:href="arch.html#term-execution" xlink:title="phase, Plan&#39;s method">
<ellipse fill="none" stroke="black" cx="344.67" cy="-126" rx="46.59" ry="18"/>
<text text-anchor="middle" x="344.67" y="-122.3" font-family="italic" font-size="14.00">execute</text>
</a>
</g>
</g>
<!-- plan&#45;&gt;execute -->
<g id="edge8" class="edge">
<title>plan&#45;&gt;execute</title>
<g id="a_edge8"><a xlink:href="arch.html#term-dag" xlink:title="plan&#39;s dag">
<path fill="none" stroke="black" d="M303.99,-194.8C311.27,-182.66 321.16,-166.19 329.36,-152.52"/>
<polygon fill="black" stroke="black" points="334.71,-143.6 333.43,-154.49 332.14,-147.88 329.57,-152.17 329.57,-152.17 329.57,-152.17 332.14,-147.88 325.71,-149.86 334.71,-143.6 334.71,-143.6"/>
</a>
</g>
<g id="a_edge8&#45;label"><a xlink:href="arch.html#term-dag" xlink:title="&amp;#9679;dag">
<text text-anchor="start" x="322.67" y="-165.8" font-family="Times,serif" font-size="14.00">●dag</text>
</a>
</g>
</g>
<!-- solution -->
<g id="node11" class="node">
<title>solution</title>
<g id="a_node11"><a xlink:href="arch.html#term-solution" xlink:title="class">
<polygon fill="none" stroke="black" points="415.21,-36 303,-36 274.14,0 386.34,0 415.21,-36"/>
<text text-anchor="middle" x="344.67" y="-14.3" font-family="Times,serif" font-size="14.00">solution</text>
</a>
</g>
</g>
<!-- execute&#45;&gt;solution -->
<g id="edge10" class="edge">
<title>execute&#45;&gt;solution</title>
<g id="a_edge10"><a xlink:href="arch.html#term-solution-dag" xlink:title="dag clone to modify while executing">
<path fill="none" stroke="black" d="M344.67,-107.97C344.67,-91.38 344.67,-65.88 344.67,-46.43"/>
<polygon fill="black" stroke="black" points="344.67,-36.34 349.17,-46.34 344.67,-41.34 344.67,-46.34 344.67,-46.34 344.67,-46.34 344.67,-41.34 340.17,-46.34 344.67,-36.34 344.67,-36.34"/>
</a>
</g>
<g id="a_edge10&#45;label"><a xlink:href="arch.html#term-solution-dag" xlink:title="&amp;#9679;solution dag">
<text text-anchor="start" x="344.67" y="-57.8" font-family="Times,serif" font-size="14.00">●solution dag</text>
</a>
</g>
</g>
<!-- values -->
<g id="node10" class="node">
<title>values</title>
<g id="a_node10"><a xlink:href="arch.html#term-inputs" xlink:title="mappings">
<polygon fill="none" stroke="black" points="530.67,-231 426.67,-231 426.67,-195 530.67,-195 530.67,-231"/>
<text text-anchor="middle" x="478.67" y="-209.3" font-family="Times,serif" font-size="14.00">input values</text>
</a>
</g>
</g>
<!-- values&#45;&gt;execute -->
<g id="edge9" class="edge">
<title>values&#45;&gt;execute</title>
<path fill="none" stroke="black" d="M451.55,-194.8C429.95,-181.09 399.65,-161.87 376.82,-147.39"/>
<polygon fill="black" stroke="black" points="368.16,-141.9 379.02,-143.46 372.39,-144.58 376.61,-147.26 376.61,-147.26 376.61,-147.26 372.39,-144.58 374.2,-151.06 368.16,-141.9 368.16,-141.9"/>
</g>
<!-- solution&#45;&gt;solution -->
<g id="edge11" class="edge">
<title>solution&#45;&gt;solution</title>
<g id="a_edge11"><a xlink:href="arch.html#term-reschedule" xlink:title="prune when endured operations fail or partial outputs">
<path fill="none" stroke="black" d="M407.12,-25.74C422.09,-25.13 433.19,-22.55 433.19,-18 433.19,-13.24 421.08,-10.64 405.1,-10.19"/>
<polygon fill="black" stroke="black" points="394.72,-10.19 404.72,-5.7 399.72,-10.19 404.72,-10.2 404.72,-10.2 404.72,-10.2 399.72,-10.19 404.72,-14.7 394.72,-10.19 394.72,-10.19"/>
</a>
</g>
<g id="a_edge11&#45;label"><a xlink:href="arch.html#term-reschedule" xlink:title="&amp;#9679;prune dag on reschedule">
<text text-anchor="start" x="433.19" y="-14.3" font-family="Times,serif" font-size="14.00">●prune dag on reschedule</text>
</a>
</g>
</g>
</g>
</svg>
