<?xml version="1.0" encoding="UTF-8" standalone="no"?>
<!DOCTYPE svg PUBLIC "-//W3C//DTD SVG 1.1//EN"
 "http://www.w3.org/Graphics/SVG/1.1/DTD/svg11.dtd">
<!-- Generated by graphviz version 2.43.0 (0)
 -->
<!-- Title: %3 Pages: 1 -->
<svg width="333pt" height="466pt"
 viewBox="0.00 0.00 333.45 466.00" xmlns="http://www.w3.org/2000/svg" xmlns:xlink="http://www.w3.org/1999/xlink">
<g id="graph0" class="graph" transform="scale(1 1) rotate(0) translate(4 462)">
<title>%3</title>
<polygon fill="white" stroke="transparent" points="-4,4 -4,-462 329.45,-462 329.45,4 -4,4"/>
<text text-anchor="middle" x="162.73" y="-442.8" font-family="Times,serif" font-size="14.00">graphtik&#45;v8+ module dependencies</text>
<g id="clust1" class="cluster">
<title>cluster_core</title>
<g id="a_clust1"><a xlink:title="most modules depend on them">
<polygon fill="none" stroke="black" points="8,-352 8,-427 196,-427 196,-352 8,-352"/>
<text text-anchor="middle" x="102" y="-411.8" font-family="Times,serif" font-size="14.00">core modules</text>
</a>
</g>
</g>
<!-- base.py -->
<g id="node1" class="node">
<title>base.py</title>
<g id="a_node1"><a xlink:href="reference.html#module-graphtik.base" xlink:title="(implicit) everything imports this module">
<polygon fill="AliceBlue" stroke="black" points="187.5,-396 116.5,-396 116.5,-392 112.5,-392 112.5,-388 116.5,-388 116.5,-368 112.5,-368 112.5,-364 116.5,-364 116.5,-360 187.5,-360 187.5,-396"/>
<polyline fill="none" stroke="black" points="116.5,-392 120.5,-392 120.5,-388 116.5,-388 "/>
<polyline fill="none" stroke="black" points="116.5,-368 120.5,-368 120.5,-364 116.5,-364 "/>
<text text-anchor="middle" x="152" y="-374.3" font-family="Times,serif" font-size="14.00">base.py</text>
</a>
</g>
</g>
<!-- plot.py -->
<g id="node7" class="node">
<title>plot.py</title>
<g id="a_node7"><a xlink:href="reference.html#module-graphtik.plot" xlink:title="(extra)">
<polygon fill="Aquamarine" stroke="black" points="185,-324 119,-324 119,-320 115,-320 115,-316 119,-316 119,-296 115,-296 115,-292 119,-292 119,-288 185,-288 185,-324"/>
<polyline fill="none" stroke="black" points="119,-320 123,-320 123,-316 119,-316 "/>
<polyline fill="none" stroke="black" points="119,-296 123,-296 123,-292 119,-292 "/>
<text text-anchor="middle" x="152" y="-302.3" font-family="Times,serif" font-size="14.00">plot.py</text>
</a>
</g>
</g>
<!-- base.py&#45;&gt;plot.py -->
<g id="edge9" class="edge">
<title>base.py&#45;&gt;plot.py</title>
<g id="a_edge9"><a xlink:title="(run&#45;time)">
<path fill="none" stroke="black" stroke-dasharray="5,2" d="M152,-359.7C152,-351.98 152,-342.71 152,-334.11"/>
<polygon fill="black" stroke="black" points="155.5,-334.1 152,-324.1 148.5,-334.1 155.5,-334.1"/>
</a>
</g>
</g>
<!-- config.py -->
<g id="node2" class="node">
<title>config.py</title>
<g id="a_node2"><a xlink:href="reference.html#module-graphtik.config" xlink:title="(public)">
<polygon fill="wheat" stroke="black" points="98,-396 16,-396 16,-392 12,-392 12,-388 16,-388 16,-368 12,-368 12,-364 16,-364 16,-360 98,-360 98,-396"/>
<polyline fill="none" stroke="black" points="16,-392 20,-392 20,-388 16,-388 "/>
<polyline fill="none" stroke="black" points="16,-368 20,-368 20,-364 16,-364 "/>
<text text-anchor="middle" x="57" y="-374.3" font-family="Times,serif" font-size="14.00">config.py</text>
</a>
</g>
</g>
<!-- modifiers.py -->
<g id="node3" class="node">
<title>modifiers.py</title>
<g id="a_node3"><a xlink:href="reference.html#module-graphtik.modifiers" xlink:title="(public) almost everything imports this module">
<polygon fill="wheat" stroke="black" points="286,-36 180,-36 180,-32 176,-32 176,-28 180,-28 180,-8 176,-8 176,-4 180,-4 180,0 286,0 286,-36"/>
<polyline fill="none" stroke="black" points="180,-32 184,-32 184,-28 180,-28 "/>
<polyline fill="none" stroke="black" points="180,-8 184,-8 184,-4 180,-4 "/>
<text text-anchor="middle" x="233" y="-14.3" font-family="Times,serif" font-size="14.00">modifiers.py</text>
</a>
</g>
</g>
<!-- composition.py -->
<g id="node4" class="node">
<title>composition.py</title>
<g id="a_node4"><a xlink:href="reference.html#module-graphtik.composition" xlink:title="(public)">
<polygon fill="wheat" stroke="black" points="324.5,-252 199.5,-252 199.5,-248 195.5,-248 195.5,-244 199.5,-244 199.5,-224 195.5,-224 195.5,-220 199.5,-220 199.5,-216 324.5,-216 324.5,-252"/>
<polyline fill="none" stroke="black" points="199.5,-248 203.5,-248 203.5,-244 199.5,-244 "/>
<polyline fill="none" stroke="black" points="199.5,-224 203.5,-224 203.5,-220 199.5,-220 "/>
<text text-anchor="middle" x="262" y="-230.3" font-family="Times,serif" font-size="14.00">composition.py</text>
</a>
</g>
</g>
<!-- composition.py&#45;&gt;modifiers.py -->
<g id="edge1" class="edge">
<title>composition.py&#45;&gt;modifiers.py</title>
<g id="a_edge1"><a xlink:title="(import&#45;time)">
<path fill="none" stroke="black" d="M289.8,-215.87C301.77,-206.84 314.5,-194.59 321,-180 327.52,-165.39 325.78,-159.27 321,-144 308.67,-104.63 278.87,-66.99 257.37,-43.49"/>
<polygon fill="black" stroke="black" points="259.82,-40.99 250.43,-36.08 254.71,-45.77 259.82,-40.99"/>
</a>
</g>
</g>
<!-- network.py -->
<g id="node5" class="node">
<title>network.py</title>
<g id="a_node5"><a xlink:href="reference.html#module-graphtik.network" xlink:title="(private)">
<polygon fill="AliceBlue" stroke="black" points="311.5,-180 214.5,-180 214.5,-176 210.5,-176 210.5,-172 214.5,-172 214.5,-152 210.5,-152 210.5,-148 214.5,-148 214.5,-144 311.5,-144 311.5,-180"/>
<polyline fill="none" stroke="black" points="214.5,-176 218.5,-176 218.5,-172 214.5,-172 "/>
<polyline fill="none" stroke="black" points="214.5,-152 218.5,-152 218.5,-148 214.5,-148 "/>
<text text-anchor="middle" x="263" y="-158.3" font-family="Times,serif" font-size="14.00">network.py</text>
</a>
</g>
</g>
<!-- composition.py&#45;&gt;network.py -->
<g id="edge12" class="edge">
<title>composition.py&#45;&gt;network.py</title>
<g id="a_edge12"><a xlink:title="(run&#45;time)">
<path fill="none" stroke="black" stroke-dasharray="5,2" d="M256.33,-215.7C255.65,-207.98 255.55,-198.71 256.02,-190.11"/>
<polygon fill="black" stroke="black" points="259.51,-190.36 256.86,-180.1 252.53,-189.78 259.51,-190.36"/>
</a>
</g>
</g>
<!-- network.py&#45;&gt;modifiers.py -->
<g id="edge2" class="edge">
<title>network.py&#45;&gt;modifiers.py</title>
<g id="a_edge2"><a xlink:title="(import&#45;time)">
<path fill="none" stroke="black" d="M262.99,-143.68C262.62,-125.56 261.01,-96.4 255,-72 252.81,-63.1 249.35,-53.75 245.82,-45.43"/>
<polygon fill="black" stroke="black" points="248.98,-43.92 241.71,-36.21 242.59,-46.77 248.98,-43.92"/>
</a>
</g>
</g>
<!-- network.py&#45;&gt;composition.py -->
<g id="edge5" class="edge">
<title>network.py&#45;&gt;composition.py</title>
<g id="a_edge5"><a xlink:title="(import&#45;time)">
<path fill="none" stroke="black" d="M268.65,-180.1C269.35,-187.79 269.45,-197.05 268.99,-205.67"/>
<polygon fill="black" stroke="black" points="265.5,-205.44 268.16,-215.7 272.48,-206.02 265.5,-205.44"/>
</a>
</g>
</g>
<!-- execution.py -->
<g id="node6" class="node">
<title>execution.py</title>
<g id="a_node6"><a xlink:href="reference.html#module-graphtik.execution" xlink:title="(private)">
<polygon fill="AliceBlue" stroke="black" points="245.5,-108 138.5,-108 138.5,-104 134.5,-104 134.5,-100 138.5,-100 138.5,-80 134.5,-80 134.5,-76 138.5,-76 138.5,-72 245.5,-72 245.5,-108"/>
<polyline fill="none" stroke="black" points="138.5,-104 142.5,-104 142.5,-100 138.5,-100 "/>
<polyline fill="none" stroke="black" points="138.5,-80 142.5,-80 142.5,-76 138.5,-76 "/>
<text text-anchor="middle" x="192" y="-86.3" font-family="Times,serif" font-size="14.00">execution.py</text>
</a>
</g>
</g>
<!-- network.py&#45;&gt;execution.py -->
<g id="edge11" class="edge">
<title>network.py&#45;&gt;execution.py</title>
<g id="a_edge11"><a xlink:title="(run&#45;time)">
<path fill="none" stroke="black" stroke-dasharray="5,2" d="M239.53,-143.7C230.06,-135.22 219.37,-124.86 210.46,-115.58"/>
<polygon fill="black" stroke="black" points="212.84,-113.01 203.45,-108.1 207.73,-117.8 212.84,-113.01"/>
</a>
</g>
</g>
<!-- execution.py&#45;&gt;modifiers.py -->
<g id="edge3" class="edge">
<title>execution.py&#45;&gt;modifiers.py</title>
<g id="a_edge3"><a xlink:title="(import&#45;time)">
<path fill="none" stroke="black" d="M202.13,-71.7C206.85,-63.64 212.56,-53.89 217.78,-44.98"/>
<polygon fill="black" stroke="black" points="220.95,-46.5 222.98,-36.1 214.91,-42.96 220.95,-46.5"/>
</a>
</g>
</g>
<!-- execution.py&#45;&gt;composition.py -->
<g id="edge6" class="edge">
<title>execution.py&#45;&gt;composition.py</title>
<g id="a_edge6"><a xlink:title="(import&#45;time)">
<path fill="none" stroke="black" d="M191.49,-108.09C191.64,-126.79 193.98,-157.16 206,-180 211.8,-191.01 220.77,-201.02 229.84,-209.29"/>
<polygon fill="black" stroke="black" points="227.56,-211.95 237.43,-215.82 232.13,-206.64 227.56,-211.95"/>
</a>
</g>
</g>
<!-- execution.py&#45;&gt;network.py -->
<g id="edge10" class="edge">
<title>execution.py&#45;&gt;network.py</title>
<g id="a_edge10"><a xlink:title="(import&#45;time)">
<path fill="none" stroke="black" d="M215.24,-108.1C224.7,-116.55 235.39,-126.9 244.33,-136.2"/>
<polygon fill="black" stroke="black" points="241.97,-138.8 251.37,-143.7 247.08,-134.01 241.97,-138.8"/>
</a>
</g>
</g>
<!-- plot.py&#45;&gt;modifiers.py -->
<g id="edge4" class="edge">
<title>plot.py&#45;&gt;modifiers.py</title>
<g id="a_edge4"><a xlink:title="(import&#45;time)">
<path fill="none" stroke="black" d="M143.9,-287.93C125.86,-247.15 87.15,-142.24 130,-72 139.28,-56.79 154.48,-45.76 170.38,-37.83"/>
<polygon fill="black" stroke="black" points="172.16,-40.87 179.79,-33.52 169.24,-34.51 172.16,-40.87"/>
</a>
</g>
</g>
<!-- plot.py&#45;&gt;composition.py -->
<g id="edge7" class="edge">
<title>plot.py&#45;&gt;composition.py</title>
<g id="a_edge7"><a xlink:title="(import&#45;time)">
<path fill="none" stroke="black" d="M178.91,-287.88C193.16,-278.81 210.85,-267.55 226.24,-257.76"/>
<polygon fill="black" stroke="black" points="228.43,-260.51 234.99,-252.19 224.67,-254.61 228.43,-260.51"/>
</a>
</g>
</g>
<!-- plot.py&#45;&gt;execution.py -->
<g id="edge13" class="edge">
<title>plot.py&#45;&gt;execution.py</title>
<g id="a_edge13"><a xlink:title="(run&#45;time) ">
<path fill="none" stroke="black" stroke-dasharray="5,2" d="M155.21,-287.85C162.14,-250.75 178.58,-162.81 186.93,-118.1"/>
<polygon fill="black" stroke="black" points="190.38,-118.71 188.78,-108.23 183.5,-117.42 190.38,-118.71"/>
</a>
</g>
</g>
<!-- sphinxext/ -->
<g id="node8" class="node">
<title>sphinxext/</title>
<g id="a_node8"><a xlink:href="reference.html#module-graphtik.sphinxext" xlink:title="(extra)">
<polygon fill="Aquamarine" stroke="black" points="304.5,-396 213.5,-396 213.5,-392 209.5,-392 209.5,-388 213.5,-388 213.5,-368 209.5,-368 209.5,-364 213.5,-364 213.5,-360 304.5,-360 304.5,-396"/>
<polyline fill="none" stroke="black" points="213.5,-392 217.5,-392 217.5,-388 213.5,-388 "/>
<polyline fill="none" stroke="black" points="213.5,-368 217.5,-368 217.5,-364 213.5,-364 "/>
<text text-anchor="middle" x="259" y="-374.3" font-family="Times,serif" font-size="14.00">sphinxext/</text>
</a>
</g>
</g>
<!-- sphinxext/&#45;&gt;composition.py -->
<g id="edge8" class="edge">
<title>sphinxext/&#45;&gt;composition.py</title>
<g id="a_edge8"><a xlink:title="(import&#45;time)">
<path fill="none" stroke="black" d="M259.36,-359.87C259.87,-335.67 260.81,-291.21 261.42,-262.39"/>
<polygon fill="black" stroke="black" points="264.92,-262.26 261.64,-252.19 257.93,-262.11 264.92,-262.26"/>
</a>
</g>
</g>
<!-- sphinxext/&#45;&gt;plot.py -->
<g id="edge14" class="edge">
<title>sphinxext/&#45;&gt;plot.py</title>
<g id="a_edge14"><a xlink:title="(import&#45;time)">
<path fill="none" stroke="black" d="M232.82,-359.88C218.96,-350.81 201.76,-339.55 186.79,-329.76"/>
<polygon fill="black" stroke="black" points="188.56,-326.74 178.28,-324.19 184.73,-332.59 188.56,-326.74"/>
</a>
</g>
</g>
</g>
</svg>
