<?xml version="1.0" encoding="UTF-8" standalone="no"?>
<!DOCTYPE svg PUBLIC "-//W3C//DTD SVG 1.1//EN"
 "http://www.w3.org/Graphics/SVG/1.1/DTD/svg11.dtd">
<!-- Generated by graphviz version 2.43.0 (0)
 -->
<!-- Title: %3 Pages: 1 -->
<svg width="622pt" height="483pt"
 viewBox="0.00 0.00 622.00 483.00" xmlns="http://www.w3.org/2000/svg" xmlns:xlink="http://www.w3.org/1999/xlink">
<g id="graph0" class="graph" transform="scale(1 1) rotate(0) translate(4 479)">
<title>%3</title>
<g id="a_graph0"><a xlink:href="../reference.html" xlink:title="graphtik module dependencies">
<polygon fill="white" stroke="transparent" points="-4,4 -4,-479 618,-479 618,4 -4,4"/>
<text text-anchor="middle" x="307" y="-459.8" font-family="Times,serif" font-size="14.00">graphtik&#45;v8.3.1+ module dependencies</text>
</a>
</g>
<g id="clust1" class="cluster">
<title>cluster_user_API</title>
<g id="a_clust1"><a xlink:href="../reference.html" xlink:title="modules for clients to interact with">
<polygon fill="none" stroke="black" points="8,-91 8,-444 606,-444 606,-91 8,-91"/>
<text text-anchor="middle" x="307" y="-428.8" font-family="Times,serif" font-size="14.00">user API</text>
</a>
</g>
</g>
<g id="clust2" class="cluster">
<title>cluster_planning</title>
<g id="a_clust2"><a xlink:href="arch.html#term-execution" xlink:title="modules related to graph solution, client is not expected to interact much with them">
<polygon fill="none" stroke="black" points="59,-99 59,-246 181,-246 181,-99 59,-99"/>
<text text-anchor="middle" x="120" y="-106.8" font-family="Times,serif" font-size="14.00">core modules</text>
</a>
</g>
</g>
<g id="clust3" class="cluster">
<title>cluster_base</title>
<g id="a_clust3"><a xlink:href="../reference.html" xlink:title="modules imported almost by everything (not shown)">
<polygon fill="none" stroke="black" points="140,-338 140,-413 350,-413 350,-338 140,-338"/>
<text text-anchor="middle" x="245" y="-397.8" font-family="Times,serif" font-size="14.00">base</text>
</a>
</g>
</g>
<g id="clust4" class="cluster">
<title>cluster_utils</title>
<g id="a_clust4"><a xlink:href="../reference.html" xlink:title="almost all other modules depend on these">
<polygon fill="none" stroke="black" points="266,-8 266,-83 526,-83 526,-8 266,-8"/>
<text text-anchor="middle" x="396" y="-15.8" font-family="Times,serif" font-size="14.00">utils</text>
</a>
</g>
</g>
<!-- plot.py -->
<g id="node1" class="node">
<title>plot.py</title>
<g id="a_node1"><a xlink:href="../reference.html#module-graphtik.plot" xlink:title="(extra) plot graphs" target="_top">
<polygon fill="Aquamarine" stroke="black" points="139,-310 73,-310 73,-306 69,-306 69,-302 73,-302 73,-282 69,-282 69,-278 73,-278 73,-274 139,-274 139,-310"/>
<polyline fill="none" stroke="black" points="73,-306 77,-306 77,-302 73,-302 "/>
<polyline fill="none" stroke="black" points="73,-282 77,-282 77,-278 73,-278 "/>
<text text-anchor="middle" x="106" y="-288.3" font-family="Times,serif" font-size="14.00">plot.py</text>
</a>
</g>
</g>
<!-- sphinxext/ -->
<g id="node2" class="node">
<title>sphinxext/</title>
<g id="a_node2"><a xlink:href="../reference.html#module-graphtik.sphinxext" xlink:title="(extra) package &amp; modules for plotting graph in Sphinx sites" target="_top">
<polygon fill="Aquamarine" stroke="black" points="107.5,-382 28.5,-382 28.5,-386 16.5,-386 16.5,-346 107.5,-346 107.5,-382"/>
<polyline fill="none" stroke="black" points="16.5,-382 28.5,-382 "/>
<text text-anchor="middle" x="62" y="-360.3" font-family="Times,serif" font-size="14.00">sphinxext/</text>
</a>
</g>
</g>
<!-- sphinxext/&#45;&gt;plot.py -->
<g id="edge13" class="edge">
<title>sphinxext/&#45;&gt;plot.py</title>
<g id="a_edge13"><a xlink:title="(import&#45;time)" target="_top">
<path fill="none" stroke="black" d="M72.88,-345.7C77.99,-337.56 84.2,-327.69 89.84,-318.7"/>
<polygon fill="black" stroke="black" points="92.89,-320.43 95.25,-310.1 86.96,-316.71 92.89,-320.43"/>
</a>
</g>
</g>
<!-- pipeline.py -->
<g id="node3" class="node">
<title>pipeline.py</title>
<g id="a_node3"><a xlink:href="../reference.html#module-graphtik.pipeline" xlink:title="(public)" target="_top">
<polygon fill="wheat" stroke="black" points="337.5,-310 242.5,-310 242.5,-306 238.5,-306 238.5,-302 242.5,-302 242.5,-282 238.5,-282 238.5,-278 242.5,-278 242.5,-274 337.5,-274 337.5,-310"/>
<polyline fill="none" stroke="black" points="242.5,-306 246.5,-306 246.5,-302 242.5,-302 "/>
<polyline fill="none" stroke="black" points="242.5,-282 246.5,-282 246.5,-278 242.5,-278 "/>
<text text-anchor="middle" x="290" y="-288.3" font-family="Times,serif" font-size="14.00">pipeline.py</text>
</a>
</g>
</g>
<!-- planning.py -->
<g id="node6" class="node">
<title>planning.py</title>
<g id="a_node6"><a xlink:href="../reference.html#module-graphtik.planning" xlink:title="(private)" target="_top">
<polygon fill="AliceBlue" stroke="black" points="171.5,-238 70.5,-238 70.5,-234 66.5,-234 66.5,-230 70.5,-230 70.5,-210 66.5,-210 66.5,-206 70.5,-206 70.5,-202 171.5,-202 171.5,-238"/>
<polyline fill="none" stroke="black" points="70.5,-234 74.5,-234 74.5,-230 70.5,-230 "/>
<polyline fill="none" stroke="black" points="70.5,-210 74.5,-210 74.5,-206 70.5,-206 "/>
<text text-anchor="middle" x="121" y="-216.3" font-family="Times,serif" font-size="14.00">planning.py</text>
</a>
</g>
</g>
<!-- pipeline.py&#45;&gt;planning.py -->
<g id="edge8" class="edge">
<title>pipeline.py&#45;&gt;planning.py</title>
<g id="a_edge8"><a xlink:title="(run&#45;time)" target="_top">
<path fill="none" stroke="black" stroke-dasharray="5,2" d="M245.39,-274C224.26,-265.78 198.72,-255.64 176,-246 173.15,-244.79 170.22,-243.53 167.27,-242.24"/>
<polygon fill="black" stroke="black" points="168.43,-238.92 157.87,-238.07 165.59,-245.32 168.43,-238.92"/>
</a>
</g>
</g>
<!-- jetsam.py -->
<g id="node10" class="node">
<title>jetsam.py</title>
<g id="a_node10"><a xlink:href="../reference.html#module-graphtik.jetsam" xlink:title="utility to annotate exceptions in case of failures" target="_top">
<polygon fill="white" stroke="black" points="360,-75 274,-75 274,-71 270,-71 270,-67 274,-67 274,-47 270,-47 270,-43 274,-43 274,-39 360,-39 360,-75"/>
<polyline fill="none" stroke="black" points="274,-71 278,-71 278,-67 274,-67 "/>
<polyline fill="none" stroke="black" points="274,-47 278,-47 278,-43 274,-43 "/>
<text text-anchor="middle" x="317" y="-53.3" font-family="Times,serif" font-size="14.00">jetsam.py</text>
</a>
</g>
</g>
<!-- pipeline.py&#45;&gt;jetsam.py -->
<g id="edge2" class="edge">
<title>pipeline.py&#45;&gt;jetsam.py</title>
<g id="a_edge2"><a xlink:title="(run&#45;time)" target="_top">
<path fill="none" stroke="black" stroke-dasharray="5,2" d="M291.99,-273.87C296.63,-233.81 308.22,-133.75 313.84,-85.23"/>
<polygon fill="black" stroke="black" points="317.34,-85.49 315.01,-75.16 310.38,-84.69 317.34,-85.49"/>
</a>
</g>
</g>
<!-- fnop.py -->
<g id="node4" class="node">
<title>fnop.py</title>
<g id="a_node4"><a xlink:href="../reference.html#module-graphtik.fnop" xlink:title="(public)" target="_top">
<polygon fill="wheat" stroke="black" points="452,-382 382,-382 382,-378 378,-378 378,-374 382,-374 382,-354 378,-354 378,-350 382,-350 382,-346 452,-346 452,-382"/>
<polyline fill="none" stroke="black" points="382,-378 386,-378 386,-374 382,-374 "/>
<polyline fill="none" stroke="black" points="382,-354 386,-354 386,-350 382,-350 "/>
<text text-anchor="middle" x="417" y="-360.3" font-family="Times,serif" font-size="14.00">fnop.py</text>
</a>
</g>
</g>
<!-- fnop.py&#45;&gt;pipeline.py -->
<g id="edge9" class="edge">
<title>fnop.py&#45;&gt;pipeline.py</title>
<g id="a_edge9"><a xlink:title="(run&#45;time) just for plotting" target="_top">
<path fill="none" stroke="black" stroke-dasharray="5,2" d="M385.93,-345.88C369.17,-336.64 348.29,-325.13 330.3,-315.21"/>
<polygon fill="black" stroke="black" points="331.63,-311.95 321.19,-310.19 328.26,-318.08 331.63,-311.95"/>
</a>
</g>
</g>
<!-- fnop.py&#45;&gt;jetsam.py -->
<g id="edge3" class="edge">
<title>fnop.py&#45;&gt;jetsam.py</title>
<g id="a_edge3"><a xlink:title="(run&#45;time)" target="_top">
<path fill="none" stroke="black" stroke-dasharray="5,2" d="M413.98,-345.8C405.88,-301.83 381.31,-182.39 339,-91 337.91,-88.65 336.67,-86.28 335.34,-83.94"/>
<polygon fill="black" stroke="black" points="338.17,-81.87 329.93,-75.22 332.23,-85.56 338.17,-81.87"/>
</a>
</g>
</g>
<!-- jsonpointer.py -->
<g id="node11" class="node">
<title>jsonpointer.py</title>
<g id="a_node11"><a xlink:href="../reference.html#module-graphtik.jsonpointer" xlink:title="json&#45;pointer parsing utils" target="_top">
<polygon fill="white" stroke="black" points="518,-75 400,-75 400,-71 396,-71 396,-67 400,-67 400,-47 396,-47 396,-43 400,-43 400,-39 518,-39 518,-75"/>
<polyline fill="none" stroke="black" points="400,-71 404,-71 404,-67 400,-67 "/>
<polyline fill="none" stroke="black" points="400,-47 404,-47 404,-43 400,-43 "/>
<text text-anchor="middle" x="459" y="-53.3" font-family="Times,serif" font-size="14.00">jsonpointer.py</text>
</a>
</g>
</g>
<!-- fnop.py&#45;&gt;jsonpointer.py -->
<g id="edge10" class="edge">
<title>fnop.py&#45;&gt;jsonpointer.py</title>
<g id="a_edge10"><a xlink:title="(run&#45;time)" target="_top">
<path fill="none" stroke="black" stroke-dasharray="5,2" d="M421.77,-345.93C424.51,-335.6 427.82,-322.12 430,-310 444.55,-228.94 453.32,-131.83 456.99,-85.38"/>
<polygon fill="black" stroke="black" points="460.49,-85.46 457.77,-75.22 453.51,-84.92 460.49,-85.46"/>
</a>
</g>
</g>
<!-- modifiers.py -->
<g id="node5" class="node">
<title>modifiers.py</title>
<g id="a_node5"><a xlink:href="../reference.html#module-graphtik.modifiers" xlink:title="(public) almost everything imports this module (not&#45;shown)" target="_top">
<polygon fill="wheat" stroke="black" stroke-width="3" points="598,-382 492,-382 492,-378 488,-378 488,-374 492,-374 492,-354 488,-354 488,-350 492,-350 492,-346 598,-346 598,-382"/>
<polyline fill="none" stroke="black" stroke-width="3" points="492,-378 496,-378 496,-374 492,-374 "/>
<polyline fill="none" stroke="black" stroke-width="3" points="492,-354 496,-354 496,-350 492,-350 "/>
<text text-anchor="middle" x="545" y="-360.3" font-family="Times,serif" font-size="14.00">modifiers.py</text>
</a>
</g>
</g>
<!-- modifiers.py&#45;&gt;jsonpointer.py -->
<g id="edge11" class="edge">
<title>modifiers.py&#45;&gt;jsonpointer.py</title>
<g id="a_edge11"><a xlink:title="(run&#45;time)" target="_top">
<path fill="none" stroke="black" stroke-dasharray="5,2" d="M543.7,-345.95C539.82,-301.86 525.86,-181.21 484,-91 482.89,-88.6 481.58,-86.22 480.16,-83.88"/>
<polygon fill="black" stroke="black" points="482.79,-81.53 474.25,-75.26 477.01,-85.48 482.79,-81.53"/>
</a>
</g>
</g>
<!-- execution.py -->
<g id="node7" class="node">
<title>execution.py</title>
<g id="a_node7"><a xlink:href="../reference.html#module-graphtik.execution" xlink:title="(private)" target="_top">
<polygon fill="AliceBlue" stroke="black" points="173.5,-166 66.5,-166 66.5,-162 62.5,-162 62.5,-158 66.5,-158 66.5,-138 62.5,-138 62.5,-134 66.5,-134 66.5,-130 173.5,-130 173.5,-166"/>
<polyline fill="none" stroke="black" points="66.5,-162 70.5,-162 70.5,-158 66.5,-158 "/>
<polyline fill="none" stroke="black" points="66.5,-138 70.5,-138 70.5,-134 66.5,-134 "/>
<text text-anchor="middle" x="120" y="-144.3" font-family="Times,serif" font-size="14.00">execution.py</text>
</a>
</g>
</g>
<!-- planning.py&#45;&gt;execution.py -->
<g id="edge7" class="edge">
<title>planning.py&#45;&gt;execution.py</title>
<g id="a_edge7"><a xlink:title="(run&#45;time)" target="_top">
<path fill="none" stroke="black" stroke-dasharray="5,2" d="M107.61,-201.7C105.73,-193.98 105.09,-184.71 105.73,-176.11"/>
<polygon fill="black" stroke="black" points="109.21,-176.5 107.14,-166.1 102.28,-175.52 109.21,-176.5"/>
</a>
</g>
</g>
<!-- planning.py&#45;&gt;jetsam.py -->
<g id="edge4" class="edge">
<title>planning.py&#45;&gt;jetsam.py</title>
<g id="a_edge4"><a xlink:title="(run&#45;time)" target="_top">
<path fill="none" stroke="black" stroke-dasharray="5,2" d="M147.41,-201.92C161.78,-192.12 179.52,-179.18 194,-166 226.83,-136.11 225.67,-119.16 260,-91 264.53,-87.28 269.53,-83.73 274.63,-80.43"/>
<polygon fill="black" stroke="black" points="276.57,-83.35 283.25,-75.12 272.9,-77.39 276.57,-83.35"/>
</a>
</g>
</g>
<!-- execution.py&#45;&gt;planning.py -->
<g id="edge6" class="edge">
<title>execution.py&#45;&gt;planning.py</title>
<g id="a_edge6"><a xlink:title="(import&#45;time)" target="_top">
<path fill="none" stroke="black" d="M133.34,-166.1C135.24,-173.79 135.9,-183.05 135.29,-191.67"/>
<polygon fill="black" stroke="black" points="131.8,-191.31 133.9,-201.7 138.73,-192.27 131.8,-191.31"/>
</a>
</g>
</g>
<!-- execution.py&#45;&gt;jetsam.py -->
<g id="edge5" class="edge">
<title>execution.py&#45;&gt;jetsam.py</title>
<g id="a_edge5"><a xlink:title="(run&#45;time)" target="_top">
<path fill="none" stroke="black" stroke-dasharray="5,2" d="M141.72,-129.83C158.06,-117.59 181.44,-101.51 204,-91 222.85,-82.22 244.57,-75.2 263.9,-69.94"/>
<polygon fill="black" stroke="black" points="264.98,-73.27 273.76,-67.34 263.2,-66.5 264.98,-73.27"/>
</a>
</g>
</g>
<!-- execution.py&#45;&gt;jsonpointer.py -->
<g id="edge12" class="edge">
<title>execution.py&#45;&gt;jsonpointer.py</title>
<g id="a_edge12"><a xlink:title="(run&#45;time)" target="_top">
<path fill="none" stroke="black" stroke-dasharray="5,2" d="M132.09,-129.85C142.54,-116.58 158.95,-99.14 178,-91 198.66,-82.18 357.87,-86.87 380,-83 387.39,-81.71 395.05,-79.91 402.56,-77.85"/>
<polygon fill="black" stroke="black" points="403.67,-81.17 412.31,-75.03 401.73,-74.45 403.67,-81.17"/>
</a>
</g>
</g>
<!-- base.py -->
<g id="node8" class="node">
<title>base.py</title>
<g id="a_node8"><a xlink:href="../reference.html#module-graphtik.base" xlink:title="(implicit) everything imports this module (not shown)" target="_top">
<polygon fill="wheat" stroke="black" stroke-width="4" points="341.5,-382 270.5,-382 270.5,-378 266.5,-378 266.5,-374 270.5,-374 270.5,-354 266.5,-354 266.5,-350 270.5,-350 270.5,-346 341.5,-346 341.5,-382"/>
<polyline fill="none" stroke="black" stroke-width="4" points="270.5,-378 274.5,-378 274.5,-374 270.5,-374 "/>
<polyline fill="none" stroke="black" stroke-width="4" points="270.5,-354 274.5,-354 274.5,-350 270.5,-350 "/>
<text text-anchor="middle" x="306" y="-360.3" font-family="Times,serif" font-size="14.00">base.py</text>
</a>
</g>
</g>
<!-- base.py&#45;&gt;plot.py -->
<g id="edge1" class="edge">
<title>base.py&#45;&gt;plot.py</title>
<g id="a_edge1"><a xlink:title="(run&#45;time)" target="_top">
<path fill="none" stroke="black" stroke-dasharray="5,2" d="M270.41,-346.37C263.69,-343.44 256.67,-340.52 250,-338 216.58,-325.37 177.89,-313.42 149.03,-305.01"/>
<polygon fill="black" stroke="black" points="149.84,-301.6 139.26,-302.19 147.9,-308.33 149.84,-301.6"/>
</a>
</g>
</g>
<!-- config.py -->
<g id="node9" class="node">
<title>config.py</title>
<g id="a_node9"><a xlink:href="../reference.html#module-graphtik.config" xlink:title="(public) almost everything import this module (not shown)" target="_top">
<polygon fill="wheat" stroke="black" stroke-width="4" points="230,-382 148,-382 148,-378 144,-378 144,-374 148,-374 148,-354 144,-354 144,-350 148,-350 148,-346 230,-346 230,-382"/>
<polyline fill="none" stroke="black" stroke-width="4" points="148,-378 152,-378 152,-374 148,-374 "/>
<polyline fill="none" stroke="black" stroke-width="4" points="148,-354 152,-354 152,-350 148,-350 "/>
<text text-anchor="middle" x="189" y="-360.3" font-family="Times,serif" font-size="14.00">config.py</text>
</a>
</g>
</g>
</g>
</svg>
