<?xml version="1.0" encoding="UTF-8" standalone="no"?>
<!DOCTYPE svg PUBLIC "-//W3C//DTD SVG 1.1//EN"
 "http://www.w3.org/Graphics/SVG/1.1/DTD/svg11.dtd">
<!-- Generated by graphviz version 2.43.0 (0)
 -->
<!-- Title: %3 Pages: 1 -->
<svg width="441pt" height="289pt"
 viewBox="0.00 0.00 441.00 289.00" xmlns="http://www.w3.org/2000/svg" xmlns:xlink="http://www.w3.org/1999/xlink">
<g id="graph0" class="graph" transform="scale(1 1) rotate(0) translate(4 285)">
<title>%3</title>
<polygon fill="white" stroke="transparent" points="-4,4 -4,-285 437,-285 437,4 -4,4"/>
<text text-anchor="middle" x="216.5" y="-265.8" font-family="Times,serif" font-size="14.00">graphtik&#45;v8.3.1+ module dependencies</text>
<g id="clust1" class="cluster">
<title>cluster_base</title>
<g id="a_clust1"><a xlink:title="almost all other modules depend on these">
<polygon fill="none" stroke="black" points="48.5,-8 48.5,-83 404.5,-83 404.5,-8 48.5,-8"/>
<text text-anchor="middle" x="226.5" y="-15.8" font-family="Times,serif" font-size="14.00">base</text>
</a>
</g>
</g>
<g id="clust2" class="cluster">
<title>cluster_network</title>
<g id="a_clust2"><a xlink:href="arch.html#term-execution" xlink:title="related to graph solution">
<polygon fill="none" stroke="black" points="127.5,-103 127.5,-250 249.5,-250 249.5,-103 127.5,-103"/>
<text text-anchor="middle" x="188.5" y="-234.8" font-family="Times,serif" font-size="14.00">core modules</text>
</a>
</g>
</g>
<!-- plot.py -->
<g id="node1" class="node">
<title>plot.py</title>
<g id="a_node1"><a xlink:href="reference.html#module-graphtik.plot" xlink:title="(extra)">
<polygon fill="Aquamarine" stroke="black" points="420.5,-147 354.5,-147 354.5,-143 350.5,-143 350.5,-139 354.5,-139 354.5,-119 350.5,-119 350.5,-115 354.5,-115 354.5,-111 420.5,-111 420.5,-147"/>
<polyline fill="none" stroke="black" points="354.5,-143 358.5,-143 358.5,-139 354.5,-139 "/>
<polyline fill="none" stroke="black" points="354.5,-119 358.5,-119 358.5,-115 354.5,-115 "/>
<text text-anchor="middle" x="387.5" y="-125.3" font-family="Times,serif" font-size="14.00">plot.py</text>
</a>
</g>
</g>
<!-- base.py -->
<g id="node4" class="node">
<title>base.py</title>
<g id="a_node4"><a xlink:href="reference.html#module-graphtik.base" xlink:title="(implicit) everything imports this module, not shown">
<polygon fill="wheat" stroke="black" points="274,-75 203,-75 203,-71 199,-71 199,-67 203,-67 203,-47 199,-47 199,-43 203,-43 203,-39 274,-39 274,-75"/>
<polyline fill="none" stroke="black" points="203,-71 207,-71 207,-67 203,-67 "/>
<polyline fill="none" stroke="black" points="203,-47 207,-47 207,-43 203,-43 "/>
<text text-anchor="middle" x="238.5" y="-53.3" font-family="Times,serif" font-size="14.00">base.py</text>
</a>
</g>
</g>
<!-- plot.py&#45;&gt;base.py -->
<g id="edge4" class="edge">
<title>plot.py:sw&#45;&gt;base.py:n</title>
<g id="a_edge4"><a xlink:title="(import&#45;time)">
<path fill="none" stroke="black" d="M369.5,-110C329.71,-70.21 249.71,-127.76 239.57,-86.09"/>
<polygon fill="black" stroke="black" points="243.03,-85.58 238.5,-76 236.07,-86.31 243.03,-85.58"/>
</a>
</g>
</g>
<!-- sphinxext/ -->
<g id="node2" class="node">
<title>sphinxext/</title>
<g id="a_node2"><a xlink:href="reference.html#module-graphtik.sphinxext" xlink:title="(extra)">
<polygon fill="Aquamarine" stroke="black" points="433,-219 342,-219 342,-215 338,-215 338,-211 342,-211 342,-191 338,-191 338,-187 342,-187 342,-183 433,-183 433,-219"/>
<polyline fill="none" stroke="black" points="342,-215 346,-215 346,-211 342,-211 "/>
<polyline fill="none" stroke="black" points="342,-191 346,-191 346,-187 342,-187 "/>
<text text-anchor="middle" x="387.5" y="-197.3" font-family="Times,serif" font-size="14.00">sphinxext/</text>
</a>
</g>
</g>
<!-- sphinxext/&#45;&gt;plot.py -->
<g id="edge12" class="edge">
<title>sphinxext/:s&#45;&gt;plot.py:n</title>
<g id="a_edge12"><a xlink:title="(import&#45;time)">
<path fill="none" stroke="black" d="M387.5,-183C387.5,-171 387.5,-165.75 387.5,-157.12"/>
<polygon fill="black" stroke="black" points="391,-157 387.5,-147 384,-157 391,-157"/>
</a>
</g>
</g>
<!-- config.py -->
<g id="node3" class="node">
<title>config.py</title>
<g id="a_node3"><a xlink:href="reference.html#module-graphtik.config" xlink:title="(public) almost everything import this module">
<polygon fill="wheat" stroke="black" points="396.5,-75 314.5,-75 314.5,-71 310.5,-71 310.5,-67 314.5,-67 314.5,-47 310.5,-47 310.5,-43 314.5,-43 314.5,-39 396.5,-39 396.5,-75"/>
<polyline fill="none" stroke="black" points="314.5,-71 318.5,-71 318.5,-67 314.5,-67 "/>
<polyline fill="none" stroke="black" points="314.5,-47 318.5,-47 318.5,-43 314.5,-43 "/>
<text text-anchor="middle" x="355.5" y="-53.3" font-family="Times,serif" font-size="14.00">config.py</text>
</a>
</g>
</g>
<!-- base.py&#45;&gt;plot.py -->
<g id="edge6" class="edge">
<title>base.py&#45;&gt;plot.py:s</title>
<g id="a_edge6"><a xlink:title="(run&#45;time)">
<path fill="none" stroke="black" stroke-dasharray="5,2" d="M274.05,-74.75C280.77,-77.66 287.8,-80.55 294.5,-83 331.12,-96.42 377.75,-72.34 386.17,-99.74"/>
<polygon fill="black" stroke="black" points="382.74,-100.53 387.5,-110 389.68,-99.63 382.74,-100.53"/>
</a>
</g>
</g>
<!-- modifiers.py -->
<g id="node5" class="node">
<title>modifiers.py</title>
<g id="a_node5"><a xlink:href="reference.html#module-graphtik.modifiers" xlink:title="(public) almost everything imports this module">
<polygon fill="wheat" stroke="black" points="162.5,-75 56.5,-75 56.5,-71 52.5,-71 52.5,-67 56.5,-67 56.5,-47 52.5,-47 52.5,-43 56.5,-43 56.5,-39 162.5,-39 162.5,-75"/>
<polyline fill="none" stroke="black" points="56.5,-71 60.5,-71 60.5,-67 56.5,-67 "/>
<polyline fill="none" stroke="black" points="56.5,-47 60.5,-47 60.5,-43 56.5,-43 "/>
<text text-anchor="middle" x="109.5" y="-53.3" font-family="Times,serif" font-size="14.00">modifiers.py</text>
</a>
</g>
</g>
<!-- pipeline.py -->
<g id="node6" class="node">
<title>pipeline.py</title>
<g id="a_node6"><a xlink:href="reference.html#module-graphtik.pipeline" xlink:title="(public)">
<polygon fill="wheat" stroke="black" points="95,-219 0,-219 0,-215 -4,-215 -4,-211 0,-211 0,-191 -4,-191 -4,-187 0,-187 0,-183 95,-183 95,-219"/>
<polyline fill="none" stroke="black" points="0,-215 4,-215 4,-211 0,-211 "/>
<polyline fill="none" stroke="black" points="0,-191 4,-191 4,-187 0,-187 "/>
<text text-anchor="middle" x="47.5" y="-197.3" font-family="Times,serif" font-size="14.00">pipeline.py</text>
</a>
</g>
</g>
<!-- pipeline.py&#45;&gt;base.py -->
<g id="edge5" class="edge">
<title>pipeline.py:sw&#45;&gt;base.py:n</title>
<g id="a_edge5"><a xlink:title="(import&#45;time)">
<path fill="none" stroke="black" d="M29.5,-183C4.12,-157.62 -5.29,-129.87 18.5,-103 48.6,-69 210.17,-116.6 235.23,-85.66"/>
<polygon fill="black" stroke="black" points="238.61,-86.59 238.5,-76 231.98,-84.35 238.61,-86.59"/>
</a>
</g>
</g>
<!-- op.py -->
<g id="node7" class="node">
<title>op.py</title>
<g id="a_node7"><a xlink:href="reference.html#module-graphtik.op" xlink:title="(public)">
<polygon fill="wheat" stroke="black" points="94.5,-147 38.5,-147 38.5,-143 34.5,-143 34.5,-139 38.5,-139 38.5,-119 34.5,-119 34.5,-115 38.5,-115 38.5,-111 94.5,-111 94.5,-147"/>
<polyline fill="none" stroke="black" points="38.5,-143 42.5,-143 42.5,-139 38.5,-139 "/>
<polyline fill="none" stroke="black" points="38.5,-119 42.5,-119 42.5,-115 38.5,-115 "/>
<text text-anchor="middle" x="66.5" y="-125.3" font-family="Times,serif" font-size="14.00">op.py</text>
</a>
</g>
</g>
<!-- pipeline.py&#45;&gt;op.py -->
<g id="edge10" class="edge">
<title>pipeline.py&#45;&gt;op.py</title>
<g id="a_edge10"><a xlink:title="(run&#45;time)">
<path fill="none" stroke="black" stroke-dasharray="5,2" d="M39.05,-182.7C39.38,-174.81 41.48,-165.3 44.69,-156.55"/>
<polygon fill="black" stroke="black" points="48.02,-157.67 48.76,-147.1 41.59,-154.9 48.02,-157.67"/>
</a>
</g>
</g>
<!-- network.py -->
<g id="node9" class="node">
<title>network.py</title>
<g id="a_node9"><a xlink:href="reference.html#module-graphtik.network" xlink:title="(private)">
<polygon fill="AliceBlue" stroke="black" points="232,-147 135,-147 135,-143 131,-143 131,-139 135,-139 135,-119 131,-119 131,-115 135,-115 135,-111 232,-111 232,-147"/>
<polyline fill="none" stroke="black" points="135,-143 139,-143 139,-139 135,-139 "/>
<polyline fill="none" stroke="black" points="135,-119 139,-119 139,-115 135,-115 "/>
<text text-anchor="middle" x="183.5" y="-125.3" font-family="Times,serif" font-size="14.00">network.py</text>
</a>
</g>
</g>
<!-- pipeline.py&#45;&gt;network.py -->
<g id="edge11" class="edge">
<title>pipeline.py&#45;&gt;network.py</title>
<g id="a_edge11"><a xlink:title="(run&#45;time)">
<path fill="none" stroke="black" stroke-dasharray="5,2" d="M80.77,-182.88C98.96,-173.51 121.69,-161.81 141.14,-151.8"/>
<polygon fill="black" stroke="black" points="142.81,-154.88 150.1,-147.19 139.61,-148.65 142.81,-154.88"/>
</a>
</g>
</g>
<!-- op.py&#45;&gt;base.py -->
<g id="edge1" class="edge">
<title>op.py:s&#45;&gt;base.py:n</title>
<g id="a_edge1"><a xlink:title="(import&#45;time)">
<path fill="none" stroke="black" d="M66.5,-110C66.5,-74.84 206.55,-107.17 233.9,-85.2"/>
<polygon fill="black" stroke="black" points="237.16,-86.51 238.5,-76 230.9,-83.38 237.16,-86.51"/>
</a>
</g>
</g>
<!-- op.py&#45;&gt;pipeline.py -->
<g id="edge9" class="edge">
<title>op.py&#45;&gt;pipeline.py</title>
<g id="a_edge9"><a xlink:title="(run&#45;time) for plotting">
<path fill="none" stroke="black" stroke-dasharray="5,2" d="M74.96,-147.1C74.65,-154.96 72.58,-164.46 69.39,-173.23"/>
<polygon fill="black" stroke="black" points="66.06,-172.13 65.34,-182.7 72.49,-174.88 66.06,-172.13"/>
</a>
</g>
</g>
<!-- execution.py -->
<g id="node8" class="node">
<title>execution.py</title>
<g id="a_node8"><a xlink:href="reference.html#module-graphtik.execution" xlink:title="(private)">
<polygon fill="AliceBlue" stroke="black" points="242,-219 135,-219 135,-215 131,-215 131,-211 135,-211 135,-191 131,-191 131,-187 135,-187 135,-183 242,-183 242,-219"/>
<polyline fill="none" stroke="black" points="135,-215 139,-215 139,-211 135,-211 "/>
<polyline fill="none" stroke="black" points="135,-191 139,-191 139,-187 135,-187 "/>
<text text-anchor="middle" x="188.5" y="-197.3" font-family="Times,serif" font-size="14.00">execution.py</text>
</a>
</g>
</g>
<!-- execution.py&#45;&gt;base.py -->
<g id="edge3" class="edge">
<title>execution.py:se&#45;&gt;base.py:n</title>
<g id="a_edge3"><a xlink:title="(import&#45;time)">
<path fill="none" stroke="black" d="M206.5,-183C224.86,-164.64 241.13,-170.34 252.5,-147 261.07,-129.42 257.13,-122 252.5,-103 250.35,-94.18 244.77,-91.12 241.34,-85.97"/>
<polygon fill="black" stroke="black" points="244.6,-84.66 238.5,-76 237.87,-86.58 244.6,-84.66"/>
</a>
</g>
</g>
<!-- execution.py&#45;&gt;network.py -->
<g id="edge7" class="edge">
<title>execution.py&#45;&gt;network.py</title>
<g id="a_edge7"><a xlink:title="(import&#45;time)">
<path fill="none" stroke="black" d="M174.12,-182.7C171.8,-174.98 170.63,-165.71 170.78,-157.11"/>
<polygon fill="black" stroke="black" points="174.27,-157.36 171.62,-147.1 167.3,-156.78 174.27,-157.36"/>
</a>
</g>
</g>
<!-- network.py&#45;&gt;base.py -->
<g id="edge2" class="edge">
<title>network.py:s&#45;&gt;base.py:n</title>
<g id="a_edge2"><a xlink:title="(import&#45;time)">
<path fill="none" stroke="black" d="M183.5,-110C183.5,-85.53 223.38,-98.92 235.22,-85.69"/>
<polygon fill="black" stroke="black" points="238.61,-86.59 238.5,-76 231.98,-84.35 238.61,-86.59"/>
</a>
</g>
</g>
<!-- network.py&#45;&gt;execution.py -->
<g id="edge8" class="edge">
<title>network.py&#45;&gt;execution.py</title>
<g id="a_edge8"><a xlink:title="(run&#45;time)">
<path fill="none" stroke="black" stroke-dasharray="5,2" d="M197.82,-147.1C200.16,-154.79 201.35,-164.05 201.22,-172.67"/>
<polygon fill="black" stroke="black" points="197.73,-172.45 200.41,-182.7 204.71,-173.01 197.73,-172.45"/>
</a>
</g>
</g>
</g>
</svg>
