<?xml version="1.0" encoding="UTF-8" standalone="no"?>
<!DOCTYPE svg PUBLIC "-//W3C//DTD SVG 1.1//EN"
 "http://www.w3.org/Graphics/SVG/1.1/DTD/svg11.dtd">
<!-- Generated by graphviz version 2.43.0 (0)
 -->
<!-- Title: solution_x9_nodes Pages: 1 -->
<svg width="268pt" height="359pt"
 viewBox="0.00 0.00 267.50 359.00" xmlns="http://www.w3.org/2000/svg" xmlns:xlink="http://www.w3.org/1999/xlink">
<g id="graph0" class="graph" transform="scale(1 1) rotate(0) translate(4 355)">
<title>solution_x9_nodes</title>
<g id="a_graph0"><a xlink:href="graphtik-composition--15.svg" target="_blank">
<polygon fill="white" stroke="transparent" points="-4,4 -4,-355 263.5,-355 263.5,4 -4,4"/>
</a>
</g>
<!-- quarantine -->
<g id="node1" class="node">
<title>quarantine</title>
<g id="a_node1"><a xlink:title="(bool) True">
<polygon fill="wheat" stroke="black" points="63.42,-327.44 120,-315 176.58,-327.44 176.53,-347.56 63.47,-347.56 63.42,-327.44"/>
<text text-anchor="middle" x="120" y="-329.3" font-family="Times,serif" font-size="14.00">quarantine</text>
</a>
</g>
</g>
<!-- get_out_or_stay_home -->
<g id="node2" class="node">
<title>get_out_or_stay_home</title>
<g id="a_node2"><a xlink:title="get_out_or_stay_home">
<path fill="wheat" stroke="transparent" d="M14,-224C14,-224 226,-224 226,-224 232,-224 238,-230 238,-236 238,-236 238,-265 238,-265 238,-271 232,-277 226,-277 226,-277 14,-277 14,-277 8,-277 2,-271 2,-265 2,-265 2,-236 2,-236 2,-230 8,-224 14,-224"/>
<g id="a_node2_0"><a xlink:title="FunctionalOperation?(name=&#39;get_out_or_stay_home&#39;, needs=[&#39;quarantine&#39;], provides=[&#39;space&#39;, &#39;time&#39;], fn{}=&#39;get_out_or_stay_home&#39;)" target="_top">
<polyline fill="none" stroke="black" points="4,-244.5 201,-244.5 "/>
<text text-anchor="start" x="7" y="-256.8" font-family="Times,serif" font-weight="bold" font-size="14.00">OP:</text>
<text text-anchor="start" x="35" y="-256.8" font-family="Times,serif" font-size="14.00"> </text>
<text text-anchor="start" x="40" y="-256.8" font-family="Times,serif" font-style="italic" font-size="14.00">get_out_or_stay_home</text>
</a>
</g>
<polyline fill="none" stroke="black" points="201,-244.5 236,-244.5 "/>
<g id="a_node2_1"><a xlink:title="rescheduled(?)" target="_self">
<path fill="#fc89ac" stroke="transparent" d="M209.33,-248.5C209.33,-248.5 213.67,-248.5 213.67,-248.5 215.83,-248.5 218,-250.67 218,-252.83 218,-252.83 218,-266.17 218,-266.17 218,-268.33 215.83,-270.5 213.67,-270.5 213.67,-270.5 209.33,-270.5 209.33,-270.5 207.17,-270.5 205,-268.33 205,-266.17 205,-266.17 205,-252.83 205,-252.83 205,-250.67 207.17,-248.5 209.33,-248.5"/>
<text text-anchor="start" x="207" y="-255.3" font-family="monospace" font-weight="bold" font-size="14.00" fill="white">R</text>
</a>
</g>
<g id="a_node2_2"><a xlink:title="returns_dict({})" target="_self">
<path fill="#cc5500" stroke="transparent" d="M223.33,-248.5C223.33,-248.5 227.67,-248.5 227.67,-248.5 229.83,-248.5 232,-250.67 232,-252.83 232,-252.83 232,-266.17 232,-266.17 232,-268.33 229.83,-270.5 227.67,-270.5 227.67,-270.5 223.33,-270.5 223.33,-270.5 221.17,-270.5 219,-268.33 219,-266.17 219,-266.17 219,-252.83 219,-252.83 219,-250.67 221.17,-248.5 223.33,-248.5"/>
<text text-anchor="start" x="221" y="-255.3" font-family="monospace" font-weight="bold" font-size="14.00" fill="white">D</text>
</a>
</g>
<g id="a_node2_3"><a xlink:href="../reference.html#get_out_or_stay_home" xlink:title="get_out_or_stay_home" target="_top">
<text text-anchor="start" x="6" y="-232.3" font-family="Times,serif" font-weight="bold" font-size="14.00">FN:</text>
<text text-anchor="start" x="34" y="-232.3" font-family="Times,serif" font-size="14.00"> get_out_or_stay_home</text>
</a>
</g>
<path fill="none" stroke="black" stroke-width="4" d="M14,-224C14,-224 226,-224 226,-224 232,-224 238,-230 238,-236 238,-236 238,-265 238,-265 238,-271 232,-277 226,-277 226,-277 14,-277 14,-277 8,-277 2,-271 2,-265 2,-265 2,-236 2,-236 2,-230 8,-224 14,-224"/>
</a>
</g>
</g>
<!-- quarantine&#45;&gt;get_out_or_stay_home -->
<g id="edge1" class="edge">
<title>quarantine&#45;&gt;get_out_or_stay_home</title>
<path fill="none" stroke="black" d="M120,-314.93C120,-307.5 120,-298.47 120,-289.58"/>
<polygon fill="black" stroke="black" points="123.5,-289.32 120,-279.32 116.5,-289.32 123.5,-289.32"/>
</g>
<!-- space -->
<g id="node3" class="node">
<title>space</title>
<g id="a_node3"><a xlink:title="(canceled)">
<polygon fill="#a9a9a9" stroke="black" points="113.3,-173.56 83,-186 52.7,-173.56 52.73,-153.44 113.27,-153.44 113.3,-173.56"/>
<text text-anchor="middle" x="83" y="-164.3" font-family="Times,serif" font-size="14.00">space</text>
</a>
</g>
</g>
<!-- get_out_or_stay_home&#45;&gt;space -->
<g id="edge2" class="edge">
<title>get_out_or_stay_home&#45;&gt;space</title>
<path fill="none" stroke="Red" stroke-dasharray="5,2" d="M107.27,-221.8C102.91,-212.31 98.07,-201.79 93.87,-192.66"/>
<polygon fill="Red" stroke="Red" points="96.98,-191.02 89.62,-183.4 90.62,-193.95 96.98,-191.02"/>
</g>
<!-- time -->
<g id="node4" class="node">
<title>time</title>
<g id="a_node4"><a xlink:title="(str) 1h">
<polygon fill="wheat" stroke="black" points="199,-173.56 172,-186 145,-173.56 145.03,-153.44 198.97,-153.44 199,-173.56"/>
<text text-anchor="middle" x="172" y="-164.3" font-family="Times,serif" font-size="14.00">time</text>
</a>
</g>
</g>
<!-- get_out_or_stay_home&#45;&gt;time -->
<g id="edge3" class="edge">
<title>get_out_or_stay_home&#45;&gt;time</title>
<path fill="none" stroke="black" stroke-dasharray="5,2" d="M137.9,-221.8C144.4,-211.73 151.65,-200.51 157.79,-191"/>
<polygon fill="black" stroke="black" points="160.79,-192.81 163.27,-182.51 154.91,-189.01 160.79,-192.81"/>
</g>
<!-- exercise -->
<g id="node5" class="node">
<title>exercise</title>
<g id="a_node5"><a xlink:title="exercise">
<path fill="#a9a9a9" stroke="transparent" d="M13.5,-72C13.5,-72 96.5,-72 96.5,-72 102.5,-72 108.5,-78 108.5,-84 108.5,-84 108.5,-102 108.5,-102 108.5,-108 102.5,-114 96.5,-114 96.5,-114 13.5,-114 13.5,-114 7.5,-114 1.5,-108 1.5,-102 1.5,-102 1.5,-84 1.5,-84 1.5,-78 7.5,-72 13.5,-72"/>
<g id="a_node5_4"><a xlink:title="FunctionalOperation(name=&#39;exercise&#39;, needs=[&#39;space&#39;], provides=[&#39;fun&#39;, &#39;body&#39;], fn=&#39;exercise&#39;)" target="_top">
<polyline fill="none" stroke="black" points="3,-92 102,-92 "/>
<text text-anchor="start" x="6" y="-99.8" font-family="Times,serif" font-weight="bold" font-size="14.00">OP:</text>
<text text-anchor="start" x="34" y="-99.8" font-family="Times,serif" font-size="14.00"> </text>
<text text-anchor="start" x="39" y="-99.8" font-family="Times,serif" font-style="italic" font-size="14.00">exercise</text>
</a>
</g>
<polyline fill="none" stroke="black" points="102,-92 108,-92 "/>
<g id="a_node5_5"><a xlink:href="../reference.html#exercise" xlink:title="exercise" target="_top">
<text text-anchor="start" x="5" y="-79.8" font-family="Times,serif" font-weight="bold" font-size="14.00">FN:</text>
<text text-anchor="start" x="33" y="-79.8" font-family="Times,serif" font-size="14.00"> exercise</text>
</a>
</g>
<path fill="none" stroke="black" d="M13.5,-72C13.5,-72 96.5,-72 96.5,-72 102.5,-72 108.5,-78 108.5,-84 108.5,-84 108.5,-102 108.5,-102 108.5,-108 102.5,-114 96.5,-114 96.5,-114 13.5,-114 13.5,-114 7.5,-114 1.5,-108 1.5,-102 1.5,-102 1.5,-84 1.5,-84 1.5,-78 7.5,-72 13.5,-72"/>
</a>
</g>
</g>
<!-- space&#45;&gt;exercise -->
<g id="edge4" class="edge">
<title>space&#45;&gt;exercise</title>
<path fill="none" stroke="black" d="M77.73,-153.27C74.52,-144.88 70.27,-133.82 66.33,-123.53"/>
<polygon fill="black" stroke="black" points="69.52,-122.09 62.68,-114.01 62.99,-124.6 69.52,-122.09"/>
</g>
<!-- read_book -->
<g id="node8" class="node">
<title>read_book</title>
<g id="a_node8"><a xlink:title="read_book">
<path fill="wheat" stroke="transparent" d="M139,-72C139,-72 235,-72 235,-72 241,-72 247,-78 247,-84 247,-84 247,-102 247,-102 247,-108 241,-114 235,-114 235,-114 139,-114 139,-114 133,-114 127,-108 127,-102 127,-102 127,-84 127,-84 127,-78 133,-72 139,-72"/>
<g id="a_node8_6"><a xlink:title="FunctionalOperation(name=&#39;read_book&#39;, needs=[&#39;time&#39;], provides=[&#39;fun&#39;, &#39;brain&#39;], fn=&#39;read_book&#39;)" target="_top">
<polyline fill="none" stroke="black" points="128,-92 240,-92 "/>
<text text-anchor="start" x="131" y="-99.8" font-family="Times,serif" font-weight="bold" font-size="14.00">OP:</text>
<text text-anchor="start" x="159" y="-99.8" font-family="Times,serif" font-size="14.00"> </text>
<text text-anchor="start" x="164" y="-99.8" font-family="Times,serif" font-style="italic" font-size="14.00">read_book</text>
</a>
</g>
<polyline fill="none" stroke="black" points="240,-92 246,-92 "/>
<g id="a_node8_7"><a xlink:href="../reference.html#read_book" xlink:title="read_book" target="_top">
<text text-anchor="start" x="130" y="-79.8" font-family="Times,serif" font-weight="bold" font-size="14.00">FN:</text>
<text text-anchor="start" x="158" y="-79.8" font-family="Times,serif" font-size="14.00"> read_book</text>
</a>
</g>
<path fill="none" stroke="black" d="M139,-72C139,-72 235,-72 235,-72 241,-72 247,-78 247,-84 247,-84 247,-102 247,-102 247,-108 241,-114 235,-114 235,-114 139,-114 139,-114 133,-114 127,-108 127,-102 127,-102 127,-84 127,-84 127,-78 133,-72 139,-72"/>
</a>
</g>
</g>
<!-- time&#45;&gt;read_book -->
<g id="edge5" class="edge">
<title>time&#45;&gt;read_book</title>
<path fill="none" stroke="black" d="M174.82,-153.27C176.53,-144.97 178.77,-134.05 180.87,-123.85"/>
<polygon fill="black" stroke="black" points="184.3,-124.51 182.89,-114.01 177.45,-123.1 184.3,-124.51"/>
</g>
<!-- fun -->
<g id="node6" class="node">
<title>fun</title>
<g id="a_node6"><a xlink:title="(str) relaxed">
<polygon fill="wheat" stroke="black" points="148,-23.56 121,-36 94,-23.56 94.03,-3.44 147.97,-3.44 148,-23.56"/>
<text text-anchor="middle" x="121" y="-14.3" font-family="Times,serif" font-size="14.00">fun</text>
</a>
</g>
</g>
<!-- exercise&#45;&gt;fun -->
<g id="edge6" class="edge">
<title>exercise&#45;&gt;fun</title>
<path fill="none" stroke="black" d="M73.38,-71.67C82.65,-61.41 93.85,-49.03 103.06,-38.84"/>
<polygon fill="black" stroke="black" points="105.83,-41 109.94,-31.23 100.64,-36.3 105.83,-41"/>
</g>
<!-- body -->
<g id="node7" class="node">
<title>body</title>
<g id="a_node7"><a xlink:title="(canceled)">
<polygon fill="#a9a9a9" stroke="black" points="76,-23.56 49,-36 22,-23.56 22.03,-3.44 75.97,-3.44 76,-23.56"/>
<text text-anchor="middle" x="49" y="-14.3" font-family="Times,serif" font-size="14.00">body</text>
</a>
</g>
</g>
<!-- exercise&#45;&gt;body -->
<g id="edge7" class="edge">
<title>exercise&#45;&gt;body</title>
<path fill="none" stroke="black" d="M53.33,-71.67C52.68,-63.72 51.92,-54.48 51.22,-45.99"/>
<polygon fill="black" stroke="black" points="54.69,-45.46 50.38,-35.78 47.71,-46.03 54.69,-45.46"/>
</g>
<!-- read_book&#45;&gt;fun -->
<g id="edge8" class="edge">
<title>read_book&#45;&gt;fun</title>
<path fill="none" stroke="black" d="M168.62,-71.67C159.35,-61.41 148.15,-49.03 138.94,-38.84"/>
<polygon fill="black" stroke="black" points="141.36,-36.3 132.06,-31.23 136.17,-41 141.36,-36.3"/>
</g>
<!-- brain -->
<g id="node9" class="node">
<title>brain</title>
<g id="a_node9"><a xlink:title="(str) popular physics">
<polygon fill="wheat" stroke="black" points="222.09,-23.56 194,-36 165.91,-23.56 165.94,-3.44 222.06,-3.44 222.09,-23.56"/>
<text text-anchor="middle" x="194" y="-14.3" font-family="Times,serif" font-size="14.00">brain</text>
</a>
</g>
</g>
<!-- read_book&#45;&gt;brain -->
<g id="edge9" class="edge">
<title>read_book&#45;&gt;brain</title>
<path fill="none" stroke="black" d="M188.95,-71.67C189.71,-63.72 190.6,-54.48 191.41,-45.99"/>
<polygon fill="black" stroke="black" points="194.92,-46.07 192.39,-35.78 187.95,-45.4 194.92,-46.07"/>
</g>
<!-- legend -->
<g id="node10" class="node">
<title>legend</title>
<g id="a_node10"><a xlink:href="https://graphtik.readthedocs.io/en/latest/_images/GraphtikLegend.svg" xlink:title="legend" target="_blank">
<polygon fill="yellow" stroke="black" points="259.5,-351 194.5,-351 194.5,-347 190.5,-347 190.5,-343 194.5,-343 194.5,-323 190.5,-323 190.5,-319 194.5,-319 194.5,-315 259.5,-315 259.5,-351"/>
<polyline fill="none" stroke="black" points="194.5,-347 198.5,-347 198.5,-343 194.5,-343 "/>
<polyline fill="none" stroke="black" points="194.5,-323 198.5,-323 198.5,-319 194.5,-319 "/>
<text text-anchor="middle" x="227" y="-329.3" font-family="Times,serif" font-size="14.00">legend</text>
</a>
</g>
</g>
</g>
</svg>
