<?xml version="1.0" encoding="UTF-8" standalone="no"?>
<!DOCTYPE svg PUBLIC "-//W3C//DTD SVG 1.1//EN"
 "http://www.w3.org/Graphics/SVG/1.1/DTD/svg11.dtd">
<!-- Generated by graphviz version 2.43.0 (0)
 -->
<!-- Title: solution_x9_nodes Pages: 1 -->
<svg width="271pt" height="359pt"
 viewBox="0.00 0.00 270.50 359.00" xmlns="http://www.w3.org/2000/svg" xmlns:xlink="http://www.w3.org/1999/xlink">
<g id="graph0" class="graph" transform="scale(1 1) rotate(0) translate(4 355)">
<title>solution_x9_nodes</title>
<polygon fill="white" stroke="transparent" points="-4,4 -4,-355 266.5,-355 266.5,4 -4,4"/>
<!-- quarantine -->
<g id="node1" class="node">
<title>quarantine</title>
<g id="a_node1"><a xlink:title="(bool) False">
<polygon fill="wheat" stroke="black" points="60.31,-327.44 120,-315 179.69,-327.44 179.64,-347.56 60.36,-347.56 60.31,-327.44"/>
<text text-anchor="middle" x="120" y="-329.3" font-family="Times,serif" font-size="14.00">quarantine</text>
</a>
</g>
</g>
<!-- get_out_or_stay_home -->
<g id="node2" class="node">
<title>get_out_or_stay_home</title>
<g id="a_node2"><a xlink:title="get_out_or_stay_home">
<path fill="wheat" stroke="transparent" d="M14,-224C14,-224 226,-224 226,-224 232,-224 238,-230 238,-236 238,-236 238,-265 238,-265 238,-271 232,-277 226,-277 226,-277 14,-277 14,-277 8,-277 2,-271 2,-265 2,-265 2,-236 2,-236 2,-230 8,-224 14,-224"/>
<g id="a_node2_0"><a xlink:title="FunctionalOperation?(name=&#39;get_out_or_stay_home&#39;, needs=[&#39;quarantine&#39;], provides=[&#39;space&#39;, &#39;time&#39;], fn{}=&#39;get_out_or_stay_home&#39;)" target="_top">
<polyline fill="none" stroke="black" points="4,-244.5 201,-244.5 "/>
<text text-anchor="start" x="7" y="-256.8" font-family="Times,serif" font-weight="bold" font-size="14.00">OP:</text>
<text text-anchor="start" x="35" y="-256.8" font-family="Times,serif" font-size="14.00"> </text>
<text text-anchor="start" x="40" y="-256.8" font-family="Times,serif" font-style="italic" font-size="14.00">get_out_or_stay_home</text>
</a>
</g>
<polyline fill="none" stroke="black" points="201,-244.5 236,-244.5 "/>
<g id="a_node2_1"><a xlink:href="https://graphtik.readthedocs.io/en/latest/arch.html#term-partial-outputs" xlink:title="rescheduled" target="_blank">
<path fill="#fc89ac" stroke="transparent" d="M209.33,-248.5C209.33,-248.5 213.67,-248.5 213.67,-248.5 215.83,-248.5 218,-250.67 218,-252.83 218,-252.83 218,-266.17 218,-266.17 218,-268.33 215.83,-270.5 213.67,-270.5 213.67,-270.5 209.33,-270.5 209.33,-270.5 207.17,-270.5 205,-268.33 205,-266.17 205,-266.17 205,-252.83 205,-252.83 205,-250.67 207.17,-248.5 209.33,-248.5"/>
<text text-anchor="start" x="207" y="-255.3" font-family="monospace" font-weight="bold" font-size="14.00" fill="white">?</text>
</a>
</g>
<g id="a_node2_2"><a xlink:href="https://graphtik.readthedocs.io/en/latest/arch.html#term-returns-dict" xlink:title="returns_dict" target="_blank">
<path fill="#cc5500" stroke="transparent" d="M223.33,-248.5C223.33,-248.5 227.67,-248.5 227.67,-248.5 229.83,-248.5 232,-250.67 232,-252.83 232,-252.83 232,-266.17 232,-266.17 232,-268.33 229.83,-270.5 227.67,-270.5 227.67,-270.5 223.33,-270.5 223.33,-270.5 221.17,-270.5 219,-268.33 219,-266.17 219,-266.17 219,-252.83 219,-252.83 219,-250.67 221.17,-248.5 223.33,-248.5"/>
<text text-anchor="start" x="221" y="-255.3" font-family="monospace" font-weight="bold" font-size="14.00" fill="white">}</text>
</a>
</g>
<g id="a_node2_3"><a xlink:href="../reference.html#get_out_or_stay_home" xlink:title="sol = pipeline(quarantine=False).plot(&#39;t.svg&#39;)" target="_top">
<text text-anchor="start" x="6" y="-232.3" font-family="Times,serif" font-weight="bold" font-size="14.00">FN:</text>
<text text-anchor="start" x="34" y="-232.3" font-family="Times,serif" font-size="14.00"> get_out_or_stay_home</text>
</a>
</g>
<path fill="none" stroke="black" stroke-width="4" d="M14,-224C14,-224 226,-224 226,-224 232,-224 238,-230 238,-236 238,-236 238,-265 238,-265 238,-271 232,-277 226,-277 226,-277 14,-277 14,-277 8,-277 2,-271 2,-265 2,-265 2,-236 2,-236 2,-230 8,-224 14,-224"/>
</a>
</g>
</g>
<!-- quarantine&#45;&gt;get_out_or_stay_home -->
<g id="edge1" class="edge">
<title>quarantine:s&#45;&gt;get_out_or_stay_home:n</title>
<path fill="none" stroke="black" d="M120,-306.82C120,-300.05 120,-295.53 120,-289.18"/>
<ellipse fill="black" stroke="black" cx="120" cy="-311" rx="4" ry="4"/>
<polygon fill="black" stroke="black" points="123.5,-289 120,-279 116.5,-289 123.5,-289"/>
</g>
<!-- space -->
<g id="node3" class="node">
<title>space</title>
<g id="a_node3"><a xlink:title="(str) around the block">
<polygon fill="wheat" stroke="black" points="113.91,-173.56 81,-186 48.09,-173.56 48.12,-153.44 113.88,-153.44 113.91,-173.56"/>
<text text-anchor="middle" x="81" y="-164.3" font-family="Times,serif" font-size="14.00">space</text>
</a>
</g>
</g>
<!-- get_out_or_stay_home&#45;&gt;space -->
<g id="edge2" class="edge">
<title>get_out_or_stay_home:s&#45;&gt;space:n</title>
<path fill="none" stroke="black" stroke-dasharray="5,2" d="M120,-222C120,-202.65 93.76,-206.69 84.33,-195.75"/>
<polygon fill="black" stroke="black" points="87.54,-194.34 81,-186 80.91,-196.59 87.54,-194.34"/>
</g>
<!-- time -->
<g id="node4" class="node">
<title>time</title>
<g id="a_node4"><a xlink:title="(canceled)">
<polygon fill="#a9a9a9" stroke="black" points="199.19,-173.56 172,-186 144.81,-173.56 144.84,-153.44 199.16,-153.44 199.19,-173.56"/>
<text text-anchor="middle" x="172" y="-164.3" font-family="Times,serif" font-size="14.00">time</text>
</a>
</g>
</g>
<!-- get_out_or_stay_home&#45;&gt;time -->
<g id="edge3" class="edge">
<title>get_out_or_stay_home:s&#45;&gt;time:n</title>
<path fill="none" stroke="black" stroke-dasharray="5,2" d="M120,-222C120,-198.06 157.71,-209.17 168.9,-195.64"/>
<polygon fill="black" stroke="black" points="172.27,-196.59 172,-186 165.61,-194.45 172.27,-196.59"/>
</g>
<!-- exercise -->
<g id="node5" class="node">
<title>exercise</title>
<g id="a_node5"><a xlink:title="exercise">
<path fill="wheat" stroke="transparent" d="M12.5,-72C12.5,-72 95.5,-72 95.5,-72 101.5,-72 107.5,-78 107.5,-84 107.5,-84 107.5,-102 107.5,-102 107.5,-108 101.5,-114 95.5,-114 95.5,-114 12.5,-114 12.5,-114 6.5,-114 0.5,-108 0.5,-102 0.5,-102 0.5,-84 0.5,-84 0.5,-78 6.5,-72 12.5,-72"/>
<g id="a_node5_4"><a xlink:title="FunctionalOperation(name=&#39;exercise&#39;, needs=[&#39;space&#39;], provides=[&#39;fun&#39;, &#39;body&#39;], fn=&#39;exercise&#39;)" target="_top">
<polyline fill="none" stroke="black" points="2,-92 101,-92 "/>
<text text-anchor="start" x="5" y="-99.8" font-family="Times,serif" font-weight="bold" font-size="14.00">OP:</text>
<text text-anchor="start" x="33" y="-99.8" font-family="Times,serif" font-size="14.00"> </text>
<text text-anchor="start" x="38" y="-99.8" font-family="Times,serif" font-style="italic" font-size="14.00">exercise</text>
</a>
</g>
<polyline fill="none" stroke="black" points="101,-92 107,-92 "/>
<g id="a_node5_5"><a xlink:href="../reference.html#exercise" xlink:title="exercise" target="_top">
<text text-anchor="start" x="4" y="-79.8" font-family="Times,serif" font-weight="bold" font-size="14.00">FN:</text>
<text text-anchor="start" x="32" y="-79.8" font-family="Times,serif" font-size="14.00"> exercise</text>
</a>
</g>
<path fill="none" stroke="black" d="M12.5,-72C12.5,-72 95.5,-72 95.5,-72 101.5,-72 107.5,-78 107.5,-84 107.5,-84 107.5,-102 107.5,-102 107.5,-108 101.5,-114 95.5,-114 95.5,-114 12.5,-114 12.5,-114 6.5,-114 0.5,-108 0.5,-102 0.5,-102 0.5,-84 0.5,-84 0.5,-78 6.5,-72 12.5,-72"/>
</a>
</g>
</g>
<!-- space&#45;&gt;exercise -->
<g id="edge4" class="edge">
<title>space:s&#45;&gt;exercise:n</title>
<path fill="none" stroke="black" d="M79.23,-143.87C74.63,-134.6 62.28,-132.26 56.75,-123.83"/>
<ellipse fill="black" stroke="black" cx="80.15" cy="-148.09" rx="4" ry="4"/>
<polygon fill="black" stroke="black" points="60.06,-122.69 54,-114 53.32,-124.57 60.06,-122.69"/>
</g>
<!-- read_book -->
<g id="node8" class="node">
<title>read_book</title>
<g id="a_node8"><a xlink:title="read_book">
<path fill="#a9a9a9" stroke="transparent" d="M138,-72C138,-72 234,-72 234,-72 240,-72 246,-78 246,-84 246,-84 246,-102 246,-102 246,-108 240,-114 234,-114 234,-114 138,-114 138,-114 132,-114 126,-108 126,-102 126,-102 126,-84 126,-84 126,-78 132,-72 138,-72"/>
<g id="a_node8_6"><a xlink:title="FunctionalOperation(name=&#39;read_book&#39;, needs=[&#39;time&#39;], provides=[&#39;fun&#39;, &#39;brain&#39;], fn=&#39;read_book&#39;)" target="_top">
<polyline fill="none" stroke="black" points="127,-92 239,-92 "/>
<text text-anchor="start" x="130" y="-99.8" font-family="Times,serif" font-weight="bold" font-size="14.00">OP:</text>
<text text-anchor="start" x="158" y="-99.8" font-family="Times,serif" font-size="14.00"> </text>
<text text-anchor="start" x="163" y="-99.8" font-family="Times,serif" font-style="italic" font-size="14.00">read_book</text>
</a>
</g>
<polyline fill="none" stroke="black" points="239,-92 245,-92 "/>
<g id="a_node8_7"><a xlink:href="../reference.html#read_book" xlink:title="read_book" target="_top">
<text text-anchor="start" x="129" y="-79.8" font-family="Times,serif" font-weight="bold" font-size="14.00">FN:</text>
<text text-anchor="start" x="157" y="-79.8" font-family="Times,serif" font-size="14.00"> read_book</text>
</a>
</g>
<path fill="none" stroke="black" d="M138,-72C138,-72 234,-72 234,-72 240,-72 246,-78 246,-84 246,-84 246,-102 246,-102 246,-108 240,-114 234,-114 234,-114 138,-114 138,-114 132,-114 126,-108 126,-102 126,-102 126,-84 126,-84 126,-78 132,-72 138,-72"/>
</a>
</g>
</g>
<!-- time&#45;&gt;read_book -->
<g id="edge5" class="edge">
<title>time:s&#45;&gt;read_book:n</title>
<path fill="none" stroke="Red" d="M173.1,-143.97C175.52,-135.8 181.34,-131.5 184.27,-123.9"/>
<ellipse fill="Red" stroke="Red" cx="172.54" cy="-148.04" rx="4" ry="4"/>
<polygon fill="Red" stroke="Red" points="187.72,-124.45 186,-114 180.83,-123.25 187.72,-124.45"/>
</g>
<!-- fun -->
<g id="node6" class="node">
<title>fun</title>
<g id="a_node6"><a xlink:title="(str) refreshed">
<polygon fill="wheat" stroke="black" points="146,-23.56 119,-36 92,-23.56 92.03,-3.44 145.97,-3.44 146,-23.56"/>
<text text-anchor="middle" x="119" y="-14.3" font-family="Times,serif" font-size="14.00">fun</text>
</a>
</g>
</g>
<!-- exercise&#45;&gt;fun -->
<g id="edge6" class="edge">
<title>exercise:s&#45;&gt;fun:n</title>
<path fill="none" stroke="black" d="M54,-72C54,-43.1 103.77,-62.5 116.21,-45.67"/>
<polygon fill="black" stroke="black" points="119.59,-46.58 119,-36 112.86,-44.64 119.59,-46.58"/>
</g>
<!-- body -->
<g id="node7" class="node">
<title>body</title>
<g id="a_node7"><a xlink:title="(str) strong feet">
<polygon fill="wheat" stroke="black" points="73.99,-23.56 45,-36 16.01,-23.56 16.03,-3.44 73.97,-3.44 73.99,-23.56"/>
<text text-anchor="middle" x="45" y="-14.3" font-family="Times,serif" font-size="14.00">body</text>
</a>
</g>
</g>
<!-- exercise&#45;&gt;body -->
<g id="edge7" class="edge">
<title>exercise:s&#45;&gt;body:n</title>
<path fill="none" stroke="black" d="M54,-72C54,-59.5 48.83,-54.74 46.33,-45.99"/>
<polygon fill="black" stroke="black" points="49.79,-45.45 45,-36 42.85,-46.37 49.79,-45.45"/>
</g>
<!-- read_book&#45;&gt;fun -->
<g id="edge8" class="edge">
<title>read_book:s&#45;&gt;fun:n</title>
<path fill="none" stroke="black" d="M186,-72C186,-42.42 134.7,-62.92 121.88,-45.87"/>
<polygon fill="black" stroke="black" points="125.16,-44.62 119,-36 118.44,-46.58 125.16,-44.62"/>
</g>
<!-- brain -->
<g id="node9" class="node">
<title>brain</title>
<g id="a_node9"><a xlink:title="(canceled)">
<polygon fill="#a9a9a9" stroke="black" points="225.7,-23.56 195,-36 164.3,-23.56 164.33,-3.44 225.67,-3.44 225.7,-23.56"/>
<text text-anchor="middle" x="195" y="-14.3" font-family="Times,serif" font-size="14.00">brain</text>
</a>
</g>
</g>
<!-- read_book&#45;&gt;brain -->
<g id="edge9" class="edge">
<title>read_book:s&#45;&gt;brain:n</title>
<path fill="none" stroke="black" d="M186,-72C186,-59.5 191.17,-54.74 193.67,-45.99"/>
<polygon fill="black" stroke="black" points="197.15,-46.37 195,-36 190.21,-45.45 197.15,-46.37"/>
</g>
<!-- legend -->
<g id="node10" class="node">
<title>legend</title>
<g id="a_node10"><a xlink:href="https://graphtik.readthedocs.io/en/latest/_images/GraphtikLegend.svg" xlink:title="legend" target="_blank">
<polygon fill="yellow" stroke="black" points="262.5,-351 197.5,-351 197.5,-347 193.5,-347 193.5,-343 197.5,-343 197.5,-323 193.5,-323 193.5,-319 197.5,-319 197.5,-315 262.5,-315 262.5,-351"/>
<polyline fill="none" stroke="black" points="197.5,-347 201.5,-347 201.5,-343 197.5,-343 "/>
<polyline fill="none" stroke="black" points="197.5,-323 201.5,-323 201.5,-319 197.5,-319 "/>
<text text-anchor="middle" x="230" y="-329.3" font-family="Times,serif" font-size="14.00">legend</text>
</a>
</g>
</g>
</g>
</svg>
