<?xml version="1.0" encoding="UTF-8" standalone="no"?>
<!DOCTYPE svg PUBLIC "-//W3C//DTD SVG 1.1//EN"
 "http://www.w3.org/Graphics/SVG/1.1/DTD/svg11.dtd">
<!-- Generated by graphviz version 2.43.0 (0)
 -->
<!-- Title: solution_x9_nodes Pages: 1 -->
<svg width="282pt" height="368pt"
 viewBox="0.00 0.00 281.50 368.00" xmlns="http://www.w3.org/2000/svg" xmlns:xlink="http://www.w3.org/1999/xlink">
<g id="graph0" class="graph" transform="scale(1 1) rotate(0) translate(4 364)">
<title>solution_x9_nodes</title>
<g id="a_graph0"><a xlink:href="graphtik-pipelines--16.svg" target="_blank">
<polygon fill="white" stroke="transparent" points="-4,4 -4,-364 277.5,-364 277.5,4 -4,4"/>
</a>
</g>
<!-- quarantine -->
<g id="node1" class="node">
<title>quarantine</title>
<g id="a_node1"><a xlink:title="(input)&#10;(bool) True">
<polygon fill="wheat" stroke="black" points="106.5,-336.44 133.5,-324 160.5,-336.44 160.47,-356.56 106.53,-356.56 106.5,-336.44"/>
<text text-anchor="start" x="94.5" y="-337.8" font-family="Times,serif" font-size="14.00">quarantine</text>
</a>
</g>
</g>
<!-- get_out_or_stay_home -->
<g id="node2" class="node">
<title>get_out_or_stay_home</title>
<g id="a_node2"><a xlink:title="get_out_or_stay_home">
<path fill="wheat" stroke="transparent" d="M22,-233C22,-233 245,-233 245,-233 251,-233 257,-239 257,-245 257,-245 257,-274 257,-274 257,-280 251,-286 245,-286 245,-286 22,-286 22,-286 16,-286 10,-280 10,-274 10,-274 10,-245 10,-245 10,-239 16,-233 22,-233"/>
<g id="a_node2_0"><a xlink:href="../reference.html#get_out_or_stay_home" xlink:title="FnOp?(name=&#39;get_out_or_stay_home&#39;, needs=[&#39;quarantine&#39;], provides=[&#39;space&#39;, &#39;time&#39;], fn{}=&#39;get_out_or_stay_home&#39;)" target="_top">
<polyline fill="none" stroke="black" points="12.5,-253.5 209.5,-253.5 "/>
<text text-anchor="start" x="15.5" y="-265.8" font-family="Times,serif" font-weight="bold" font-size="14.00">OP:</text>
<text text-anchor="start" x="43.5" y="-265.8" font-family="Times,serif" font-size="14.00"> </text>
<text text-anchor="start" x="48.5" y="-265.8" font-family="Times,serif" font-style="italic" font-size="14.00">get_out_or_stay_home</text>
</a>
</g>
<polyline fill="none" stroke="black" points="209.5,-253.5 255.5,-253.5 "/>
<g id="a_node2_1"><a xlink:title="step order" target="_blank">
<path fill="#00bbbb" stroke="transparent" d="M217.5,-257.5C217.5,-257.5 221.5,-257.5 221.5,-257.5 223.5,-257.5 225.5,-259.5 225.5,-261.5 225.5,-261.5 225.5,-275.5 225.5,-275.5 225.5,-277.5 223.5,-279.5 221.5,-279.5 221.5,-279.5 217.5,-279.5 217.5,-279.5 215.5,-279.5 213.5,-277.5 213.5,-275.5 213.5,-275.5 213.5,-261.5 213.5,-261.5 213.5,-259.5 215.5,-257.5 217.5,-257.5"/>
<text text-anchor="start" x="215" y="-264.3" font-family="monospace" font-weight="bold" font-size="14.00" fill="white">0</text>
</a>
</g>
<g id="a_node2_2"><a xlink:href="https://graphtik.readthedocs.io/en/latest/arch.html#term-partial-outputs" xlink:title="rescheduled" target="_blank">
<path fill="#fc89ac" stroke="transparent" d="M230.5,-257.5C230.5,-257.5 234.5,-257.5 234.5,-257.5 236.5,-257.5 238.5,-259.5 238.5,-261.5 238.5,-261.5 238.5,-275.5 238.5,-275.5 238.5,-277.5 236.5,-279.5 234.5,-279.5 234.5,-279.5 230.5,-279.5 230.5,-279.5 228.5,-279.5 226.5,-277.5 226.5,-275.5 226.5,-275.5 226.5,-261.5 226.5,-261.5 226.5,-259.5 228.5,-257.5 230.5,-257.5"/>
<text text-anchor="start" x="228" y="-264.3" font-family="monospace" font-weight="bold" font-size="14.00" fill="white">?</text>
</a>
</g>
<g id="a_node2_3"><a xlink:href="https://graphtik.readthedocs.io/en/latest/arch.html#term-returns-dictionary" xlink:title="returns_dict" target="_blank">
<path fill="#cc5500" stroke="transparent" d="M243.5,-257.5C243.5,-257.5 247.5,-257.5 247.5,-257.5 249.5,-257.5 251.5,-259.5 251.5,-261.5 251.5,-261.5 251.5,-275.5 251.5,-275.5 251.5,-277.5 249.5,-279.5 247.5,-279.5 247.5,-279.5 243.5,-279.5 243.5,-279.5 241.5,-279.5 239.5,-277.5 239.5,-275.5 239.5,-275.5 239.5,-261.5 239.5,-261.5 239.5,-259.5 241.5,-257.5 243.5,-257.5"/>
<text text-anchor="start" x="241" y="-264.3" font-family="monospace" font-weight="bold" font-size="14.00" fill="white">}</text>
</a>
</g>
<g id="a_node2_4"><a xlink:href="../reference.html#get_out_or_stay_home" xlink:title="get_out_or_stay_home" target="_top">
<text text-anchor="start" x="14.5" y="-241.3" font-family="Times,serif" font-weight="bold" font-size="14.00">FN:</text>
<text text-anchor="start" x="42.5" y="-241.3" font-family="Times,serif" font-size="14.00"> get_out_or_stay_home</text>
</a>
</g>
<path fill="none" stroke="black" stroke-width="4" d="M22,-233C22,-233 245,-233 245,-233 251,-233 257,-239 257,-245 257,-245 257,-274 257,-274 257,-280 251,-286 245,-286 245,-286 22,-286 22,-286 16,-286 10,-280 10,-274 10,-274 10,-245 10,-245 10,-239 16,-233 22,-233"/>
</a>
</g>
</g>
<!-- quarantine&#45;&gt;get_out_or_stay_home -->
<g id="edge1" class="edge">
<title>quarantine:s&#45;&gt;get_out_or_stay_home:n</title>
<path fill="none" stroke="black" d="M133.5,-313.88C133.5,-305.25 133.5,-300 133.5,-288"/>
<polygon fill="black" stroke="black" points="130,-324 133.5,-314 137,-324 130,-324"/>
</g>
<!-- space -->
<g id="node3" class="node">
<title>space</title>
<g id="a_node3"><a xlink:title="(output)&#10;(missing&#45;optional or canceled)">
<polygon fill="none" stroke="#a9a9a9" points="122.5,-182.56 95.5,-195 68.5,-182.56 68.53,-162.44 122.47,-162.44 122.5,-182.56"/>
<text text-anchor="start" x="75.5" y="-172.8" font-family="Times,serif" font-size="14.00" fill="#a9a9a9">space</text>
</a>
</g>
</g>
<!-- get_out_or_stay_home&#45;&gt;space -->
<g id="edge2" class="edge">
<title>get_out_or_stay_home:s&#45;&gt;space:n</title>
<path fill="none" stroke="Red" stroke-dasharray="5,2" d="M133.5,-231C133.5,-211.66 107.93,-215.02 98.74,-203.83"/>
<polygon fill="Red" stroke="Red" points="101.95,-202.4 95.5,-194 95.31,-204.59 101.95,-202.4"/>
</g>
<!-- time -->
<g id="node4" class="node">
<title>time</title>
<g id="a_node4"><a xlink:title="(output)&#10;(str) 1h">
<polygon fill="wheat" stroke="black" points="215.5,-182.56 188.5,-195 161.5,-182.56 161.53,-162.44 215.47,-162.44 215.5,-182.56"/>
<text text-anchor="start" x="172.5" y="-172.8" font-family="Times,serif" font-size="14.00">time</text>
</a>
</g>
</g>
<!-- get_out_or_stay_home&#45;&gt;time -->
<g id="edge3" class="edge">
<title>get_out_or_stay_home:s&#45;&gt;time:n</title>
<path fill="none" stroke="black" stroke-dasharray="5,2" d="M133.5,-231C133.5,-205.68 174.12,-218.31 185.54,-203.67"/>
<polygon fill="black" stroke="black" points="188.92,-204.59 188.5,-194 182.23,-202.54 188.92,-204.59"/>
</g>
<!-- exercise -->
<g id="node5" class="node">
<title>exercise</title>
<g id="a_node5"><a xlink:title="exercise">
<path fill="#a9a9a9" stroke="transparent" d="M12,-72C12,-72 109,-72 109,-72 115,-72 121,-78 121,-84 121,-84 121,-111 121,-111 121,-117 115,-123 109,-123 109,-123 12,-123 12,-123 6,-123 0,-117 0,-111 0,-111 0,-84 0,-84 0,-78 6,-72 12,-72"/>
<g id="a_node5_5"><a xlink:href="../reference.html#exercise" xlink:title="FnOp(name=&#39;exercise&#39;, needs=[&#39;space&#39;], provides=[&#39;fun&#39;, &#39;body&#39;], fn=&#39;exercise&#39;)" target="_top">
<polyline fill="none" stroke="black" points="1.5,-91.5 100.5,-91.5 "/>
<text text-anchor="start" x="4.5" y="-103.8" font-family="Times,serif" font-weight="bold" font-size="14.00">OP:</text>
<text text-anchor="start" x="32.5" y="-103.8" font-family="Times,serif" font-size="14.00"> </text>
<text text-anchor="start" x="37.5" y="-103.8" font-family="Times,serif" font-style="italic" font-size="14.00">exercise</text>
</a>
</g>
<polyline fill="none" stroke="black" points="100.5,-91.5 120.5,-91.5 "/>
<g id="a_node5_6"><a xlink:title="step order" target="_blank">
<path fill="#00bbbb" stroke="transparent" d="M108.5,-95.5C108.5,-95.5 112.5,-95.5 112.5,-95.5 114.5,-95.5 116.5,-97.5 116.5,-99.5 116.5,-99.5 116.5,-113.5 116.5,-113.5 116.5,-115.5 114.5,-117.5 112.5,-117.5 112.5,-117.5 108.5,-117.5 108.5,-117.5 106.5,-117.5 104.5,-115.5 104.5,-113.5 104.5,-113.5 104.5,-99.5 104.5,-99.5 104.5,-97.5 106.5,-95.5 108.5,-95.5"/>
<text text-anchor="start" x="106" y="-102.3" font-family="monospace" font-weight="bold" font-size="14.00" fill="white">1</text>
</a>
</g>
<g id="a_node5_7"><a xlink:href="../reference.html#exercise" xlink:title="exercise" target="_top">
<text text-anchor="start" x="3.5" y="-79.3" font-family="Times,serif" font-weight="bold" font-size="14.00">FN:</text>
<text text-anchor="start" x="31.5" y="-79.3" font-family="Times,serif" font-size="14.00"> exercise</text>
</a>
</g>
<path fill="none" stroke="black" d="M12,-72C12,-72 109,-72 109,-72 115,-72 121,-78 121,-84 121,-84 121,-111 121,-111 121,-117 115,-123 109,-123 109,-123 12,-123 12,-123 6,-123 0,-117 0,-111 0,-111 0,-84 0,-84 0,-78 6,-72 12,-72"/>
</a>
</g>
</g>
<!-- space&#45;&gt;exercise -->
<g id="edge4" class="edge">
<title>space:s&#45;&gt;exercise:n</title>
<path fill="none" stroke="black" d="M92.52,-151.26C84.05,-139.89 60.5,-141.84 60.5,-123"/>
<polygon fill="black" stroke="black" points="92.15,-162.02 92.57,-151.44 98.85,-159.98 92.15,-162.02"/>
</g>
<!-- read_book -->
<g id="node8" class="node">
<title>read_book</title>
<g id="a_node8"><a xlink:title="read_book">
<path fill="wheat" stroke="transparent" d="M151.5,-72C151.5,-72 261.5,-72 261.5,-72 267.5,-72 273.5,-78 273.5,-84 273.5,-84 273.5,-111 273.5,-111 273.5,-117 267.5,-123 261.5,-123 261.5,-123 151.5,-123 151.5,-123 145.5,-123 139.5,-117 139.5,-111 139.5,-111 139.5,-84 139.5,-84 139.5,-78 145.5,-72 151.5,-72"/>
<g id="a_node8_8"><a xlink:href="../reference.html#read_book" xlink:title="FnOp(name=&#39;read_book&#39;, needs=[&#39;time&#39;], provides=[&#39;fun&#39;, &#39;brain&#39;], fn=&#39;read_book&#39;)" target="_top">
<polyline fill="none" stroke="black" points="140.5,-91.5 252.5,-91.5 "/>
<text text-anchor="start" x="143.5" y="-103.8" font-family="Times,serif" font-weight="bold" font-size="14.00">OP:</text>
<text text-anchor="start" x="171.5" y="-103.8" font-family="Times,serif" font-size="14.00"> </text>
<text text-anchor="start" x="176.5" y="-103.8" font-family="Times,serif" font-style="italic" font-size="14.00">read_book</text>
</a>
</g>
<polyline fill="none" stroke="black" points="252.5,-91.5 272.5,-91.5 "/>
<g id="a_node8_9"><a xlink:title="step order" target="_blank">
<path fill="#00bbbb" stroke="transparent" d="M260.5,-95.5C260.5,-95.5 264.5,-95.5 264.5,-95.5 266.5,-95.5 268.5,-97.5 268.5,-99.5 268.5,-99.5 268.5,-113.5 268.5,-113.5 268.5,-115.5 266.5,-117.5 264.5,-117.5 264.5,-117.5 260.5,-117.5 260.5,-117.5 258.5,-117.5 256.5,-115.5 256.5,-113.5 256.5,-113.5 256.5,-99.5 256.5,-99.5 256.5,-97.5 258.5,-95.5 260.5,-95.5"/>
<text text-anchor="start" x="258" y="-102.3" font-family="monospace" font-weight="bold" font-size="14.00" fill="white">2</text>
</a>
</g>
<g id="a_node8_10"><a xlink:href="../reference.html#read_book" xlink:title="read_book" target="_top">
<text text-anchor="start" x="142.5" y="-79.3" font-family="Times,serif" font-weight="bold" font-size="14.00">FN:</text>
<text text-anchor="start" x="170.5" y="-79.3" font-family="Times,serif" font-size="14.00"> read_book</text>
</a>
</g>
<path fill="none" stroke="black" d="M151.5,-72C151.5,-72 261.5,-72 261.5,-72 267.5,-72 273.5,-78 273.5,-84 273.5,-84 273.5,-111 273.5,-111 273.5,-117 267.5,-123 261.5,-123 261.5,-123 151.5,-123 151.5,-123 145.5,-123 139.5,-117 139.5,-111 139.5,-111 139.5,-84 139.5,-84 139.5,-78 145.5,-72 151.5,-72"/>
</a>
</g>
</g>
<!-- time&#45;&gt;read_book -->
<g id="edge5" class="edge">
<title>time:s&#45;&gt;read_book:n</title>
<path fill="none" stroke="black" d="M190.71,-150.95C195.51,-141.17 206.5,-137.6 206.5,-123"/>
<polygon fill="black" stroke="black" points="185.08,-160.25 190.65,-151.23 191.92,-161.75 185.08,-160.25"/>
</g>
<!-- fun -->
<g id="node6" class="node">
<title>fun</title>
<g id="a_node6"><a xlink:title="(output)&#10;(str) relaxed">
<polygon fill="wheat" stroke="black" points="160.5,-23.56 133.5,-36 106.5,-23.56 106.53,-3.44 160.47,-3.44 160.5,-23.56"/>
<text text-anchor="start" x="121.5" y="-13.8" font-family="Times,serif" font-size="14.00">fun</text>
</a>
</g>
</g>
<!-- exercise&#45;&gt;fun -->
<g id="edge6" class="edge">
<title>exercise:s&#45;&gt;fun:n</title>
<path fill="none" stroke="black" d="M60.5,-72C60.5,-39.75 117.9,-64.2 130.9,-44.79"/>
<polygon fill="black" stroke="black" points="134.32,-45.56 133.5,-35 127.55,-43.77 134.32,-45.56"/>
</g>
<!-- body -->
<g id="node7" class="node">
<title>body</title>
<g id="a_node7"><a xlink:title="(output)&#10;(missing&#45;optional or canceled)">
<polygon fill="none" stroke="#a9a9a9" points="87.5,-23.56 60.5,-36 33.5,-23.56 33.53,-3.44 87.47,-3.44 87.5,-23.56"/>
<text text-anchor="start" x="43.5" y="-13.8" font-family="Times,serif" font-size="14.00" fill="#a9a9a9">body</text>
</a>
</g>
</g>
<!-- exercise&#45;&gt;body -->
<g id="edge7" class="edge">
<title>exercise:s&#45;&gt;body:n</title>
<path fill="none" stroke="black" d="M60.5,-72C60.5,-60 60.5,-54.75 60.5,-46.12"/>
<polygon fill="black" stroke="black" points="64,-46 60.5,-36 57,-46 64,-46"/>
</g>
<!-- read_book&#45;&gt;fun -->
<g id="edge8" class="edge">
<title>read_book:s&#45;&gt;fun:n</title>
<path fill="none" stroke="black" d="M206.5,-72C206.5,-39.75 149.1,-64.2 136.1,-44.79"/>
<polygon fill="black" stroke="black" points="139.45,-43.77 133.5,-35 132.68,-45.56 139.45,-43.77"/>
</g>
<!-- brain -->
<g id="node9" class="node">
<title>brain</title>
<g id="a_node9"><a xlink:title="(output)&#10;(str) popular physics">
<polygon fill="wheat" stroke="black" points="234.5,-23.56 207.5,-36 180.5,-23.56 180.53,-3.44 234.47,-3.44 234.5,-23.56"/>
<text text-anchor="start" x="188.5" y="-13.8" font-family="Times,serif" font-size="14.00">brain</text>
</a>
</g>
</g>
<!-- read_book&#45;&gt;brain -->
<g id="edge9" class="edge">
<title>read_book:s&#45;&gt;brain:n</title>
<path fill="none" stroke="black" d="M206.5,-72C206.5,-60 207.06,-54.75 207.34,-46.13"/>
<polygon fill="black" stroke="black" points="210.85,-46.05 207.5,-36 203.85,-45.94 210.85,-46.05"/>
</g>
<!-- legend -->
<g id="node10" class="node">
<title>legend</title>
<g id="a_node10"><a xlink:href="https://graphtik.readthedocs.io/en/latest/_images/GraphtikLegend.svg" xlink:title="legend" target="_blank">
<polygon fill="yellow" stroke="black" points="266,-360 201,-360 201,-356 197,-356 197,-352 201,-352 201,-332 197,-332 197,-328 201,-328 201,-324 266,-324 266,-360"/>
<polyline fill="none" stroke="black" points="201,-356 205,-356 205,-352 201,-352 "/>
<polyline fill="none" stroke="black" points="201,-332 205,-332 205,-328 201,-328 "/>
<text text-anchor="middle" x="233.5" y="-338.3" font-family="Times,serif" font-size="14.00">legend</text>
</a>
</g>
</g>
</g>
</svg>
